<mxfile host="app.diagrams.net" modified="2022-11-30T14:57:01.295Z" agent="5.0 (X11)" version="20.6.0" etag="5ZLm7lWQRO8_STzgs3ez" type="github">
  <diagram id="NhbKlgfXsyA-4ZwFhEMy" name="Page-1">
    <mxGraphModel dx="1588" dy="965" grid="0" gridSize="10" guides="1" tooltips="1" connect="1" arrows="1" fold="1" page="1" pageScale="1" pageWidth="3300" pageHeight="2339" math="0" shadow="0">
      <root>
        <mxCell id="0" />
        <mxCell id="1" parent="0" />
        <mxCell id="90lTsXC68kQ85smlPDXi-11" style="edgeStyle=orthogonalEdgeStyle;rounded=0;orthogonalLoop=1;jettySize=auto;html=1;entryX=0;entryY=0.25;entryDx=0;entryDy=0;strokeWidth=3;strokeColor=#0000FF;" edge="1" parent="1" source="90lTsXC68kQ85smlPDXi-3" target="90lTsXC68kQ85smlPDXi-7">
          <mxGeometry relative="1" as="geometry" />
        </mxCell>
        <mxCell id="90lTsXC68kQ85smlPDXi-3" value="" style="shape=image;verticalLabelPosition=bottom;labelBackgroundColor=default;verticalAlign=top;aspect=fixed;imageAspect=0;image=https://wp.technologyreview.com/wp-content/uploads/2019/07/screen-shot-2019-07-26-at-2.05.21-pm-copy-10.png;" vertex="1" parent="1">
          <mxGeometry x="1057" y="972" width="321.12" height="155" as="geometry" />
        </mxCell>
        <mxCell id="90lTsXC68kQ85smlPDXi-9" style="edgeStyle=orthogonalEdgeStyle;rounded=0;orthogonalLoop=1;jettySize=auto;html=1;entryX=0;entryY=0.75;entryDx=0;entryDy=0;strokeWidth=3;strokeColor=#FF3333;" edge="1" parent="1" source="90lTsXC68kQ85smlPDXi-5" target="90lTsXC68kQ85smlPDXi-7">
          <mxGeometry relative="1" as="geometry" />
        </mxCell>
        <mxCell id="90lTsXC68kQ85smlPDXi-5" value="" style="shape=image;verticalLabelPosition=bottom;labelBackgroundColor=default;verticalAlign=top;aspect=fixed;imageAspect=0;image=https://hdrplusdata.org/dataset_thumbs.jpg;" vertex="1" parent="1">
          <mxGeometry x="1059" y="1174" width="312.37" height="176" as="geometry" />
        </mxCell>
        <mxCell id="90lTsXC68kQ85smlPDXi-13" style="edgeStyle=orthogonalEdgeStyle;rounded=0;orthogonalLoop=1;jettySize=auto;html=1;strokeColor=#000000;strokeWidth=2;" edge="1" parent="1" source="90lTsXC68kQ85smlPDXi-7" target="90lTsXC68kQ85smlPDXi-12">
          <mxGeometry relative="1" as="geometry" />
        </mxCell>
        <mxCell id="90lTsXC68kQ85smlPDXi-7" value="" style="shape=image;verticalLabelPosition=bottom;labelBackgroundColor=default;verticalAlign=top;aspect=fixed;imageAspect=0;image=https://openai.com/content/images/2021/01/2x-no-mark.jpg;" vertex="1" parent="1">
          <mxGeometry x="1449" y="1009" width="209.03" height="278" as="geometry" />
        </mxCell>
        <mxCell id="90lTsXC68kQ85smlPDXi-12" value="" style="shape=image;verticalLabelPosition=bottom;labelBackgroundColor=default;verticalAlign=top;aspect=fixed;imageAspect=0;image=https://www.mathworks.com/matlabcentral/mlc-downloads/downloads/submissions/41946/versions/2/screenshot.png;" vertex="1" parent="1">
          <mxGeometry x="1701" y="1062.25" width="228.67" height="171.5" as="geometry" />
        </mxCell>
        <mxCell id="90lTsXC68kQ85smlPDXi-63" style="edgeStyle=orthogonalEdgeStyle;rounded=0;orthogonalLoop=1;jettySize=auto;html=1;entryX=0.75;entryY=0.25;entryDx=0;entryDy=0;entryPerimeter=0;strokeColor=#FF0000;strokeWidth=2;fontColor=#000000;startArrow=classic;startFill=1;fillColor=#000000;" edge="1" parent="1" source="90lTsXC68kQ85smlPDXi-18" target="90lTsXC68kQ85smlPDXi-48">
          <mxGeometry relative="1" as="geometry" />
        </mxCell>
        <mxCell id="90lTsXC68kQ85smlPDXi-64" style="edgeStyle=orthogonalEdgeStyle;rounded=0;orthogonalLoop=1;jettySize=auto;html=1;entryX=0.571;entryY=0.749;entryDx=0;entryDy=0;entryPerimeter=0;strokeColor=#009900;strokeWidth=2;fontColor=#000000;startArrow=classic;startFill=1;fillColor=#000000;" edge="1" parent="1" source="90lTsXC68kQ85smlPDXi-18" target="90lTsXC68kQ85smlPDXi-48">
          <mxGeometry relative="1" as="geometry">
            <Array as="points">
              <mxPoint x="1361" y="1509" />
              <mxPoint x="1361" y="1570" />
            </Array>
          </mxGeometry>
        </mxCell>
        <mxCell id="90lTsXC68kQ85smlPDXi-18" value="" style="sketch=0;pointerEvents=1;shadow=0;dashed=0;html=1;strokeColor=none;labelPosition=center;verticalLabelPosition=bottom;verticalAlign=top;outlineConnect=0;align=center;shape=mxgraph.office.users.user;fillColor=#2072B8;" vertex="1" parent="1">
          <mxGeometry x="1163" y="1461" width="61.82" height="64" as="geometry" />
        </mxCell>
        <mxCell id="90lTsXC68kQ85smlPDXi-19" value="" style="shape=curlyBracket;whiteSpace=wrap;html=1;rounded=1;labelPosition=left;verticalLabelPosition=middle;align=right;verticalAlign=middle;" vertex="1" parent="1">
          <mxGeometry x="1973" y="1018.75" width="20" height="246" as="geometry" />
        </mxCell>
        <mxCell id="90lTsXC68kQ85smlPDXi-24" value="" style="shape=image;html=1;verticalAlign=top;verticalLabelPosition=bottom;labelBackgroundColor=#ffffff;imageAspect=0;aspect=fixed;image=https://cdn4.iconfinder.com/data/icons/essential-app-1/16/dot-more-menu-hide-128.png;rotation=90;" vertex="1" parent="1">
          <mxGeometry x="2048.5" y="1145.75" width="35" height="35" as="geometry" />
        </mxCell>
        <mxCell id="90lTsXC68kQ85smlPDXi-26" value="" style="shape=image;verticalLabelPosition=bottom;labelBackgroundColor=default;verticalAlign=top;aspect=fixed;imageAspect=0;image=https://149825205.v2.pressablecdn.com/wp-content/uploads/2022/07/2022-03-24T000000Z_753859509_MT1NURPHO000K7054A_RTRMADP_3_GERMANY-ENERGY.jpg;" vertex="1" parent="1">
          <mxGeometry x="2021" y="1003" width="94.07" height="53" as="geometry" />
        </mxCell>
        <mxCell id="90lTsXC68kQ85smlPDXi-29" value="" style="shape=image;verticalLabelPosition=bottom;labelBackgroundColor=default;verticalAlign=top;aspect=fixed;imageAspect=0;image=https://akm-img-a-in.tosshub.com/sites/dailyo//resources/202208/657-1200250822104925.jpeg;" vertex="1" parent="1">
          <mxGeometry x="2021" y="1068.75" width="97.61" height="55" as="geometry" />
        </mxCell>
        <mxCell id="90lTsXC68kQ85smlPDXi-30" value="" style="shape=image;verticalLabelPosition=bottom;labelBackgroundColor=default;verticalAlign=top;aspect=fixed;imageAspect=0;image=https://i.natgeofe.com/n/4b97d7b9-7de4-4a0f-beb0-c942ee226c0b/01-global-warming-gallery_16x9.jpg;" vertex="1" parent="1">
          <mxGeometry x="2017.8" y="1202.75" width="104" height="58.6" as="geometry" />
        </mxCell>
        <mxCell id="90lTsXC68kQ85smlPDXi-31" value="&lt;font style=&quot;font-size: 16px;&quot;&gt;&lt;b&gt;Article text&lt;/b&gt;&lt;/font&gt;" style="text;html=1;align=center;verticalAlign=middle;resizable=0;points=[];autosize=1;strokeColor=none;fillColor=none;" vertex="1" parent="1">
          <mxGeometry x="1158" y="1125" width="101" height="31" as="geometry" />
        </mxCell>
        <mxCell id="90lTsXC68kQ85smlPDXi-32" value="&lt;div style=&quot;font-size: 16px;&quot;&gt;&lt;font style=&quot;font-size: 16px;&quot;&gt;&lt;b&gt;Pool of images&lt;/b&gt;&lt;/font&gt;&lt;/div&gt;&lt;div style=&quot;font-size: 16px;&quot;&gt;&lt;font style=&quot;font-size: 16px;&quot;&gt;&lt;b&gt;&lt;br&gt;&lt;/b&gt;&lt;/font&gt;&lt;/div&gt;" style="text;html=1;align=center;verticalAlign=middle;resizable=0;points=[];autosize=1;strokeColor=none;fillColor=none;" vertex="1" parent="1">
          <mxGeometry x="1142.5" y="1344" width="132" height="50" as="geometry" />
        </mxCell>
        <mxCell id="90lTsXC68kQ85smlPDXi-33" value="&lt;font style=&quot;font-size: 16px;&quot;&gt;&lt;b&gt;CLIP&lt;/b&gt;&lt;/font&gt;" style="text;html=1;align=center;verticalAlign=middle;resizable=0;points=[];autosize=1;strokeColor=none;fillColor=none;" vertex="1" parent="1">
          <mxGeometry x="1527.01" y="1285" width="54" height="31" as="geometry" />
        </mxCell>
        <mxCell id="90lTsXC68kQ85smlPDXi-34" value="&lt;div style=&quot;font-size: 16px;&quot;&gt;&lt;font style=&quot;font-size: 16px;&quot;&gt;&lt;b&gt;n-dimensional&lt;/b&gt;&lt;/font&gt;&lt;/div&gt;&lt;div style=&quot;font-size: 16px;&quot;&gt;&lt;font style=&quot;font-size: 16px;&quot;&gt;&lt;b&gt;embeddings represenation&lt;/b&gt;&lt;br&gt;&lt;/font&gt;&lt;/div&gt;" style="text;html=1;align=center;verticalAlign=middle;resizable=0;points=[];autosize=1;strokeColor=none;fillColor=none;" vertex="1" parent="1">
          <mxGeometry x="1712" y="1229.75" width="223" height="50" as="geometry" />
        </mxCell>
        <mxCell id="90lTsXC68kQ85smlPDXi-35" value="" style="shape=curlyBracket;whiteSpace=wrap;html=1;rounded=1;flipH=1;labelPosition=right;verticalLabelPosition=middle;align=left;verticalAlign=middle;" vertex="1" parent="1">
          <mxGeometry x="2144" y="1015.75" width="20" height="249" as="geometry" />
        </mxCell>
        <mxCell id="90lTsXC68kQ85smlPDXi-37" value="&lt;font style=&quot;font-size: 16px;&quot;&gt;&lt;b&gt;1.&lt;/b&gt;&lt;/font&gt;" style="text;html=1;align=center;verticalAlign=middle;resizable=0;points=[];autosize=1;strokeColor=none;fillColor=none;" vertex="1" parent="1">
          <mxGeometry x="1985" y="1033.75" width="31" height="31" as="geometry" />
        </mxCell>
        <mxCell id="90lTsXC68kQ85smlPDXi-38" value="&lt;font style=&quot;font-size: 16px;&quot;&gt;&lt;b&gt;2.&lt;/b&gt;&lt;/font&gt;" style="text;html=1;align=center;verticalAlign=middle;resizable=0;points=[];autosize=1;strokeColor=none;fillColor=none;" vertex="1" parent="1">
          <mxGeometry x="1985" y="1102.75" width="31" height="31" as="geometry" />
        </mxCell>
        <mxCell id="90lTsXC68kQ85smlPDXi-39" value="&lt;font style=&quot;font-size: 16px;&quot;&gt;&lt;b&gt;k.&lt;/b&gt;&lt;/font&gt;" style="text;html=1;align=center;verticalAlign=middle;resizable=0;points=[];autosize=1;strokeColor=none;fillColor=none;" vertex="1" parent="1">
          <mxGeometry x="1985" y="1236.75" width="31" height="31" as="geometry" />
        </mxCell>
        <mxCell id="90lTsXC68kQ85smlPDXi-41" value="&lt;font style=&quot;font-size: 16px;&quot;&gt;&lt;b&gt;CLIP Image Suggestions&lt;/b&gt;&lt;/font&gt;" style="text;html=1;align=center;verticalAlign=middle;resizable=0;points=[];autosize=1;strokeColor=none;fillColor=none;" vertex="1" parent="1">
          <mxGeometry x="1970.19" y="972" width="206" height="31" as="geometry" />
        </mxCell>
        <mxCell id="90lTsXC68kQ85smlPDXi-44" value="&lt;font style=&quot;font-size: 16px;&quot; color=&quot;#009900&quot;&gt;&lt;b&gt;Positive&lt;br&gt;&lt;/b&gt;&lt;/font&gt;&lt;div style=&quot;font-size: 16px;&quot;&gt;&lt;font style=&quot;font-size: 16px;&quot; color=&quot;#009900&quot;&gt;&lt;b&gt;Feedback&lt;/b&gt;&lt;/font&gt;&lt;/div&gt;&lt;div style=&quot;font-size: 16px;&quot;&gt;&lt;font style=&quot;font-size: 16px;&quot; color=&quot;#009900&quot;&gt;&lt;b&gt;&lt;br&gt;&lt;/b&gt;&lt;/font&gt;&lt;/div&gt;" style="text;html=1;align=center;verticalAlign=middle;resizable=0;points=[];autosize=1;strokeColor=none;fillColor=none;" vertex="1" parent="1">
          <mxGeometry x="1347.01" y="1571" width="92" height="70" as="geometry" />
        </mxCell>
        <mxCell id="90lTsXC68kQ85smlPDXi-45" value="&lt;font style=&quot;font-size: 16px;&quot; color=&quot;#FF0000&quot;&gt;&lt;b&gt;Negative&lt;/b&gt;&lt;br&gt;&lt;b&gt;Feedback&lt;/b&gt;&lt;/font&gt;" style="text;html=1;align=center;verticalAlign=middle;resizable=0;points=[];autosize=1;strokeColor=none;fillColor=none;" vertex="1" parent="1">
          <mxGeometry x="1341" y="1393.12" width="92" height="50" as="geometry" />
        </mxCell>
        <mxCell id="90lTsXC68kQ85smlPDXi-46" value="" style="shape=flexArrow;endArrow=classic;html=1;rounded=0;strokeColor=#000000;strokeWidth=1;fontColor=#009900;fillColor=#000000;" edge="1" parent="1">
          <mxGeometry width="50" height="50" relative="1" as="geometry">
            <mxPoint x="2075.05" y="1296" as="sourcePoint" />
            <mxPoint x="2074.67" y="1395" as="targetPoint" />
          </mxGeometry>
        </mxCell>
        <mxCell id="90lTsXC68kQ85smlPDXi-47" value="" style="shape=image;verticalLabelPosition=bottom;labelBackgroundColor=default;verticalAlign=top;aspect=fixed;imageAspect=0;image=data:image/png,iVBORw0KGgoAAAANSUhEUgAAA+AAAAHPCAYAAADTQrC3AAAABHNCSVQICAgIfAhkiAAAABl0RVh0U29mdHdhcmUAZ25vbWUtc2NyZWVuc2hvdO8Dvz4AAAA5aVRYdENyZWF0aW9uIFRpbWUAAAAAAM6kzrXPhCAzMCDOnc6/zrUgMjAyMiAxMDo1ODozMyDOoM6cIEVFVF5hRkYAACAASURBVHic7N15cJxpfh/27/u+fd93N4BGA+CJIYeYIefirjSS9pBnR65RrWRFUixbrrLkSJajSlypxFbiklSOsxWXJdupJNJaqiSqSKnyIWUtOasazUo7K+3ODGc4w+GQBEESPHA00I2+7+s9nvyBeZ7pBhogQOLqxu9ThQJAdjfe7n67+/2+z+/5PRJjjIEQQgghB4oxBtUA5ksd/OqVIt5ONuE0SZAk6bA3bUc6OsMLESu+/sUQRpwmmOTB2G5CCCHkMEkUwAkhhJCDxRhDS2f41lITv3qlgFRdh1UZrADLGIPOALtJwh+8FsGlsA1W02DdB0IIIeSgUQAnhBBCDhBjDA2N4VtLDfzit3NQJEAZ0NFjfghhUST89y/68beecQ/ciQRCCCHkIFEAJ4QQQg4IYwzljoE/fljHP/5eASYZA1NyvhXGGBgAgwH/9LIff3vaQyPhhBBCyBbkw94AQggh5DjgI99fv1HBL38nNxThG1i/D7IkQZGAX7tSxO/fqaClGYe9WYQQQsiRRAGcEEII2WeMMTR1hjcXG/hfb5ThtchDEb67SZIESQJ+/f0ifn+uCs2gAjtCCCFkIwrghBBCyD7TGfBniw38l2/nIGM4Rr77kT+9X//saglvLjagUwgnhBBCelAAJ4QQQvbZrXwH/933ClCGpOx8O7IE6IzhH79TwJV067A3hxBCCDlSKIATQggh+yhd1/CP3smjoRpihHi4SZAAlNs6/qerJRTb+mFvECGEEHJkUAAnhBBC9klHZ/iNayV8ku0M7FJjT4KP8t8udPC1qyUqRSeEEEI+RQGcEEII2Sd/tdLE792uwnIM18aWJAmqzvAnD+v45kLjsDeHEEIIORIogBNCCCH7YK2h4dffL8JhPr4ftbIE1FUD/+rjElZr2mFvDiGEEHLoju9RASGEELJPGGP4rU8qeFhWwdjxLb/mpejLVQ2/c6tyyFtDCCGEHD4K4IQQQsgee1TR8H/fqUKRhr/r+ePIkoS6xvAfH9ZxM9c+7M0hhBBCDhUFcEIIIWSP/cGdKvTjO/C9iUkCKm0DvztbPexNIYQQQg4VBXBCCCFkD63UNPz7+fphb8aRIkkSmjrD+6kW7hU7h705hBBCyKGhAE4IIYTsod+7XUGlY4AxduzLz7spElBqG/jD+3RyghBCyPFFAZwQQgjZI3XVwH96REtu9SMBqKgG/nKlibpqHPbmEEIIIYeCAjghhBCyR76TbGKtodPodx+SJEEGkG3o+NYSnaQghBByPFEAJ4QQQvbINx7UcYxXHXssWQLyLQNvLTUPe1MIIYSQQ0EBnBBCCNkDNdXAtWwbOiXwLUmShLbOcK+oIt/UD3tzCCGEkANHAZwQQgjZAx+ttVDtrM9tpvLzrckSUFUNXMvQmuCEEEKOHwrghBBCyB54L92mtb93QJaActvAJzlajowQQsjxQwGcEEII2QPvpdrQqbn3Y0lYHwGfLVAAJ4QQcvxQACeEEEL2wGJFhUHzvx9LkiToBrDW0FFq0zxwQgghxwsFcEIIIeQpLVdVdIz18E3zvx9PkoCmZiBZ1Q57UwghhJADRQGcEEIIeUoPyxoMGvzeMQlAS2NYa9AIOCGEkOOFAjghhBDylFZqFMB3Q/q0E/q9knrYm0IIIYQcKArghBBCyFNq6gyUv3dOAtDRgXKHutYRQgg5XiiAE0IIIU+pqTEwasC2K5K0/kUIIYQcJxTACSGEkKf0sKxSCTohhBBCHosCOCGEEPKU6hqVoBNCCCHk8SiAE0IIIU+JKqkJIYQQshMUwAkhhJCn9GzQDIVSOCGEEEIew3TYG0AIIYQcFY1GA+VyGYwxBINBWK3WHV3PaZYhSRJAheiEEEII2QYFcEIIIceKYRio1+soFAoicBeLRdTrdXQ6HaiqivHxcbz00ks7DuDUAH33FAlwmKgQjxBCyPFCAZwQQshQ6nQ6qFarqNVqyOVyaDQaKBaLqFarAABd12EYhvhuGAYYY9B1HZ1OZ1fLip3yUgn6bhhsvWpgwk2HIYQQQo4X+uQjhBAysBhjaLVaYgS7VCohn8+j1WqhWq2CMSZCNQ/ZhmF8Wi6+mSzLYIyhVqtBVdUdb0fALkOmAL5jDIDbLOGklw5DCCGEHC/0yUcIIeTIY4yJ0ey1tTV0Oh3k83mUSiVomiZGr7tHsrcawZbl/mXPjDFYLBY4HA6MjIzsuPwcAJ4NWmGiBL5zDDArEjwWKkEnhBByvFAAJ4QQcmQwxrC2toZarYZqtSpKxkulkgjV3QHbMIwtb2urUW7DMOB2u+H1euF0OhEKhWC32xEIBOB0OgGsh3STaWcfkYwxSJKEEYeCUtsQv5OtGQC8FhnjbvNhbwohhBByoCiAE0IIOXD1eh21Wg35fB71eh35fB7VahX1er0nYHd/baVf2OUh2OFwIBgMwufzwev1wufzweVywWazietu/Op3O9vh//9yzIb5kgqVGrJty2AMTpOEE9718E0nLAghhBwnFMAJIYTsm3K5jGq1ikKhgHw+j3a7jXQ6valM/HFBe6uAxhiDoijw+/3weDxiFNvv9yMQCIhwtzFgb3d73f+3m2B4OWbFv71Xg2pQAt8OY0DAJuNzsfUSfwrfhBBCjhMK4IQQQp6Krusol8vIZrNotVrIZDIolUqo1WrQdR0ANgXtrWw1mg0AVqsVwWAQLpcLXq8X0WgUbrcbDodj0/X7jWZvvM1+//80YfCVmA0mypKPZQDwWhU8H975HHtCCCFkWFAAJ4QQsiP1el2sn81Lx9fW1tBqtXou1x22t7Jd0PX7/bDZbBgdHYXT6YTH40EwGITZ3DtfeLej2Tv9+08qZFdwPmjB1bU2DCqr7osxBhnAmFPBhIfmfxNCCDl+KIATQggRDMNArVZDsVhErVZDNptFqVRCtVpFs9nse50nCdqMMcRiMbjdbrjdbgSDQfF9q+vtNmgfZADm2/A3TjnxcbaNjn5gf3qgMAB+m4LvG7Wv/77DExWNRgOSJMFut+/zFhJCCCH7iwI4IYQcQ5qmiS7juVwOjUYDmUwGlUoFuq5vWwq+0XbB2G63w+VyYXR0FDabDYFAAOFweMslvp4kNB+FkWa+DX8t4cCvXSliPWqSjQwGhOwyXptYD9I7ee4YY/j4449x69YtxONxTE1NIZFIwOVy7ffmEkIIIXuOAjghhAy47UagNU1DKpVCrVZDuVxGoVBAuVxGuVzecj3s7bqK92MYBkKhEJxOJ3w+H8LhMGw2G2Kx2LZLeQ1b92vGGIJ2Ba9POvDHD+rQh+z+PS3GGMyyhLM+CyY95h0//5VKRZwYSiaTSCaTkCQJ4XAYk5OTmJychNfrfeLmeYQQQshBogBOCCEDpDtsd8+1rlarqFaryOVyPd956e7GQKIoymNvH+idZ60oCjweD0KhELxeL/x+P3w+Hzwez5Zh/qDnYR8mfn/+7jk3vvmoDl0fvpMMT4oxBoMBMaeCnzqzvtb6Th+XYrGIQqEg9jFJksAYQyaTQSaTwZUrV+Dz+TAxMYGTJ08iGAz27N/0+BNCCDlKKIATQsgRs7GJWXco5utl84BdrVaRSqU2hWz+c7+gvV3IBgCbzQafzwe/3w+/3w+n04lIJLLt/NujMA97P/Cu7Y/rqt59+efCVjwftuKDtfa21QnHjSwBUx4TvjjuePyFu/ATP51OB5qmieeDf1cUBZVKBTdu3MD169fhdDqRSCQwOTmJ0dFR0bxvp88hIYQQsp8kRkcHhBByKPjbr2EYPb+rqopCoYBsNotOp4NUKoVKpYJarSauu5PltrpD8cY1sGVZhsPhEMt68bnZbrd7y7Lx4zSay4N3o9HA8vIyxsfHdzXn+M8W6vj738lB1Y/PY7YVxhgYgLBdwT+9HMAbJ5w72pf464Ffrt1uI5lM4tGjR0ilUmi325vWj+fBnH+ZzWbE43FMTExgYmICFosFsiw/toM+IYQQsl8ogBNCyD7rDgQ8bANAqVRCu93G2tqaWDc7n8+LZb02hubu7xtvn1+2+wtYHz10u93wer2IxWJinrbP59t2e49rMOHPU6FQwI0bN/DgwQO0Wi38xE/8BEZGRnZ8G5Ik4Sf/NI0r6TYYA47pwwngs8fjczEr/t2PxJ7qNjjDMJBKpfDw4UMkk0k0Go2e11f3KHl3QB8dHcXk5CQmJibgdDohy3JPaTshhBCy3yiAE0LIHug+0O8O25IkiTms9Xod6XQajUYDxWIRmqZtCsw7Ddp8FK/755GREbhcLng8HgQCAXg8Hjidzm23mULHOv58FYtF3Lx5E/fv34emaZBlGZqmYWZmBi+99BJsNtuOb/NWro0f/+YaWvrx/Zjlo99xlwm/9YUQLkVsT73f9bt+NpvFwsICFhcXUavVoOs6DMPomUKw8bXJm7hNTU3B4/FAUZSeQE4IIYTsBwrghBCyC/zgvfs7Ywztdhu1Wg25XA7lclnM067X65tGqIHHl47zUN0dCGRZhsvlgsvl6lk3m6+dvdVtUcjemmEY0HUdpVIJs7OzuH//PjqdDhRF6ZlnbLFY8MYbb2z7WHfj1/tnHxTxu7cqMI7p88AYg80k429Pu/CrrwT2fH/sd3vlchmLi4tYXFwUJ7p0Xe8J4wB6XsderxeJRAITExOIRCJQFEUE8uP4vBFCCNk/FMAJIWSD7lGy7oN0AGg0Gsjn82g0GiJsl0olNBqNnlHpfqPaG/9Gd8DeGLYjkQisVqsI2BaLBaFQaNttpqCwczx4ZzIZXLt2DclkEoyxnuAtyzIURUEoFMLMzAzi8fi2y6r1oxkMX/ijVSxU1GP3/PDDi7N+C/7or0fhtfbvvL/Xf6/7ceZz+BcXF5HNZqGqKnRdF4GcX7779W6325FIJDA+Po6xsTGYzWYRyI/bc0gIIWTvUQAnhBxb3Qfd3WFbVVXRYbxQKIjvtVoN7Xa7b9B+3Gh29xfv3GwymeDz+RAMBmG1WhGJRODxeJ6o2zjZGcMwoGkastksPv74YywvLwOAeF7482UymRAMBnHhwgVMTU2J6+/m8eeXnSt08De+mUa1Yxyb507MuXaa8C9/IIjvG7Uf+L7bb9748vIyFhYWkEqlRFd1TdN6Lt/9vqAoCsbHx5FIJBCPx2Gz2WAymcToOCGEELJbFMB3QGcMOmPQDAadrf++1YMmAVAkCWZZggzALNOyJ4QcJv4W1z3qxZcy0jRNBGs+R7tcLiOfz28Zsncyms1HTvlt8HnZfr8fHo8HDocD0Wj0sdtN7x17gzEGXdehaRry+Tw++eQTLC4uAugN3oqiwGKxwO/34/z58zhx4kTPbTzJ88Gv9/t3Kvj1K0V0jkFXdP6a81oV/MKzHvzy895D35/7/f1UKoWlpSUkk0k0m02oqgpN00Tvhu5VCvi/xWIxEcb5igE8kBNCCCE7QQG8D50xtHUDHYNBNRjyHRWZlopUS0W2rSLf0dDRjfW03Y0BFllGzGbGuMMKhyLjhMsGuyLDIkuwffp92A++CDks3QGbN2HSdR3tdls0Qut0Okin06jValuWjW81stUdtPkIdvdoNu827nQ6xRxtj8ez5fYedigZdjx4t1otpFIpzM7OIpVKbSo158F7ZGQEzz33HCKRSM9tPO1zxG/jv/rLHP7To/pQL03GDylsJglfPenCv/j+nc2Z774+r0LYL/2e01wuh2QyieXlZdRqNaiqik6nA13XxWX5tum6DgDw+XwijAeDQZjNZlGuPqzPLyGEkKdHAfxTBmNo6gYauoFMS8W9ahP3ay3cqzZRVnWYJAkSAFkCJEhbLinDGMCwPlIOrM//i9rMOOm24VmPA2c9djgUGfZPv+hDmpDd6w7YqqqKg+JisQhVVbG2toZarYZarSb+rTtYd4fufvgButlsFmGbj2hbLBY4nU74/X6EQiE4HA54vd5tu2NT0D5YfH9oNptIp9O4efMmVldXe6oSePC2Wq2IxWL7Erw30gyGX/x2Fm8tNYdyn+CHE2ZFwuWYDb/9hRC8VmVX97XRaKBSqcDtdsNut+97mXe/bavX61heXkYymUQ+nxdhnFfOdHdU59NWHA6HCOPhcBhWqxUWi0WcpCOEEEK4Yx3AGWPQGENVM5Brq7hZbuDdXBWrjfb6qJYkQZEA+Sk/PA1ews4AkwSc9zpw3uPA834n3CYFHrPy1H+DkGHDR695SWj3XM1cLodqtYp6vY61tTV0Oh0Ui0VxoLtVM7Ru/Uazu7+bzWZEIhE4HA643W74fD5RcrqVYQxVg4TP3280Gshms7h16xZWVlZ65uvyEytWqxXhcBgzMzM90wH2+zlUdYa//icp3CmqQ7W/8PtikoHPxWz4+hfDcFvkXd/H2dlZ/NVf/RUmJyfx/PPPIxAIwGKxHNjjtHF7NU0TYTyTyaDdbqPdbosTf92l6vykoNVqxdjYGMbHxxGNRmG322GxWMQJPUIIIcfbsQzgDEBHN1DoaFhqtPFOroJrxQZ0xmD5dO72fn3Ys0+DuMYY3CYFL/id+MGIB1GbBV4K4uQY4qPZPGzz35vNpghSzWYTlUoFhUIB7Xa7b7n444K22WwW300mU89otsvlgs/ng8vlgt/vp7WzB0x347yVlRXcvn1bzOPv3j9MJhNcLhfGxsYwPT3ds6TYbp9XfmKI71c72UZ+ueWqil96O4e5QgftIShHF68xGfjciA2//YUnC9/pdBrvvPMO1tbW1pcvs9lw7tw5nDlzBh6PB2azeR/vRa+ttn1lZQUrKytIp9NoNBpot9vodDpijji/Lj9paDabEY1GkUgkEIvF4HQ6xeg4zRsnhJDj6dgFcJ0x5Nsq5ipNvJ0p426lCUWWYN6mHHW/GJ+OwCuQ8PmwG6+GPBi1W+Cz7G6ZG0KOuu7R7O4vxhjK5XJPuXitVkOpVIKmaZtGsrvD1Ebd3av5SBM/yFUUBeFwWDTY8nq9sFgscLvdW24zBe2jjwfvSqWC1dVVzM7OIpvN9oyY8uDtdrsxOjqK8+fPw+fz9dzGbp/nTqeD5eVl1Ot1nD17Flardcfby/9Wqa3jV94t4K3FxkA3ZuP3yaZIeCVmxf/+hTA8TxC+dV3H7du38d5774nr8hAbCARw4cIFJBIJOJ3OXS8F97S2ui/ZbFaE8Wq1ina7jVartWneOH//k2UZwWAQ8XgcIyMj8Hq9sFqtsNlsNG+cEEKOkWMTwA3GUNcMPKy38OfpEq4WajDLMkzS/o127xRj683eTLKEL0a8+MGIFxGrCXYTnR0ng4XPye4eyVZVVYxmV6tVVCoV8b3RaIiDVR6wd7KsF+88zEez+Vxek8kEr9cLn88Hi8WCcDgMp9O55UgThezBxBhDq9VCtVpFOp3G7du3kclkYLFYIMufhT+r1Qq3241oNIpz587B7/f33MaTPPfNZhN3797Fxx9/jFqthtdffx0nTpzYcWlx999taQb+m+/l8d2VFgotfeAqoBjWe5H6rDK+NG7Hr7/i3/Wcb3FbjCGbzeL27dtYXV1FvV4Xo8q8ueLo6CieffZZjIyMHMj88K22E9h83FAul7G6uopUKoVSqYRWq4VWqwVVVcXlu5c3Y4zB6/VibGwMo6Oj8Pv9sNvtsNlsO66qIIQQMpiORQDXDIaVZhvv5qr4y2wFFVWHVZE3NTE/TPxp6BgMEZsZr8f8eCHgRNB6cCV3hOwEP4jsdDpQVVV0GeffK5UKarWaCNh8hJuH693Mz+YB22QywWq1QpZlmM1muN1uOJ1O+Hw+OBwO0Qhtu22mA9rBxxhDs9lEqVTC4uIiHj58iHw+3zd4+3w+jI+P48yZM3C5XD238aT7QqVSwfXr1zE3Nyfes+12O370R38UPp9v1+uDA0BHZ/j6zQr+/XwNy1UNxoDtq1MeE7560ol/eHG9quBJw3f3dRYXF3H79m3kcjk0m82eOdaKouDkyZM4e/asaHZ21JY3a7VaWFlZQSqVQqFQQLPZRLPZRKfT2dTEjc8bd7lcGBkZwdjYGAKBABwOB+x2+6HfP0IIIXtv6AN4SzcwV2niT1MFXC824DTJR3qUgTEGA+ul8j8Q9uArI36M2w+uAQ0hHGNMzG1stVpiVLvT6aDVaqFUKomyy3w+j0ajgU6ns+tlvXjZePe8SIvFIkrEnU4nHA4HAoEAbDYb7Hb7tttMr5Xhw4N3sVjE4uIi7t27h2q1KqYadAdvv9+PeDyOs2fP9szlf5p9Q9d15PN5XLlyBaurqz3l7U6nE6+++iri8fiuRmQ3bs/byw38bzcquF3ooNoxjvznlN0k43zQgl+a8eKHE3bx70/z+uu+vqZpuHv3Lh48eNDT+4FPO3C5XJiensbU1BT8fj8sFsue3Len0e/+a5qGVCqFVCqFfD6Per0u5o53zxvnI+OapsFutyMajWJsbAzBYBAulwt2u/3QRv0JIYTsraEN4IwxlFQdHxRq+OZqEbm2CpsyOB9cvEP7hNOGnxwPYtpjh4U+eMk+aTabImA3m00YhiFGs1VVFSNR9Xod1WpVzGfsVzreDy8b52XiZrNZdAXmodrv94ulhzwez7YHmhS0jwfGmJiusLS0hPn5eVQqlZ7gLcsy7Ha7KOftDt57sZ+0222srKzg/fffR6lU6lnKLhqN4uLFixgfH3/iv9d9naWKit+bq+Lby008rGhHbj9nbH2q1KTHjM+PWPEPZrwYdZn2dDs3lnjXajXMzc1hcXER5XIZmqb1zA8Ph8N45plnMDY2Bp/Pd2Qam/V7TBhjyGQySKVSYiWHRqOBZrO5ad44b0xpNpsRDocRi8UQiUTgdrtF1Q/NGyeEkME0lAGcMYZ8R8ObqSLeSpcBACZ58D6kGFtfT9yuSPiZiTAuBVxw0bxw8oQ0TRPzsXnA5qMwhUIBjUYDjUYDhUJBdJTut272dmXjfDSbj2Dz5Z7MZrMISXa7HS6XCy6Xa9tu4/w26QDz+GGMoVKpIJ/PY2FhAclkEuVyeVPwdjgcCIfDiMfjGB8fF0319mq/qdfruHv3Lm7cuIFmsyleD4qiYGJiAi+//LKY+vA0f7PfaPjv36nhVr6DtYZ+JMrSDcYQd5lwKWLFj5904ct7NOq9lY1BPJPJ4O7du1hZWUG1Wt00P5xXPYyOjsLpdB6pkeKt5o0XCgWk02lks1kxZadWq4nlFrvnjfOA7vf7EY1GEYvF4PF4xHsprTdOCCGDY+gCuMEYsi0Vf5Yu4c10aX1ZsQH+UGKMgQGwyjJeH/Hhi1EvPGbqkk62xsvFO52OWCKn0+mg0Wig1WqJgM2boamqumk0G8Bjy8btdjsURYHNZhOl406nEzabTSztxedmb7d8EIVs0q1cLiOXy2FhYQH379+HpmliHW++r7hcLoTDYSQSCUxNTYny473cl4rFIm7cuIF79+6JbTAMAw6HA1NTU3jllVf2/O92305TM/D/3q/ju6st3Mx1kKwdzvxwgzGMu004F7DgywkHfvykA9YDrCbb+NguLCxgfn4ea2traDQaItxqmgaLxYITJ07gxIkTiMVisNlsR/K9pd/+Uq/Xsba2hkwmg1KpJFaG2DhvnJeqG4YBr9eLSCSCaDQqllF0u900b5wQQo64oQrgjDHk2hr+40oeb2cqsMoHv7TYfmBYPwiSAXxlxIfXR/wUwo85PprNAzb/rmkayuUy2u02arUaqtUqms0mqtWqOIjbOKoNbB6Z6b6szWYTy+Q4HA4xqu3z+WA2m+HxeHrWtt0KBW2yFV3XUS6XUSgUsLi4iAcPHkBVVTGqx0/6+Hw++Hy+fQ3euq5jbW0N165dQzKZBLD+WjEMA4FAAGfPnsXMzIzYLmBvV9LYeF9amoE/XWji7WQDD8oqFisayvs8R9xgDF6LjEmPGVNeE75/1I6vnnDAZvoseB/067n777XbbTx48AALCwvIZDI988M7nQ68Xi9Onz6NRCKBSCRyoOuH71a/x7HdbiOTySCbzaJQKKBaraJaraLVavVcvnveOD8pFQ6HEQgExOg4rzKi915CCDk6hiaA87Lzb64W8danI9/D9oFjMAZZkvD6iA8/NhYcyLJ6sjuapolS8Xa73bOkV6vVEg19arWa+DcAm8rFHzc/m49i8yVwLBaLWG/X7XbD5XLBYrHA5/PBZrNtub0UssluGIaBfD6PtbU1JJNJLC0tbQrekiQhEAggEolgYmICsVhMrLu91/tbp9PB0tISrl27hnw+31MFEovFcPHiRSQSiX352xttvP2OzvBhpo330y3M5jtYqWtI13UUWsaejIwbjCFoUzDiNCHuUvBsyIJXolZ8bqS36eFhvsY3nvCoVCqYn5/H4uIiCoWCKNPmoTQajeLUqVOIx+MIBoNHqiy9n62auOVyORHGK5WKKFfv18TNMAwxbzwUCiEUCsHj8cDtdsPtdh/5x4AQQo6DoQjgjDGUVR3fSObx52vloQzfnM4YbLKMn04E8X1hDzVmGwK8qy/vIs7LxbvDNv9qtVqoVCpbdht/3Pxsu90u5mfz9bHtdrsoHefli7zj7nbbPKyvMbL/ePBOp9NYXFzE8vIyGGOiqVR38I7FYkgkEiL4Avuz/9XrdczPz+PWrVs9/Q/4fO8XX3xRrCN+kPt/v79VbOm4le/gflnDg1IHC1UNpbaBusqQbeqodrYO5byRms8qw2OR4TLLiDoUjDgVnPCaccprxrNBC4J2ZdP1jsprfmMQT6VSePDgAZLJZM/8cN6wLR6P4+TJk4jH43C73UfmfmynX3UFYwyFQgG5XA6FQgHlchnlclk0xuSX7543rigKAoFATxj3er3weDwwmaiSjhBCDsNQBHDVMPAnK0X8UTI/NGXn29EZg9ek4G9OhHE55D7szSE7xJfzUlVVzO1rt9totVpotVqixLD7543dxoHe0vGNGGMwm80wm81wuVyiLJyvJ8uDts1mE3OztyrPPEoH3GQ4qKqKYrGIdDqNpaUloelFGQAAIABJREFUJJNJGIbR07laURQEg0FEIhGMj4/ve/AG1ud7z87O4u7du2i32zCZTDAMA06nEydPnsSlS5dE5cdhjwD3+9v3SyoyTR3ltoFkTUOxrUM3AFkCim0DlY4Br0WG2yJDAmCWJYTtCkJ2BT6rjITbhHH35jB21N8DNi5btrS0hEePHmFlZUWUa/P/s1qtmJycxOTkJOLx+MDNk+73XFQqFRHGS6WSCOSa9lkH/e5544wx+P1+BINBBINB+Hw+Eca3q2wihBCytwY+gOuM4aNCDb/zYA3apyXaw44/ZQmHFX9nKoITLvrgPEoMwxABu9VqoVarQdd11Ot1NJtNdDodVCoVtNttNJvNnnl9uy0b5yPaPGDb7XbYbDZYrVZxUGWz2eBwOLbd5qN+oE0Gm6ZpSKfTWFlZQSaTwerqqhid4xRFQTQaxejoKEZGRjAyMtKzLNN+7J98vveNGzewtLQEwzAgyzJ0XUc4HMb09DSeeeYZKIqyL/O9n9ZOHhdVZyi2dQRsymOnLQ3q+0D3djcaDSwsLGBhYQHpdBqqqoogqqoqvF4vpqamMDExgZGRkYFcyqvf89RoNJDP50UY51/tdrsnjHcHcpfLhWAwiEAgAL/fLwL541anIIQQ8nQGOoAzxrBQb+PrD9JINdVjNSeaf6Be9DvxsxNheC1USnaQGGOi8Vm1WoWmaSJga5qGarUqAnatVoOqqmi1Wps6jD+ubFxRlJ5gzcvFzWazWAvWYrHA4XCI4P247R60g00yuLqD9/LyMjKZDAD0Dd5jY2OIx+OIRCLi//Zzf+10OlhYWMDNmzeRzWYBfBaux8bG8Nxzzz3V+t5HwVZrUQ/ifXmcjSdIeEO/R48eIZ/Pi7J0XpodiUQwOTmJiYkJhMPhgX1MtmriViwWe754Z/Xuk1o8jDPGYLVaEQgEesK43++Hy+WieeOEELLHBjaAM8bQ1A38n48yeC9XPdBlUY4KPh/89REfvhoPHvbmDC2+VBefh91ut1Gv10UAr1QqPSPc/EBvN6PZZrNZBGteOs6X8+Ij3N0BfLuDxWE9wCaDg3dxXllZQTKZRCaTEV31+UicxWJBKBRCPB7H2NjYgQVv4LP1vW/fvo1KpSJOCCiKgqmpKVy8eBGBQOBAtoXsrY3PVyqVEkGcrwYBQLxPj46OitL0QZkfvpV+VRq6rqNUKokQXigUUCwWUS6Xe0bGgc8auZlMJhHCeRAPBALwer00b5wQQvbAwAZwgzF8UKjh39xfA3B8D5B0g2HUbsHPnYziFJWiPzE+H7ter4vu4q1Wq2eEu9lsotlsipHt7jnZwONHsyVJEgGbl4y73W4xgm2320UQ5x3JKWiTQdJsNrGysoLV1VWxjBKAnuBtNpsRj8cxPj6OUCiEcDh8oNtYKBQwOzuL+fl5tFqtnvnep06dwszMjCjBpdfY4Op+7lRVxcrKChYWFrC4uIh2uy0uo+s6rFYr4vG4COKPqyQaFP3233K5LMrTi8WiCOS8Yd3GMC7LMjweT08Y5/PHh+VxIoSQgzaQAZx3Pf/nd1aw2uxAOcYHSOzTee8vBFz4u1MR2I5hJcButFotNJtNEbB5V3HeHI3P0eZBu9Pp7Ho0W5Zl0eyMr4/tcDjgdrvFWtq8ORpfV3srFADIIODBe3l5Gaurq6hUKgD6B+9EIoFYLAafz9dzG/u9r+u6jlQqhZs3b2J5eVnMQdd1HcFgEOfPn8epU6f2bYkzcji6n8d6vY6VlRU8ePAAKysrPcuW6boOr9eLeDyOEydOYGxsrGeqxKDrtz/X63XRuK1QKIg55HxddX49XqoOAE6nU8wV52E8EAg8ts8IIYSQzwxkADcYw5vpEv6fheyxLD3fSDMY/BYTfioRxOdDnsPenEPHu43z5bpqtVpP4ObN0fi62vV6vacJGoBNP3fjlzWZTCJo2+120VWc/xsvHTebzbBarduW7tHBPhlEPNAkk0mkUqm+wdtms2F0dFQEb6/XK65/UPt9p9PBo0ePcPPmTeTz+Z6/OzIygpmZGSQSCciyfCSbrZGns/E5LRaLSCaTmJ+fRy6XE/sDnw/Np0acPHmyZ2rEMNjqNcc/MyuVCkqlErLZLPL5POr1+pZhnK+m4fF4RBgPhUJwuVz0+iGEkG0MXADno9+/PruMckejN3l8+qEI4KLfiV84GTs2o+A8SDcaDdFVnM/D5mXimqaJ4K2q6qZu4wAeO6LNO4n7/X7REI2XjttsNpjNZjGarSjKlqMmFLLJsKhWq1hYWMDq6ipyuZyYW8uDN++wPDExgdHRUYRCoUMJ3sD66PydO3cwOzu7aX3vyclJPPfcc6IMnl6jw637+WWMIZPJYGlpCffu3RMnYgGIpfEikQgmJiZw6tQpuN3Dt+TnViebNE1DpVJBtVoVYTyXy6FSqWzqqM6/LBYL3G433G43fD4fQqEQIpEIPB4PNXEjhJANBjKAfzNVwr9bysJMb+qCztZHwX9yfPhGwVVVFcupVKtV1Go1tNtt1Go1aJomgriqqmi329A0DQB2NJrNGYYBr9cr5mLzedput1uslc3LxXng3godxJNhVavV8OjRI9HRnPdC4F/dwXt8fByRSKSnNPWgXxulUgm3bt3C/fv30Wg0euZ7nzlzBs888ww8Hs+hbBs5PN3PdafTQSaTwcOHD/HgwQNxohZY/1ywWq2IxWKYmprCyZMnt33vH3Rbdc2vVquoVqsol8vIZrPIZrMolUqihL/78WKMieowt9sNr9eLYDCISCSCQCBATdwIIQQDFsAZY6ioOn711jIqKo1+d+Oj4C8FXPiFk7GBW5LNMAwxN7tcLovu4vV6XSzhpWka2u22CNm8aUy/gL1VIzReFu5yueBwOOByuUTpOC8X5wHbbDZT2TghWA/eDx8+xPLyMrLZbN/g7XQ6MTk5iUQigXA4fKjBmzGGtbU1XLt2Daurq1BVVcz3DgQCmJmZwYkTJ2i+9zG3cX742toa7t69i+XlZREq+Qiv2+1GLBbD6dOnkUgkhn5/2eo1Ua/XUavVUKlUkMvlsLa2hkKhINZb59flpeqKoojPXLfbLUbGQ6EQNXEjhBxbAxfAr+Rr+K37aZgHLGAeBM1gGLGb8TMTYcz4nIe9OX0ZhoFisQhVVVEul8VodqlUgqZpYhRb13UxR7v7QGCno9k8YDscDni9XlgsFni9XtjtdiiKIgK2xWKhtbMJ6YMxhmKxiAcPHiCVSqFYLKLRaGwK3n6/H6dOnUIsFoPf7z/U4A2sl88uLi7i2rVrKBQKPdsQi8Vw8eJF0WCL5nuTjftoqVTC6uoq5ubmkMvlesqtAcDv92N0dBTT09MH3sH/sGw3b5wH8nw+j3Q6LU7Q8bLz7jJ1SZJgs9nEye9gMIhoNIpoNPrYVT8IIWSYDFwA/9rcCu5Xm/RG3QfviP7DUS9+euJwDwxUVRUNXZrNJsrlMhqNhpiPbRgGOp0OOp0OdF0X3caBzaPYW41my7Ismp/xM+wej0eUkSuKIkI2D93boaBNyPrroFQqYX5+HslkUkz/2Bi8fT4fTp8+jXg8jkAg0NPN/7BeS+12G3Nzc7h161bf+d4XL15EMBg81G0kR1P3/mAYBgqFAhYXFzE3N4d6vd5zOUVREAwGMTExgenpabFs3XGw1Ukr3tC0Xq+jUCggnU5jbW1NPHYb540DECuE2O12BAIBRKNRxGIxuFwumjdOCBlqAxXAM60OfuXGEgw6cOqLMQaNAec9dvz8yShC1q2Xt9or1WoVjUZDBOxms4l8Pt83YGuaJuaMATsbzebzyTweD5xOJzwej+i86na7IcuyCNi8fHy7pWPooJuQ/hhjKJfLuHfvHpaXl1Eul9Fut3vWue8O3uPj4/D7/UcieANApVLBJ598gvv376PVakFRFBiGAYfDgbNnz+L8+fNwuVyHvp3kaNs4Pzyfz2N+fh7z8/Oivwi/nNVqRSgUwunTp3Hq1KljOb+532tJ13VxPFAsFpFOp5FKpVCtVmEYRs+8cR7I+TQw/vnOw3gwGKQwTggZOgMVwP+/1QL+cDkPmQ6ctqQzhqDFhJ8YD+Hzob3p2qrrumh+1mw2kcvlUK/X0Wg0oKqqKB3XdV00ReN2OpotSRKsVqsYzeadVG02G1wuF0wmE0wmE8xmswjd2x1A0wE2ITtjGAay2Szu3LmDdDqNer3eE7yB9ddtOBzGmTNnEIvFxCoA3GG+3hhjyGazeP/997G2tgZN0yDLMgzDgNvtxvPPP48zZ86IEwX03kB2q9FoIJvNYnZ2FsvLyz3/xxiD0+lEJBLBuXPnMD4+fkhbefj6vbb4sqCtVgvlchmZTAarq6soFAqijwu/Lv9SFEWsPuJyuRCNRjEyMoJoNCpWWiCEkEE2UAH8a7eTmKfy823xp/O1mG/XZei8RLxUKqFSqYiRbd5hXNf1TaPZQP9wvV3Q5vO/QqEQ7HY7nE6nmKdtMpmgKEpP2N5udJz2BUKejGEYyOVyuH37NlZXV8UJtY3BOxQKYXp6GqOjo3C73T0VJof9GtR1HUtLS3j//fdRLpd7/i8UCuHFF19EPB6n+d5k1/rt25VKBalUCjdu3EA+nxfrxvMpUW63G2NjYzh//ryY6nBcbdVRnTdS5U3vVldXsba2BlVVAfSWqvPfrVarWAI0Go1idHQUsVjssSfiCSHkqBqYAN7WDfzytUdQPy1fIv0xxqAyhlcCbvziqeiOl2pLp9O4du0ayuWyGMnm3zfuIo8L2nw7wuEwnE4nHA4HfD6fCNqyLIuScb5uNpWNE3IwDMNAPp/H7OwsVlZW0Gw2RfDmB7+SJCEYDOKZZ57B2NgYXC7XkQrewHqztTt37uCjjz4SXdmB9fne8XgcL7zwAkKhUM99ImS3Nu47uq6jUqng4cOHmJ2dFfseD40mkwlerxcnTpzAuXPnYLfbD3Hrj4bt5o232200m00xMr66uop2u92z3nj3bfDGqRaLBeFwGGNjYxgbG+tp/kgIIUfdwATw2+UG/sWdFTqI2gHVYDjlsuHvTIUx6bTt6DorKyv43ve+J87qb3yctxrR5iPYPGD7fD4xL5SPYPMRbVmWt53LRQfJhOwfTdOQTCYxNzeHfD4vlvbjvRj4KF4sFsOzzz6LSCQCq9XaM6/1qLxG2+02rly5gocPH4pyeT6P9MyZM7h06ZI4ID8q20wG28b9SFVVFItFzM3N4d69ezAMo+fyZrMZgUAA586dw8mTJ7c9yXzc9HtN8ulrnU4H2WwWq6urSCaTqNfrW4Zxk8kkArnP50M8Hsfo6Cj8fv+B3ydCCNmNgQngf7paxH9YztGB1A7ojCFiNeMnEyG8FHDt6DrVahXf/va3sbq6uulAwTAMBAIB0RyFdzyORCIiWCuKAlmWRQn5VuhgmJCDpes6kskkZmdnkc1mRWPEjcE7Go3iwoULGBkZgcVi6TlZdpRet/y9KpvN9sz3djgcuHTpEqanp8VJg6O03WQ4bNynWq0WstksPvnkEySTyU37m81mQzQaxczMDEZHRw96c4+8rZq48f4y+XxehPFisbgpjPPb6F71hE8FGBsbQyQSofcAQsiRMzAB/Ov31/B+vkJvpDtgMAaXScFX4wF8Oerb8fW+9a1vIZPJIBKJwGazIRAIwOv1wuVywWw2Q5IkUS7OfyaEHE26rmNlZQW3bt1CJpMRfRw2Bu9IJCLCAa9aAY5eeGWMIZ1O4+2330atVus5APf7/bh8+TLi8bgYDQdovjfZHxv3L8YYGo0GkskkPv74Y5RKpU37ocPhQCKRwMzMDHy+nX8uHyf9XreGYYhGr/V6HcvLy0gmk8hkMj1zxbtvQ5ZlmM1mmEwmOBwOjI2NIR6PIxaLHctO9YSQo2dgAvj/OLuMh7UWHVDtAGMMDMBXdtmIja/PzQM2H9mmbuOEDA5d1zE/P4+7d++iWCxCVVVRHsuDt9lsxvj4OKanpxGJRI508AbW79Pdu3fx/vvv96yyIMsyRkdHcfnyZQQCAZrvDaCuGkjWNFRVAyZJQqmtI9PQEXEo8FkV6IzBqkg44THDYablnZ7Gxn3NMAxUq1Xcu3cPs7OzaLVaPUGcN2qbnp7G9PQ0bLadTRE7rjY+vowxaJoGTdPQarWwsrKC5eVlrK6uiuk0/Q5p+SoqVqsVIyMjSCQSGB0dhdVqPci7QwghwsAE8P/i6n2oxvE+sNopxhg6BsMXol78/Inoji4PbD9adNwPagk56gzDwPz8PG7cuIFqtdrTQJEfmJpMJiQSCVy4cAHBYFBMHQGO7mtc0zS88847uH//fs86zCaTCadPn8Yrr7wiuiEf1fuwX6odAzdybXyQbuNOScWjsopMQwcDYDBAktYronQGKBLWl/BkACRABjDpNcFvVXAuYMbLURteiVlhM1Eo362N+52maSgWi7hx4wYePHiwKRQqioJgMIiZmRlMTU3ROtc7sFWpOh8dX11dFaPjrVZryzDOq/h4E7dEIoGxsTG43XuzbCshhOzEwATwn/vgPgZiQ4+IjmHgBb8LP38iAreZSq4IGVaMMczPz+P69euo1WpbBu/x8XHMzMwgFAr1VLYc1dDKGEOr1cKbb76JXC4H49MVMPgI/nPPPYdLly4d+fux1zINDd94UMdfrrRwt9hBQ2PQDAbNAHS2Hrg3koC+n5+KJEGWAJMMmOX1n88HrXhjyoGvTDgQtNGay7vRvQ/y0dp0Oo2PPvoIqVRq0xJ/JpMJY2NjuHjxIiKRyGFt9sDZKozzcvVMJoPl5WUsLy+jUqn0PCfdupvE+v1+JBIJjI+Pw+/3035PCNlXAxHAO4aBv//hQwrgu9AxDFzyufBzJyLwWiiAEzJsOp0OZmdnMT8/j2q1Cl3XNwVvs9mMs2fPYnp6Gj6fr2eFg6McWBljyOVyePPNN9FsNnvul9PpxOXLl3HixImBuC97oa4aeDvZxDce1PHhWht11fg0cPcJ27t4HDbNn8V6KLco62H81VEbvnrCidcmHTDLw/v47qV+88Pb7TYePnyI69evo1KpbJofbrVacerUKTz33HNwuXbWOJWs6/faNwwDhmFA13WUy2UsLCxgaWkJ+XweAPqOjvO+NrIsw+VyIZFIYGJiAuFwmPrdEEL23EAE8AfVJr42t0IBfBcogBMynHjw5nNMDcPoO+I9PT2NmZkZOJ1O0XgNOPphlTGGe/fu4bvf/S50XRf/LkkSAoEAvvSlL8Hn8x2LkvOmZuDNxQZ+51YVdwodMAC6sTk47KXuQwJFlqBIwKjThF+64MF/dsYFEwXxHek3f7lWq+HWrVuYm5tDp9PZFMRdLhdmZmZw5swZWCyWw9r0gdXv/YAxJgI5b+K2uLiIdDotmlL2C+O8WsHhcCAej2NqagqxWAxms/nA7g8hZHgNRACfrzTxP9+hAL4bFMAJGS6qqmJ2dha3bt0So8Ibg7eiKJiensZzzz03cMGbu3LlCm7evNmzrrIsy0gkEvjiF78Ik8k09OG7pRl4a6mJ375Zwe38evDu/qg+qPvdvX8pEjDmMuF/eNGH1yYd6/PJyWNtLEsHgFwuh48++ghLS0ubnlfGGCKRCF566SWMjY0N7T6+37YK4/yr1WohmUxicXERq6uraLfbfUvVu99DeRO3yclJjI2NweFwHNwdIoQMFQrgQ4oCOCHDoV6v4/bt27hz5w5ardampXd4CevZs2dx/vx5UcI6aMG70+ngW9/6FlZWVnrW+lUUBTMzM3j55ZfFZQflPu0WYwyLVQ2/dqWIP19uQOkanTvM+9u9DbIEvBKz4Te/P4C4m0YDd6pfx/SlpSV8+OGHyOVyPf/HQ9/JkyfxwgsvwOv1HsYmD42twjj/rqoqUqkUFhYWkEwmUavVeppTcvw2eLl6JBLB5OQkJiYm4HK5hvI9iRCyPyiADykK4IQMtkajgevXr2Nubk6UYm8MYxaLBTMzM3j22WdFaeSgBW8AKBQKeOutt1CpVHruo81mw+c//3mcOnVKXHaQ7tduNDUD/9dsFf/y4xLa+sGPdu9E93MjAfiHF734ry/SmtY71e9kSqfTwdzcHG7cuIF6vd5Tlg70vsZp2ayn1+856H68dV1HPp/Hw4cPsbi4iHK5LC6/VRWKJEkIBoOYnJzE1NQUvF4vdbYnhGxrIAI4QF3Qd+tJAvi1a9fw8OFDmM1mSJIEr9cLp9MJYH0elNfrhSRJcDgc8Hg89AFDyD5oNpu4fv06bt++vWltW/4zPyi/cOHCQAdvAJifn8e7776Ldrvdcz89Hg9ee+01+P1+AIN3v3aKMYbVuo5/8l4Bby40YFaOenk9Az9qkCQJ3zdqw//xpTCtKb4LG8vSJUlCtVrFtWvXxHJ73dMsDMOAz+fDyy+/jImJCWoKtof6zdUHIB73UqmEhYUFPHr0CIVCoWc1hm78NvhzNTExgRMnTohVJwghpBsF8CH1JAH8448/xvXr13vmQj2OyWRCKBQSH0ijo6PiuqOjo+JyoVBo181Lju4BKCF7hx8A5nI53Lt3D3Nzc2K9641znZ1OJy5cuIDp6WnRpOloh7X++DZ/8MEH+OSTT3rme0uShLGxMbz22mswmUwDef92SjcY3l9r4b/9XgELZRXKgDU444cPfpuCP/yRKM74qXHYk+jex9fW1vDBBx8glUptOvGm6zoSiQReeeUV8blL9ke/951qtYqlpSU8evQImUwGqqr2PfHZXd7ucDiQSCTEvHGTqfd4jJ5DQo6ngQngP//BfehDfCC2lxhj6BgMPxTx4u+djO74et/5zncwNzfXs1TRTv7Wbv6Pl2rxUXaPxwOXyyU+qPhoFx9x3+o2tkL7BxkU/IAtn8/j2rVrWFhYEF15+wXvS5cu4Zlnntl0/UGkaRreeustJJPJnvnesizjwoULuHz5MoDBvo+PoxkMV9It/MybGeiMDWxTM/4eLUsS/pcfDOKrJ2kZrSexsTR6fn4eH330Ecrlcs/7Ab/cuXPncPHiRVGlNqyvk6OgX9k6b+L26NEj0cSt3+W7w7jZbEY8Hsfk5CQSiQSsVuumUnZCyPEwMAH8N+6sYLbcoDeoHWCMwWDAV0Z8+M8nwjs+iP2Lv/gLzM/PizO0m9aI7fP7bp+Pfrvbdv/GGIPdbkcwGISu63A6nQgEAtB1HXa7Xcy1slgs8Hg8fZdu2e4DjvYnctD4vl0oFPDxxx/j0aNHfYM3n+5x8eJFnDt3ruf6g7zfFotFvPXWWyiVSuLf+P39oR/6IZw+fXrg7+PjdHSGb9yv4R+9W4BuDMd9ZYxBkSX861eD+OopCuFPqnvfV1UVn3zyCW7fvo1ms7kp0FksFrzwwgs9FTHDsC8ddRvfn3RdRyqVwsOHD7G8vIxGoyEu13357t+B9SrBjU3cuhu9EUKG18AE8N+aT+NqoUpvSjtgMAanScGPxQP4cnRnDXL4B0S5XEaz2YSiKMhms2Kt0mKxiEZj/QRIsVhEs9kU1+u+jX4/AxDzpp7Edrfb73eLxQKv1wuTyQRFUeD3+2GxWHp+NgwD4XAYFotl04fp436mfZA8Cb6vJpNJzM3NYWlpScz13Bi8o9EoTp8+PTQj3tz9+/fx7rvvivcP4LNma2+88Qb8fv9Q3M/tqAbD781W8CvvFmA3SUN1XxljMMkS/hWF8KfW/TqoVCq4evUqlpaWoKpqz2V0XUcgEMDnPvc5jI6OihPow7RfHWX93q8ymQwWFhawsLCAWq0m1iHvvnx3GDcMQzRxm5iYQDAYFJWI3aGcEDI8BiaAf3O1gD9cztMb0Q7ojCFsNeMnx4N4Oeje8fWe5MC31WqhWq2KpTzy+fx6CXyng3w+L243nU73/J3unzeeFe7+9yd5vnca2Lv/rs/ng91uB2MMwWBQdJt1uVzweDziZ7f7s8ezO5BvF9ppnz3e+IFXKpXC1atXxWthY/CWZRnhcBgXL15EIpEQ1x/0QMq3/+rVq7h+/fqm9b2DwSDeeOONXfeIGDSMMegMuJJu4W/9WWZoRr43YozBLEv4zVeD+DEK4U+t+/W/urqKq1evIpfLQdf1njCnqipOnDiBV155BV6vVzT+GsZ97Kjq915dLpfFvPFCoQBd12EYxqZjHP67YRhwuVwijI+MjECW5Z5ATggZfAMTwG+VGvjNuyv05rMDqsFwymXDz06GMeWy7dvfedJgsLa2BlmWYRgG8vk8NE2DYRioVCpoNBpgjKFSqfSU3HWH5X4/d//+pKF9J6P5/GeLxYJgMAgAsFqtCAQCANYDRSwWWy/HVBQEAoG+IxIbS822CvNkMPH9iZ98+vDDD5FKpQD0Bm9+UBUOh/H8889jYmKi5zYGfV/gweCdd97B/Px8T2BQFAVnzpzBD/zADxz2Zh4IgzG8l2rhb76ZgTEEz+12DMZgUyT8my+G8aWE47A3Z+BtnIN8584dXL9+XYyu8tcVP7l14cIFPPfcc7Db7bvq6UL2Tr95481mE8vLy1hYWEA6nRbHPv1Gx3kYt1gsSCQSmJiYwPj4OMxmc08gJ4QMpoEJ4G3DwD/48CE1YnsMxhhUxvD5oBu/dDoG4Og8Vk8aKFqtFiqVCgCgVquhVqtBURRUq1WUy2XIsoxGo4FqtdpzZpn/ze1+fpp57DsN7IwxmEwm+P1+URbv8Xhgs9l6fpYkCW63G06ns6ccGXh8YKfXxNHAn+9Op4NMJoNPPvkEyWSy53ni4ZOfrHn22WeHasSbY4yhUCjgnXfeEScfgPV9VlEUvPrqqzhz5oy47DDc5+0kqxq+8scplNr6wDZc2yn+Hhh1mPAHr0UwHaDu6Hth4/zwjz76CPfv30ez2dxU0myz2fDSSy/h1KlTsFgs9DlxyDa+xxmGgeXlZSwuLiKZTKLT6UDXdei6Li7ffV3DMCDLMsbGxkQTN34MwQM5IWRwDEQA529cX7udxHy1SR8i2zA+nYP3IyN+/Hg8OND/CEA7AAAgAElEQVQHtk+67aqqirJ4XiKv67oI8rquQ9M0FItF8WHHgzv/mdvq35/kvjwupG/83e12w+12Q9d1+Hw+uFwu6LreUwrPA3t3wOOPGf9A5uXNHJ0533v8AKnT6SCZTOL69evIZDJQFKVv8B4fH8elS5dEFQW/jWF5XgzDQDKZxHe/+11Uq9WeE0YOhwOvv/66uO/DdL+30lAN/OxbGbyXag3cUmNPij+vL0Wt+L0fjsBtoYCwV7pfM+VyGe+99x7W1tY2deLWNA3hcBiXL19GNBoVQZwcrn7vealUCktLS1haWkKj0RBhfOO64/yzBgAikQgmJycRj8fh8/kgyzJMJhOFcUIGwEAEcO7PUkX826UcfYBsQ2cMEasZP5UI4cXA8Zt/96QH8+VyWTTEymQyoit1oVAQ66IXCgV0Oh0Am4N598/dH5j8dp70vmwcse9Xks+/22w2eDwe8SEcCATEz7ypC2MM0WhUbBOfJ7jx5+4z6hsDPPkMf45VVe0bvIHPHj+TyYSxsTFcvHgRoVCo5zaG6T1N13XMzs7i6tWrUFVV7HeKoiAUCuH1118XPRaG7b73ozOG3/iohH/9cRlmZbjv60Z8PvhPn3Xja58PHPbmDJ3u18/i4qJYtkxV1Z6ydE3TcPr0abzwwgvweDxiGVBy+Pq9BxYKBRHGy+WyGDToPp7oLlMHAK/Xi8nJSYyPjyMUCkFRFBHG6bkm5OgZqACebnXwT24sURn6Fhhj0BjDBa8Tf+9kFH6LaUfX0zQNmqaJN+zj9tg+SQhot9uo1WoA1svi6/U6gPVy+VKpBEmSoGkastmsCCDdpWXdc742/vtezmPvVy7fPZIfjX62Tnz3+uwulwsu1/oJHJfL1bPWbHcwVxRFbG93059h/9Dnz1u9Xsfq6ipu376NdDq9KXgrigK73Y5oNIqZmRmEw+Ge2ximx4hXnHzwwQe4e/euKJlkbH3921OnTuHVV1/tOYAcpvu/lRvZNr78jVXYTMfzJJZuMPhtMn73S2F8bsR+2JszdDbONb5x4wZu376Ner3e06hN13XIsoyZmRmcP38edrt96BsfDpp+74n1el2E8VwuJ47XNjbh6z5+cDqdSCQSGB8fRzQahdlshtls7vl8IoQcroEJ4PyN5p/PreBOhdYD74c/Rn8t6sVP72L978XFRSwsLMDv92N0dFR8MFMp097K5/OQZRmqqqJUKomSZf6zpmmoVqs9o+w8LHePrHeXpXX//CS6w/hW8+X57wBgs9ng8/nAGIPD4YDH4wFj60u/hUIh6LouloHjH/YbA3v36Ht3ufwg7Gu8rJMfFN24cQOFQqGntFOSJJhMJthsNkxMTGBmZqane/4wBk/eUPH999/HysqK+HdJkmCxWHD58mVMT08DGM77v5WGauDHvpnGXEF9/IWHFH/veDZoxX/4kShcVIq+L7pfV61WCx9++KEoZ954wtfhcODFF1/E1NSUmEdMjj5N00QYX1tbQ6fTgaqq0DStJ4wDEMcGVqsV8XgcExMTiEajsNlsdHxHyBEwMAEcWP/weDdXxe8+XBv6JjZPQjMY4g4LfmYijPPenXee/eijj3Dt2jW0Wi2YzWZEo1EkEgmMjo7C6XTCYrFQE5en8KSBo9Vqia7w1WoVrVYLiqKIddj5+uy8RJ5/4AKbw3v3KHv3mfPd3o+N37caWef/Z7Vae8riefmj2WzuKYX0eDywWq2iYV13SO8uYeYHDN1zqw8CD961Wg3Ly8u4efMm8vk8LBaL2D4evO12OxKJBC5cuCCWsOO3MYyvH03TkEwm/3/23jw8ruwuE35r3/dSLaoqqbTZlmVLdltud3rHvRCyEUiGAGELzAwEyBfgCUMg800+JoEQYICQZCZsmQATluwJA0lId6c7vdhuW7ZkW1ZbsnbVXqp9v9v3h3JO3ypV2SVZsrb7Pk89devWXc499yy/9/w2nD9/Hul0mr4juVwOo9GIRx55BH6/H8D+rYNW+NR4Bh+7lIFcdrDTQfGCAINKjl8ZNuP/OWHd6eLsa4j7WDKZxKVLl5BMJulcQsCyLNxuN0ZHR+FyuaDT6Q50G93NaDVurqysYHl5GZFIBOVyGQzDgGGYukV5ohnnOA5KpRIejwddXV3wer0wGo112nEJEiTcO+w5Ap5jOfzO1SWU2M371u5HCIIAHsCo3Yj39nmgbDPQD8/z+M53voNbt25BpVLRwZqQKafTiUAgAL/fD5PJBI1GA7VaLZkybSM2S1JqtRrK5TIAoFQqoVgsQhAEGiFeEASqfScEmWVZej7DvK6lIyvq4u27NYu/k4k8+VitVmi1WvA8D7vdDo1GA57nYTabodOtmbBaLBZoNBqqYReTPjE5JyngAGzK3FIQBFSrVRSLRYRCoZbEW61Ww2QywefzYXBwEBaLpe4a+7WvMAyDqakpjI2NoVwuQ6lU0kWUjo4OPProo7Ba1wjXfq6HZogUWDzypRCq3MF67lZgeAE+gxJffYsbAZNk+rzdEPe3+fl5TExMIJvNolKpUE0pmesHBgYwMjJSN65K2J1oNY7G43GsrKwgHA6jUCigVqvRyOrNyLhcLofdbkcgEIDP54PVaqXKFkm+kyBh+7GnCDjBV0Or+NpKCgppgKDgBAE2lRI/GrDj0Q5L28JuKpXChQsXEA6H12lGCSEimlWbzQafz4dAIEBJklqtlgK67AJsltxks1m6HY/H6XYqlaLEO51OU6JO2oK4XQD1WnZiTr8VZvHtmMjrdDrqr65Wq2G1WiGTyaBSqWCz2ej5LpeLbovJuLj9irXvHMchl8thdnYWr732GorFIs3BKibeZrMZwWAQR48ehVarrSvvfu0XgiCgWCzi2rVruHHjBmq1Go0HoNFo0N/fj9HRUVof+7kuWuHjl9L4n1dz+z7nd7sQBAFapRzvGjDio1JAtnuCxvn86tWrmJ6epgRNHCxUpVLh+PHjOHToEIxGI9RqKXXcbkej/z9BPp/HysoKQqEQUqkUGIZBtVqli+xiv3Ei91ksFvj9fvj9fthsNmi1Wmg0mgMZF0iChHuBPUfABUFAgeXw21eXUJS04AC+T0YAnLAa8Ev9HmgV7fv1VKtVJBIJrKysIJFIoFQqoVKpoFarrfMtJqvlLMvCZDKhs7MTPp8PHR0d0Gq1lJADB9vcci/gbrXsgiCgUCigUqlAEASUy2Xk83nI5XJUq1VkMhnI5XIavVUcjRdAXb5Tsn+rteytTORlMhk6OtZiJMjlclitVuoPR7YFQUAul8PMzAyKxWKdvxwpp1arRW9vL4aHh2E2m2nQsf0OnueRTqdx8eJFLCwsAHi9v+v1eoyMjODYsWN0oUL8/0FBvsbjsS+Fkaxszt1jv4LhBAQtSnz5TR50GtsLEirh7iFug6VSCVeuXMHKygpN0UnAcRxMJhNOnDiB7u5uGAwGyTR5D6HZWFOtVikZTyaTqFarqFQqdZHyxUHcOI6DwWBAZ2cnAoEAHA4HdDodtX48CHOcBAn3AnuOgAOAIADfCKfwtZVVAAdPuGsEJwiwq5V4Z8CBh5zmtgW+ZscRMh6NRlEsFlGpVFCpVNZF5yZknOM4aDQaeL1e+Hw+uFwu6PV6SsilwXp/4G7IcTabhUKhQKVSQaFQoISdRJGv1WooFAqUnLMsS9sb2ZbJZKjVapTQke2tiBbfSuNOgsY1tmHij+5wOBAIBKDVasEwDI0WT/4XB6ETbxONAjGR30t9hGEYRCIRvPrqq4jFYtTEnyxenDlzBl1dXQAOptab4NMTGfzhWFbSfjeAFwSY1XL88rAZvzoi+YLvJOLxOCYmJpBIJOi4DLxupuz1ejE8PAy32w2DwSC14z2GZuMvx3EIh8MIhUJIJBIol8sol8vrFC6N8p3H46HyncFgkOQ7CRK2AHuUgK9pwT82FUK4XDvQAdkEQYBcJsP9diP+U59703XRbLDOZrMIh8OIRCLI5XJ0sG7UVjb6FbndbnR2dsLr9cJgMECn00Gn00kr6QcMmyVgJJgMz/PI5XJgWRZyuZya0pFtorkhxwKg6VnINiH1PM+DYZgtEyLF/pPN/Nh1Oh1N3abRaKgmSaPRwGg0UlJuNpspORebwoujqhOzd/H+nRCGK5UKZmdncfnyZeRyORozQqVSwePx4MyZM3A4HLQuDqrAzvICnvhKGPO5zVt17FcIggBOAO7r0OBf3uaR6mYH0Ngm5+bmcOPGDaTTaZRKpTqzdLlcjv7+fgwODsJut9MYHBL2FlqNQ7FYDOFwGPF4HIVCAeVyGZVKpanfOMuyNLZHZ2cnPB4PTCYTle/2e+pRCRK2GnuOgL9uMgOcX83jr+diB1bLQAKvBXRqvKfXjT6jdksEvmbXKJVKiEQiiEQiyGQyKJVKKJVK6zSRjcSko6MDXq8XXq8XJpMJer1eyj8qoSnuxiy+Wq0CWCPvpVIJAGgbJcfkcjkAa2Sc5HEnAudWY6Nm8YSME7Nth8NBSbfZbKauHRaLhfYdhUJBNdBKpZJuKxQKeoxMJoNGo7nrZ8nlcrhx4wampqZQqVSgVCrB8zz0ej36+vpw8uRJ6PV6evxBHI8JXgyV8TP/HgfLH+x6aAWWF+AzKvGxB+14sqv9bB0Stg6NfZTjOExOTmJ2dhaZTKbOP5xlWeh0Ohw9ehS9vb00WJeEvYlWbkGZTAahUAixWIwqXEqlEl3EFgfuI4vcDoeDyndmsxl6vR56vV7yG99HWM3kXv8hCEhn8rDbzBAAQADkchlsFlOr0yXcBnuOgAP1k8ef3gxjPFM8kAHZeEGAViHHU24L3hFwbuhcssJ5JxOiZoN1rVZDLBZDJBJBKpVCsVik5urknMYoqzzPw2q1wuv1wu12w2azwWAwQK/X3zVBkHBwsRmyl8lksLi4iMXFRYTD4bo+QPzCLRYLLBYLJcQMw9BgNUTjToRT4uPOsuymteztmsWLt3U6HSW9RPARBIEGhiOm8Ha7nfqnk1RvcrmcatPlcjnVvhMTeWKtwnEcVldXceXKFczPzwMArROj0Yjjx49jaGiIBmADJJeg97+QxNfniuAkAt4UgiBAJZfhR/uN+ONHHDtdnAONxvGzUCjg2rVrCIVCyGQyVE4Qz+FDQ0MIBAKwWCySVds+QLM5tFgsIhKJIBqNUoVLsVhs6jdOgrFaLBZ4PB54vV5YrdY6+U4aB3c/KpUakukskqkMSuUKsvkiGJbF1alZeowgCJi8OY/ho/1UFlEplRg63AOlQgGr2Qir2Qin3QqbxQTFBuJRHUTsSQJOIAgCwmUGn5gOI15lDpQpuiAIUMhkOGkz4Od6XDAoFW2TkVqthnA4DEEQ4PF4oNVq2x4gm90jFoshGo0ikUigWCxSzWJjLkpxxE29Xg+PxwOPxwO73Q6DwQCj0bihskiQ0A7IQlAmk0EikcDs7CyWlpYAgAqQYuLd0dGBvr4+6ssMoC6lS6lUooJIqVSiOdmJxl0ul6NWq1EyLjaFZxiGunBwHFcn0GzmuTaqZbdarRCEtTRhJpOJEm6yrVAooNfrKTmvVqt47bXXEA6HqVaD53kYjUaMjIygt7cXer1e6rPfB8MLePgLIURKUvC126HKCRh2qvG1N3tgUEtC2k6jsa1Go1FMTU1RbSgZT8hY0tnZicHBQWqGLLXz/YFmY1alUkEsFkMsFkM6nUahUEChUEC1Wm0axI1lWRgMBrjdbrjdbjidThgMBkrIAWmRdregUCxjMRRFKJrA4koM12/O4dprs4gl0phbCqNSKgNK8SKbDCqlAowofS0EABwPg8mA/mAn+rr9OD7Yi6P9Qbg77Oh0OxH0e6BSSUE3G7FnCbh4oHh1NY/PLcRRZvkD0bEFQYAMMnQbNPi5Hhe6DZoNCXvLy8t4/vnnwbIsBgcHEQgE4HQ6N6yJbnbPVCqFWCyGRCKBXC6HQqGAYrFYl5ZKPFjzPA+1Wk0Ha4fDAZPJBKPRCL1eLwX5kHBX4DgO6XS6KfEmggMh3i6XC729vXXEe7MkiuM4SsxJ7AQANMuAIAio1Wp0oYrjONRqNQCvm8iTexMzegA0Av12Enbym/j0kWBx4mcjPoBEE65Wq6n2XWwWT0zhlUolNVslmvj9OFa/Gq3g3d+OocJK5Pt2YHkBQbMSf/CQA4/6JL/i3YLGsWV2dha3bt1CPB5HsVik1i8sy0KlUqGvrw99fX00+KqE/YNm8wzLskgkEojFYkilUsjn800VLuIgbmq1Gi6XCy6XC06nk8p3UoT9nQHP81gKx3FzdglTMwt44fw4Xrl8HfFEes0aTqkQBY5tb7GEyAwsx39fsbAWt6c/6MPpkUE8+cgoers60dftQ6fLAZlcmhuBPUzAgfoB4kvLq3gmlkGV298knLwum1qJd/gdeKij/ajnwNoAeu7cOVy/fh3AmjDtdDrR398Pv98Ph8OxKf/sZmXI5XJIJBJIJBLIZDIoFArI5/PUv0z8PMSMSaFQwOl00pVTs9kMk8kEg8FQRwIkSLgdGIZBMplEOp3G3NzcOuJNth0OB2w2G3p6eraEeN/NuaVSiWrGC4UCFWjS6TTtJ+l0mh5PguUAa6lmiFk8wzA03yvLsnX9baPPATSfgMVp5MjkKwgCDAYDXcjTaDTQ6XQ0ZRvZVigUVGsml8vrcqeLNSRigX6vRNz9xJUM/nwiixonEfDbgURDf++wBe8bsex0cSSI0Njva7Uabt68ifn5eayurq7zDzcajRgYGEAwGITT6ZT8w/chWs0Fq6uriMViSCaTlIzn8/m6rDliv3GZTAaHwwGXy4WOjg5YLBZKyKW4QNuLGsNgamYRE1O38PLFa/jX584hFE1CpVRArVJueRC9NULOoVZbswQc7A/iiYdP4fE3nMR9xwbg97oO/By5pwk48LqwW+MF/PNiAs/FswD2p4kLeVUmlQJPu614i8++4Wusrq7i/PnzWF5eXrda6fF40NfXB5/PB5vNtmnC24yAlMvlOjKey+WQz+epZrBVRHWr1UpXTq1WK0wmE0wmkzTJS2gKhmGQSCQQjUYxNzeHRCJBfaHFxNvpdMLj8SAYDMLtdtPzd8Js+G6CzxFzdnEaNxLJlhxTLBapKXy1WoVMJqMaerJfrJUXR8DdzLNsRMuuVCphNBrp/Ww2Gz1GvG0ymai2RK1WU2FNvK1UKqmPu0ql2pEx4se/GcO5SOXABgZtF6QtvKnHgL8427HDpZHQDI3jUjabxfT0NJaXl2kWCrF/uMPhwKFDhxAIBGCz2STt5j7G7RQuyWQSmUwG+Xwe+Xx+nd+4OEiv1WpFR0cHXC4XzGYzVbiIF2Ul3B0EQcC11+Zwbuw6vvHMy3jmxUtgWRZarQaKexS5XhAEMCyLWo2F1+3A2556CE8/chqnhg8faCK+bwg4AOQYFn+3kMDlVAEC9h8JFwQBOoUcb+q04c1eGx3QNvKclUoFoVAIS0tLCIfDKBaLdVpomUyGzs5O9PT0wO/3w2q13pXmqVn5OI5DPB5HMplEKpVCLpdDLpejZWkWUR0AjEZjHRk3m82wWCz71pxVQvsgxDsSiWB+fh7RaJTm8G4k3l6vF8FgEC6Xi56/1/x1N1teYkbKMAzy+TzdTqfTND8sGQfIwoXNZoPRaKzTslerVUr+q9Xqpkl7K3/1xm3xMSQHLbAWiI5o3NVqNc3DTrTvhORrtVq6TcYLYhZPtPJqtfquScN9/7CMRHnNMmAvtaedQJUTMOrS4ItvckOv2v3WDQcVjWNNJBLBrVu3EA6Hkclk6H6yaN7Z2Ukt6iT/8P2PZnNRqVTC6uoqtUIjMh5Z6BWfS+ICGQwGdHR0wOFwwG63U0JO0nlK2DiWw3G8fOka/vHrz+Dfv/cqWJaDTrtz8vLa++ZRrdXQ6XbirU89hLc//QjO3HcUZuPBe897noAD9QPAapXBPy0lcSlVALA/hKA1n29Ap1TgIacJP9nd8fr+DTyf+PharYaFhQUsLi4iEolQTTQA6t8VCATQ3d0Nn89HgzTd9XM0KW8ymcTq6ipSqRQymQyy2SwKhcK6XJTiwVqv18PpdFITYovFAqvVSvNRSjgYKJVKSCaTiMViWFxcRCwWg1wup8Sb+CV7PB44nU50d3fvaeK9GdzpGVmWxezsLK5fv45YLAalUkm1yH6/H0NDQzCbzahUKpR0k/Q0PM+jVCrRvkq2AVCSDqxp5cWB6BrTF27kWRq/76RlJ8ScxJsgpvDibULSFQoFJeN6vR4ul6vt2BjxEosf+HIYudr+doPaKjC8gKN2FT71eAcG7ZJF026HuL9yHIfFxUXMzc0hEoms8w/XarXo7u5GT08PvF6v5B9+QNBsTK/VakilUlQzTmQ8scKlMS6QRqOh8p3dbqdZSYxGoyTftQGW5XBxYgr/8LXv4Iv/+jxSmRw0ajXku8T3mpinsyyHoUM9eMebHsOP/OCjGDrcs9NFu6fYFwQcqO/4ySqDLy6v4kq6CIbf28IQNTtXKvC0x4ofcFs2FPGcXIMEVSK/ybnFYhGLi4tYWlpCJBKp8+9iGAY6nQ5dXV0IBAIIBAJbFvG4VfkzmQxSqRQl48RcXZzeqdlgbbfbKRm3Wq2wWq0wGo2SGdw+RalUQjQaRSgUQigUwurqalPi7fV64fP5EAgEYLVa6fkHgXi3g3w+j2vXruHmzZsol8vr8nsfO3YMFkv7ProkyrtMJkO5XKaB5UjkeGCNmJO87eIc7iTCvLhs5F0WCoUtN4snv8X7ycKDSqVCV1cXzpw50/bzvxwu4xeeSaDI7O05516B5QX0mJX4/QfteMwvEbS9gEZf4HK5jPn5eczPzyMej1P5gbiRmc1m9PT0UFcfyc/3YKFxnhUEgSpbUqkUstkslfFIzBPSxoh8R1JpiuU7m80Gs9ksyXdNEEuk8M3nL+Cz//R/cenqTchk9bFvdhMEQUC1xkCpUODJR0bxKz/zI3jkzAh02oORmnjfEHCgvrOnayy+Hc3ghXgWZY7fkynKyPNYVQo86bbih7zWTZmdp9NpLC8vw+FwwOv10pVq4PWJNJvNUiIej8cp4SVpJUwmE/x+P7q7u+H3+7fU7LtVgI9isYhUKoV0Ok2JeTabpf6tzfzGVSoVLBYL7HY7bDYb/VgsFimI2z4AId4rKytYXl5GNpulwbzExLuzsxM+n4+6URBIxHsNPM9jdXUV4+PjmJ2dpebmgiDAYrFgcHAQR44coT7VwJ2tiTar0SYEnGXZOgJO3q0gCMjlcnSbaNkFQUC5XKaCWrVapSSfEPvNmsUzDIP+/n48+OCDMJvNbZ33hek8/uu59IHJxnG34HgBDp0Cv3bCgp8faq+OJewONPb1TCaDubk5LC4uIplMUjJF+qnT6aRE3G63S8TpAKLZ/JDNZqmMR+S8TCZDF3EbyTjJWGK326lmnMh3G83isx9xY2YBn/vCv+Efv/4s4qtpqNWqPcF9eJ5HuVLDscM9+M/vfhve8UOPwd2x8RhXew37ioAD9Z28wvH4VjSDV5I5xCoMFHugIRIIggC5TIagQYOzbisecBih2AT5rlarGB8fx8TEBBwOB4aHh9Hd3U0DFDVeb3V1FUtLS1haWkIikagLtMIwDOx2O/x+P7q6uuDz+aBSqbZc2LydGRMZqNPpNFKp1Lq0TGLNuFwuh8lkgt1up6umhJhvR7klbB+y2SwSiQRCoRBWVlaaEm+j0Uhzy/t8Pkq8JdJdD5Zlsby8jKtXr2J5eZlqpWQyGZxOJ0ZGRtDT00MX6rar7jZ7bYZhaNYEQsAFQUClUllHwIHXNe4ymQy1Wo2mh6tUKqhUKpDL5fQYUiaWZdHb27shAv7Xk1l8/FJGSkHWJnhBgF4px3uOmvDbp213PkHCrkPj3BuNRqlrWzabpcdxHAelUkkDXwaDQck/XEIdCoUCMplMnYyXTqfrFlLFrogymQxGo7FO0UI+Ot3BS2144coN/Olf/TO++fwF1BgG6j1obVIqV+By2vCz73wj3vvTb0eg033nk/Yw9h0BB+onBYYXMJYu4PlYFtOFyp4QxgVBgEImw/0OIx53WXDIpKP7N+rzPTMzg3PnztEURxaLBYcPH8bhw4dhMpnqjhVfOx6PY3l5GfPz80in03RFm2iaHQ4H1Yj7fL5t88tp9swktzMZrIk5kzh1EzmXEHIAMBgM1DydkHGHwwGtVrvr28RBRS6Xw/LyMkKhEOLxOPL5PACsI95+vx9+vx9utxtGo5Gevxf6+71EtVrFa6+9hqmpKSSTSZq/W6FQwOfz4cSJE/B6vQB2X91ttjw8z1PT2FqtVke6ybaYsLMsi2KxCLvdjt7e3rYj8v6vq1n8yRWJgLcLXhBgUMnx80Mm/NYpiYDvZdTJXAyDUCiE+fl5LC8vo1Qq1fmH6/V6Gui1q6tLinh9gNFqTK9UKlQbnslksLq6inQ6jWKxCADr/MaBteCczeQ7vV6/7/3Gv/vKZfz+p/4e58YmAQh72sKkVmNgMOjwE297Au97zztxqDew00XaNuxLAg68HrgM3+/c84UKXknmMZYuYrW2O7XhZDDq1KnxsNOEUbsRTo2q7r+NXm9ychLnzp2jxJRlWWg0GgSDQRw/fhwdHR3rfHTIb57nEY1GKRHP5XJ1JkEA0NHRAb/fT328tlPwbFYHgiAgm81SX6LV1VWsrq4il8tRMyZynFg7rtfraWAPq9UKh8MBh8MhBfnYJSDEe2VlBeFwmGotZTIZnXwNBgMCgQD8fj86OzvrVr13G3ncDSgUChgfH8fMzAz19xaEtYjhfX19OH78+L6yGribZyCEXalUtn2ND768ii/MFMBIOcDbgkTA9xcaXVVKpRKWl5dpoDaxWxvHcbBarfD5fOjr64PX65VcxCTcVuHSKOPl8/l1QdyIjKdWq2mmHKvVCrvdDqfTuS/9xr/7ymX87p99Dq+O34Di+3Fw9joYloVWo8bTj96PD/7yu3FiaFktSocAACAASURBVGCni7Qt2LcEnKAu4BjLYTJbxqupPCYyJbC7JEAbKaNGLsMZhwlnHEYMmvV1/20WxWIRt27dwo0bN5DNZiGXyyl59ng8GB4eRldX17rJT3zfWq2GeDyOpaUlzM3NUW06AErs3W43fD4fent74XA4tr1eW/mlFgoFZLNZ5HI5mgYjlUpR01Tx4oJ4sCYpLwgZJ6nO9sNgtlcgCALS6TRCoRDC4TAikQjVnhDiTfLNEjNzj8dTF2F3PxDHrQbP80ilUrhy5Qrm5uZoQEZBEGAymTA4OIjDhw9Dr9e37e+9X9Fqka+d+vjPzybwnaUSWF5qg+1AIuD7E838w5eWlnDr1i2srq7W+YcDgMPhQCAQwMDAAOx2uzTnSgBwe4VLLpdDNpulMl42m23pN65UKmEymajChZBx4oq4l/Hcy5fx3//sc7g4MQW5XLav+g7HcWA5Hu/+kafw4V97D7p8+88cfd8TcGB9R05UGFzLlnA5XcB0vrKjkdIFQYBJpcQxiw5DFj2GzHpY1cqm5d7odQHQiW5paQnXrl1DJBKhx/A8D4vFgiNHjuDIkSNNU4XU+dRXKojFYlhYWMDCwgI12SQ+OSqVCi6XC36/HwMDA237Tm4FmtVVpVJBNptFPp+nA3UikViXAkmsGVcqlTAajZSQO51Omg5jt0aS3OsQBAGpVArz8/OIRCJIJpOoVCqUdBPibbfb0dPTg87OTtjtdknj3QbEfT8UCtEJWiaTweFw4OTJkwgEAlCpVFId3iV+6bkEvr0oEfB2sRkCTuYa+T7R9OxnNFrTJRIJLC4uYnZ2Frlcjh5HZIeOjg4Eg0H09/fDYDBIfUgCRau5qVAoIJ/PU4VLIpFAKpWiFkzkXCLjyeVy6PV6Kt/Z7Xaae3wrAwvfC1y4cgMf+sO/witj1/aN5rsRLMfBoNPiJ9/+JD7wiz8Jv7djp4u0pTgQBJygsROHSlVMFyq4kiriVqGCEsfds4iBgiDAoVHhuEWPEzYDfDr1XZmb3+4+5FrJZBJXr17F/Pw8XS1kWRY6nQ7BYBDDw8NwOBx3vE6xWEQsFsPc3BwWFhZoQAwiHGm1WrhcLnR1daG/v/+e5wBtFcQtn8+jUCgglUohkUggHo9TbX6zwVomk8FgMMBkMsFkMsHhcKCjowMul4sGsZOweRDiPTc3h3A4jGQyiWq1uk7jTYi3z+eDy+Wqs9aQSGNrsCyLGzduYHJyEplMhk7QxN/7vvvug9u9tqos1ePd44/H0vjMtRyqkgl6W9gMAa/Varhx4wZisRjUajWUSiVNG0e2b/etVCqhVqul93MP0WhNR2SH+fl5GmCL+IcbDAa4XC709fWhp6dHmmclrEMrK61KpYJ8Po98Po9UKoV4PI5kMolyuUyPb5TvtFotTCYTjEZjnXyn0+l29RhxayGED/+Pv8HX//1FGox2v4JhWGi1avzGf3oXfuVnfxQ2i+nOJ+0RHCgCTtBIuCIVBtFKDbOFCq5nS4iUmW3RiguCAJVchsNmPQbNOvToNfDq1FTj3Vi2rbyv2C+LBGHK5/PUJF0ul8PtduPEiRPw+/1N/WQay5bL5RCNRjE7O4uVlZW6PI4cx8FgMKCjowM9PT3o6+vbkcm0WX2SIEvFYhHpdBrJZBKxWAzZbLZpEDfy0ev1MBgMMBqNsNvtcLlc6OjoqAv6JeHO4DgOyWQSCwsLiEQiWF1dRa1Wq5tESETu7u5udHZ2wul01pmLSYSxNUhE8LGxMczOzqJYLNL+rFarMTAwgOHhYWqhItXl1uBzN3L4vYsZVKQ0ZG1hMwS8XC7jhRdewM2bN6FSqaBQKKBQKCCXyzf0rVAoKHG/HWlv9v9+Fna3C42kqVgsIhKJYHp6GpFIhCoEiCWaxWKB2+3G4OAgTZ0qQUIzNJu/GIah2vF0Oo14PI54PI5isdjUb5zEQjEajTAYDLDZbHC5XDSo625qf9l8EX/0mX/Ap//2K2AYdt/5tDdDjWFgs5jxZ//f+/COH3ps3zzzgSTgBI0dt8hySFQZxCsMlks1rJSrWC5Vka5x4DcZBE0lXwuq5tdp4Ner0fl9TXeHRgnV9zv1vRCAG6OULi8vY2JiAvF4nB5DJr6hoSGaA/hO1wLWfLyi0Shu3ryJWCxG/yeTqdlsRkdHB13V3qnO02zlVBAEFItFlEol5HI5xONxxGIx6qt2u8HaYDDQyOputxsul6su57SEenAch3g8jpmZGcRiMeRyuabE2+12o6+vD263G1arVSLeGwCxKrh06RKWl5fBsiz19zYajTh27BgOHToEnU534P29txqfnczhY5ckAt4ueEGAWS3HLx634P0nLG2dUy6X8dJLL2F6erpp3JJ2fxOtESHlzYh6434xeW/UvjcS9Va/D3q7aBy/s9ksVlZWMDU1RbOtkOMA0LSnR48ehcViOfD1J+H2aBXEjShcMpkMlfHEChex37ggCFCpVFS+M5vNlIzbbLYdJ39/+8Vv4r/9j79BPLmW5/ugoFSu4L5jh/DJj/w67j8xuNPF2RIcaAJO0KzTllgOeZZDnuFQ4nikaixSVRZZhgUHIFFlUGJ5EmQdvAB4tSqo5XIoZYBDo4Jbq4JRqYBRqYBJKYdRpYC6YSXtXhMKMaFMJpMYHx/H4uIiDYjCcRz0ej26u7tx3333wWJpLRg1WhKk02lEIhFq8kr2kyZGiPjhw4cRCAR2fDJtVvflchmlUgmFQgGJRAKxWAzxeBwMw9TVHTlfEAQolUro9XrqW+R2u+HxeKSAMt8Hz/OIx+NU25HL5cAwTN1EJpPJ4HK5MDAwAI/HA6vVWve/RLzvDJ7nsbi4iImJCUSj0br6MpvNePDBB9HZ2Sn5e28Tnlkq4VefT6LISAS8HXC8AK9Bgd8+bcM7+tuzIspms3jllVewsLBAXVU2g42Q9cZ9MplsHUkn5LzVf+T/ZqSdEHW1Wn3b3/upTYnHHxLlen5+Hjdv3qSppgDQIKk2mw29vb1UMbCf6kLC9qDZHMfzPJXxstksEokEIpEI0ul0y6w5CoWCyndGo5GScZfLdc/jAp0bu44PfPTTuHT1JrSag+WeIQgCagyDt//go/j4b/8Suv2enS7SXUMi4A1oJZhygoAKx6PGCxAAVDgerKjqBAHQK+VQYG2C1irk0Cmak6+dFn4bTdKvX7+OqakpmuqJDDoulwv3338/3G73bYlks8l0eXmZmrk3HkfMy44cOUJzDu80WvmNl0ollMtlJBIJRKNRxGIxlEqluoGafAvCWnRpnU5HzdXdbje8Xi86OjoOXJoVlmURi8Vw69YtRCIR5PN5qpElCxlKpRJOpxP9/f3wer2wWCwS8d4EeJ7HtWvXcP36deTzeVpnZGHjoYceQkfHWgATqU63B9eSVbzrmzHkaxIBbwcML+CwVYVPPObESEdza6t15zAMcrkcKpUKWJYFwzCo1WpgWRa1Wg0Mw9TtI9tkP8MwYFl2033gdsT8TvuA1zXvm/kQ8i7WvotJuvizV8h7o3/46uoqpqenMTs7S9OWESKk1+vhcDhw5MgR9PT03NUCjISDhVbWXuVyGeVyGcViEfF4HJFIhAbqJceLLR+J3ziR8VwuFzweDzwez7bHlkimMvjon/8t/uLz34BqF/fp7cSaVa2AT37k1/BTP/L0nrcAkAj4HbAVwupuFHgbJ76FhQWMj48jlUrVkUuLxYKTJ0+ir6/vjikbGq+Zy+UwOzuLmzdv0kAY5Di5XA6r1YrOzk4MDg62DP62E2jlU1SpVFCpVLC6uopoNEq1ua3IOBmstVot9Yf3er00yMd+BXFxIGlnisUiGIapI94KhQKdnZ04cuQInE4nDAaDRLw3AUEQUKvVcOHCBczPz9O0bcBasLW+vj6Mjo7CZDLR46V63R7wgoCRz68gU+WkOm4DDCdg2KnGXz3ZgS7TnQWpZm2XkDNxWsnGT7P9YkLejKQ37hNvb5XW/Xb7m+1rJO/NyHwrgt+KoBMyL/7dqJm/F+5x5PmANaVAPB7H9evXEYlEqJkwMU83Go1wu904fvw43G631NckbBitFC5EO55MJhGJRBCNRlGpVFpaP2o0Guh0Omi1WjidTni9Xng8nm2JC/RPX38Gv/HfP4Vsvgilcn/4QG8G1RqDw70BfP6T/w3HDvfudHHuChIBP+AQ+2snk0lcvHgRoVCozidGr9ejt7cXp0+fhlarbfuawOuRKV977TVMT0+DZdm645RKJSwWCwKBAIaGhihR2C1o5VNUrVZRqVSQy+UQDocRDoeRSqXWmeWLv9VqNV09tdvtNI/1fgnixjAMVlZWcPPmTSQSCZTLZZoySEy8vV4vBgcH4XK51qWbkQhi+xAEAZlMBpcuXcLi4mKdv7dKpcLo6CgGBgYkf+97ANJun/xKGNMZRmrHbaDKCXikU4svvXljpoRbVbeEmDcj8Y2kXfz7TgS9VqvR3+L9W61538h+MTlvReTF+8XbhKCLyXkzwt64vVHy3jh3FotFmkIxm83WzadyuRwmkwmBQAAjIyO7Tm6QsHfQrE+yLEsVLslkEtFoFOFwGIVCoSUZV6lUVOFiNpvR2dkJr9e7Jcql6bll/PYffAb/8swr0GnbsxbarxAEAZVqDe//hf+AD/7yT8Fhu3fpjrcaEgGXUDcAFYtFXLlyBdPT03S1n+THdrvdeMMb3gCHw7FhIaJcLiOdTmNqagpzc3N0NZvcX6VSwWq1Uj+v3aohbhysBUFAtVpFtVpFoVBAJBJBOBxGPB6n6dnIceJvpVIJjUYDrVYLm80Gn8+Hzs5OmM3mPSe4MwyDxcVF3Lp1ixJvorUgE5VKpYLX68Xhw4fhdruh0+moplYiK5tDKBTC+fPnkUql6qL36/V6PPbYY/B6vVAqlVL93kP81kur+MJMQcoFfgcIggCFXIZ39hvwx48471kb3S7y3u63mJSLibr4d7P9HMdtOXlv979mJP1232Ly3kjWG4l7M2KvVqupby3LsigUCrh16xYmJydRrVbr5lKVSgWTyYRDhw7h6NGjUtoyCXeF2ylcarUajXMUCoWQTqfXLRqJ+4xGo4FGo4HJZILX60VnZydcLtem4gL9r7//Gj7wkU9DLt/fKcfaBcdxMBr0+MpffhQPjh7f6eJsGhIBlwBgfZT0W7duYWxsDIVCgWrVgLVgTvfffz+CwWBb0SAbB7RSqYTV1VVcu3YNS0tLddcG1rTEVqsVhw8fxsDAwB3N3ncKrYQhIjyVSiVEo1GEQiHEYjGa75ScK/4mUXXVajUsFgt8Ph/8fj9sNtuuHmwZhsH09DSmp6eRz+dRrVbpogMh3mq1GsFgEIcOHYLNZoNWq5WI9xbgxo0buHLlCgqFAt0nk8ngcDhw9uxZWK1W+g6kOt4cWJYFx3FQqVRt98Ov3irgv7yckiKh3wEcL8CtV+CDp234sYG9YQG0HeS93W2O41qS92bEXby9XeS9nf/FhHwj2yRNnFqthkajoYsX2WyWasPF/rlarRZWqxVDQ0Po7++X+p6Eu0YzqzGe52nfKhQKVMaLRqPr5DqyLZPJqHxnMplw6tQp+Hy+tssxtxTG7/zBX+BL//Y8DPrdqZi61xAEAcVSBR/5zf+I9/3cO2Ay6ne6SJuCRMAlUIgHHBK5+ty5c0gkEnWDi1arxZEjR3Dq1Km2CHIzrXGpVEIsFsPVq1cRjUbXEXGNRgObzYZjx47RgCu7Fa2EG6LBqFariMfjWFlZQSQSoYsa5FzxdeRyOTXfIyungUBgVwVxYxgGMzMzNMge0Uo0Eu/u7m4cOXIEDoejLkCJRAo3D5ZlceHCBdy6dQvlcpnWo1wuR19fHx544AHo9WuTkVTPGwPP83VpamKxGDweD06dOgWDwdDWNSJFFme/HEZBioR+WzC8gEGbCn/5RAf6rftfa7ld5L0ZWW/8cBzXkqC32icOZLfVPu/tHtNIzEmA2MYFBfE1dDodNBoNdfcSa9XFn2b7ic+7BAnN0KwPk35SqVQQDocRCoUQiURQq9XqzNTJ+Xq9Hu94xzvank8A4J+/8Sze+6E/QY1hoNjFcvC9Bsty6HQ78I3//XEM9nfvdHE2BYmAS1gH8epyqVTCq6++irm5Oeq/TUy/3G43Hn30UZhMprYm6cYBjOd5lEolmpM8k8nUEXGZTAaNRoOOjg4MDw/D7/dvzwNvIVr52oo1GOl0GktLSwiFQshms3XHN/q5KZVKmubM7Xajq6sLHo+nZY727QTLspiZmcGNGzdoDm8C0l40Gg16enowMDAAp9NZl/tWIoR3h2w2i/Pnz2NlZYUKxqSdPPDAAzh06BBtF1Jd3xk8zyOXy9HsBslkEqVSCRzH0QjaNpsNTz75JJxOZ9vX/eF/iWA8UQMvvYOmEAQBvAA87tfh829073Rxdj22mrwDuC1hbyT21Wq1KWkXk3Vioiv+iF2wNlPW26EZ+RafKybv5Hixhr3Vh1ijNRJ0jUZzx31SVPaDg2Z9Upx1IRaLYWVlBaFQCKVSCcDrGUne/va3t32fUDSBD//JZ/G5L34Teq2Ufk8MQRBQKlfwid99P37+XW/ek77xEgGX0BTiAYZlWUxNTWFsbIyaUpP/TSYTHnnkEfh8vrYHh8bBi+M4lEolzM7O4vr16+vM3mWytWjinZ2dGBkZoemU9gKaDdQ8z9PBOpfLYXl5GcvLy+t8eRu7Jskjq9Fo4HK5EAgE4PP5oNfrt21gFgQBlUoFN27cwPT0NCqVSkviPTg4iMOHD0Ov10vEe4sRiUTw0ksvIZPJUCGamLY99dRT8Hg8UCgUUl3fBizLIp1OIxqNIhqNIpVKUaJAzM0b649lWbz5zW9GMBi84/XJuf97MoePXkyjxknvohl4QYBZLcd7hy1434hFarPbiK2oW/GicKtPs/8bNe/kIyb0YuJO9hOLqnbK3mzBu1Hr2Pj/na5Djr0TWW88TpwajhD0Ztp3MXEn2xJ537to1k7Fi7irq6tYXl5GNBpFZ2cnHnzwwbb75fPnruAXfvPjiMaTknVGE1RrDB47M4K//qMPItDp2unibBgSAZfQEuJBgud5RKNRvPjii3URSQFApVJhZGQEJ0+e3JCpeDMiXigUMDU1hddee62O7AOgOba7u7tx/PhxWK3WLXrSe4Nmg64gCFT4LxQKWFlZwfLyMuLxeJ35X2M3FWvHHQ4Hurq60NXV1bY1QjtlrVarmJycpGnkxBHsxabmg4ODGBwchMFgqJskJMF6a3Djxg2MjY2hXC7XtQObzYY3vvGN9J1L9V0PjuPqCHcymUSlUqFmrOJAkASNFjparRYPPfQQent724p5AayZoT/2pTDKkh94U7C8gH6rCn/9RAcO2dozP2+XSEnYGmyl1p18tyLrzX6TvO5ict6MyIu/i8UiOI4DsF5D3q6F3t2iGXlv/N24DwCNNN9IzhuJezNC3+64JGFnQOYbIs+1k0kIABiGxac+92V84KOfhkGvk8a+JljTglfx4pc/hTecOrbTxdkwJAIu4Y4Qm6QXi0V873vfQygUqhNgFQoF/H4/HnvsMWi12g0NFs2IeC6Xw9WrVzEzM0MnVQK5XA69Xo+BgQEMDQ1tyJ9mt6AVGSfEoFQqIRKJYGlpCZFIpGkQNwK5XE6jxtpsNgQCAQSDwU0FcROEtbzSk5OTmJqaQqVSaUq8VSoVBgcHcfToUYl4bxM4jsP58+cxPT1dZ3UAAH19fThz5oyU31sEjuOQzWZp/lYSkV/crxrRSLj1ej1cLhe8Xi+8Xi9MJtOmzEt/6bkEvrlQkszQG0Da6VMBHf7mqfY1FtlsFtPT01Aqlejt7d2T2SIOErZD8367feQTj8fx6quvIpVKrdOKy2Qy6PV6dHR0QC6XryPwJGDddvq83w7NiHmrfeJtcZq4VqSdEHsSmVtsNi9he9CqD7TbN6bnlvGBj34a33r+wp40r75XKJbK+K1ffjf+y3vfDYtpb3EBiYBLaAuN2vDLly9jYmKizheVmKQ/8cQT6Ojo2PBEJr4HEZpTqRSuXLmChYWFdcfL5XIYjUYMDQ3h8OHDO+IXvRVoZUZH/PRIELeFhQWsrKzU+RQ1dl/i60bqxu/3o7u7m5oo3w75fB7j4+O4desWNZNvvLZer8fw8DAGBgbWEROJBG4d8vk8Xn75ZYRCIfoeZLK14IinT5/G8PAwDYB4UOud4zgkk8k6ws2ybF3+5kY0Em6dTkcJN0kDqFAo6vIhE7RrEiuTyXA+UsG7vx2TzNAbwPECPAYFPvKAHW/qMbTddhcXF/HKK6+gUChApVLBbrejp6cHwWBQygG9z3A34xmJln7z5k1cuXIFlUplnXWQSqVCX18fTpw4AZ1Ot85snqQVFWvaGzXwzfaJ3cc288x3g2aE/U7fYvIuJuVi0i7e10juJfLePhpl23bayQvnx/Gzv/57SKxmoFRKVg6tUKsxeHD0OP7uTz8En3fvuKcCEgGXsAE0DiIrKyt4/vnn60xjZbK1QCZnzpzBsWObMwlpvA/LsojFYhgbG0MoFKK5jcn9AMBut2NkZAQ9PT173lemld84qYtkMonFxUUsLi4in8+vqy8CMsmSnJSEjPt8vjof7UKhgCtXrlBrg0biIpPJoNPpMDw8jMOHD6+bfA8qAdwupFIpPPvss3X+3sCameLZs2fR1dVFF1MOUt3zPF9HuGOxGBiGqQsY1YhmGu7Ozk54vV643W6YTCZqPdJKy73ZOv7Jb8XwcrgiacG/D0EQIAA47dbiK292t10ngiDg1VdfxaVLl+jYTt6XQqFAR0cHent7EQwGaQYACQcLzazoyuUyxsfHMTU1VTc2kHnRaDRiZGQER44cWTefib/b3dcYjI6Q9NuRebK92TFmq83mN7KPaNRbkXTx78ZvaTy8M/7ha9/Bu3/1d2EyGaT6ug14nocMMrz6r3+FI31dO12cDUEi4BI2jEaT9GeeeQbxeLxuMlAoFAgGg3j88cc3RYgbCbYgCGAYBsvLy7h8+TKSySQNOkWOEwQBbrcbp06dgt/v3xeDVitTdfIhAT4WFhZuG8RN7H+mUCgoCUmlUpibm6sj3mKNgVarxfDwMAYHB9flQz5I5O9eYW5uDi+//DK1ciCwWCx48sknYbfbD4zmgbTvcDhM/biJKT5ZkGpEo8aaBG8kGm6LxUKPE5tyNt73bto1Of+rtwr49RdXwfFSPwHWgq/ZtQp86LQV7zrUvtY6n8/j3LlzmJmZgUqlamr1Q7R5Xq8Xvb296OrqatvXUsL+QeNiNM/zSKfTuHDhApaWlupkBmBNTnE4HBgdHUUgENiS+99pu9l/dyLv4u9GEr9T5L3xns3Ieqv/xH7u4k8jeW8k7o0yyH5FOpvHH37mH/DxT39+z+a4vlcQBAH5Yglf+cvfw1ufegjKPRQTQSLgEjYFMQmXyWR46aWX6EqzeL/VasUb3/hGmM3mu7qPGNVqFbdu3cLExARyudy6iOkymQx+vx+nTp3alCn8bsXtyLhMJkM2m8XKygrm5+cRi8Xq/NlaCa2EyJDfYleCU6dOob+/HwAk4r3NEAQBly9fxrVr11CtVgG8bnLe29uLBx98EAbD/l8Jj0QiiEQilHQDzX1ACRoJt1qths/no4TbbrevGxsasZ3t+S3fiOBqsgZBAPb5q7stiPb7PpcG33irB8DGggZWKhWsrKxgZmYGkUgEDMO0dMEhi4w+nw+9vb3o7u6GWr3/c41LWENjuyKm5cvLy7hw4cK6dKfAmja3q6sLo6OjGw7uupX+7hvd10jemxH3VvuI9dBuIO/t7iPkvRlxb7bd6AO/V+bP+eUIPvixz+Cr3/qe5P/dBkrlCj7wiz+BD/7KT+0pP3CJgEvYNBoH77m5OTz77LPrSLhKpcLjjz+Onp6eLbkX2S6Xy7h+/TomJydRqVTWTaoKhQK9vb04ffr0vvMTbOU3TkAE1vn5eaysrIBhGHp8qy5PhNdAIID77rtv3eKFRLy3B7VaDS+88AIWFxfrovhyHIfR0VGcPHly3wa5i8ViCIfD9AM0N/ckaBwDxCblHR0dcDqddVYgzRas7kXdkftciFTwY9+MHXgzdF4Q4NIp8GePOvGoX9f2eeKFXmDtfRaLRSwvL2NmZqYuW0SrxRmVSoVAIID+/n74/f4976IkoT00I+IMw2BychLj4+NN02lqtVocPXoUw8PDeyamTDsifCsyfzuNezPyTtKQ3g15b7fMrdDOPVuR+dtp2Fv93gny/ur4FN7zG7+P+ZUIVNJ4dUdUqjX82FvO4k8//D447ZadLk7bkAi4hLuGeCBOp9P49re/jVwuR/8D1jSoR48exUMPPbRl9yLbuVyOBg8Ta0bIN4nYPTIysm99BJsJG8DapBOJRPDqq68iHo9vKFCMXq9HMBhEMBiE1+uV0p1sAzKZDJ577jkkEom6/XK5HGfPnkVPT8++MrlLJBIIhUIIh8MIhUK3NdNstvij1Wrh8/nQ2dlJTcobXS3E2A2LFR94cRVfmCnsaBl2EoIgQK2Q4Uf6jPjjRxzf39e+RcDtxrZisYjFxUXMzMwgkUhQq59mbUIQBGg0GnR3d6O/vx+dnZ3SmHYA0Kz9FAoFjI2N4ebNm02Pt1gsGB0dRX9//46PH9uFuxH9CXlvRtBbEXlxrvedKPPdvEdC3luRdK1We1uT+o3iu69cxjt/6f9FtcZAsY/m/+0Cw7IYGgjiq3/9Mfj3UCA2iYBL2DKQiY5lWTz33HNYWFhYZ6rucrnw9NNPbxkRFk+uqVQKly5dwuLi4jp/ZkEQoNPpMDIygsHBQWg0ml0hnG8HyHMtLS1hYmIC0Wi0qX93M8Gklcm6Wq1GV1cXenp64Pf7oVarm2rhJdwZpJ4XFxfx4osvolAoUOsNQRBgMpnw9NNPw+l0Nn1PuxWNpIcETyTabbIAJMadLCw0Gg06Ozsp6W40D90LdVNgeDzwtz/kYAAAIABJREFUzyFkq5tPcbRXIQgCeAB+gxJff6sHHsPWaXMa330+n8fCwgJmZmaQSqXWueA0EnONRoNgMEjJ+O18WCXsD4jnLEFYS1t2/vx5hMNh6h8ubiednZ04ffo0PB7PThZ7V+Fux1xBEFqS9lbEnRzTmJnlXpX9bom/2WzGj//4j7d9zv999hW89ac/ALN1c66bBw28IIDnBEz8+2fRH/TvdHHahkTAJWwpxAPc9evX8corr9D9BDqdDk888QR8Pt+23DcSieDixYuIRqPrJlye52E2m3H69Gn09PTQoD77QeAiz7G8vIyLFy8imUyue37ynG63G6Ojo9Dr9VhaWsL8/DwSicQ6jWSj0CoIAg3iRoIdiRdT9kM9bjcEQcDExATGx8frXCcEQYDX68XZs2f3RH7vxqmD4zjE43Gq3Y7H4+vy6t6OcMtka5GJiXbb6XTCZrOtu+dO1sfttO2tjpfJZHg1WsE7/y224+W/lyB+3zaNAh9/aGNpxzZzL/F1s9ks5ufnMTMzg2w2W7fw0ziuCYIAvV6Pnp4e9Pf3w+1+PUL7QXlXBw3i9sJxHObm5nDx4kXk8/l1bUOpVGJgYAAnT56E2Ww+UH14q7FV5J2QdELMW2nbicl8K/K+EfqzmbILggC5XI5gMIinnnqqrXNqNQaf+T9fx/s//AmY95A/804jl83jtRf/EYd7904kdImAS9gWkMEqkUjg29/+Nkql0jr/7JMnT+LUqVNbNqE1amQXFhYwNjaG1dXVujIJwlpQlo6ODpw5c6bOFHGvTaziZ15ZWcHFixcRj8fp/82IN4kS34hqtYr5+XksLCwgFArVRZpuph0nk4vT6aRknGgoJQG2OWq1Gl5++WWaa53UD8/zGBoawgMPPLBr83uL3zvweh5uMeEmLiDN3r/4ecg3IdwkaJrRaFx3z91QB6Qcc3NzkMvlNJXfRs798/EM/mgsA2D/9wvSRrRKOX7qiBEfPmO/5/73BNlsFnNzc5iZmUEul6OLXeJjxb+NRiN6e3vR19eHjo41c0Zxm5awfyBuK9VqFRMTE5icnKzzcSYL93q9/kBY0O1GbEVdi83mxVr12/m8ExJPYrOIr9Xs+s32bZSAF0tlfOKzX8KH/vAvYTZKBLxd5LJ5TH3vH/dUKjKJgEvYdtRqNXznO9+hPp9iUujz+fDEE09sacqYRrJ48+ZNXLlyBfl8vu5/QVjLq93V1YXTp0/D6XTuGSJOui3LspidncX169fpQgPwOvEm2tXe3l6MjIxQgZJco9FEk4DjOCwtLWFhYQHLy8s03Qn5NCPjwFq6rJ6eHgSDQTgcDsjlcurDvNvrdLtRLBbx3HPPYWVlpc6vW6lU4oEHHsCRI0fqzCB3GuSdEu1htVpFMpmkZDuZTKJardblz25GuMXkxWAwwOv1wuv1wufzrSPcuw2kDlKpFF566SWEw2HodDr88A//8Drt/J2uI5PJ8JPfiuGlcGXXvOPtAKkzpVyGswEd/uZJ146WQ1zPJO3i7OwsCoVC00VG8ThnMpnQ19eHvr4+OByOde1Zwv6AuD9ms1lcvHgR8/PzdfMdWbh3Op04ffo0urq66sY+CbsXW6F5vxNRb/VbEAR0d3fj7Nmzbd2rWCrjzz/7JfyORMA3hFyhiK/+1e/hLU88BKVyb8T2kAi4hHuGsbExXL58uU4DAayRtrNnz255yrBGM7Nr165hcnKSauPJ/zzPg2VZHDp0CKOjozCbzbuWiJNycxyH+fl5XL58Gel0uo7kEuINAD09PetSq9xuMmr1XzgcxsLCApaWllAsFqlWoBUZ53keBoMBwWAQPT09cLlcNJLoQRRgw+EwXnzxRayurkKpVNK6MpvNePjhh2ne+p0kZmLiQQQOsYZ7dXUVLMu2RbhJ+7NYLFS73dHR0ZRw70YySuqgUqng4sWLmJ6eBsdxkMvlYBgGx48fx5kzZzYUKVkQBBRZAT/xrRjG46+nmttPIO1aLpPhkFWF//ODLrgNyh1/x83IeCKRwNzcHObm5lAul8Hz/DpTdfItCAKsViv6+vrQ398Ps9lM2/l+e4cHFY1tJBQK1VmUieUFQqpGR0dprA6pHexPbMXYxbJs29kXJAK+OeSLJXzuT34HP/7WJ6BWt2edttOQCLiEbYd4AFtZWcF3v/tdlMvlOgFHpVLh/vvvx7FjxwBsrWAqvn+lUsHly5cxOzuLSqWyjogDwNGjR3HixAno9XooFIpdMbESUsuyLBYXF3HlyhWkUql15r6E+BDhQKyl2+hE0kxoBYDV1VVKxtPpNC2bONAbOZ8sFmi1Wvj9fvT29sLr9UKj0VDt+G6o3+3E9evXcenSJZTL5ToNt8fjwaOPPkoXR+41SSHvhwiUDMNgdXWVEu5kMgmGYVpaMZDyiv83mUyUcPt8vqYEdafJ2J1A+tn09DTGxsZQLBbpOEAWt9RqNd72trdtSAtOUKjxeNPXI5jPvZ4acD+gkXx//o0uuPQ7T74b0Wxci8fjmJubw/z8fB0ZbzRRJ2Ocw+FAX18fgsEgzGbzgRnLDgIaF+6np6cxMTGBfD5fpzzgeR5KpRJHjx7F8ePHYTQaJSIugaJx3Gt3HJQI+OaQL5bwt3/6IbzrLWclAi5BghjiwadQKODZZ5+tS4tF/u/r68PDDz8MtVq95RNZo5nZ5cuXsby8TM2EyDE8z0OlUmFkZARDQ0OULO7ExErKU6lUMD09jRs3biCXyzUl3mq1GgMDAzh69CgsFkvdNbbKx77xOqVSCXNzc1hcXEQymQTHceuEV3IuIeMqlQoej4dGVDcYDHUC7H4QYMizXrhwAZOTk+B5nroDyGQyHDlyhGpQWy10bEeZxO+mWq3SoGmxWAzpdBq1Wq3uPTQKEOQ9kWMMBgM8Hg8l3M1cSXYbAWsFUj9LS0s0iGEj8ZbJZAgGgzh16hSsVuuGrBbEZO61NIOf/nYcyTIHbo/Uz+1A2rBCJsPALibfjWhWvkgkQse0arVKx7RmJuoA4HQ60dfXh56eHjqW7ZaFWwmbh7htlMtljI+PY2ZmBtVqtU5uYVkWJpMJ9913H3p7e6HVavfNPCbh3kMi4JtDvlDC3//5f8V/ePMPQN1mfJadhkTAJdwzNBKy8+fP48aNG+A4ro4AO51OPP7447Db7duSA1lcjkQigbGxMcRiMernTI7hOA46nQ6nTp1Cf3//PSXihAyUy2XcunULV69eRS6Xqwv8RIi3RqNBX18fRkZGYDAY6q6xXWVtdu1arUb9xkl98jxP328jGSdCjNPpRDAYRFdXF8xmM5RKJRVg96IQIwhreWZfeuklzM3NUdMzmUwGlUqF0dFRHD16dNv9vcWEm+M4MAyDeDyOSCSCSCSCZDJJFwbuRLjJ+7BYLDRomsvl2pMa7kaQvp7JZHDx4kUsLCzQviXW8rtcLoyMjKC7u7vu3I1alZDjI0UWv/zdJC7Hq+D3WJ2JQZ5JIQP6rSp8/gf3BvluRLPyrqysYG5uDisrK6jVamBZtikZJ2OZ2+1Gf38/urq6oNPpoFAoJDK+xyFuF6lUCmNjY1hZWaFtgbQDhmHg8Xho2rLtUCJI2P+QCPjmkMsX8MKXPo1H7h/eM/1OIuAS7jnEE9r8/DxeeumlOpN0nueh0+nwhje8Af39/dQfezvLsbKyQs26q9Vq3TEsy8JqteL++++nObC3q0yELFUqFczNzWFiYoISb7G2TalUQq1Wo6enBydOnLhnxLsZmt2P53msrKxgcXERkUgE5XIZHMdRbVIzMs7zPOx2O7q6uhAMBmG1WqFSqaBUKveMeSfP84hEIjh37hyi0SjNl07I65kzZxAMBgFs/XsiRJJ8WJZFMpmkhDuRSNyRcJO2pVAoIJfLaZRyj8cDn8/X1I9trxEtMTiOQ6lUovEhGIapi/+gUChgNBoxODiIoaEh+t/dPHOdJU6Vw3ueSWAiUUWN23v1KACQAdAoZDjZocYnH3fCvQfJdztYXFzE/Pw8wuEwGIYBy7J1i4tiKx+FQgGv14v+/n5qGSJeWJSwt9BopbS4uIjx8XFq9SV2Y+N5Hv39/Thx4gRsNhuUSqX0ziW0jVK5gk9+7sv44O9/RkpDtgHksnlMv/TPGOjx75n5RyLgEnYE4g6SyWTw/PPP08mMTGQKhQJHjhzB6dOnodFo7ok2d3Z2lpJeohEn5eE4Dh6PB6Ojo1T7t1UaerKCTvLXTk9PI51O01V0MTkyGAzo7e3F0NBQXQ7u3TDotDKnjsViWFxcRCgUQqFQAMuyVIMgPl6ssTWZTAgEAujt7YXD4YBard7VQizHcbh58yYuXryIYrFIg62RVG0PP/wwjUK/Fe+KCPuECLAsi0gkgmg0ikgkgkwmQwOHNZr3k/s3Em5xlHKv1wu1Wr3unrux7jcKjuNQrVaxsLCAy5cvI5PJ1C1yKRQK6HQ69Pb24tSpU7QetsOdo8Dw+NjFDL4yW0CREfZcHVvUcrwxqMcfPewAsH/aCNB6cXF5eRnz8/OIRCJUM07yDDeScaVSCZ/PR+NfaLVaqFSqXTuOSWiNRv/wGzduYGpqCvl8vs6Sj7haHT9+HEeOHIHRaJTet4S28Xdf+hZ+9v0fgdli2umi7AkIgoBCsYzXnv88DvUGdro4bUMi4BJ2DI2T2csvv4zZ2VnUajUqxPA8D7/fj4ceeghWq3VbTNIbywIAk5OTmJycRLFYrMsJSgI0BYNB3HfffbDZbNTna7P3JcR7enoaN2/eRKlUolpfcl+VSgWDwYD+/n4cP368zhR9Nwu8zcqWzWaxuLiI5eVlZLNZMAwDhmGa+o2T+tbr9fD5fOju7obb7aYaJUKadhKCsBYx/MqVK5iYmKCkmxC5np4ePPDAAzAYDHft700EffKJRqP0E4/HqZB3J8JN6o4ETXO5XHA6net8uHdz29oMeJ4HwzCIRCIYGxtDNBqliw/kvalUKvh8Ptx///00lsJ21EPjNb9yq4A/vpxFrMTuem24IAhQyWXo0CvwGyeteNchI92/m8t9N2j2bBzHYXFxsc7thmEYmjdYPI9xHAe1Wk3JuMfjkcj4HoW4LRSLRYyPj2NxcRGlUokqEcjcbrFYcOrUKQQCAej1+j1jzSXh3oO0q289fwFv+pnfhNGgk9pKG+A4Hg6bGS988ZMIBrz/P3vvGR1Zep4HPpVzzigUCijkbqQOM9PTmiFHokjKlGlrD6UjU9Z65SXNo3Msee3V0qv1SjYtn7Xl5VLR1irRsixKq7Bcy5LWXAXaojihp6cb6EYD3Y1GrkLlnOO9d3+A3zf3VkAD00CjCn2fc+4phLr53u97nzc873kfzrEhEnAR5w7+ZPb48WO8++67AmE0hmFgsVhw48YN+Hy+Y7dzeNZjabVaWF1dxebmJsrlMlqtliBNnmEYzMzMYGFhAUaj8URRepZl0Wg0UCwWsbm5icePH6NSqQiicIQM6HQ6jI+PY25u7tQjcc8T3Y65UqkgFApRRXXSR7Nb3Ti55gqFAh6PBz6fD16vFxqNBkqlUtDm7HmBZVkUCgXcuXMHjx8/FjhGNBoNLl++jPn5eUEq+nFByh+IQd9qtZBIJASEm5BtvhI5WZdcC5LGr1AooNfr4Xa74Xa74XK5Ot6lQXyujgNiDGezWfpOkxRzcs5KpRI2mw1LS0vw+Xx0PeBsBfL41/xRpoGfXcnjVrSGXIPtu/vBcRykEgksKinmbEp84YYFE+aTP9uDjm7n22w2sbu7i2AwiGQyiWazSccyQEjGW60W1Go1zfBxOBxQqVS0vOlFupaDDP5zkEgkcO/ePcRiMYFQG3H6DQ8P4+rVq3A4HFCr1WcWTBDRHyBZMCTTjzjajoO3767hB//Bv0A8mRmYntbniUazhVeWZvA7/+YLGHLZz/twjg2RgIvoC/Ansng8jjfffBPZbJZ6k0n0YHFxkRKa52UU12o1rKysIBgM0vRpYkyRFN/Lly9jdnYWer2+qxI0AVE0z2az2NjYwP7+PsrlcgfxVqlUsFqtGB0dxcTEBN3mRTF0u51Ho9FAOBxGKBRCMplErVajEaVuZJxEzN1uN4aHhzE8PAy9Xk8N2bOONDAMQyOp4XBYUDtsNBpx/fp1TExM9DzfdhCSSOpLa7UaEokE4vE4MpkM4vH4Uwk3cdoQ0k1Uyl0uF1wul8BBcNzjGnQ0m00Ui0UqZliv1wXCeHK5HEajEbOzs5iZmTmVOu+Ton1fX90s4ZfXCoiVGeT7hIhzHAeTSoZRoxw/OGPA33oBot7HQa+xjLRqTKfTAsditwwfnU4Hn88Hv98Pu90OlUoFlUolkvEBQLuTbmdnB2tra8hkMoIyNuJUnpqawtzcHCwWiyjUdkFAiHZ7SVi5XEY2m0W5XMbs7Oyx21Yurz3B3/vH/xoPN/cGRtH7PFGp1vEP/u6n8JP/8IdgNurP+3CODZGAi+gbtKd13bp1C8FgkKakk3rhQCCA69evn2lKerdjKhQKWF5eRiwWQ6lUopEN4JCMqVQqzM3NYXp6GhqNRqAQTRTNs9ksHj16hK2tLdpHtBvxnpycFAjQXWQjt1uUkWVZxGIxhEIhxONxVCoVasTy68b5ZJxlWdhsNni9XqqoTgzZduL5rCDRrjt37iCTydAIt0wmg9PpxMsvvwy3203Pr9u94xPuRqOBer2OZDIpIN0AjmzRRtrPKRQKKJVKGI1GuFwuOJ1OWCyWDpXyi/wctYNhGJRKJYRCIaysrCCXywk0FWQyGQwGA0ZGRrC4uEj1FM7zGrXXhv/WoyL+aKeMcJlBrn4+RJzjOJhVMji1Mvz1MS0+e9kIg1KM3nVDt/tTq9Wwu7uLUCjUkeXDJ+NEPFGv12N4eBijo6OwWq1Qq9U0YvqivLuDiPbsufX1dWxtbSGfzwuy51qtFlQqFRYWFjA+Pk47f4j3tv/RTXel1Wqh0Wggl8shm80in88jl8vR8jqJRAKVSoWPf/zjGBkZOdZ+wrEk/un/8WX85lf/P+g0vQM6Ig5RKlfxs//sR/HZT38SWk1nZ5Z+hUjARfQV+GSMYRg8ePAADx48EKikt1otuFwuvPTSSxgaGjp1ctXruPgR+gcPHiCZTKJUKlFCSI5Nr9djcXERo6OjUKvVYBgG2WwWjx8/xubmZgfxlslkUKvVMJvNLxTx7oVu55xKpXBwcIBIJIJyuYxarUbT/Pjfbxdx83q98Hq9NMWTRMefpWa/Wq3i0aNHWFlZQaPRoGJrSqUSfr8f169fh9Fo7HAskFTEer1OI9zpdBqJRAKJRAKZTIY6YroRbvKsKJVKuhiNRjidTjidTjgcjo4Utxfx+SHOrlgshnv37iEajQo0FaRSKTQaDTweDxYXF2G3H6as9cu1aj+OQoPFVx4X8bW9ChJVBpkai1qLPdNj5TgOarkUNrUUVrUUHx3R4jOXjTAqO7MuRHRHt+tTLpext7eHcDiMXC6Her1Oe413G8OMRiONjJvNZpGMDwD4971YLGJ1dRUHBwdUqI3M+41GA1arFVeuXMHQ0BAMBoN4X/sIJDuFZKSRpVAoCEh2Pp9HuVym83W7BgvHcZDL5bh69SquXLlyrH03mk380n/4j/hHX/gFGA2DE9E9D3Ach2qtjm/8wS/i5vX58z6cE0Ek4CL6EvxJLBQK4fbt24KU9GazCZ1Oh6WlJUxPTz+TENqzHNf6+joymQxKpRIlXCQqSyLZ+XweGxsbXYm3TqeD1WrF+Pg4RkdHaWqsaNweopeIWyQSQTgcRqFQQK1WQ61Wo1GGdkOWZVmoVCoMDQ3B6/XC6XRCo9FArVafSMmeZVlks1msra1hfX1dMMlqtVrMzs5ibm4OKpWK1n8Rwt1oNFAulynhzmQyyGazVO2/F+GWy+WCKL5er6dk2+l0ioSbB47jUK/XkUql8OjRI2xubgKAoDRApVLB4XDg0qVLGB0dpeuR//cT2u9lpcnivxxU8RehKh6mGyg0WOQbLCpN7lT6iHMcB51CCpNSCptGhmmLAh/xafDdo9qO57LfrlW/o9s1KxaLCAaDCIfDyOfzdBzjt2kkRJxlWVgsFqp7YTKZoNVqRTLex+Df81gshrW1NZrN1V4fPjIygoWFBdjtduj1h4RLvKfPB3ytFf5npVKhZJsQ7kKhQO9deztPfjZLu/6KSqXC2NgYrl+/fqzjkUgOhdi+5zP/CxRKBaTis9ATrRaD4SEH/vQrP4PRYfdAzU8iARfRt+C/SPl8Hrdv30Y4HEa9XqcRcolEgqmpKVy5cgUmk+m5CJu0v+Db29t4/PgxrfUhBJsM7KTOlID0Frbb7ZienqaCT922LeJ99BJxi0ajiEQiyGazqFarqFargto7MsQRQ1YqlcLj8WBoaAgulwt6vZ4S8l4iKQzDIBKJYGVlBaFQiN5PqVQKs9mMxcVFTE5O0om7Xq+jUqkgk8kgmUwiHo+jWCw+NcJNJmviHDCZTHA4HHA4HDCbzS+MaNpJ0Ww2kU6nsbu7i0ePHlFBQwDUELJYLBgfH8fs7OxAObq6HWO03MKtWA33Uw1sZptI1xiUmhyqLQ6VJosaw6HF9i59kEok0Cok0MglUMukMColMCqlmLEoMW9X4qMjGphVonPnLNDLqRgMBhGNRlEoFOgY0ouMW61WqnthNBqh1Wqh0Wi6lqmIOD+0O/e2trawsbGBdDqNWq1GnwViJ0xPT2N6epqWHoj38nTBMAzVleGXfxWLReTzeQHhJnZmO9kG3r+f5P4RkVOyKJVKOn+TxWg0Qqc7fl/vlfVN/MhP/AzuPngClVKsA++FWq2OT3/Pd+KL/+vfh8NmPu/DORFEAi6ir8GfwBqNBlZXV7GxsYFSqUS/02q14PP5sLS0BI/H89xT0gGgXq/j7t27WF1dFaQe8Qdq4JCwORwOXL16VVAPJBq3J0O3qGWz2aQ9sFOpFCqVCiXk7WScGLMSiQR2ux1DQ0Nwu90wGo3QaDTQaDT0OWo0Gtjd3cXy8jLS6bRA0dxsNuPy5cvweDzI5/PIZDJIpVJIJpPI5/PHinCTtFKVSgWj0Qi73U5Jd69zF5+VQzAMg1wuh2g0ivv379P7Q9LN5XI5zGYzvF4vLl26BKPRCGBwr2Gv497MNbCdbyFcauGg2EK8yqDS5CCVANUWh2qLhVYhhUomAccBShkwrJdjSC+HQ30Y7Z6xKo+9PxGng27XN5vNIhgMUqdduVwWkHHi3CWiXjabDcPDwzSNWafTiWS8z8C/z81mE+vr69jb20Mmk6H944nDXq1WY35+Hn6/H1ar9bnYMxcNJLOAT7YbjQYqlYqAaBcKBZTLZeoY5xNuAB3zNSkBIySbfBoMBhiNRhiNRkq2uwWDTjKeprN5/G+/+Fv4+S//PvQ67elcmAuGw/TzBn7lp/8n/O3v+ShUqs45rJ8hEnARAwH+wLW9vY179+4hk8lQo6TRaNBI5Pj4OBVUOutjarVayGQySCQSiEQiCAaDgppwPhEndcJjY2OYnJyE2WyGVqsVjaRTQLeJjbTsisfjKJfLKJfLqFarXZWISS25yWSikXGLxQK5XI5wOIzl5WVa703WUygUcLlcUCqViEajVJjvKMKtUCgowScTt81mo6S7V8RSfEaEYFkWpVIJ8Xgca2trVIWetBWTSqXQ6/WUePdbnfdp4Tjnw3IcomUGXv3T2zdetOszSOh27dPpNA4ODpBIJChZ4EdO28cvh8MBr9cLt9sNg8EAvV5P50Lxvp4/2rP61tfXEYlEkMvlqN1Aao9tNhsWFhbg8Xiei+DsIILYYI1Ggy7NZhPVahXFYhGFQoF+FgoFNJtNOje3p5Dzt0m6iRCtFfKzTqcTkG0i9Nrr2J71nfu9P/o6PvfjX6SZeyKEYBgGNosZf/kHv4Axn2fg5i+RgIsYGPBfrmQyiZWVFYTDYaqS3mq1oFAoMDMzg8uXL5/ZpMUn3rFYDE+ePKFCT/y2MTKZDFqtlrbTIgYTUUGdnJxEIBCAzWZ7Lg6DFwXdBuFcLkfJODFkK5UKVSkl6/EjSyStM5fLCbzi/P0Qw/c4hFuj0cBkMsFut8Nms8FsNouE+4TgOA61Wg3xeBzb29t48uQJjUwAhyRDo9HA7XZjYmICY2NjdD3y/xcJ7c+S+GwNBrrdp2QyiXA4jGQyiUKhgFKphHq93kHGiYPR4XDQzB4+GRfv//mDf38jkQg2NjYQi8VomRIpsWNZFqOjo5iZmYHT6YTBYDjnIz8fkGebkGyiq0JKvfL5PIrFIiXb1WoVALqSbf42Sfo4SRknhFulUsFgMFCyTX5+nucrkUjwcHMP/+if/yL+8p0VqAcsuvs8UKnW8Pd+4JP4qR/7LOxW03kfzokhEnARAwX+xFWtVvHgwQNsbm6iVCpRUROGYTA6Oor5+flTT0mv1+vIZrOIxWLY2tpCJBKBQqGgkTeJRAKlUgmTyQSXywW73Y5MJkNVb0mtFzlOvV6PqakpjIyMwGazHdlDXMTJ0c2QLZVKtNVXPp9HqVSixmw7GSfkGhDWffF/5+9LoVBQ4k4It81mg9VqhdVqPfYxihCCOEbi8Tj29/exsbGBcrkMhUJBr51CoYDT6aQG64vcSUDExUG355eU2qTTaRrl60XGpVIpXC4X3G43XC4XJRMkTV3E+aD9vm5ubmJnZwfxeBy1Wo1+h2EYyOVyTE1NIRAIwOl0Xmg7geM4AdEmS61WoySbLCTrjE+yn5Y+Tog2ETfVarUCkm0wGDq0VtqP73m9N+VKDT/35d/Hv/j534RSIbaq44NlWSgUcnzl538S3/XGKwOZISAScBEDCTIIsiyLra0tPHjwgKakA4d1uw6HA/Pz8wgEAtBoNM+0v0qlglQqRQkAP+LNJ94OhwNutxvDw8NwuVx0/Xg8js3NTUSjUZpuxifiZrMZU1NT8Pl8sFqtUCpFb+dpotekmcvlsLOzg729PSQSCVo7DAjLB/jb4A+ZxIOQ0kCKAAAgAElEQVSu0+lgNpthsVhgtVphsVhgs9mOfRwiuoMYoCTbZH19HalUCgqFgt4rmUwGu92O4eFhTE1NDXydtwgRvdD+TLMsi0QiISDjhUKhQ4SSzDNyuZyScbvdTtNon3V+FPHBwb+n9XodGxsbCAaDSCQSaDab9Hukxens7Cx8Ph8cDseRRLHfQbIB+SSbEO1yuYxSqSQg2r1E0bpFtQnBJtoqSqUSGo0Ger2eZoMQJ9RRx3ee8wfZ/63ldXzux7+Izd0DKBWDe79PG7V6A5/49hv4pX/5Y/A4bed+vz4IRAIuYmDBf+FisRhWV1c7UtJVKhVmZ2dx6dIlmEymE7+glUqFpv7t7Owgl8sJak3JYO90OuHxeBAIBGAyvZ8K0z4ohEIh7OzsIBaLIZ/PC0TBSA3fxMQEhoeHaQ2yiNMBx3E09ZzUhJNenrlcjmZRtBNw8jPZRvvPKpUKNpsNIyMjcDgc0Ol00Ol0gmdExMnBcRyy2SwikQi2trYQDochlUoFdd4GgwEjIyOYmJiA0+mk64nXXMRFR/tz3mq1aGZPOp2mIlPNZrMrGScZIyRTi4hHiWT8fMC/n9lsFpubmzg4OEA6naaBBeKQdDqdmJqawvDwMKxWa9+PdyzLUnJdq9Xoz5VKhWagkaVSqXQVRetGtGUyGSXZRMxUrVZDq9VSok2WXtfoeZUnEYdDuVyG2Xx8te58sYSf/re/jS/96u9CrVL2/b1+HuA4Di2Gwa/8q8/j+//Gd0A5oEKFIgEXMdDgT1qlUglra2vY2tpCqVSCVCqlAjXj4+OYm5uD2+3u2WqKj0qlgkQigXA4jN3dXeTzeUF9t0Ry2NrI7XbD4/FgbGyMEu9uBID/N5Zlsbe3h729PVr3RUBSBt1uNwKBALxeL8xm87GOWYQQDMNQT3qtVkOpVEIul0M2m6XEm9xT0hqMb6iSe6zVaiGXy6mKKikjAN6fvBmGAQDo9Xo4HA7Y7XZYLBaBUIs4cR4PxFFCyjz29/epuB1w+O6p1WqMjIzA7/fTOm+yrnidRbxoaH/uG40GEokEEokEstksdTISzQu+45dhGCiVSrhcLjidTgEZv8ipzv2K9vrw7e1t2iue70QBQJ2PHo+HZv6cN/hEm7+Uy2Wq6l8qlVAul9Fqtbr2026fX6VSaQfJJkRbp9MJiPZRJYfnMT9wHIdqtYp0Oo1EIoF8Po9XXnnlRC3J/vQbt/GjP/lzOIgloBCDMqjXG/jwq0v48hd/HMMe58DO+yIBF3EhQF7AVquFJ0+eYH19Hdlslg7gzWYTHo8Hly5dwvj4eM8U73w+j1gshmQyib29PQFJI5OfXq+nKXx+v596M582CLR7WpvNJnZ3d2n/13K5TEkgEZTzer0YHR2F1+vt2dpCxCH4hJukrxGiTfp8thPubiD30WKxYHJyEiaTCXK5HPV6Hblcjm6TpHoeJeJmt9tht9thNpthMplgsVigVqvF+9gDjUYDsVgMOzs72N/fR6lUglz+fu2bQqGAx+OB3+/HxMQENbYGdQIWIeK00YuMJ5NJZDIZOoYRRyLfichxHFQqFZxOJxwOB6xWK8xmM8xmc0+1ZxGnj/ZMq52dHezu7iISiaBardL7Rpwn4+PjGB0dhcfjeW5Ok1arRck1afdJotokw4zvAD9u+jgRLlWr1YJPPtnW6XRHCtee93xAbIFsNotUKkW75CSTSahUKrz88stYXFw81nYkEgnyxTK+9Cv/F37+3/3fL7wiOsOy0KhV+LV//Xl88jtfg0w2uNdCJOAiLgz4g+7BwQFWV1cRjUapodFsNmkN1czMDAwGA/0+Id4HBwfY29tDrVbrSrw9Hg+Gh4cxMjJCJ7qTDvbt369Wq5SIx+NxVKtVSsSbzSY0Gg28Xi/8fj+Gh4ePTKd6kUBaUfFrxfL5PF1IFkS7OMtRIDXFHo8H8/Pzgl7tBNVqFalUCplMRhBdIsI55Hnhp3uq1WpYrVYaGTeZTDCbzTAYDC/0ZErAMAwSiQRCoRB2d3eRTCYhl8vpe0CEpEZGRp6abSJChIhDtL8ftVoNyWSyY/zqRcbVajUcDgcl4xaLBWazWdQoOQfUajVsb29TDRp+/3CWZWEwGDAxMYGRkRG4XK5TK1/jOE5AsvlEm5BtkkpO0sf5BLubKBpwGNXmE2xCsjUaDSXY/HKuXsfWT+M/EZBLpVJIJpOIRqOIxWIol8uC9qQulwuf+MQnjiUQTM5xfWMX/8MXfgHfvH3/hVZEL1dq+NwPfBL/4vOfhc1i6rtn4CQQCbiIC4X2OqqHDx9ia2uLklqS4h0IBLCwsAClUol4PI6DgwMEg0HUajWBh5YQ76GhIXi9Xvh8Ploj96wvfvv6xWIRe3t7lIiTdEHSF1Sn02FkZAQjIyPwer0vXOuyZrNJyTbxrJNIdD6fR7lc7ulh59frG41GSCQSpFIpKoZHvqNQKBAIBDA/Pw+bzdZTkI1/TOl0mhqzJMWdb4iQbfNrL81mMzVoiVFLIu0vGjKZDILBIPb29hCNRgFAUD9vsVjg9/sxOjoq1nmLEPEB0f7OVCoVpNNpOn6R6DhRleY7EdszekhXB7PZfKpdRkR0ov2+ZbNZ6rBPJBKCcgIAcDgcGBsbg9/vh91uP9F+Wq0WKpUKJdrkZ0K2+aSb2CfdUsfb591uJJv8TBadTndklkW/j/n5fB7JZBLxeBzxeByJRIKWTvHL2+RyObxeL1577bUTpaGD4/Afvvqn+Kdf+jKS6Rzk8hevLLHZbGHcP4R/96V/gpcWZ877cJ4ZIgEXceHAJ031eh2bm5tYX18XiJ61Wi34fD4olUpEIpGuxNtqtWJ4eJgqLJ8W8e52vPztZTIZ7O/vIxgMIpVKdbQuM5lM8Pl8lIhf1GhEq9USkGzS45PfxxvAkSltpMWIVquFyWSCXq9Hs9mkqufEaAEAjUZDBft0Ot2R97nb/xiGQS6XE5DxTCYjaJVC1iXaBFKpFEajkRJx/sJvsXURUSqVqLjhwcEBms2mQGdBq9VidHQUfr8fPp+PrtfvhpgIEYMGQsYzmQyNjvO7dfDJOADodDpBe0VSZvMiOhCfF9rHvWg0ir29Pezu7qJQKFCSR0jf8PAwRkdH4fP5OurDGYbpSrD5xJsstVqtQxStnWiT4yNq44RU8wk3P7p9VAu8QRrfGYah3XHIks/nBZl35HwMBgPcbjcVPrTZbMc+T7KNTK6An/q5f49f/90/gbTN3rnoOGw7psC/+vHP4Ye+7xNQKRUD9ax0g0jARVxY8F/OYDCI1dVVxGIxSoZarRZNOSaTCsuysNls8Pl88Hq9GBoaEqQ/neUL377tZDJJI4OkxZpEIqHpgRaLBT6fD36/H263e+AjEXzCTUh3qVSi5JukeB+HcJtMJkq4DQYDVUVNJBJYXl5GMBik60kkEphMJiwsLGBqaurE6uW9RPcKhQJN8cxkMlSZuF3EjR9l0uv1tOaStDQj/eEHeaLho9FoCMSFSqWS4B2Ty+U0gkOcZMBgGWYiRPQ7eqk/l0olGhFPp9NIpVLUef00Mm6z2SgZF4VDTx/tY2Cr1cL+/j512JNWXYSIazQa+Hw+eDwe6HQ6NBoN6rzmp5QT0k1so16RbXIMJH2cRK7JJ4ls85dedskgj+fVahXxeByxWIyKHdbr9Q6hXqlUCrvdDo/HA5fLRbukEJzMzgAkEuDe+ib+8b/8P/GNW/demFR0juPQYlj8d5/6LvzU5z8Dh9U80M8PgUjARbwQyOVyuH37NoLBoCDFjm9QGI1Gqjz+PIl3O/j7In1eg8EgVWNvTzkjEXqSojsohk+z2aRkm9/vk/xcr9fpZN+tjozjOGg0Gkq2zWazoM8nf6JjGAZbW1tYW1tDLBajkRqpVIqhoSHMzc3B7/fT7X7Qe93LqOW3PCOGbSaTQaPRoN/nG7Ysy9KoPSHkNpsNNpttYDUAWJZFLBbD3t4eQqEQ0ul0R9YJKbEYGRmBwWAAMNiGmggRg4Be41axWEQ2m6ViUslkEoVCoSsZl0gk0Ov1Aseh0+mE0WgcmDlpUNA+JpbLZezs7GBrawvJZJLeT3J/iGJ4s9lEtVoVzDtHEW1StkVqsfmEu71++2nibxdhHM9kMohGo4jH41TUkARxCEjK/dDQECXdDofjme1J/jp//Bdv4Se/+OvY2Am9EL3Ba/UGvv3mVXzpJ/4+Lk+PPX2FAYFIwEVcWDAMg1gshkgkglgshlQqJZh4AAgMCbVajVdeeQUzM+/XlpznpMHfd7PZRDwep0S8VCrR75GUM4fDAa/Xi/HxcVit1r4T92o2mygUClSFl0S4iXhLvV4H0GkUEBChGUK0ySdZetVTVatVrK6uYnNzE4VCAXK5nE6aU1NTuHz5Mmw2G4CzLy8ADsV0iOMhm83SKBNJ9eM7X4hxS2rXCSEnZNxisQyEUZPJZLCzs4NQKERT//kpelarFRMTE/D7/bBarQAuhsEmQsSg4SgyTspqkskkkskkisViBxkn8xEZoy0WC+x2O1wul9jJ4xTAcRxNDyftvEgEm7Sda9cuIQv5WzeyLZfLBcJnZOETbEK4j7qHF23cbjabVMU8kUgglUoJ9GYACOYxr9cLt9sNm81GxUKB07kuZButFoNf/90/wRd/+XcQS2QudD14vdHEK0uz+MKPfQZv3FgSBM8GHSIBF3HhwDAM4vE4dnd3EY1Gkc1mab9JAplMBrlcjmazKUjtNplMmJycxPz8fN/0buYPNrVaDfF4nPYR5yumE4Evh8MBn8+HiYkJKjh2Hmi1WlQhPJvNUsJN2pPwnSHdItwsy9KICjHkCNFWq9U9CTf/emWzWSwvL2N3d1fwDCiVSiwsLGB6eppu56wH9V4ibiTFnkTGk8kkSqVSVxE34jgwGAy0x7jNZqMqxf1Wg0kiM/v7+4jFYmg2m4L3UKvVUuXeoaGhDseYCBEizg+9yDgRvsxkMjQFlziFn0bGHQ4H3G439Hq9SMafgkajQedM/txZrVYF/bbr9XqHhgZBe7YfgVqtpoJ6hGgTkk16bh+lL3PRx+hisYhIJIJIJEJLMsj8xc/aksvlcLvdGB4epvMwPxvgqOvUaDQQj8eh0+mo4/lpINsrliv4t7/5/+CXf+s/IZnJQX4Bs0wazSYuTY7iC//jf4+//pGbF4p8AyIBF3GBQIj3zs6OgHi3pwe5XC4EAgGYTCbs7u5ie3ubKnqSvpp+vx9Xr17tmwhjuyFUqVQQjUaxu7uLUChE+1Hza79sNhvtl6zVas/8PFqtFp2oSBswEt3mR7jJBMY/H+CQcJOJiKiE6/V6gaBLN/QakEOhEO7du4dwOCzw+BuNRly9ehWBQIBGw5/3Pe4l4kZS8ImiajKZpBGNbnXjJO2TpN7b7Xaa8nae4nytVgu7u7v0XSSOIgKpVIqJiQkEAgG43W6xx7AIEX2ObmScaF0UCgVkMhlaE0sEMtvT1AkZN5lMsFgscDqdtD65H+bZ8wK/pSZ/4RNs/gJAMIfy5zf+fZLL5VAoFKjX64LSO+BQa8NisWBychLT09M954teTpiLCI7jkEwmcXBwgHg8jkwmg0KhAAAd0W6DwUDLFUlHE/Kdp9kUHMchn89jbW0N4XAYQ0NDeP311090nBLJYX/wf/Pvv4pf+50/RiqTu1ClHs1WC74hJ37iR/8OPv03Pwq5/GTaPIMAkYCLGHjU63VEo1HavotPvPleyuHhYQwPD8PpdMJms0EqlaJcLmN7exv3799HpVKBRCKhtdUulwuLi4sYHR3tG099+wBULBYRi8WwtbWFSCQi6OfaarWg1+tpW5JAIAClUnlqAxjDMB0tuEh/UH6dWTfCTWq7dTodbcFF6pv5bUqedv69jmtjYwPr6+tIJpN0UpJIJBgeHsbCwgKGh4ePvb2zxlFiSESELpVK0fQ3Egnnr08WrVZLybjVaoXT6YTdbj9Zu5NnPJdYLIbHjx8jEomgWCzScyPvlt/vRyAQwNDQEK3zJuue970QIULE09HtXWVZVpDNE4vFEI/HUa1WAXSScblcLhir3G433G73c3EWnydI6jhxtpLINp9gNxoN1Ot1aou0k+x2sk3mUqJ/Qj61Wi2kUilKpRJ2dnYQDocFyvYAYDAYMDQ0hMnJSbjd7gtF4o4LYkOGQiGkUilks1kqaMePdkskEjgcDtpr3WKxnFhUjTinHz16RNvNGo1G3Lx5E4FA4NjHTPZVKJXxi79xsUh4o9nE5akA/uFnvhef+sQb0KhVF9I+EAm4iIFFo9FAKBTC7u4urUdrJ96kHcf4+DgVhGlPc221WgiHw7hz5w7S6TSdmBiGgcViwcTEBJaWliCXy/tmAGgfjPL5PKLRKDY2NmiNLSE8LMvCaDTCbrdjfHwc4+PjH8ihwLKsoG8sIdyk/qzRaAjSs4DOWnuimEvql/V6PU13+6CEm496vY67d+9iZ2cHxWJR4LWenZ3F/Pw8zGbzB9r280K346pWqyiXyygWi5SMJxIJmvlA1uMvJE1fp9PBYrHA5XLRd+AskMvl8PDhQ0QiEaTTaUGdN8uysFqtmJmZgc/ng8ViOfJ8RYgQMRh4WjZPKpVCNBpFIpGgnSzaybhCoaDlRTabDW63G0NDQwPd/aHZbApERQnZrtVqlGA3Gg00Gg00m00AvYk2IOypTUg2WUgPbaVSST/bI9rZbBYHBwfY2NhAKpUSaI3IZDKYTCaMjIxgenr62OnQg45cLodQKIRIJELL5BiG6Yh2q1QqGsCx2Wwwm80n7jrDcRxyuRzW1tYQDAaRz+cFwYFAIICPfOQjJ3re+ST8V7/yR/jlr/whosnMQKej1xsN3Lg6h8//8Kfx8Q+9fCEj3wQiARcxcGg0Gjg4OMD29jatPWsXdZLJZPB6vZicnOxKOvg1UeTFzmQyWFlZwe7uLk3XYhgGarUaPp8Pr7zySt8pULeLduXzeTrJZrNZ6kHne7tdLhcmJycxMjLS81w4jkOz2aRkm9T71et1VKtVakTwDYZuxoJWq4XdbqdtavR6vaDO7KjzOSmI0n0oFKIlBQCgUCiwuLiI2dlZaLXaZ97P80S346zX66hUKiiXy0in07T/KMngIOsB7yvly+Vyql5rMpngcrngdrthNpufObujUqlgc3MTe3t7SCaTgjo54vwZHx+H3+8/FTVYESJE9Ce6vc+tVovWMBMxKxL561ZWo1QqaSYPaeE0NDR0qtlbpwmWZVGpVGj0v1gsolAo0Cyw9oVco3aS3T5/8rU+CNE2Go1Qq9VQKBSUZCuVyp5jeHt2Felbvbe3h83NTZRKJaohQ6691WpFIBDA5OQknS8vElqtFpLJJPb29mjf7mq1SrPyANC5y2KxYGRkBD6fj7Y17WbnHGefm5ubePz4MdLpNK3X5zgOCoUCY2NjuHz5Mux2+4nnY3IMpXIFf/inb+IXf+OreLS1R89jUMBxHFiOw8defwmf/+FP45UrlyGVXqya73aIBFzEwKBarWJ3dxfBYBDpdBrlcpl6K8mAqdVqaUsuu90Og8HQEYVtB//v5XIZm5ubuHv3riCdWyKRwOl04vr16zR9uZ/AP4dWq4VCoYD9/X08evSICnrxv2c0GuF2uzEzMwO32w2JRIJms4lUKkWj3LlcriMl7ijCLZVKYTAYqPqn3W4XRLhPm3DzEQqFcPfuXcTjccHfSb332NgYlErlQA/mvUTcSB/XXC6HWCyGWCyGXC4H4H0PPlmfGHYkxZ84ZDweD2w224lE3FqtFvb29vDkyRMa3eKn6xHDYnp6GjabTXD/B/k+9DuqLRaxMoNKi4VMKkGqwiBbZ+HWyaBXSMFyHJQyCYb1cmjk/VFaI+Liodd4Rch4MplEOBxGIpHoScZVKhVV5iZdPtxuNxQKxbmMH/V6nRJtUvteKpWoCBqJZjcaDUH6OP+T/zM/M4wvrGk0GqHVainRJp9Hjc9HjantRLxeryOZTOLJkyfY29uj159cd41GA4fDgenpafj9/hNHe/sRlUoFoVAIwWAQmUwGpVKpI4hA7Bi3242xsTEavGlvsXbc+YvUeq+srODg4IA6PIDDe2EymbC0tASfz/dMwQGyTrPZwu17D/FzX/4D/Nd3VlCvNyGV9v88yzAszCY9/s6nPo7P/cDfwKjPA+Di2wkiARfR96jVatja2sLOzg5yuRz1VvLrSjUaDUZHRxEIBGCz2QSe25MMloSIHhwc4NatW7TNCvm/2WzGzMwMlpaWzux8nwX8c200Gsjn89jZ2cHGxgZtc0W+J5PJYDQaYTabIZfLae9tshAHBPB+ahx/P1KplNaYk7RynU5HvfJnSbj5WF9fx9raGrLZrGDbLpcLr7zyCu2NfpEG8141mKQkoFAoIBaLIRqN0nTwbmRcKpXSjARyLz0eDxwOR8++rhzHIZFIYG1tDZFIBJVKRXA8Eslhrf3MzAxcLteJa+REHB/lJouNbAOrqQZ2Cy2ESy0kqgwaDIcWC0gkQL3FocFyUMslUEgl4DhAKgHUcgl8ejlMKikmTArM2ZVYtKugkon3R8TpohcZJ5k8sVgMBwcHSCQSNPuMrEcWlUpFHYculwterxcej+dMSsNarRZKpRLy+byAbFerVbRaLTSbTbq0Wq2O8Y+gfc5UqVQCkk2i24Rk85ejyPQHPd/2dSuVCiKRCB49eoRoNNrhqNdqtRgaGsKlS5fgcrn6RgvnuOA4DtlsFjs7O4hEIjTa3Z5mTgRgR0ZG4Pf7YTabYTAYPnC2FnFkPHnyBA8fPkQmk6H75LhDTaJAIID5+XlBy9jTure7oQh+66t/it/4/a8hmc5BJuvP+0aOeXZyFD/8g38Tn/prH4ZBP1hZis8CkYCL6FvU63VsbW1ha2uLEm9AKOikVqsxOjqKiYkJ2Gw2QR3xs3gSOY5DOp3Gu+++i3A4LJiYNBoNRkZGcOPGjZ7K3OcN/rnX63WquEnacfFr8CSSwzZgTyPcEomEkjS73U7FvQjZ7uYlP8tBlOM43Lp1C1tbW7QvJ3kupqenceXKlb6v9z4N9Do3oqBLDFxSh9kebQJACbpSqYRarYZWq4XNZqMRJ+LQKhQKtIatWCxSY5mUazidTszOzsLr9XbVWxDxbOA4DpEygzcjVdyO17GVayJbZ1FosKg0OVRbLBosIAWAb11u/lXnT/YsB6hlEiikgE4hhUklhU4hxbRFge/wavC6Vw2zSireNxGnim5jQaPRQK1WQ6lUQiQSQSgUQjqd7lDu5pNxMk6RFlAej+fEAlQcx6FarSKfz9PWavl8nrbJbLValHC3Wi06TgJHE22i9m40GmEymaijm6SPE3VyuVx+LqJZ7aVrpVIJwWAQ6+vrAkc2ORedTofR0VHMzc2dmYbIaaLZbCIWi9EyRSJyB7xv25BnymazYXx8nIqCajSaD5Rmzv9+LpfDnTt3EI1GBaVhJOp95coV+Hw+aj+e1vzI306hWMby2gZ+7Xf+BH/x5h1UqvW+ioYzDAuzUYfv/+RH8He//xOYHPNBpVR0ZGtcZIgEXERfgeM4qky+u7tLPZaAkHgbDAaMjY1hZGQEdrtd0LP7WQez9pT09fV13L9/XxBFlEqlcDqduHHjBlwu17Of+BmgVqshnU4LRLvK5XLHAMf/nT8cSCQSmM1mOBwO+qnX6wVpce14XkSrUqngzTffRCgUQqvVon+XyWS4du0apqenB67e+zTQ61xJCUG1WkU8Hqd1mJVKReB9538qFApq6JrNZshkMmSzWWSzWUri+e/j5OQkxsfH6Xefdkwijo9Ki8WtWA1/tl/FcqKOZJVBvsGi1iLv7iHRluBkhgvHceBwSMw57pCUa+USWNUyGJUSvOJW42MjGrzu1UDeR8abiIuB45BxUnLWLYsHgMBpODQ0BJ/PR7Oe+PshpVmEZJPoNomI8sk2SR8n6Ea6ybGr1WqYTCbBotfraco4fznptThLtNsBrVYL+Xwem5ubePLkCZ0bSDRXqVTCZDJhamoKU1NTPTOkzhPlchm7u7vY399HNptFrVbrCCyQCPTQ0BAmJibgcDig0+k67JkPcj9YlsXDhw/x8OFD5PN5QTaHTCbD1NQUFhYWBNH1077v/O1xHIdUJo+v/ddb+JXf/iM83NwFw7DnOh+zLAutRo0Pv3oFP/R934Wb1+ZhNuo7jv1FgEjARfQFCPF+/PgxdnZ2aN/o9lRznU6HmZkZBAIBOsmdRZStPZU7FArh7bffpunvBEajEfPz85ibmzuV/T4L6vU60uk0Jdv5fJ7WpPGNim7Em4D8TSqVYmpqCvPz89BoNNSAaL++5zFgxmIx3Lp1C4lEQnAv9Ho9Xn75Zfj9fqoA+6IN6Hz08iS3Wi1aZpDJZBAKhRCNRgUtw9qNXNJZgGEYwXfkcjlGR0dx+fJl2Gw2gRHzIl/700KtxeKvIjX89uMSHqTqKDY5VJqH7zHhw6d9jTmOA/stMq5XSmFWSjFmkuMHZwz47lEtZCIRF3EG6EXG6/U6isUiDg4OaP0uP1ONrAu8T8bVajWsVis0Gg0lluVymZJsQrgZhulwOnf7meMONS0MBgNtm0kWtVoNmUxG50iZTHZkqna/jYvt80Sj0UA6naaZTu0ZcyqVClarFQsLC/D5fCfSDTkLkO4sm5ubCIfDNHuhPVuBH7gZHR2FyWSCRqMR3KtnuTeZTAbvvfceYrEYqtWqYN9GoxEvv/wyvF4vLc076+eAv/1avYF0No8//+Yd/MpX/hMeb+8/dyLOsiwMei3+2hs38Lf/m49hbmYMNrPxzBwRgwCRgIs4V3Ach0qlgkePHmF7e5sOnu0Dp1arxczMDCYmJmAwGJ6boU+2zbIsMpkM3nrrLcRiMcH/NRoN/H4/bt682dH64yxRqVSQTCaRSCSQTqdRKBRo2lyz2RSQJYJ2o0Kv11NC1g4S+bx06RLGx8fpJHyeg+TDhw/x4MEDgcgYy7d4SZMAACAASURBVLJwuVy4efMm7Hb7Cz2gH4VedePEyM3lcjg4OEA4HEYul+swcgn4qYtarZaWgLhcrgtXa39eqDMcvhmu4rcel3AvWUe+waLBcJCdEenuBULGpRIJbGopJswK/MiCER8a1kAq3mMRZ4ReZLzRaFCBUdLKqX18IusSIkyi38cl2lKpFFqtFhaLhZJts9kMrVZLCTb5PCp9fNDGwfbIab1eRyQSwerqaoezWyKRQKVSYWhoCEtLS7DZbM+9PrzRaCAYDGJ7exvJZJLq1vCPkZyT3W7H1NQUvF4vjXY/S5o5HyzL4sGDB1hfX0e5XBZkT0ilUly6dAnz8/PQ6/WnUut9UrQT8UyugJUHT/DHX38bf/5X7yGVzZ/Z8ZDt+r1ufOoTH8bHP/wSpgIjMBvP51r0G0QCLuJcwHGH6pCPHz/G3t4eKpUK7YVJIJFIYDAYMDU1hbGxsedKvNuPleynUqlgZWUFa2trAnIik8ngdDrx+uuvC3ocnyZqtRqNbsdiMRSLRVqbxjAMWJbtuCb8n1mWhd1uh8vlon2hSRpZOBzGvXv3kM/nO0iXWq2GzWbD4uIifD7fmZzbcfDOO+9gc3NTUJLAMAxmZmZw7dq1YyneizhELzJO2tTcvXsXBwcHNPuk1zakUimN/Gg0Grjdbvh8Png8nufqjLoo4DgO4RKDL63k8GfBCspNDk2Gg1RyvjVxHMeBBSCTSGBVSfFtQ2r8xMsWeHTnG/0S8WKAYRgUCgXkcjlks1kkEgkkk0mBICtBL5O2G+FSKpUwm82CxWg00tZehGSTDKBuuGg1q+314bVaDdvb23jw4AHNkiLfk8lkUKvVmJiYwMLCArRa7ZlHdcvlMlVvLxQKNNjQHrQh7WMnJydpFw5+tP407ls2m8U777yDeDxOu8SQbZpMJrz66qtwu919kZHH33erxaBQKqNWb+D//fo7uLW8jtv3HyEUSQgyBz7ofuRyGSZGh/EdN6/i1WtzuHHlErQaNfQ6jWij8SAS8A+IcotBut5Ck2XBATDK5bCq5GKd3FNAiPfq6iptf8H3WgLvE++5uTmMjY1BrVZ3DJzP+8VtT0nf29vDm2++KXAakOO+du0apqamnnmf9XodiUSC9nnO5/N0smn36POPgYBlWdhsNrhcLtr3mQi/EOJEwDAMVZtfXV1FpVLp2K5arYbb7cbi4uJzrXuv1Wr4q7/6KwSDQRrVBw69ywsLC5ifn/9AqvciDkGuV6PRwMbGBtbW1lCpVOh7SRwyJLrNn6Dbn0FCxpVKJVwuF3w+H7xeb4ewjYhO1Fosfv9JCb/0oIBElUG9df7Eux2kZlwpPawT/+F5Az47ZzrvwxJxgVAqlZDL5QRLoVCgTmbySSKN7Zk6vSKb/O9JJIcK3yQd2eFwQCqV0qUXXpS5pf1aMgyDYrGI9fV1PHnyhGYpkrR0hUIBnU6Hubk5TE9Pn3rbMoZhkEwmsbGxgYODA9r2jYB//9uDNsTe4Z/bs95DlmWxtraGBw8eoFKpCKLeEokEly5dwtLSErRabd9FetuPo1ZvoFqro95o4iCSwO17j3AQT+K9lUcolCp4vL1/5LbkchlmJ0Yx7HZgemIEfq8L1xdm4HHZoFGpoFYroThn+71fIRLwI1BnWGyXativ1JGoNZGoN5Gqt9D41svGcBzI1ZNKJLQmz6SQw6qUYUijglUpw7heDZ9W9UKn7HEch0KhgPv372N3d5cS7/ZorV6vx/z8PMbHx6FSqfpOzIkcA8MwSKfT+Mu//Etks1nBd9RqNSYnJ3Hjxo0TpWXVajVEo1Ekk0kkk0lks1mqvHpcwm2xWOB2u2lvZ5VKJfDkH3VOwPv1waS1V3tWAmlb5fP5cOXKFZhMZ2t8JxIJvP322x0pcEqlEq+99ppY730KYFmW9lEnzxwgJN4jIyNYXFyEVqtFNBrF/v4+IpEIarWa4Lt8kGdOLpfDbrfD5/NhZGREkKkg4vC5jVcY/PTdHP5kp4waw51YTO15gxBxvUKK7/Bp8KXXbNAo+rPVjYj+BGmTmc1maWQ7l8vR+l0+0T7KTG0n2BqNBjqdjqp78yOT/O9JJBLqMDSbzRgdHYXf7x8Ile/nhXYi3mq1kE6nsby8jHA43KFSr1AoYLFYcP36dXi93mdOS280Gtje3sbW1hbS6TTN9iPgz1EOh4N24CC2Y7uj+DTG1HQ6jbfffhupVAqNRkPwP4vFghs3bsDj8VAnRD/bJd2yR+qNJloMg3q9CY5j0Wwe2gMcgEebeyiVa/ANOTHksoH91voKuRxyuQwKuQxyuQzKU0zxv8gQCTgPLMchUm1gLV/BZqmGYLmOcosBi0OyfShMw9FWLu2PE/m7VCKBFIfpehIJIJdIoJVJMa7XYN6swaJZB63sxWjvwnEcMpkMHj58iO3tbcEAyvdGWywWzM3Nwe/39yXx7gaOO2xh8u6772JjY4PWmwGHkUC3240PfehDMBgMXdev1+uIRqO0RRSpZyNGR7sSKyA0NqRSKWw2G+x2O5xOJzweD9RqNfXidyPcx72WpA/q6uoqNjY2Oo6F1MmNj4/T1LPTxuPHj7GysoJCoQDg/dQys9mMN954A06ns++8y4OGTCaDu3fvYn9/v8PQlUgkcDqduHr1KjWmiPOJ1I4nk0kEg0EEg0FBP/D2aYU8j1KpFBaLBT6fDz6fD3a7/YW+bwzHYSVZxz+7lcV6uoEW2//kmw+O46CQSuA3yvHl73QiYDrdyJeIwQchwplMhpLsTCaDSqUiKJ3qNecRtBv0hDhbLBZar221WgUdUUjkdGdnB6FQiIpjddO1kMlkUCgUsFqtCAQCGBkZgV6vP5uLMmBozyRgGAbBYJA6bdvnDblcDp/Ph+vXr8NsNp9oPCNZkhsbG9jZ2aG919v3wXGHgnCBQABTU1OwWq0dgYbTtAs4jsP9+/fx4MGDDjFeqVSKubk5LC0t0aDHae//rHGcYz0ULQRkx+Avg3Tu5wWRgAMoNRncz5VxK1PCbqmGBsuB5Tgwx6gl6oZel1QmkUAuPSTnN+wGLJp0WDCfbc3MeSIajeLevXuIxWJgGKYn8b5y5QpGR0fpJEgwKC9wo9HA1tYW3nrrrY5UJKPRiFdffRV+vx/NZhORSIQSbjJxHeXlbyfcFosFHo8HHo8HTqeTGhvt147gpNewfaIlCrLLy8vY3t6macgEUqkUOp0Oly5dwqVLl06t7nd5eRlra2sd9d6jo6O4efOmIPI+KM9JP6FarWJlZQVPnjzpUMhnWRZGoxFXrlzBxMREV/V7Ar6zKJVKIRgMYn9/H4VCoaNtEAF5VsmzQyLjbrebkvwXASzH4W6ijs/8eRK5Rqd+wyCAH1myqKT431+z4uN+3TkflYjzQq1Wo60KyUK6cZB0ZTLXnSSqbTAYKNG2Wq2wWCxU1EoikQg+20HGp2aziWg0ip2dHZrGfNT4RDJ3CBnX6cTnur0+vNls4tGjR7h//z7NhiIgZW4kHZvfsaYbSCbWxsYGja53i3YTu2p2dhaBQICmeZ9lxDWZTOKdd95BMpnsKJk0m814/fXX4XQ6aVnfII7lR6Hb+Vy0czwPvNAEPNdo4c9iObydLh5Gur8V4ebjNL1nfMikEsgggVOtwHcPmXHDdnHSnmKxGFZWVhCNRqmHGxAOoGazGVevXsXY2FjHxDkoLzb/OImn/etf/zpKpRL9jkQioX2zSWod3wjho30CkUqlMJlMGBoagsfjoaJphHB3MzbO4toRIp5MJnHnzh2Ew2EBESfHYzAYsLS0hKmpqQ+celav13Hr1i1sbW11KJrOz8/TNGhyXOR/Io6HVquFra0tvPfee6jVah3EW61WY2ZmBnNzc9DpdB2GMEGvCZk817lcDqFQCHt7e0in0wKRnPZIBjGeVCoVhoeH4ff74fV6L7SIG8Ny+M97FfyTtzPI1pmBinrzwQEA736aVFL8zOt2fMx/+hkxIvoHRBQtnU4jm83S6DaJDJ6UaAOH44JaraZEm5Bts9lMVavbl25or/Xmg0/Gw+Ewtre3EQ6H0Ww2e5JxqVQKhUIBp9OJiYkJDA8PQ6PRPMPVG2y0z7ssy6JcLmN5eZnO2/xrSRytV69exdTUlODecRyHRqOBJ0+eYGNjA/l8viMTgmyL9O6+dOkSPB4PdQyfRZo5AcuyWF5exsOHD1Gr1TqCDwsLC1hcXBRkXQyK/Sri/PFCEvB885B4v5ksovQt4v1+AvnzMYT4g4VcArjUSnxyyIKXbd3TlQcBoVAI6+vr1HvJP0cyKNntdlrjDWAgU3X44E/2tVoNe3t7WF5eRqlUEkxCvSZ3/nbkcjmsVitcLhecTidcLhclm72MjrO8bt1IV6vVQjgcxu3bt5HJZARp98RYsVqtuHr1KkZHR0+0v1QqhXfffRfhcFhwreRyOV577TUEAoGBqKvqR3Ach1gshrfeeov20eVDKpXSlEG73d6RSn7Ute72HWJ4kzKNYDCIvb09RKPRjhpzAv4zLpfL4fF4MDo6ipGRkQtl8DIsh997UsKPv505E6PxvEDOxaSS4mdft+OjIgkfeHDcYZtQPtHOZDI0w4VPsI8i2+1jg0wmg9FohNVqpRFtm81GxRqPQ7TJto7z7vQi4xx32G4rHA5ja2sLkUikg0Dyz4E4Ct1uNyYmJgR9nV80tGfLAYeR4lu3biEej3eQaGIbvPrqq/B4PEin07T9LMnC6mYvqVQqTE9PY3p6mqazn2W0myCdTuPNN99EMpkUROIBwGq14vXXX4fD4TiyFZ0IEUfhhSLgTZbFvWwZfxjOIFJtHNvAPEvw9y+TAAGdGt8/YkdArz6X4/kg2N3dxZ07d6j3shvxHhoawtWrV+F2uzu8loNofBLPbSQSQTQaRTQaRSaTof9rn5y6kXGZTAaLxQKv1ytIKSff4X/y9/u8r1c3Ik7EUVZWVlAsFrsScbfbjevXr8Ptdj91H/v7+3j33XeRyWQE181oNOKNN96Ax+MZ+GfmPMBxh+KHb7/9NoLBYFfSS0RzxsbGuj63H2Sf3cg4cFiuEQ6Hsbe3h2AwiGaz2fF+8I+NPEsOh4OScbPZ/EEuRV+A4zjcTzXw6a/FUWq+n31wUcAn4T/3ITu+c0Qk4YMA4lwlkWxCtLPZLOr1Ov0On2z3Qvv4odFoYLVaYbPZKNE2Go0Ckaxe8137MZ7Gu9JtfCKf1WoVoVAIW1tbtHSu25hJPpVKJYaGhjA5OYmhoaELnbXTC+1zBsdx2NnZwe3bt1EqlbpmPKlUKtTrdZopwf8/2Z7FYsGlS5cwMTEhyIDott/TBMMwtNa7Pa1eIpFgYWEBV65ceWpKvQgRT8MLQ8CzjRZ+L5jC26ki5NLzJ958cLwI/GFEXIJvd5nwvcM2KPq4rdn+/j7ee+89WsvcbZLyeDy4du0aPB6P4O+DSKKKxSKi0SjS6TQikYiAcPM/ge7PFfm/QqHA9PQ0XnrppY52Hf1AuHuhGzmr1WpYX1+nkxWfiAOH0euRkRFcu3YNVqu163ZXV1exsrIiUNRutVoYGRnBa6+9JiBc/XQ9+h2NRgPvvfceHj9+3JGRwrIstFotlpaWMDc3d2ZOsaOMXY7jEA6HaXT8KBE3sg1SljE6OorR0cP2QYMCjuPwIN3A3/paHMXGxSPfBOTemVUyfPk7HXjZPTjO5BcBHMdR9fF0Ok3JdnuP524/89H+XisUCiqExl/UanXH97v9zt/W885CbP8bAJTLZezt7WFrawvJZLKrpgV/XbVajeHhYUxPT8PlcgnafL4IaLcPCJG9f/9+RzcVMgcRe4EflPD7/bh8+TK1Gcn32/dxFiBdV8j95p+b3W7Ha6+9JhB/FSHiWXDhCTjLcXiUr+LXd+PINlpUubwfDR8OHM2El0okGNaq8CMTLjjU/eNVJSnIRxFvjuPg9/sxPz+PoaEh+ndgsAhUqVRCLBZDJBJBOBwWGChAp2HSLc3OZDKhXq+jXC4LJm+ZTIapqSncvHnz3HucnxTdiHilUsHy8jIlewTknJVKJSYnJ7G0tESVZQlBfPjwoaAWudlsYn5+HtevXxfrvT8AGIbB5uYm3n33XdRqNUFUgRjKExMTuHbtmkBY6KyfvW7b579DiUQC+/v72NvbQzab7UhvJOBHoLRaLfx+P8bGxuB2u/s6HTBfZ/Cx/xhFpPx+Cv5FBbnXY0Y5fue7XPDqXywy0i+o1WrIZDICos1vNcjHcYm2VCqFXq+HzWaDzWaj0W29Xt/1mT5von0cHEXGJRIJisUidnd3sbW1hVQq1dVRyB+vdDodRkZGMDk5CafT2dfj0mmDf1+j0Sju37+P/f19AOg6ppNMAiLkqtfruzpuz/JZYVkWKysrePDgAc344OPq1atYWlqCQqEQ3Pt+eX5FDCYuNAGvMyz+SyKPPwimwGGwDB5yW9QyKf7bUQdu2s9HpI0MMgzD4MmTJ1hZWRGkFbUb95OTk7h+/TrtpdnPg1T7JFAulwWEu1Ao9DT+u52XRHJY4+71euH1eqkXvF6v47333sPq6irkcrkgCuj1evH6668PfFotuRa5XA537tzBzs5OxzPCcRw0Gg0WFhbg8Xhw//597O3tdWzr5s2buHz5MhV669fnp19ArhHLskgkEnjrrbeQTCY7otpSqRQulwuvvvoqjRz3y/VtP45isYidnR3s7e0hHo93/W77u6lSqeDz+RAIBKiIW784bjiOw2f+Iok/C1Yg7YPr/TzAcRxkUgk+7NXgNz7qeGHO+6zRbU5iGIa298pkMkilUkin0x3CUfx1yLaOejdUKhUl2OSTiKL1OrbzftdOE93Gj3w+j+3tbWxvb9MgRPv15M/xer0efr8f09PTsNvtHeVaFwV8W3Frawtra2tIp9Md1wfotBslksOWl9/2bd8Gh8PxXJ4jso9kMom3334b8XhcsF+WZWGz2fChD30ITqdTJN0iTh0XloBXWgy+Fs3iqwcZqGTSjp7dgwKO46CQSvFRtxnf57M91/0Ch4PQ5uYmlpeXBRHg9gF0YmIC169fF7SH6je0E+58Po9IJIJUKoVIJEL7cPNxlBdWIpHAZrPB6/VSpfL2tDP+pLS9vY1vfvObAhEqhmFgMplw48YNBAKBgR3g2w2KRCKB27dvIxQKCYg03zAhBJGQc7VajTfeeAOj3xJvG9Rr8TxBrme1WsWbb76J7e1tqirOvydGo5Gq0JL1BuXaEnHDvb09KvBI0M24I1F+j8eDsbEx+Hw+GlUBzsfo/bUHefzz29kXjoRyHAe1XIrPXjbif74+uE7G80Av06xYLHZEtYn+ykki0Pz/k9IOPtG2WCw9W28N0vhxWug2fmSzWWxtbWFnZ6fDYd8+57EsC5PJhLGxMUxNTcFsNgtSmQf1epLzJL27Hz16JKidbieuUqkUUqmU2kH8ayaVSjExMYGXX34ZOp3uTJ8zhmFou1PSko5/HFevXsXCwoIo/CrizHAhCXiu0cKv7sSxmitDeQFqNQgJ/5jbjO89YxJOHgfixVxZWUE+n+8gnmRQDQQCeOmll/qyL3M72SsUClQw7eDgAOVyGQA6zo2/Pj+KKJFI4PF4MDQ0BJvNhqGhoZ6Eu9ffEokEvvGNbyCdTtNtsywLhUKBubk5XLt2baBrx9oJ0cHBAd577z0kEomunn+OOxRhcTqd+NCHPkS93/zviOgOjjuss7tz5w7W1tYEgkHk2qlUKly5cgULCwt0nUG5rt2OlWEYHBwcYG9vD6FQiPaJJ06cbmRcJpPBZrMhEAjA7/fTsYr/Xp8lQsUmbvxeGLI+1vM4SzAcB5dGht/+Lhdmrf1TTtUvaCdtBPV6HblcjhJt8smvp33a3NX+P1K2QYg2X4W817ENynjxPNFtjkqn09je3sbOzg6KxaJgDCLf5ZNxi8WCQCCAiYkJmEymDlujn8E/t4ODA6yvr+Pg4EDQbpI/F0kkEuj1eszOzmJ2dhYymQx3796l81a7s0KhUODq1auYn5/v6PH9rMctkUgQj8fxzjvvIBaLdWSKORwOqnDOX0eEiNPGhSPgF418E3AcB6lEgldsenxu/Omq0h9k+8BhtOnhw4dYXV2loloEZKCSy+WYnZ3F0tISFVgh2zjPgYoY4eQ4SqUSotEoTSlv78/N/yTrk3Mkf3e73TS6zRcFaV/nOMdG9lepVHDr1i08efJE4MxgWRbj4+N49dVXYTAMbjs6QHhdGIbB48ePsby8jHK53NHznaTiX7t2DS6X61Qn3IsI8qzs7OzgnXfeQaVSETyzwKH43djYGF577bUL4cHv5ZSJx+PY3d1FMBhEPp+n3+1m9JJPs9mM0dFRBAIBWK1WwfN22teH4zh873+O4714Z13hiwLy3L3kVOEPvtv1wmUB8MF/FvlkrFgsIpVK0Yh2Op1GuVwWvLPdCDX/Oed/TyKRQCaTdQii2Wy2FyZ9/Hmh23VLJpPY2trC7u4uFZfsNi6RsZw4CCcnJ6HX6+mY1G/3gxxzrVbDzs4O1tbWkMvlAAgDM/xjHx4exuXLlzEyMtKxvWKxiHfeeQf7+/sC241cJ4vFgldeeYWu+6zXo9lsYnV1Faurq6jX6wIROJlMhsXFRSwuLl6IOVNE/+NCEfBCs4Vf3r545JuA4zgopVJ81GPG9w6fTiScP6A+fvwYq6urqFQqtEUIfzAl6t1LS0uCvrznNUjxJzDgcDA/ODhAMplELBajBnk3z3J7ShT52el0UsJNBOTa9/ks58pPSX/06BFu3fr/2Xvz6Ea2+zzww74SALEDBFc0963Zzdev35M0UuRNUiTnxLa8nkksy+PEnlj2jLfEHi9jz4ktx7KT2PFEVuJjO7YTa+SRHMXLWNZiW+919+smu5v7ChIEAYIACGJfa5k/qHtfFQiSIJtkE2R959QBWERV3aq6Vfd+v+X7PaQhtTLZgfq33W7Ha6+9hvb29jMf5yohm81iamoKS0tLR94HUr6uu7ubKqZLRFwM0tcTiQTefPNNRKPRQ9eIeHvf/e53U6/WdZxE1DundDqNQCCAYDCIZDIpqlNcLwWC4ziYTCZ0dnaip6cHdrsdSqXykBHuRfDHS1n81Bt7AK6+V+siwfE8zGo5fmrSgn8y+HL0TC4TtURbOM4Skk2WVCqFarVad5w6zkAs/E1LSwsNGxeKoh3VtpvcFy8S9a5tNBrF2toagsEgSqXSofrptWTc4XDA7/fD7/fDYDBAJpO91LFQ2NZEIoGlpSWsrq6iUqlQY7pwriiXy6FWq3Hr1i2MjIxQPaDafQrPZ2dnB2+++SaSyaToeAQdHR24d+8eWltbT/1uFnq9Hz16hHA4LLqePM/D7Xbjtddeg9PprNs+CRIuAteGgBdZDn+5k8RnQkloFdePfBNwPA+NXI5v9FjwrS9AwsnLvlQqYWVlBc+fP69LvOVyOVQqFfr6+l468SZtJoQ7l8shEomIPNyk/UcRPeFgRsqmEO92W1tb3WNehFeM7DMUCuGrX/0qDVkj5Fyr1eLOnTsYGRlpagVVUtZje3ubimLJZDJaL5XUgRZ6g+RyOTX0mEymK+kJuEwIn9UHDx5gdXWV9mOh9d5oNGJychJ+v59udxOuW73zLBQKVFE9FouBYRjRxFf4XuD5g1B+vV6P9vZ2dHV1wePxQKPRvNDkN1Nmcf/TYeSq/IEI6HmcbBOD4Xh0mZT4i3/kgUXTvO80IWoNOsL+lE6nRXnayWSSpkzUI9HCfdYSbbLodLq6pb6Oa99NeAdcRdS79tvb2wgEAtja2kKlUqHzmVoyTta53W74/X50dXVBr9fT/OnLuKekHSzLIhQKYW5uDtFolI7RQoMmaZfVasXg4CB6e3tF85aj+mHt+sXFRUxPT6NYLIpSqkia3vDwMMbHx6HVahsqBcbzPMrlMmZnZzEzM4NKpSLSpFGpVLh9+zZGR0dp6p/0zEi4LFwLAl7hOHxpN43f24hBr7weA/txYHkeJqUC391px2tnUEfneR77+/uYm5vDysoKfSnVEm+9Xo/h4WGahyPc/qJfUEKLMPleKBQQDoexs7NDy4IJB6SjJjHkNyqVCna7nZJtu91e97iXNbiR42SzWbzxxhvY2toSeeo4jsPg4CAmJyepJbwZQNq+ubmJBw8eIJPJUPV3mUwGh8OBd77znTAYDHj8+DE2NzfpZIScO8uyUKvVGB0dxeDgIAwGw430iLMsS2utz8zMgGEYUV8n3oaxsTHcvn0bwM2eQNQ790qlglAohGAwiGg0Sr1Q5N1Sj4yr1Wp4vV50dXXB5/OhpaXl1LVf/+NMGr/8JAXuBt8PITieh0Elx/cNNZ8gWz2iTfpQoVDA3t4e9vf3RaJox3mshfsUGnnIp1KphMlkEuVo2+32I8PHyf6kfnY1Ue/ehEIhBAIBhEIhVKtVsCx76J0knP94PB74/X50d3dDo9FAoVBcyJhI+nUul0MgEMDi4iLS6bRoniU0/CoUCrS3t2NkZAQul+vE8653bYC3n4tqtYonT55gaWmJGk6FcyKj0Yg7d+6gt7cXSqWy7nuZXDPi9Y5EInSOS47ldDolr7eEl4qmJ+Acz2M5U8SvLIYhl92cMD+G4+HWqfBj/V64TlknPBaL4e///u+xs7MDlUp16IWq1+sxODiI0dFRasW86JeTkHCzLAuWZWkOdyKRQDgcRjqdpi/R2oFHaDgQEm6r1Qqv1wuv10tFNWqP+zL7DDk+wzB49uwZJVnksaxWq2hra8P9+/fhdruvfP8WpjNMT08fsjj7/X7cv39fpK6bSCQwPT2NSCSCarUqGnAZhoHRaMTExAR6enqg0+luBBHnOA4Mw2B9fR1PnjxBLpcTTTQI8fb5fHjXu95FIwpedn++Sqid2AEH13VnZ4cqqhcKBTrxFdaiF5JxnufxwQ9+EF1dXQ0fm+N5vOPTYYTzrHRPBKhyPHrNKnz+m90wX2EvuNBAQ75XY6O1UAAAIABJREFUq1VKsoWfJJe0Ua+2cIySy+XQ6XQiom21Wo/VAJH6U3Oj3v3b3NxEIBBAOBwGwzD0nSTchvRFmUwGn8+H7u5udHZ2Qq1WUyJ61n5B9s0wDOLxOJaWlrC5uYlyuUw9w+S9KJfLoVAoYDAY4Pf7MTQ0BL1ef+z5neW6pFIpvPXWW1TcjZw7eS6dTideeeUVeL1eEbkmzpqFhQVa15vMQeRyOTQaDUZGRjA6Oirlekt4qWhqAs7zPPYrDP7P+W2kq8yNEncht23IrMfHej3QnDLs/o033sDMzAydBCiVSuh0OvT3919KOI5wgkte/Pl8HpFIBNFoFNFoFNlstiHCTSzBWq0WFosFLpcLXq+XWjZrj3vVXrTCNq2vr+Ott94ShaQzDAODwYB79+7R0K6rdg7AwXlkMhk8e/YMc3NzooFboVBgdHQUr7zyiih0jfwfAMLhMJ4+fYp4PH7I8l2tVmG1WnH37l34fD7odLprGZpOjA6RSATPnj1DJBI5JISoVqthsVjwrne9CzabjW533a7FeaPeNdrb28PGxgZCoRCy2SxYlqUGMLIYjUa8733vg91ub/g6/+FiFv/HwyRYTrovQnA8D6tGgR+7a8Y/vQK54EKCLfRAptNpEcne399HNps9MjRcuL+jiLZarYbZbKZEmyxHpRhJz/T1R+095jgOGxsb2NjYQDQaBcMwlJDXRupwHAeFQgGfzwe/34+2tjao1WrqlW6k75B+XywWEQ6HsbCwgFgsBuBtbZxab7fT6cTAwAC6u7vr9v3zviahUAiPHz9GKpUSOSdIKHxPTw8mJiZgsVggk8mws7ODx48fIxKJUE0Pcj4ejwf37t2TFM4lXAk0NQEvshw+tb6Lx8kcVDewxAvHH4iyvddpxnd2Hg6nrgfywgmHw3jw4AHS6TTsdjuGh4fh9/tFL/nzfDGRQYMQK4ZhUCgUEIlEsLu7i2g0ikwm0xDhViqVUCgU0Gg0sNlscLvd8Hg8dXPhmuUFK2xnMpnEgwcPEIlERFZfADRfSa/XX6nzIuJgDx8+RDAYhEajoedkMBgwPj6OkZERAIfvSe3fgUAAz58/p+JE5P/EC+X1enHnzh24XC5otdprQcTJs5FOpzEzM4OVlRVqsSeTILVaDYPBgImJCfT29tLtmv3cXwbqXbdMJoNgMIitrS3a90qlEvr7+/Hqq6+KvDwn4Zs+F8FisirdnxrwPA+WB151a/HZD55/NY/jjltLtImuAiHYhHCnUilKeGrHonrjIzEACz8NBgMl2MS7LawYUts24b4l3EzUvitYlqVknOhYkFB1YT8kfVmlUqGjowPd3d3weDzUM15LxoXe7nQ6jbW1NayuriKbzYpEKMn4o1QqodFo0N7ejuHhYdE86yL7bm0o/sLCAubm5pDP52kqFnHiaLVaDA0NQS6XU683SXsjUSbE60284RfVbgkSGkXTEnCO5zG9n8cnliLQKa+v6NpJYDgeHp0K/9zvRrex/gBfDzzPY35+HgqFAv39/dTLdp4TRvKSJ0s6ncbu7i6SySRVKRd6COqRMmJ1VSqVUKvVsFqt8Hg8cLvd1PtXe17N/FIl7S+XyzQPioTBAgf5rLdu3cLdu3dht9tPnZd6Ee1lGAahUAgPHjxAKpWCSqWiA5/D4cDdu3epovtx96f2fwsLCzT/jFi+CRGvVCro7u7GxMQEbDYbFcxqxntPjFHLy8uYm5uj5f/IBEOpVEKr1WJwcBATExNNeY5XGfX6ZKFQwPb2NtbX1+H3+9HT00MjOk7Cs3gZ3/LnUVTZ5n4XXRRYjofXqMQvv27F13c0btRoFMI0JvKdjD+pVErk2S6VSsd6tYV9o5ZkKxQKGnUl9GjXU30maPbxScLloLafMAyDQCCAzc1NJBIJVKvVY8m4Wq2mZNztdlMyzvMHomTxeByLi4sIhUJgGIYSbzLPUCgUNGLD7/ejt7cXGo3myPZd5HUA3ibKpVIJ09PTWF9fR7lcFgm1kWoyJKJEJjvQUnC5XJicnKT56dIzKOGqoCkJOM/zyDAsfnlhG9FS9UaFnteC5w8Udu+0GvGxvsN1qo/apvYFdB4vJeKhJJbabDZLvdu7u7soFAoisl1P2E2pVNJFq9XCarXCbrfD7Xa/VNG0y4TwnBYWFvDs2TPk83nqDa9UKrBarbh//z46OjpeWkg6GczX1tbw8OFDVKtVal0mwiyvvvoqLBbLqSzOwvNnGAbPnz9HIBBANpsVEXEywe7r68PY2BhMJhP1iDcDWJZFpVLB5uYmnj59ilQqJQpHJRN8j8eDd7zjHUd60CScH47rp42+a37mzST+eDkLRgo/rwuO56FTyvE9/Ub8wv2jFbxPApl01y65XI4SbfIpTOk5yqtN9ikk2GRRqVQwmUwism02m6Wa2hIuFPX6UblcpuUW9/f3Ua1WUalU6pJxlmWh0+nQ2dkJn8+HSqWCpaUlxGIxkYgbOY5KpYJarYbL5cLAwAB8Pp+oLcDL8RrXHntvbw+PHz9GKBSi86La3ysUCgwPD2NycpI6BYT7kCDhZaMpCTjH8/js9h4+G05ey3rfpwXL8zCrFPgWnw3vcZov77gse4hwx2IxSrqFhPsoD7dSqYRKpaJhTna7HS6XC263G2bz4XO5KRMb4XmGw2FMTU0hFovRQZZlWSgUCty9excDAwOXHpLO8zyy2Szm5+cxNTUlCl1Tq9Xo7e3FvXv36MB3lrYJtysUCnj+/LkoV5e8uliWhVwux9DQEIaHh2EwGKhH/CqCePCj0ShmZ2cRDocBiGv/6nQ6Gj0gFA+8Kf2/mfHO/yeMrSwj3atjUGZ5TDjU+B/f7IGywfQxnudRqVRQLpdp+DjxagsJN6mpXSuMdlSEFQnTJZ96vZ4SbYvFAovFcmT6gXSPJVwW6vW1YrGIzc1NbG1tUUFAoWdcOEaSNDZiVCL/I8JkBoMBPp8PAwMDornXVevjJOouGo3i0aNHiMVih6KTOI6DRqOB3+/HwMAALBYLFRyWIOGqoOkIOM/zSFdZ/MuZIMrsYcvXTQTJqxu1nE2QrVEQjx0Jf0qlUtjd3cX+/j52d3eRz+dPJNyEbKvVaqjVathsNrhcLrhcLlgsh0vTXLWX/2VCaLHN5XJ48uQJNjY2UK1W6f+r1SoGBwcxNjYGm8124SHpxLKeTCbx5MkTrK6uQqvVUs9RS0sLhoaGMDY2Rn//ovdPuI/9/X3Mzs4iEokgl8vRSQUZlDUaDUZHR3Hr1i0YjUao1eor038IgUilUlhcXMTKygoYhhGVANTpdDAajbh9+zZ6enpE216V85BwNGYTZXzLn++ixEhj03FgOB49ZhV+/V023HM3FtnBsiwWFhawvLyMTCaDQqEA4O2a2kflagOgBFtItkmILSHZZrMZra2tRx5fegYlXBXU64v5fB6BQACBQADxeFzkEa+3DdHlMRgM6Ovrw+DgoCh94ir2d5ZlkU6naboWGT+FeilC40O1WoXRaMTIyAh6enpgMpkaTiWSIOGi0ZQE/DPbe/h8eL9hy/lNAMvzsKiU+Mc+67l5wQnhJqQ7lUohHo9TL3elUqETH0L8al/YJKRJrVZDo9HA6XRSpfJ6k52r+NJ/2SDXhOd5zMzMYH5+XhSSXi6X4Xa78corr6CtrU2k/Hne7ahWqwiHw3j8+DFisRjUajUd/JxOJyYmJtDR0SFq93ken+wvFothdnYWsVgMuVyOTrRJG00mE8bGxtDR0YGWlpZj6+deBkiESCAQoPdPSLxVKhUMBgOGhoYwNDR0aeX/JJwvfmc2jV+dSqEs5X8fC5Y/UEP/4dtm/MBI42rob775Jh4/fkzTMeqFjwvTmIjB12AwUJJNSLcwp1WChGYFMYqXSiUUi0Vsb29jZWUFyWQScrm8bui1cE4BACaTCT6fD21tbWhtbYVGo6G1xq8CSLpbJBKhJUvJ8yuTyaDRaOBwOKBWqxGPx5HP5ykRJ1pEDocDY2NjaGtrg8FguDLnJuHmoqkIOM/zyDIsfvK55P2uBc/zYHgeE61G/HCvG6ozeEIZhqEhTJVKBZlMBvF4HPF4HLu7uyiXy8cSbp7nKdEmnw6HA06nEw6Ho25tU4lgNAbhddrc3MTz589FVm6GYaBWqzE5OYne3t5zD0nneR7FYhGBQACPHj0SqYyqVCr4fD688soraG1tvfBcK+G1CIVCWFhYwN7eHiXiwkHXarVifHwcXq8XLS0tl279ZlkW+Xwe29vbmJ2dxd7enshTRxST29vbMTExIaqPLj0bzYePfCGGL28XpfJjJ4DnechlMnxzjx6/+R5HQ7+XyWSYnp7Go0ePRLnZhGSrVCrodDqYTCZKtM1mM4xG44n7lSCh2UCMzfl8Hvv7+1hbW0MwGKRjs1BYl6RWKBQKlMtlmsZBSLhQxKy1tRUdHR1oa2uDyWSCTqeDVqt9aYKvLMtif38fq6urmJmZAcuydO6hUChgsVho+VwAiEQimJubw+7uLkqlEj1PkrbW0dGB4eFhWkXlZQvZSri5aDoC/sXdNP5gMy55v+uAKKJ/T6cDYxbDyRt8DaVSCZlMBnt7e4jH49jf30c8HkexWBSFlAPi0D65XA6VSkWtpWq1Gna7HQ6HAw6H45AarDTZeTEIiW0qlcL09DS2traoYYSQzrGxMQwNDcFqtZ7L4MLzB3VxFxcXab432a9Wq0VPTw9effXVF8r3PkubhMdZX1/H4uIiUqkUCoXCISLu9XoxMjICp9MJk8l0KaH6hUIB0WgU8/PzNM9b+BwZDAY4nU6Mjo7C7XaLtpWek+bE5H/dxm6BASCJ/ZyEMsvjnkuDz37Q3fB4vrW1hfn5eXAch5aWFkqyTSYTWltbj73m0nMl4TqA4zgUi0Uqcru+vo5IJELFA4WiaqR0pc1mQ2dnJ/R6PdXoyWazKBQKKJfLIo+4kIxbrVZ0dHTA4/HAbDZfKhknRv9IJILnz58jHA6LvN5arRZerxfj4+MinRRyjdbW1rC8vIxkMknPEQB1VvT19eHWrVuw2+1XKlVNws1BUxFwlufxiaUIFjMF6WGpA57noZDJ8HUuM76r82SvAkEkEsGXv/xlxONxqFSqIwk3CfXRarXQaDTQ6/Uwm82w2+2w2+2HRNOkCc/FQKgC/uzZMywtLSGfz9MBplwuo729HXfu3IHX6z1zSDoJbYvH43j27BlWVlZEA6DJZMLAwADGxsZoqNtl32/hMXmex+LiItbX12mJIXJNiCJsV1cXhoaGYLfb0dLScu7tJaFye3t7WF5extraGqrVKr0HHMfRcNjBwUHcunWr7rlIaD6kyyxe/3QYmYoUndUIqhyPYasav/1eO/os6oa2qVQq4Hn+2PBx6TmScN1ASHE2m0Umk0EwGMTGxgYymQw1iBMCLZfLodfrYTKZ4HQ64ff761aQicfjCIVCNI0rn8/XJeOk5rbD4YDP54PH40FLSwsVO70IMs6yLBKJBFZXVzE7Owue56nXW6lUwmq10rz12jB74fNfKpWwuLiIjY0NkUAj0WMxm80YGhpCZ2cnFWqTIOGy0FQEPFKs4Gdnt8BJA+yRKLMcRs16/NAtN0zqxsJtM5kMvvKVr2B7e5uG6NYSbp1OB51OR8uCORyOusqw0uTnciC8zqurq5ifn0cikaAh6dVqFQaDAZOTk+ju7j51SDoZ8Dc3NzE9PX0o39vhcGB0dBR+v/9Qe14GhMevVCpYXFxEMBik1m8y6JLrc+vWLfT29sJms9VNjTgLqtUqkskkgsEgFhcXkclkqGWdpGeYTCb09fVhYGCADvYv+9pJOB88ipbwvX8dQ64qEfBGQITYfuV1K97Zpjvx9/VEpKTrLOE6g+d5GqGYTCYRCAQQCoVoFRSh4VuhUNBSee3t7ejq6hKVrhQS69rnJhaLYXt7G/F4HNlsFrlcjhq7yDbEiK1QKCgZd7lcMBqNMBgM0Ol05yK4ms/nqdc7Go1CrT4wzpHqIO3t7RgdHYXNZhOdV+1+yDbAgXjrwsICtre3aRUVYhCvVqvweDwYHByE1+uFyWSS8sMlXAqaioB/PpLEn4b2bnTd75PA8jycGhW+o8OOSevRuW+1+NKXvkQVrQnZ1uv1aG1thc1mg91uF+WnEkiToJcH4bWPx+OYmZnB1tYWFcfjOA4cx2FsbAwDAwMNh6QTL24gEMCDBw9oThkAKJVKtLW14c6dOzTs6yr1AWFb8vk8FhYWEA6HkUwmqXo8AJpH1t/fj1u3bsFisdTt342AZVlkMhmEw2HMz88jHo9TrwTJUyMiN8PDw1e6xIuEs+Ozazn8yzeSKEgK6A2B5Xg49Qr8+B0LvmfgfIxgEiRcB3Ach2w2i3Q6jWg0is3NTcRisbph5jqdDmazGTabDV1dXWhra6P7OUmPpZ5Ra3d3F+FwGIlEoiEy7nQ60dbWBqfTiZaWFhiNRmi12jMZ/GOxGNbW1rCwsEDHTuL1djgc8Pv9GBoaEgnInSbtZHt7G8vLy7RMLskPZ5iDtKGuri709fXB7XbDYDBI73EJF4qmIuC/thTBfDovPRTHgIjbvM9jwYfbD4cd1fu9TCbDysoKdnd3YTQaYbVaYbPZ6orXSITh6oHck3K5jOfPn2N1dfVQSHpPTw9GR0fR1tZGB/Cj9pVOp7GysoLHjx9TKzsA6HQ6dHd3486dO9Dr9Ve6LwjblkwmsbKygp2dHezt7dH8NuAgH0yv16Ovrw/d3d1obW2FTneyN44cI5fLYWdnBysrKwiFQqJQOblcDqPRCLfbjf7+fni93rrtk3A98J/m0vj4VAolRrq3jYDjeeiVcnzvUAt++pWjy39JkHBTUKlUkE6nkUwmEQqFEAwGUSwW6TgsDDMnugdutxudnZ0vbNit3YZlWezu7iISiSCZTCKbzSKbzR5JxlUqFZxOJ7xeLxXdbWlpgUajOZEk53I5hEIhzMzMIB6Pi7zeBoMBnZ2dVNfmLOcn/D3LslhbW0MgEEAsFjuUH67RaNDb24vu7m64XC4pP1zChaFpCHiBYfETz4MoMKz0MJyAEsvhNVsLfrjP09Dvj7MkSkShOSC8T8vLy1hYWEAikaAWXlKaa2JiAn6/v66Fmud57OzsYH5+HktLS6JB0Gw2Y3BwEMPDw9Qq3Qz9QtjO3d1drK6uIhqNYn9/X1RDnGVZmM1m9PX1ob29HTabjZ5/vX2Wy2UqgBMIBERRAjKZDHq9nubfdXd3ixRpm+G6STg9Pjmbxq9NSwS8UXA8D4NKju8bbsFP3ZUIuISbCUJAU6kUYrEYQqEQIpEI9QALw8xVKhVaW1thtVrh8/nQ0dEhquxxHuNLvfkgwzBUvG1vbw+ZTAaZTAYMwxwi44TEulwueDwemuZlNptFZJb8PhqNYm1tDYuLi4e83i6XC729vejv7z+ybac9N2GE3OrqKoLBIPb29g7lh7e2tqK/vx/t7e2w2+1S/XAJ546mIeDPU3n8xnJECj9vAFWOR3+LFv+024l2/cm1TmuFrKTJY3NCeO8IkQ4Gg1REhWVZyOVyjI+Po7+/HxaLRWQV3tzcxNTUFBXjI5Z2l8uFkZER9PT0HDpOM6C2vaFQCIFAALu7u9jf3xdNHnieh9VqpR5rm80mGnir1Sri8Ti2trawtraG/f19UZ43Kb3X1dVFDR312iDhbVQqFVF6wFm2Pe21ZVkWlUqFGmFqwXEcrFbrqRTzf/5hEn+4lEVFqgHeECQCLuEmg2VZpFIpJJNJRCIRhEIhpFIpGmZOIJPJaGSiMPea4CLHlnqEt1KpIBaLIRqNIplMIp1OI5vNHiLjLMuCZVlotVo4nU54PB5YrVZauaBYLCIUCtG0LaKJIpPJ0NLSgo6ODgwODp7Z693oOSUSCaytrSEUCiGdTh+qH+7xeNDb20trpEtlyyScF5qGgP/Z9h4+F05KE5sGwPI87GolPtxhx32blFt300AGqkKhgOfPn2NtbQ3FYpEOPNVqFb29vRgcHER7ezvK5TJWV1fx+PFjlMtlOvgrFAp0dnaKynw0K5Gs1+6NjQ0ahpbJZEREHADcbjf8fj+8Xi/MZjMymQy2t7epF53UIibWelI/tbe394XDAUkptbOcZ7FYPJJYHgVioBEqx59mW0KEz7JtqVQ69XHJBKlYLFKRvdOAZVkUCgWa+1eLarWKu3fvYnh4uGFl3B/4Yhxf2CqAkWqANwSJgEu4iSgWi9jf30cikcD29jbC4TAqlQpNDSPjkEKhoBo8Ho8HPp9PpFNy2WNxPTJeKpUQi8UQi8Wwv7+PdDpNSWw9Mk4iw9xuNzKZDFZXV+m5AgdzDq/Xi97eXvj9/oZzvc96PvUM8+FwGLlcjh6XEPLOzk74/X60tbXdiPzwbL6AbK6ASDRx9I9kgFajgd1qRotBD4Nee/RvJRxC08RU7JbP5iG5iZAByLMckuX6k0sJ1xtk0NLr9bh//z7MZjMWFhZo2LVKpaLe29HRUaTTaTx//pwqqQKAWq1Gf38/xsfHRfneL2vQ4TgOpVLp1MQSOBhAi8WiaB2xsg8MDECtVmNnZwf5fJ5OhEg4/u7uLvU4kLItLMuKwtOJ59vpdMJisdDJVblcpoJ4p4FMJkM6nT4zAc/lcqI890bBMAwVpjkNZDIZJcJnwYv0qRfpk8dtexavfIOlrCVIkHDDQLRV9vb2aF51LBYDcEA6SZlKnueh1WppaVev1wuv1ytKYQJe7L13VtSKtQGAVqtFR0cHOjo6UCwWEY/HEY/HkUwmkUqlkE6nwXEcPcdqtUpz22UyGRUrJfvy+/0YGRmhBuyLNDLURn22t7fD7XZjY2MDwWAQkUhE5JDY2NjAzs4Oenp60NXVBa/Xe23yw6tVBpHdBLZ34gjtxBDf20cylcXefhorG6H6G/Ffi84w6NDmccBmMcHeakabxwGnrRXtXifcDqukKH8MmoaAh4uVl92EpoEMB3ngWeb0k3AJzQOGYVAul48lTDKZDD09PZDJZFhdXcXu7i4l4fv7+/jqV7+KarUKlUolUlb1eDxob2+nSqwEJP/5LGG/wm1PA+LtzOfzZyLgDMMgn88fuW+FQgG1Wo1CoSBaT8TUtra2sLm5SUMDa3PBiIrq1tYWAoEADd0vFApn8s6Sfb4IsTzrdi+y7XWZjAAHk+JSqQSGYRr2gHsNComES5AggaJSqSCZTCKRSGBnZwfhcBj5fL6umrnFYoHD4aC5062tb0eFvGwDeC1qybhMdqDGTsh4Pp9HIpFAIpFAMpmkeeNESK5e3rpcLodarab52BaL5VLyroVEXKVSoa+vDx6PB5ubmwgGg4hGo1RkrlqtYn5+HpFIBD09Pejo6IDb7abn1UxgWBbL61uYWVxHcDuKtWAYa5thrG1sI7wTA752T5TK4wk0x/FgORb81wwtvd0++DxO3OryoberDf23OjHS1w2fxwmFQgrfF6JpCPie5M1tGDKZDGWWw37l5l2zcrl8JtJDQraPCkk9DiTs9yxeR+KdPUvobrVabdgrrFKpRLlLQrETQr6FqFQqmJqaOtQunj+oS1qpnN4gRgj4VSSlZAJQ+7vaycJR25bLZZRKpUPrhXVYJRwG6Yd6vf5M2xOl+dM+PyRqQavV1t2W4zhRGkEj6DQpv6ZR0hRZXU0JUvKvWq1Co9FApVJBpVJRD6IECVcBuVwO8Xic5krv7u6iWq0e8nYrlUrY7XYalu3xeKDRvK3bc9WIdz3UI+MGg4Gql29tbWFqaurY7Unk1ltvvQWj0QiHwwG73U4F5ywWy4V7UoXh7i0tLRgdHYXH46EecaIXo1arkclkMD09jZ2dHXR1daGjowM2m+1K3yeC2N4+pmaW8Wx+FVOzK3j8fBGhSAxyuQxKhQIKpQItLWcLsed5HsHwLgJbO/jiG1NQKhQY7O3EnZE+jA3ewr3bgxjq7UKrWUqNBZqIgBdYqbbqaSCXAUWWQ7bKoEXV2G0mIbPkJUrIIcmBOS0ymcyptwEOJln5/NnKzZ2VHAoJ+FlKXBQKhRci4Gfx7J52YJbL5YcEROqFlfE8j+3t7brEhPz+RYjwdSSl5zlJ4nkearX6xPItR0Gj0UCj0ZzJqKPRaI5Ufz8KxOOv1+upUec0IAT8LBEVCoXiTAQcwLEEnOz7NB4Y9vSP8I2HXAaoTxE2UK1Wsbq6ip2dHeh0OkrA1Wq16FO4qNVq0XppHiHhIsBxHPb396laeDQapalEtcTbYDDA5XLB6XTC5XKJRNWA5iDe9SBsL8MwCAaDWF9fx97enmhepVAoYLVaadk1ANQAXiwWsbm5iY2NDZhMJthsNlitVlitVtjtdpjN5gsj47Vh6SQVwOPxIBgMYnNzk0YwyOVyRKNRxONxSsQ7Ozvrlu+9CggEI3g6v4K/e/QcX308g5nFAAAearUKRoPuXPqaTCaDSqmESgloNWrwPI+VwDZmlwIw6LS4O9aPV28P4eveeRf3bg/BYrqa1+qy0BQEvMRykPwKpwfPA9wpLlokEsHGxgZVzSYiR2chljKZ7EwEnBD/sxJwso+zbnfZxwRwqd6bRhTvhbngVwUkN+605JDAYDAcSaaIAWVvb++QgYKQS7lcDo7jaFk34f+FYjkkbB04uK9arfbU11JIwE+LFyHRxLp/FvJOwgevIxo1yLn0Ugj6acDzgE4hg8fQ+PNByv8Fg0H6XJH7o1QqD5Hvo0i5kJjXknfyKakdS2gE5XIZ8Xicerp3d3dRKpVEUVVkHLFarfB4PJR8t7SIPYHNSrxrkUwmsba2htXVVaTTadGzarPZcOvWLbhcLpTLZRqiT8LUhelf+Xwe2WwWm5ubaGlpoWTcZrNRMn4Rz2ntHMnn89Eohc3NTWxtbaFardJ2BoNBxGIxkUf8qoyHif00vvjVKfz5F9/E4+eL2AjtAJBBp734lDGZTAa1Sgm1SgmO4/Dmkzm89WwRX3xjCv/g9Tt4/3texWt3R6C2jvgVAAAgAElEQVTTnn6ucx3QFAQ8XpIE2C4DyWQS6+vrNET4RQeCF9n2LOTjJqHW63gciDGkljwCgF6vpyHwtYOOxWI5NEEADshWS0vLmcJ+tVotdDrdmT2Wjebj1kKn09Ul4OVyGcFg8JCxiFwDvV6Pjo4OOJ1O5HI5bG5uIplMAjhs7ZfJZGhra4PT6YRSqTy1B/U6oFlV8o9Do+fjMyolAn4K8ABa1HLcMjf+TJdKJapZIXzvkfdJpVKhUVzC9TzPiwxjtWT8OPJeS9Jr1101Y6WEiwfP88hms4hEItjd3aXCYwzDHMrvJjWx3W43HA4HnE6naBx7mcJq541qtYpAIID19XWEQiGRwrlSqYTf78etW7fg8/noNl1dXUin09jf3z+RjGcyGQSDQZhMJhqeTrzUpykZ2SiEcyK1Wg2/3w+n0wmv14tAIEDrtSuVSpTLZSwvL1Mi3t3dLRLQu3TwwBtPZvDpP/8y/uJLDw/CzGUyqF9SFJBcLodOe2Dcn10KYHE1iL99+Awf+vp34Fs/8G4M9XZdepteNppidliUYvsuBQeCC8q6RK0ZQF6EOp3uTKGwJCT1LOeuUqlgMBjOFPar1WpPbXAgBFyj0Zw4AVxeXkY2mz20vcfjwcjICHK5HObm5pDNZkXnzrIsTCYT+vv7RYMIyfE6CwFXq9VXxrMUCoWwsbGBcDiMVColstIrlUq0t7dTS73BYKA1Qcl2RFSGZVkkk0lkMhns7e3B5/Ohp6cHNpuN7q8Zn6ez4KacZz30WlRQ3ODzPy14HtAoZHDoGiewRHW5paUF1WqVEu5KpYJyuUzLHx31jiHvLIZhRGXz6n0qlUpKzIUEvd66WmJOolCEi0TUmx8Mw2Bvbw/hcBixWAzxeBy5XA7A2/Mn0odMJhPa2trgdrtpPrMQ18XbTZBIJLC8vIxAIIBcLifSVLFarRgcHER3dzctpSYcF0ltcELGSX30WCyGRCKBbDZLI9GI8SOVSmFrawsmkwkWiwWtra1wOBxwOBwwmUznel1r88MHBwfhcDgQCoVoRRliLMhkMpibm0MsFkN7ezt6enpgt9vPrS2NIBpP4tOf/xI+8xdfwfTcCliWg1p1NXQyZDIZDU9/Nr+K9WAYU7PL+J5//A1433teRYvhbHowzYimIOAvv8vcDGg0GpjNZlo6iZSyOqs32mg0nskDSBQ1zxIKSxStT0vyiBjZWZWcFQrFkfmkx0Emk11YXiLDMFhYWMDe3h7NMScW6e7uboyOjsLpdAIALBYLZmdnsb29Te99JpPB5uYm1Go1RkdHzy13+2USUp7nkUwmsbi4iEgkgkQiQT0WZOLudDrR29sLn88nEuJSKpU0FM3r9SIYDCIYDCKfz0OhUIDjOESjUTpBa29vh9/vh8VieSnnKuHywPM89Co5bFo5MhXuRhldzgoegEElR6ep8THCaDRieHgYlUoFDMNQIi38LiTkR30nYpsnEXWWZelvjyLrcrmcEvJa0l5L1o8i6ORvYlCV+s7VQqFQwM7ODh0zkskkyuUyJYVkzFQoFLDb7XScsNvt0Ol0on1dN+JdqVQQCASwurpKPcLkuVIqlbh16xZu3bqFtrY20Xb1xNuAt8l4Z2cnUqkUUqkUza2Px+OiHGwyT9nf30coFEJLSwvMZjOsViucTiecTieMRuO55TcL22q322G1WuFyubC1tYW1tTWaOimTyRCLxZBMJrG7u0triAvruF8Uns2v4nf++PP47F/9HfZTmYP3ToM6UJcJmUwGnVaDcrmK/+8rj7C8voWFlU185Ns/gI4218k7uAaQ8WeJBb1kBPMl/OL8tpQDfgpUOA53LEZ8tMcJs7qxhy+bzSKXy4kEwdRq9ZlzlBvxztYDIaU3Cec9YU8mk5ifn8fq6qqoFrVKpcL4+Dh6e3thMplE2+zt7WF5eRkLCws0759MKjo7OzE2Nga3231ubbxMEKX6hYUFhMNh7OzsiCYKMtlBXfD+/v5Diqbk3tTeo2KxiJ2dHWxsbCAUCqFUKtFJAcMw0Gq1cDgc6OzsRE9PT91wfgnXCx/72wQ+H8iD4SQCfhx4nodSLsOHe4341XfaGnr/NfqOJM/fcUu1WqWknFRmEBJ1IWE/7pjC6dNRBF3Y9lqiXm8hRF1Iyms/NRqNpPx+weA4Dul0GqFQiBpWM5kMWJal8xqilWMwGOD1etHW1kbzlGtTJK7jvdrd3cXS0hK2trZEXm+O4+B0OjEwMIDOzk4R8TzpWtT7P7kXmUwGyWQSOzs7iMfjKBaLohrpPM+D4zgolcpDZNzlcp1J7LORdpbLZUSjUQQCAQQCAVE1HY7joNPp4PF4aA3xi5rf/ve//ip++798Dg+n51CpMlA1SQocz/MoV6qwmIz4xv/pFfzwR74V924PvexmXTiagoCXWQ4/NBWQCPgpcFoCfhUHiKvYpmbA9vY2ZmZmEA6HRcYUrVaLV199FX6/nw4AteSyVCphfX0dT58+FdXO5nkeLpcLg4OD6O/vb6r7Uq1Wsb6+jvX1dSqQI5xAaTQadHd3o6+vDzab7dC1qUXt+lwuh52dHayvryMcDotEDDmOg16vh8PhQFdXF/x+/7VUgZdwgP+2nMXPPkyixEjvruPAcjycegV+4q4F391/Poap044XQqJOPN3ChWVZ6lGvJemk7CD5m4SzN0LWTyLtJCKHEHLhd+E6IVEnS+3fRDdD6ouNo1qtIhaLYWtrC7FYDKlUCoVCAQBE3m6ZTIbW1lZaC9pqtR4pqnbdUK1WsbKygtXVVcRiMVHaolKpxMDAAPx+P1wu14mir8eh3jakFCFJ+SJK5LVknOM4GtnY0tJCRdzcbjdcLteZ0w2Pa2M2m0U0GsXKygq2t7dFv+F5HmazGR6PB729vWhrazu3vlEolvDpz38J/+53P4Pl9S0oFIcr3jQDGIaFTC7D63dG8LM/+r14172xl92kC8WVJ+Ckc3/0rTWJgJ8CFZbDKzYjvr/HBYNSyj27KVhaWsL8/DwSiQRdx/M8nE4n7ty5g87OzhMHRI7jEIlEMDU1hZ2dHerV5XkeRqMRvb29GB8fbwoiuba2ho2NDcRiMarGKlSl7ejowODgIGw2W93ctONQ+7tMJoNIJILV1VXs7u7S8n1kImAwGOB0OuH3+9HZ2XllVFIlnB82M1W873M7yFebU0fjssBwPPosKvz2e+0Ysl6u4OZZiDoh6Ed9MgwjIuf1FiIgd5LGynEEvfa7kKAf9alUKusSc6I9IiTvN7XP8vxBJYytrS2Ew2Gq6VGpVCjpJuOGSqWCy+VCZ2cnHA4HLBbLodrdwPXVw4jFYlhYWMDW1hYKhQK9NhzHweFwYGRkBB0dHaLQ+/MwRNTbB8MwyGazyGazSCQSiEQiiMfjosgVIRlXq9UwGo0iMu52u194LlPbtmQyiXA4jMXFRZofTuZQMpkMVqsVPp+PGv1fBKVyBZ/8oz/Db/7un2IntgeFQt7Ufe/AccHj/p1h/Pg/+0689x13oLmmc6UrT8AJfujJOopSLfCGUWI5vNdpxvf7b0YuxU1HuVzG7OwslpaWkMvl6KDIsiz6+/sxPDwsqjVabzCrXZdIJLC0tITZ2VmaI00mIB0dHbh79y6sVuulneNpQCYJkUiEKpwTQ4JMJoPD4cDQ0BA8Hg8NxT/rJEG4HcdxyGQyCIfDWFpaovVPye+AgzxWl8uFvr4+tLW13Til9OuO938ugvnkyR7Rmwqe58HxwDvbtPiT9zdnSstRIKScLPX+FhLyeiSdeNrPQtSP+i4k5WSp97darRYR81qSTkpBNqN3rR6IgGYwGEQkEkE6nUahUADHcSJvN3Dw3u7o6IDP50NraytaWlpuRJg5QaVSwdLSEtbW1pBIJET9U6VSob+/H729vXA4HC/k9W4E9fZbrVaRy+WQzWYRj8cRDoeRSCRQrVZF95GQcY1GA4PBAKPRCLvdDq/XC7fbfW6GcZZlkUgkEAwGsbS0hGKxKCLiSqUSdrsd3d3dGBwcPNNxS+UKfueP/jt+41Ofxm4iCaXyeuhHHERuytDpc+Pf/MwP4v3/4P7LbtKFoGkI+C/NhxDIla5F57po8DwPHsAHPK349g77tR8Ybjqy2SyePn0qKiFHcPfuXfT399PQuNPmWhYKBaytrWFqagqVSkX0f7fbjZGREfj9/gs6s9Mjl8thfn4eoVAIyWRSNEmQyQ7KihELvcViEYWsnaeFnmVZqtK6vLyMdDp96HctLS1wuVwYGhqCy+W6NpPamwpyX3/rWQq//jSNqpQHXhccz8OokuOjwyb8xF1L049PZ2m/kJTXW4hHnRDy4z4bDX2v/V7vf0JCftRC8tS1Wi0l6PU+r7Lye6VSwfb2NoLBIBKJBHK5HK3dLfR2y+Vy2Gw2dHd3U2OtXv+2SvN193YTRKNROq4KrxPLsvB4PBgdHYXX6z13r3cjqHecSqVCa4jHYjGEw2Hs7e0dIuOEDGs0Guj1ehiNRiqy6nK5zpSrXdseUid+dXUV6+vrVF8HOHgPuN1ufOhDHzr1sQj5/vVP/Qlie/tQXjPxRp7nUSpXcO/2EH71p38Qr0+OvOwmnTuahoD/wWYMX95NX6sOdlHgeB46hRz/qM2K93laT95AQtMiGo3i6dOnCIfDohe7RqPB/fv30dPTQy2rpxkQhb9lGAbb29t4/Pgx9vb2qCcZAC1TNjY29lI9uSzLYmFhgZYEEYagEfEjv9+PoaEhmM3mE/O8XwTCfVarVaRSKWxsbGB5eZkquJKwOIVCgZaWFvh8PgwNDaG1tVUi4k2OjXQV3/S5HRQZKWKrHhiOR69FhU99nQN9rdcztLAeXoSocxwnIujCvwlRr10IQSffT5rqnUTOhSB56uSTLLV/E6JOSHktaSffL0P5ned55HI5BAIBhEIh6u0mtbuBt8tNaTQa+Hw+dHV1wWazwWg0HqrdfROe7VKphOXlZayurh4yaCuVSgwNDaGvrw9Wq/XCvd6N4CgyXigUaH42Mc6TFLFaMq7VaqHT6aDX6+F2u9HW1gaXy3Xq+U09rZhYLIb5+XmEw2HIZDKo1Wrcvn0bExMTpz7Xz/z5V/Bzn/jP2AhFoLqmgowH8yQed0f78Sv/6p/htbvXi4Q3DQH/q519/MlW4lp2svMGw/Hw6lT4jg4HJlovvuyBhJeDtbU1zMzMIJFI0Jc9y7JwOp24d+8e2traXsjDK9yG53kkEgnMzs5ieXlZFJKu0WjQ1dWFu3fvHlJWvwysr69jZWUF8Xic5qQBb0+mOjs7MT4+DrPZTL0XFz1JqPWMVCoVJJNJrK2tYW1tjUYqECKuUqlgNBrR1dWF4eHhcyudIuHsyOVyCAaDqFQq6OvrO1UJmX/y1zH87XYR3A2ZqDeKg+dChve26/D73+h82c25kjjLu0lIyMl34SfHcSJCftRCaqk36lE/6W+ZTCYi5vWIOynjJiTotYtGo4FOpzsTUec4DrFYDOvr69jZ2UE+n0exWKTtE4qqtbS0oKenB+3t7TCbzdDpdCKD6E0h3gCws7ODmZkZRCIRGv1G5hherxdjY2Pwer00//2qRQPUu1fkGUin09jZ2UEoFEIqlapLxgFQQ5HRaITH44HP54PD4Wg4sqP2mvA8j3Q6jXA4jLm5OWi1Wrzvfe+jJXcbvXZfemMKP/3x38HcckBUb/06guN4MCyDb/6Gd+KXf+oH0NPZdvJGTYKmIeCr2SL+9cL2te5o54Uqx2HApMdHup3w6hrzMCQSCUSjUWi1WthsNphMpisbPnbTUalUsLCwgIWFBWSzWQAHL3iGYTAwMICxsTHY7XYALz4o1m6fy+WwurqKqakpkcddLpfD5XLh9u3b6OjoOPO5nQaJRAIzMzPY2dlBLpej68lAarfbcffuXdjtdhiNRno+l/kOqT1eqVSidciDwaAoJI7jOGg0GhiNRuqtPy+lVgmNoVQqIRKJYGtrC3t7e1RP4f3vfz8cDseJ25P7/cWtAv6XL8VRZW/OhL0RsDwPl06BX3rNin/YbbhRhOa8cVaiXkvMa78LPerFYlFEzoV/n5ao11snHF8IGSdLvb+VSiUl5Tqd7kjCrlaraX3qjY0N7O/vo1gsUlE1ckwSdu9wOHDr1i14vV7o9fobJapWi3K5jMXFRZo6VZvrPTIygt7eXlgslivh9W4ER5HxcrlMCTEh4+R8jyPjbW1t8Pl8sNvt1IhzmuMzDINMJoNqtSrS5mkEK4EQfvbffAqf/5s3oVAqIL/C1/28QKr5/Pg//y78yEe+DRbz9Sjp2jQEnOF4fGw6IAmxNYAyy+F1ewv+115Pw9uQPN9yuQyVSgWNRgOz2UxrWtrtduh0Ounav2TkcjlMT09jfX2dWqWBgxf85OQkBgcHT63m3Qhqw6q3t7fx6NEjpFKpQyHpQ0NDGB0dvbBQ6kKhgNnZWWxubtK6rMLz1Ol0mJychM/nQ0tLy5WYJNQj4vF4nBoQhBZ4ElXQ0tKCgYEB9Pf3SzV/LxDlchmRSATBYBB7e3soFAool8u0livLsnjPe96DgYGBho2SLMfj2/9yF493y1d+cnpZINokd5wafOYDbqgV0jW5LJy2DxJCftRCSrQJCXm978Vi8USiTtrXyDoAIlJ+HGHnOI62g5AqYTvUajW6u7vR09OD1tZWaLVaUZjxTXxuo9Eonj9/jnA4jGq1CuBtr7fH48HExAQ8Ho8orY38pllQe195nkelUkGlUsH+/j62t7extbWFbDZbl4yT0HFiLPf5fGhvb6dk/LTHFkZgnIRsvoBf+Q9/iH//u58BgBuVrlZlGLSaWvCJn/sX+NYPvLtpapwfh6Yg4KRzfmIpgrl0vqke9ssGx/NQymR4v6cV39reeHmD6elpPH36lL50AdAcLqKWajAYYLVaYbVaKTGXiMHlIRaL4cmTJ6L63oSsvf766+jp6bm03GYSkj41NYVAIAClUkkHKbVaDb/fj8nJSZFgzXkcf2FhAYuLi0in05QgESgUCgwNDWFoaAhGo5FOpq7SRKr2GpZKJYTDYczOzlJlWeFvtVotzGYzFbu7SQPuRaJSqSASiWBzcxOJRAKFQgGVSoX2KWEaA8Mw8Pv9eMc73kEjKY4Ducd/tJTFzzxIgpXE2AAcjE0WjRz/+4QF3zd8+akqEo7Hi3jUSQSPcCHriEddSMprPwlRP42gXCPra9ORhPuWyWTQ6XQwm80wGAw0zL3Wu67T6a6V8ns9lEolLCws0CoqQuKp1WpprrfZbL4SBu3zwlFkvFqtYm9vD6FQCMFgEPl8XkSWhduq1Wqo1WqYTCa0t7ejo6PjxOowtfOARq/jf/2zv8FP/fL/jcReGipV8xPQ04DneVSqDCbH+vE7H/9JDPV2vewmvTCagoATfGk3hf+yGW/6h/4iwfI8HBoVPtxuw6u2loYf7i984QtYW1s7VHqDgOyntr5orZfcZDI1FJIj4XQIBAKYnp5GMpkU5Xs7HA5MTk6ivb2deucucmCsF5K+tLSE6elpUZ+Ry+XweDyYnJyE2/3ipYY2NzcxNzeHRCKBcrlM18tkB/VHe3p6cPv2bZjN5kPhg1exLwrbRcI+Nzc38fz5c2QymUPPH0kNGRsbQ3t7+5U8p6uOarWKnZ0dBAIBxONxGpJaO/En7z+5XA6HwwGfz4eenh6Ran4jqLA8PvT5HSwmq+B54CbfMuL9Hrdr8Jl/6IJOKb+yz6aE43FWPZFaYl67rlqtigi5kKAXCgX6nWGYY9tQm4N+1P+Ev5HJZNRzTr4LP5VKpYigE2IuXMj6ZiPq0WgU09PTiEQiorQynufh9XoxMTEBt9stMu4DzeX1bgS1fYrjOFSrVUrGt7a2EAwGUSgU6pJxomWgVqthNpvR0dFBq62cB1YCIfz0xz+Jz//Nm9CoVdfu+jcCQsJ/5Pu+DT/5g98NW6v5ZTfphdBUBDxVZfCj0xs3IufhrKhwHCYsBvxQrxu6BsMlOY5DKBTC9vY29vb2kEwmKcmptQ4KQfKnalVPCRkni7A0hYTToVqtYmFhAXNzczTPmXjlenp6MDk5CZvNdulWaeFxCHl8+PAhCoWCKCTdbDZjfHwcg4ODZzpOLBajQjCk5A7wNvG2Wq149dVX4XQ6RfnSzTK5ryXipVIJq6urmJ2dRbFYPDSZ1Gg0cLvdmJiYgNMpiVidBFKLdXV1FeFwGKVSCdVqVTTRBMSk2263o729HZ2dnTSSgkT6NNqvyO/+ZquAj/5N/MaLsXE8D7tWgX/9uhUf6JaEQW8CzkLUhOS8lqiTdQzDIBwOY319Hbu7u0d6v0/TxpN+Q0i6kKwLP4XfSUkroTe93vKyHRXlchkLCwuYn5+npJKcr0ajwcjICAYGBkSCoM0yrr4ojiLjDMMgFoshGAxia2tLVAawdqxWqVRQqVSwWCzo7OxER0cHzOazE8bf+E+fxr/6lU9CpVLeaA7Esiy0Gg0+88lfwnteO716/FVCUxFwnufx68s7Uhj6EeB4Hiq5DN/osuDDHfaGtxNaoomSaiaTQSKRQCKRQDwePyTGQbarh1qFU4PBICLkJHRdwvEolUp4+vQpFhYWROHWPM9jdHQU4+PjInEx4HKt0rVhVPF4HA8fPkQ4HKYq6cBBSPrAwADu3Lkj8k4fh2w2i4WFBayvryOfz4tCs8k+7927h66urmuhVCtsM8MwKBaLVGhPmOsPHDxfGo0G7e3tmJiYODcL+3UBy7LY39/HxsYGzeVjGKYu6QYOJlfEY9HV1QWr1QqVSnVIcfks/YrlePzMgyT+eDl38o+vKXieh0ohwwe7Dfj3735bHLLZnlEJF4dG+gPHcbScYyKRqGtII/uxWq3o6+uD0+kUedGFn2SpVqtnDn0/CkJiXkvQySL0qBPCXo+4X8RcaXd3F1NTU6J0NuDgPNva2nDnzh243W5RVB1w/bzeJ6HeeXMcB4ZhwDAMFewkgqrCbQhIBIVarYbVakVPTw8GBgZO1Y6/e/gMP/xz/xYrgRDU6tPXJr9O4Hke5UoVH/y61/Abv/AxdHhPJ2J3ldA0BJy8IB8msviP69EbbQE6CgzHw6dX43s6HRg26xsa1I76DSHlJDyTlFHa29tDLBajeZP1cmhqIQzvIuS8tbVVRMqFuUUSgFQqhbfeegsbGxt0HbFM3717FwMDA2eq733eqD12NpvFzMwMZmdnD+Xbtbe34969e7DZjtYmqFarWFtbw+zsLDX6CCGXyzEwMIDx8XEYDAaRKFazT+prB3uGYZDP5/Hs2TOsrKwcEoRRKBRQq9Xo7e3F+Pj4uebbNxs4jqOke3NzkwrokPcXgZB0m0wmdHZ2orOzEzabTeTpJniRPkW2jRVYvOdPw8hWbqaAKMvz8BmU+Pw3u+HUK5v+OZVwuchms1hdXcXa2hry+TwYhjk0LpA5Rnd3N/r7++FwOKBUKmk01nELy7KHSHm9vyuVyrkT9VqSXm9Rq9UiYk6+Cwm7TqcT1Sk/CuVyGfPz85ibmxNFlJFc79HRUQwODooEd6Xn9QDHkXGS3hQMBg9VNxFCoVCgs7MT3/AN33CqY//Gpz6NH/u/fgtGvSSEDBzci0KxhL/+o1/He99x92U358xoGgIOHFx0hufxk8+DSFUYqSMKwPM8OACvWo34oVOon9fbD1Df0lmbw1UoFLC3t4d4PI54PI5EInEoP+uo7lVLytVqNex2O5xOJ+x2O2w2240NXd/e3sbjx48Ri8UAvK1CarPZ8Morr6Cjo+NS8r1PA2E7qtUqVldX8ejRI1rvmsBisWBychJ+v//Q9tvb23j27Bni8TjtR8Db59/VdVBrvDaC4qpcg/NC7fPDsizS6TSmpqawubl5KOSNEPGRkRGMjo42NBG7DuA4DqlUChsbG9jY2KC588eRblJrvaurC3a7nWpa1MsVPc8+9YWtAj7yhdiNMxxzPA+zWo6ff7UV3953PUrHSLgchMNhLC0tUUXues81z/MwGAzo7+9HX18f9Ho9jbw7DYSEvPZvso5hGJRKJRE5F3rVydIIUSfHaBS1pLzeOqVSKSLltZ+FQgFzc3OIxWKHvN5Er8Xr9R6au12nsfW8UO/+CqsDbG9vY2NjA9vb22AYhvZVtVqN119/Hf39/Q2PMU/nVvC//eJv4sHUPLSaxsoK3wQUiiV8/3d+EL/44x+Fw9b6sptzJjQVAQcOOv6XYmn8wWYcCunFQMHyPJwaFb6zw4671pOVek+D47zkwlwtMiEmhDwejyOVSjXkJQfEYVsKhQJGoxEOhwNOpxMOhwOtra3XujY5x3FYWVnB48ePUSgUALyd793R0YH79+/T+t7A1SOete3Z2dnBG2+8gXg8figkfXx8HGNjY1AqlUgmk3j69Cm2trZoOCDwdp632WzG/fv30dbWBpVKJZogXKXzP2/UI+KxWAxvvfUWNc4InyVSqWB8fBwDAwNNJwbUCHieRyqVwubmJtbX15FOp0U5ogRC0m0wGCjpdjqd1DN20aRbuE+W4/HxqX389kzmxpBwnuehVsjwbbeM+Pg7bXTddX5mJbwYqtUq1tfXsbi4iFQqdaS3m+cPBMIGBwfR3t5+6Jk+DQE+bY46+TzqO9HyIIRcSNCFpF2YP3zS8RpFPYJOvguNk0LjrcPhQFtbGywWCwwGA/WoX3fl9/PCUWSc4ziUy2VsbW1hY2MD4XAYWq0WH/7wh6HVahve92/93v+LH/2FfweD5P0WgeM4yOUK/MXv/yre8croy27OmdB0BBzgUeEOvOBpyQsO4G3v9ytWI/7F17zfFz3RaYSU8/yBsinJJY/FYojH48jn8w0R8noW3tbWVkrInU6nSCCkmVEulzEzM4Nnz54dsk4PDg5icnJSVN8buJqW6dp+kclk8OTJEywvLx8azLu6umAwGLC1tYVcLifqBzzPQ6/X4/bt2+jt7RUJrNU7znVGPSK+tbWFJ0+eYH9/X2W61wwAACAASURBVOQNJ5ElFosFd+7cQU9Pz8ts+rmA53mUy2UEAgEsLCwglUoBwJGkm4RTdnd3o6uri+YyXhbprtd+mUyGMsvjO/5yF092S9eehPM8D4Vchtc9Wvznr3dIqucSjkU6ncbS0hLW1tZQLBbrPts8z0OpVOLWrVsYGhpCa2srjaAjuKg+dtr9Cgn5UZ88z9cl5/XI+nkTdYJ6XnUCpVJ5KD+dfCdEXa/XQ6PRSET9GAjJeDKZRHt7e8PbLqxu4sd/6T/gi199Aq22Mf2cmwIShv5zP/q9+NGPfjtMLc0n7tmEBPwgrO3LsTR+fyMOpVwa0Enpse/ssGPyFN5vEhpzHl7l4waIWlJeLBaxu7uLeDxO88lJW4Tb1EPtYKHX62nousPhgN1ub1jo66ogm83i0aNHWF1dpQMZCVe6ffs29RST9c0wia0NSZ+dncX09LRINIfcS6FFnmBoaAgTExPU6HBTvN7HoZaIk4iJqakp5PN50W/Jc03K1Hm93pfR5DOD53mqrr+5uYmtrS26/ijSrVAo4PF40NfXh7a2NprC8jJIdy34r5Uh2y0w+K6/imFlv3JtSfjB/ZGho0WJP/uQG3bd9Y1aknB2kLSjubk5RKPRuiJWZHwwmUwYHBxEX18fNcZeRYPsWYn6cd85jhN51IXkPJ/P03WlUumQUO5J7Ttp+i/87VHfFQoFVX6vXWqJe+19u0kQGskb7Sd/+eWH+J9/5JdQKlehUEhGjlowDAufx4H/8Xu/it5u38tuzqnRlAQcOCi39fOzIeyUru9EphHw/EF91TutBnysz0vXNfJwr6+vY2FhAR0dHRgYGLg04lprDSah67u7u4jFYojFYjS09KTBotZyK5PJYDKZ4HK54HA44Ha7YTabr2zoejQaxYMHDxCNRqmHjmVZWCwW3Lt3Dz09PU1LPmvbu7a2hocPHyKXy4lKlQFvh9p3d3fT0mrNrmx+UajnEZ+ZmcHz588PKaYTIu7z+eh1vcoQku5gMAjgZNLtcrnQ398Pn88n0o24qhP03QKLD/zZDmJF9tqNXeQ6ew0K/NE3ueC3qETrJUgoFot07kHGeeAwQQGAjo4ODA8Pw+v10jH8OvSjFyHqR60jzo1IJILp6WmkUimRQV9Ifk8i6kcd8yjU21ftOplMRj3qxy06ne7KztfOgnrz2EbufS5fwK998r/hF//t78FokMLP64HneWRzefzlH3wC3/See013jZqQgB9Y1zmex//P3puHR5be5aFv7fu+SSWVSirtS6v3Hs9qJwZfYAzxvRCDia/ZbJLAJTHJY0Oug2PAEJjgxOExcL2ADYHEQOLcGAI2vnZmYMYzvaqnJbVaW2kv1b7vZ7t/yN8355RKaqm7JVVJ532e81RJVefUd77tfO/3e3+/371sGZ+a34LmDMtfWF5Aj1GLfzzgQ8B4ML8SYKfjvvzyy7h//z7UajU0Gg1GRkZw4cKFI4umvJ9svRH1ep3K1slRKpV2SZ32I+UEGo0GLpcLPp8PXq8XHR0duyTNxw2SUuW1115DuVymD0eO4+D1evHMM8+gs/OtYHrtuoAl5c7n85iamsLS0lJTtQPHcRgZGcG1a9doajXx+TL2hyAING3d7OysxI2BLGg1Gg1CoRCuXr1KlQWtAIZhKOlujPpPICbdSqUSXq8XIyMjCAQCMBqNTd0yWq7v7Dy6wAsCbsVq+NGvxVHjTk9kdFLfHUYVvvw9PoRk8i1DhGQyifv372NlZQXValVCtIG35imdTofBwUFMTEzAYrE0lUefFRxm7NTrddy7dw9TU1N0/lcoduKo6PV6TExM4OLFizvuMLWaxHq+18Fx3JET9Wbf2cuibjKZJET9NKezvTe3hJ/7pU/j+t370Gnl4Gt7oVyp4sMffC8+9nMfgN36ZONfHTXakIC/JedjeAGfD8dwPVWAEmdrgiaWb71KiXf6bPiHAfehJuuVlRW88cYbyOVyEmukQqFAKBTCpUuX4HA4DiWXeRLYy79ZEASUy2VEo1HEYjHEYjFkMhma7qHxu/tZzgVBgMVigdfrhdfrhc/no2mIGnEU980wDGZnZ/HGG29IZNjAjl/0008/DavV2tYLV1L2arWK+fl5TE9Po1gs7rpfcf9iWRaBQADPPfccHA5HW9//SUEQBBSLRdy4cQMLCws0+J24znU6HcbHxzE5OQmdTnfs41uhUIBhGBqcJhwONyXb4nOUSiU8Hg9GRkbQ09Mj2SRsp35Cnl2CIGAxy+BD30xgKce09fNLAIDvtIHXoMKffZ8PIZumrdpFxpMFaXuO47CxsYHp6WlEo1EJMRT3D7LxPDY2hv7+fppiU3wtGc0hCAJSqRReeeUVxOPxXUYKsqHv8x0uX7IgCHsS9cb/NQbKe9z7OQgUCgU0Go2ElIvfi4/DEPVW6Wt/87c38SM/+wnUGQaqM2xkfBgYlsXoQBBf+dyvIdjdcdLFORTakoATCIKALMPhl2c2kGXYUyfn2w+k2casRnx4uPPQKoDZ2VncunVLshMtXqRzHIeuri5cvXoVPp+PTuonMTnt9QDmOI5K14l8neT/bTwf2G0dE0OhUMDhcFDpus/ng91uP5C06jCoVCq4ffs27t69C61WS8uh0WgwOjqKy5cv0/+3yoPgMBAvvNbW1nDjxg1kMhkqryf3q1arYTQawTAMKpUKgLd2641GI5577jn09vbKwV0OgUZpeiqVwo0bN7C+vk432cQ+90ajERcvXsTo6CjU6qPLzywefyQ9y4MHD3ZZ6RvvgbiTTE5OIhgMti3pboS47NslFj/y1zEs5xgo0DqLv8NCAaDfpsEX3ulByC6T77MI8TgvlUpYXFzE3NwccrmcZEyL+4ZSqURPTw8mJyfh9XolkmnyfRm7Id7InJ6exq1bt3bN/zqdDmNjY7hy5Ypk/j/M9Q+KWq2GSqWyi5iXSiX6v0qlsiuV3OP8/kGpiyAINJf6XtZ0coizrDwMR9k3eV7A5//zV/FPfvHfwdpmVt2TQD6bx/T/+mNMDLdX0Nm2JeDixeRCsYpPzm5ArTgbAR4EYSfqeZdBi58Z6EC38eBWrMaHpNgXq3ERTKTBTqcTFy5cQCgUojmGT7qe97rfWq1Gg7uRqOvVapWes9f5jZ8BO+mySLR1YinX6XQSXyrg4HWRzWbx8ssvIxKJUMIDAEajEZcuXcL4+Pi+99YO4HkeqVQKN2/exMrKCtRqtWTRxfM8/H4/rl27ho6ODsRiMbz22muIx+MS67ggCHjqqacwPj4usYbIeDgaF2KRSATXr19HIpHYtdkmCALsdjsuX76MUCjUNFL4o5aBWK4J6Q6Hw6hUKrskpY2k22KxoK+vD8PDw7Db7U3vq90hvpd4mcPH30jjL1ZKUB2z4uhJQKUA3t5lwGff6YFO1X7ll/F4IM8xQRCQSCQwPT2NtbU11Ov1XRuvpF8YjUYMDg5ifHxcdjl6BPA8j2QyiZdffhmpVEqyUU3UQs8++yw8Hg+Ao6vXw16XYZimFnQxYa9UKjQgX7Pfe5Tfb0Zzml2LGAYeRtbJOrART8pgE0uk8Suf/hI++yf/Ayaj4eEnnHEUimV8/t99FO9/z7uga6Nc6W1LwIG3Bh/LC/jadgZ/tpGCSnHy5PAoQaTndq0aP9TtwnOeR5MqN8q/wuEwpqenkU6nqWWqkYiTSKSEFLWab9Ze9VAsFikhJ9J1lmUlC4dm5zf7XCxd93g88Hg8kuAwjeScnBeNRvH1r38dlUqFyoIFQYDL5cIzzzyDrq6utt31J+UulUqYmprCzMwMFArFLqur1WrFxYsXMTw8LCGC1WoVr7/+OhYXFyV1UK/XMTAwgGeeeQZWq/Ukb7Et0UjEw+Ewbt68iXw+L/mc9EWv14urV68iEAg88pxCzotEIpR0i3Pak1fyPXKYzWb09vZieHgYDoej6T2cNojvjeUF/OFcAS/dzqLCCi1/36R8GiXwkUsO/JNJq+T/Mk4/yHiv1+tYX1/H7OwsYrEYAGmGC/Ez0efzYXx8HMFgUJLZg5wjY2+QemIYBm+++SZu3769a71B3IuuXLlCz2mVej1MWTiO25eok6Ner0s2eJoZUsTvD2tV3+tvpVK5ZxA5MVkXG2wOs7k9v7yOD3/it/Gtb9+Bvo0I5UmhUq3hJ9/7ffj1X/zHcNrbZ63Y1gQceGtQ13kef7ASxxvJQltL+fYDaSqzWoUf6Hbiu332x55gG8+PRCJ48803EY1GKUkVL9R5nodOp8PAwADOnz8Pk8nUstFJ96ubVColibpeKpVo7lFyNLtG42dKpRJOp5NK171eL2w2G4C3JNXhcBjf/OY3oVKpaD0qlUp0d3fj2WefbVt/b1IP1WoVi4uLuHPnjmSDgdyPXq/H0NAQLly4AL1eT89tlCPeuXMH09PTVLGgUOz4hdvtdrz97W9HZ2enLEl/BDRuts3OzmJ6ehrlcrlpXycR071eL4D9xzWZExQKBaLRKCXdYn9/cg3xYlypVMJkMiEYDGJ4eBhOp7Npec8CxGPhZqyGX7uZwd1EHQJary5IedRKoNeiwaeed+Gi93jjCMg4OZC5gud55PN5PHjwAIuLiygWi5J1gHis63Q6BAIBnDt3Dm63W3Ituc8cDGSejcfjePXVV5FMJiVugUqlEm63+1is3keJw5aZ5/mm0vdmRJ1cf7/Xg5bhYUSfvFcqlTAYDLDb7XjxxRcP7Iv+xtQsfuzDv4aN7Tg0pzjQ3JNCrc7gu5+/gi+89AvweZwPP6FF0PYEHDgbJJw0k1apxDNuC36sz/tEJ9jGa8XjcTx48ABra2uo1WqUnIqJOElvdPnyZTidTkowW7ne96qzer2ORCJB5euJRAL1er0pKRdfS/yeHHq9nuYkz+VyWFpaotJ9YEfaPjg4iGvXrrWlv7d4J357e5vKm4ncnECr1SIQCODy5ctUStzsXsX/W19fx/Xr15FOpwG8tYmhUCjw7LPPYnBwUKK+kHFwiOuZYRhMTU1hbm6O9nMCMrb7+/tx4cIFGoxRbE0n34/H45R0FwoFAJAsDMlvKpVKSroDgQCGh4d3pURrt3HwJNFoDf/i/Tz+4908ygwPVmiNuhEEARqlAk69Cj85bsXPyFbvMwPybGMYBolEAjMzM1hfXwfHcRKZuVjVYrPZMDw8THN3i68l95eDQawymJqawt27d3dZUkmE80uXLtFzTnv9HvYeBUHYlT+dvBfL3xmG2bUpvR9pf9jmNIHBYMAHPvCBA5f76y/fwPf/5C9Ar5PXOgcBy3IY7OvGX3zxNxHwe0+6OAfGqSDgwFuDocLx+PRCBIuF6qmZiEgT6VRKPOW04CdCR9vBxPVWLBZx//59LC0t0SAa4u8JggCWZREKhTA0NIRAIACVSkXJeDtgr35SKpUoGY/H40in0zSICM/zkk0J8bXIq3hBQv6v0WgwNDSEa9euUaJCyAnQ+ptGgrDjjpDJZDA1NYX5+XlKiKl1TK2G1+vFxYsX0dXVRc87yK6yQqFAsVjEa6+9ho2NDVrHwM4mycTEBK5cuQKz2dzyddWqELdFqVTCnTt3aHo4stlB2lmr1WJsbAwTExM03VepVMLq6irm5uaQyWQowQaak26tVkt9usUWsMayyJDWR6LC4ffu5fGVpSIKDA+GP5n6EgQBWpUCWpUC7+k34+cvWOE1ylaZ0w4y73Ich2q1Ssd8PB6XbLaLx7tarYbP58PExAS6u7slm3ZA6z/fWglkDk4kEnjllVdoMFNgpx5VKhU8Hg+ef/556rYjz6e7cdg6ERPzRpJOjlqttmut14y4k9+22+1473vfe+Ay/I+v/x3e8xO/AGsbyalPGvlMDg9e/VMM9/ecdFEOjFNDwAGpJfyLKwlcTxXafkIi5TeolLjiMFPyfRz3Jf4NnucxMzODxcVF5PP5XfJ0nudpKpHBwUEMDw9DrVbvsoq2A/ar21QqRQl5MplEsVikZLwZKW9G0AnJcblc1J/c7XbDbDZT0kKOVqk7Uu5yuYyZmRlMTU3RRYB4AWa1WnH+/HkMDQ3tWQcP+x3y3evXr+PBgwf0YadQ7ER9dbvdeMc73gG3291SddROaFwQZzIZ3Lp1C+vr67Qfk8U1y7IwmUzwer0ol8tIJpPUSk6uIe4DKpUKWq0Wfr8fvb296Ovr2/Xbcpvtjcb6iZVZ/N69PL4aLqHECqhzAlj+aOtQEASolQroVApolAq82GfEz1+0wSci3nI7nk6QuZ5lWeTzeczNzdENeJVKJYlUTsa7wWBAT08PxsbGzkwMh6MEz/OoVqs0r3fjJqder8f4+PiZsnofNQ5bh9VqtSlJF/9Nsgz19PTg7W9/+4GuWyyV8enf/3P80m/9Pqxm48NPkAEAyOcKePB3/wXDIZmAnxjIIKpyPP5oNYGb6cKRL1aOCuRerGoVXvQ78N0ddkDYCcJ2nPfTODEtLy/jwYMHSKVSEpk2IeI8z8NgMGB8fBxDQ0M0D2M7++/uNTlzHEet5FtbW9ja2gLHcRKrd7PzGndNxdJ1crhcLuj1ekrGT0LiT8pWqVSwsrKCW7duoVQqUV8mUh6TyYSBgQGcO3cOBoOBnvsoZRWft7S0hNu3byOXy9H/cxwHtVqNF154Ab29vbIk/THQ2EbRaBQ3b95EJBKh/yN9Wdyfm1m+tFotOjs7EQwG0dfXt2vjSW6jw6GxzlJVDl9bK+PraxXciVfB8UCNF8A+Ics4kZhrVTvEe8ihwff3GfHeQTP0aqXke3Jbnj6QzbZ6vY5oNIr79+9jY2ODjvFmY95ut2NkZAT9/f3UzUq2dj86iMw/Ho/jlVdeQS6Xk2x0ajQaeDwePPPMMzRuhjwejxeHre96vQ6WZSVpNPdDqVzBb//Bf8X//dLnYDWbHrWYZw75XAH3vvmfcG6kfVKRnToCDrw1QFhewF9vZ/BX2xnU+NaPLEtApcsAXFo13t3lxAuPGO38KMpFsL29jZmZGcTjcVSrVSrPFktY1Wo1BgcHMTo6CrvdDo1GQx8o7YzGuqjVapiensaNGzckOZXVajX0ej04jqOH2MIovh55FW9oWK1WSsh9Ph8sFgvUajWV+ZOF0ZPuF4Rw1Wo1xONx3Lx5E9FoVJInk+zEd3Z24uLFi9Sn90n1U3KdbDaL1157Ddvb25II/dVqFU899RQmJiZgMpnaYmy3IsjCm2VZ1Go1bG1tYW5uDqlUCkDzdGGkvxI//1AohN5ead72k56vTgua1eNyro5vbVRxI1bDXLqOEsOD4QUw/I4POcsD/B71T66nUQJapQJKBaBVKaBWKnDOpcVVnx7v6Tei06Ruep6M0wMyz9frdVQqFSwtLWFhYQGZTIaq1xrdi/R6PXw+H8bGxtDZ2Sm5ltw/Hh1E6j81NYXp6eldVm+j0Yhz585hcnISgFzfrYxmbXPQ9pIJ+KOhWCrj93/rF/G+f/Dd0Gk1Dz+hBXAqCTgg7exz+TL+eDWJeK3e8tZwUm6dUoEeow7/Z6/nUHm+jwvi8uTzebz55pvY2tqiORzF3YoQzoGBAYyOjsLtdkOr1R44ImSrgixeCoUCXn/9dSwtLUmCqhmNRoyMjODKlStIp9NIJBJIJpNIpVIoFosSUi7evGi8PjmIT67L5aJB3txuNwwGg4SUP67/PSHeuVwOU1NTWFhYgFarlaQV0+l0cLlcmJycRE9PDz3vKDYCiLLi1VdfxcrKikSSXq/XEQgE8Pzzz8Nms8mS9AOC9CeWZVEul7G1tYWlpSXEYjFwHCeRmpLvA9hFwIPBICYnJ+F2uyWbMzKOBnuNsal4DXOZOlbzLMI5BltFDkWGh1LxHUIuABqlAioFwAuAXqVAr1WNMZcWDp0K4y4Nrvr0B/49Ge0NMv5rtRqy2Szm5uYQDofBMAwd+9QQoFBAq9XCZDIhFApheHgYJpNJci25jzw6yAbI9vY2vv3tbyOXy0mIt06ng9vtxnPPPUczrMh1fnohE/BHQ6FUxh/+h4/hh9/996GVCfjJQzxJJWsM/nQ9hQf5Msocv6d14KRApV0AnFo1LjpM+IcBF9SiB2ErQlw2lmUxPT2NxcVFVKtVVKtvBcIjll2e59HR0YGxsTF0d3dDp9O15cKdLGCSySS+9a1vIZvNSmTZNpsNly5dwsDAQNPzSXCVZDKJRCKBTCaDWq0GlmUpMdoryJvYSs7zPMxmM9xuN1wuF33VaDTUB19syXjYPbEsi2KxiJmZGczMzACAxM9brVbDarVibGwMo6Ojj+TnfViIrz09PY3Z2Vnk83mJJF2v1+Md73gH/H6/LEnfA6TPMgyDarWKZDKJ1dVVrK2toVqtShQV5PsqlQoajQZa7U4u0mq1SjfYSN0DQCgUwuTkJBwOB92skXH0OMi4q7A8khUOAcvDFyWt/KyR8fggm6tE6TI/P4+trS2Ji5N4rtfpdHA4HBgZGZG4lcgy8ycDjuNQKpUwNTWF2dlZyfyrUqlgMpkwOTmJ8fFxAPL4PAuQCfijQSbgLYjGB8WddBF/EckgVq2j2kKydCUAi0aFDr0GPxp0I2CU5ktudTSWc2FhAXNzcygWiyiXy5KgToSIWywWnD9/Hl1dXTCbzW2zcCeLmI2NDbzyyitgWZaWW6VSoaOjA9euXYPH42lKoPdqz3K5TEl5MplEoVAAwzBUHkxIObDbEikm5EqlEjabjfqRe71emEwmCSEn/nrkOhzHoVgsYnNzE6+//jrq9brEkq5UKmE2mxEKhTA+Pk4tIMfVP8XjOBqN4o033qDBwMj98zyPp556ilpo2mHcHDUI6a7X66hWq0ilUlhbW8Pa2hrK5fIuxYQg7ARWIhtjdrud+nQLgoDp6Wmsrq5SBQdpF2I1Hx4epu4m8kbIyeMw84+M0wviXlIsFrG0tCTJ3S327yZZC4xGIzo6OjAyMkLzSgNy/3mSqFar1Oqdz+cl7WAwGODz+fDMM8/AYrEAkOv+rEAm4I+GQrGMP/3dT+A93/NC2+ROP/UEnEA8eVU5Hn+1ncFUpoR0nUWF221pPK4yKRUK2DQq+PQavMNrw1Ou9p5sG8u9ubmJ6elp5HI5lMtlMAwjCepErJejo6MIBoNwOBw08FirgliI7969K7Esa7VaBINBPPfcc9BoNAduw/2+l8lkqGw9nU6jVCqBZVkJMX+YlZzjOBgMBjgcDmohJwHe1Go1eJ5HNpulpLbRz9tkMsHn82FycpIuxk6qf4ql56+99hrW19clKUHq9Tr6+/vx1FNPwW63n0lJulheWqlUkMlksL6+jrW1NZRKpX1Jt1arhc1mQ09PD3p6eujiT4xsNovp6WlsbW3R/kjGNMuy0Ol0OHfuHEKhEGw2W1sqXGTIaHeIfbuTySQWFxexurpKMxiIZeYqlQp6vR4WiwX9/f0YGBiATqeTXEsew08GRGV27949zM7OStYQarUaZrMZExMTstX7jEIm4I+GfL6Iu9/4Es6PNledtiLODAEnEE9mWYbFt2I53MuWkGM4lFgOzDH4iAuCAJ1KCYtaBa9Og+e9VrzNZZF8ftom3Ewmg5mZGUSjUUl6BtL9WJaFSqWiKcysViuNnt4q4HkeuVwO169fx/LyskRyLvb3Bh6vDfeT9zEMg1QqRY9sNotarQaGYeixl3RdbCXneR5WqxV2u50GWmsWYM3j8WB0dBS9vb2PfV9PCuIykFzkYkk6y7Iwm8144YUXqCT9tENMusvlMjKZDDY2NrC2toZisUhjBDSSbr1eT0l3IBBAIBCA1WrddW3xWCXXSCQSmJ6epmNaHP2/Xq/DZrPh3Llz6OnpgdVqbcuUhDJktBt4nqepkNbW1rC0tIRkMtlUZq7T6WA0GuFyuTAwMEDjeQCtMdefNpTLZWxubuLWrVvIZrOS9jAajfD7/bh69Sqdg+U2OHuo1ur43T/67/iXv/IZWC0yAT8o8rkC5l/9Mob6Am0zbs4cAQe+M6kBwHcaqMhyeDNTwpu5EiLlOkoc/8TJOCHdBpUSDq0aAYMOFx0mXHCc7mAmjfdULBaxsLCAlZUVukgQL/CJNa27uxsjIyM0P/ZJkyiGYZBIJPDKK6/QCLGk3A6HAxMTExgdHQVwtMHImqFUKlELOQnwVq/XwTAMfSVWcfE1CCEHsEtxoFAoEAwGceXKFWg0GiiVSuoL3Ap9VHwvGxsbuHPnDhKJhESSDgBPP/00QqFQU0tuu4O0abVaRaVSQSqVwubmJtbW1lAoFGjqP3HeXvGi22KxIBAIoLu7mwb3EV97r3Zu/Gxrawuzs7NIJBISdxOe51Gv1+H1ejExMQG/3w+r1frYQQJlyJCxGwzDoFwuI5fLYXl5GcvLy6jVarvSV5INY5PJhEAggIGBAcn4P43rkJMGy7LI5XK4d+8e5ufn6QYoAJrObXx8HCMjI/QcuR3aG2LjEs/zEkXJw/CVv34FP/hT/wpWu/XhX5axs+nPsJj+xh9isK/7pItzYJxJAk7QbIKLV+uYzVewWKggUWNRZjmUuJ0ULzWOB3eASVEQBGiUSmiUChhVSuhVShhVSvgNWgRNOrzNZYFedbbS9TTeY71eRzgcxtLSEorFIgqFgsRPnKTrcrlcGB8fh9/vh8lkgl6vP/a6KpfL2NjYwKuvvgqGYeiDU6lUwuv14umnn27q733UeJh0PZPJIJ1OI51Oo1KpoFqtolgsgmVZ+r39SBaRKjocDrhcLjidTjidTipVJsdJWjZJHVQqFbz22mvY3NxEvV6nnzEMg5GREVy4cAFOp7OlXRsOCmLhqlaryOfz2NraQiQSQTQa3ZN0kyjGRqMRPp8Pg4ODhyLdzdD4/XA4jPn5eSSTSVSrVQkRr9VqCAQCmJiYgNfrhcViOZPuATJkPEkIgoBKpYJSqYR4PI7l5WVsbm5CEASJQksQBGg0GpjNZthsNoRCIYRCIZoSVA6qdjQQBEFi9Rbn9QYAs9mMzs5OXLt2DWazWXKeG7TxLAAAIABJREFU3BbtAbJeFcfqIUe9XkepVEKtVsOFCxcOdC2FQoFv/N1N/MBP/OJ3nudyP3gYWJbFUKgHX/2D30DA7z3p4hwYZ5qAi9FswuN4AeFSFSulGrJ1Fuk6ixzDguGbV5kAQKlQQK9UwKZRw6pVoceoQ4deg16TnOIFaB4UaH19neYeLRaLEj9xnufBcRwsFguGh4cRCARgs9lgNBqPhUwVCgVMT09jenqa/k+hUECj0SAQCOCFF16QpB47aexVjmQyieXlZSwuLqJUKkk+I9aRvXKTE8k6sbhaLBY4nU44HA44nU7YbDZKxgk5P85c7+J7vnnzJpaXl3dJ0p1OJ55++ml0dnaeuJriUUBId6VSQT6fRyQSwfb2Nra3t6k/p3gxTUi32WyG0WiEx+NBMBiE1yt9OD2Jfiu+Bs/zmJ+fRzgcRiqVkmRCIOn2ent7aTpCq9XaEuNGhox2AsuyKJVKKBQKWF9fx/LyMk1f1SgzNxqNMJvN8Hg8CIVCcu7uYwLDMEin07h//z4WFhZogFQA0Gg0cDqdGB8fx+DgID1Hbo/WBFmLktg74hg8DMOgVCqhVCqhWCxKjkqlAgAwGAz4wAc+cOC1x+178/ipj/wG5sMb0Gpaxw2zVVGrM/iet1/DZ3/zo/C5HSddnANDJuB7YK+JkBME5BhuJ41Z4znYybVq22fAyBPsDprVw/b2NsLhMKLRKEqlEiqViiRgG8Mw0Ov1GBgYQF9fHxwOB43ufRTlS6fTuHv3Lubn5yWE0mKxIBQK4W1ve9ue99IqKBQKyGQyWFhYwNLSEgBIrKNmsxkulwtarRa1Wg3VapWmqanX601JeaM/ObGSk8Nut8NkMkGr1UKv11NSfpR1JG6DcDiM6elpxONxSXk1Gg2uXbuGvr6+tpCki3058/k8JdzRaJRauZuRbovFAqPRCLfbfWSkuxnE161Wq5ifn8f6+jpSqRTq9Trd0CG+4v39/RgeHobT6YTZbG7ZMSRDRqugWq2iUChIshmQ3N1kI1UQdtIHWiwWWK1WBAIB9PX1ybm7jxFkY+Tu3bvU6k3ahrj+XLp0SZJNBJAVCCcNYskWx9QhfxOlCSHX5L3YjVJ8iA1EWq0W3/u934uOjo4DleP+4ir+2S99Gq/evAedrv0MBseNcqWKD3/wvfjXP/cB2Kzmh5/QIpAJ+CFwmIeW/IA7OBrriiwuNjY2UCgUdvmJMwwDrVaLnp4eBINBeDweWK3WJ2bZZBgGsVgMN27cQDQalTw8PR4PxsbGqK9Wq7ZztVpFJpPB/Pw8FhcXJYs0QRCg1+vhcrkQCoUwNjZGzyPS9Ww2SyPXE0LemAOaQExyCTHX6/WUjDscDthsNhgMBuh0Ouh0OhqB/ah85fP5PG7cuIHNzU3UajX6OcuyGB8fx/j4ONxud0u2HdlNz+VyiMViiEaj2N7epqRbnK5GTLrJZkogEIDX693VRsd1r+LfKhaLmJ+fx+bmJlKpFHV/IPEe1Go1hoeHEQqF4HK5YDQaW7JNZMg4KfA8j1KpRDfhVlZWkEgkmsrM9Xo9bDYbnE4nenp6aPBMGceDer2OVCqF2dlZLC8vS6zeWq0WLpcLo6OjstX7BEEs2c0OsuEttmiT98QY0ewAdm+ekHZVqVQwGAx49tlnEQwGD1TGVCaHX//MH+PTX/gzmE2GJ14Hpw2FYhmff+mjeP///q622rCQCbiMlkHjg6hcLmN5eRmRSATpdBrFYlHiJ07yb/t8PvT398Pn88Fmsz2Wn3ilUkE4HMbU1BQKhYLE37urqwtXr149EX/vg4JlWaTTaayvr2N2dpamnSJQqVRwu90IBAIYHx+HXr9/vvl6vY5cLodsNotsNot8Po9qtUoPEoF9P+k6WYSYzWbY7XZ6mM1m6PV66PV6Ss6fhHSd3AvP87h9+zaWlpaQz+cl8QW8Xi+uXr0Kv99Pc6KfJCqVCn3Yb21tUUs3AEmuXgDUn9NkMlE3gJMm3c0g/v10Oo2FhQVsb28jlUrRIHlkHBsMBoyMjCAQCMDj8dB+KUPGWQXDMMjn88hkMtjc3MTq6ipKpVLTTTiLxQKbzYbOzk4Eg0E4nU7JtU56LjjtEAQB+Xweq6urmJmZ2eXrbbPZEAwGce7cOerrLVu9jw48z1MfbHEwWoZhUK1WJSRb/J4EAT4oyQZAN8I0Gg0NVCt+NRgMMJvNCAQCcDgOLo/+4p/9T3zwIy/BZDz+uEftBJ7fMQC98dX/BxPDoZMuzqEgE3AZLYfGxQLDMFhfX8f6+jqSySQKhYLET5zjOACAw+FAX18fOjs7H0nWmsvl8ODBA9y7d4/KZIGdneu+vj48/fTT0Ol0LbmYEQQBmUwGkUgEDx48QDwel5A2pVIJm82Grq4ujIyMwOVySc7da/e2GYh1lhBy4utEonHXarWHStc5joNWq6Wp0Gw2G2w2Gw20Jyblj1LX4vIvLi5ibm4O0WhUsjmg1+tx+fJl9Pf3S+SZx4VKpYJCoYBSqYRYLEat3WRjqRnpJkGU7HY7vF4vgsGgROrWqn2TlCkWi2FxcRHRaBTpdFqyWcKyLKxWK0ZHR9HV1QW3292W/voyZDwqSFC1bDaLRCKBjY0NRCIR1Ot1qhgSB1Uj1u6uri709vZKxotM8I4H9XodsVgM9+/fp3nWxVZvr9eLsbEx9PX10XNacZ5uN5DN23q9Tg9Ctkk6TkKuxa8kSCt5vh6UZKtUKkqsyUH+1uv1NLOA+LXx+XWQdiffefn1KbzvZ38ZhQYjigwp6gyLy+eG8eXf+QS6O1vXONYMMgGX0bJoHEg8z2Nra4taCLPZLOr1uiRgG8/zMJlMCAaD6OnpgcvlgsVi2XcCEwQBiUQC9+7dw+LiomQytlqtGBwcpPm9WxH5fB6JRAILCwtYW1ujftmkXsxmM12giSWJT9KlgkjWc7kcdRsgQcMqlQr1AW4k5WJfcmAnWInNZqPE3GKxwGAwSI7DSNfJb6bTady5cwfr6+tgGIZ+JggCJicnMTw8DLfbfaBrPg4I6S4UCkgkEpR41+t1iU83aTu1Wg2LxUJVAx6PB11dXbsW2q3+wGks48bGBpaXlxGLxZDL5XYRcY/Hg8HBQfj9frjd7iOJ8yBDRquA4zgUCgWk02lsb29jfX0dmUwGACRzOQCqfHG73eju7kZXV5fkWu0wH5wGCIKAXC6HlZUV3L9/f5fV2263o7e3FxMTExJfb7ltDg6yWU9i0ogP4hZHiLX4qNVqEAThiZBsnU4HjUZDjQJGo1FCsh+WXuxR23x+eR3/8lc/g2/87U3o9QdPYXbWUKpU8ZGf/hH84s++v638vwGZgMtoEzROYvF4HBsbG4hGo5Joy+S7DMPAYrHA7/ejq6sLHo8HDodjl9yYYRhsbW1hamqKBrciRKCzsxOjo6MYGhrasxwniWq1ikQigaWlJYTDYUnOV+IP6PP5EAwGMTw8vCs11eNiv+vU63Xk83nk83nkcjkarIT4WFUqFeoPLLbyNvqTq1QqavW1Wq2wWq0wmUySB6HBYJA8XPcCwzC4c+cOTX0n3rjp7u7GhQsX4Pf7n/huc7VapRsTiUQC8Xgc8XgctVptX9JNfOjdbjf8fv+h8oi2Khr7zMrKClZXV7G9vY1isShRKHAcB7/fj/7+fnR2dsLtdp+KNHIyZBDUajWk02kkk0lsb29ja2uLug2JZeYqlQpWqxUulwudnZ3o7u6G1SrNEdxKz6bTjlqthkgkQgNNsixL53GdTgefz4eRkRHZ6n0AkGewOPgrIdj1ep2SbLKZT0i2ONUlCXp2EJKtVCqh0WhocFjxq06noxv9ZH1hNBpPxCWqXKni07//5/g3n/oDGPRHG8S2XSEIAliOw//7+V/Hdz1/te1StskEXEZbofEhlsvlKBGPx+OSYBnEmqbX6+HxeBAIBODz+eB2u6HT6VCpVLC0tIR79+6hUChIJu5AIIDLly/TCNKt9PBkWRbJZBJra2tYXFxEPp+XyJVVKhVdpA0MDBxr9NuHSdcJKSfSa3HQE/EDVXy9Rks5CTpGCLnFYqG70eQQS9cbyzQ3N4f5+Xm64UKua7FYcPHiRYRCIRgMjxf4pF6vU7/5VCqFeDyORCKBarW6L+l2Op2w2+10od344G+lfvg4EN8Hy7IIh8NUblsulyWbI4Ig0EjOfr8fDofjVNSBjLMJQRBQLBaRTCYRj8exubmJZDIJhmF2ycz1ej2cTifcbjed08VqkNMyH7QLBEFANpvF0tIS5ufnkcvlJO3hdDoRCoUwMjIiW70bwHEcJdbig5Bs8eY8eV+tVqk74H6+2WKQ+iYku9lBJONiZZ3RaHzoPRx3W/5/f3cTH/zoS0ikslCrZRl6IxiGxcRICP/1s7+KHr+v7caaTMBltCWaBWwT50bO5/N04iYyJoVCQSW8nZ2d2N7extzcHLVEAjs+W6FQCJcuXaKpqlppUJMAa8vLy4jH4wDeSiumUCjgcrnQ3d2N4eFh2O12et5J3cN+fog8z1M5dqFQoEHIxEFRDipdNxqNsFgs9CD5rwkxN5vNkoVSNBrF9PQ01tbWaAwBkqpsbGwMw8PDEj/5g4BlWeTzeaTTaUq64/E4KpWKxKeb9EkSmI4ssF0uF3w+3y7y30r970lDfG/VahXhcBibm5uIRCKS6PUcx0GlUiEYDCIYDMLv98Nms51UsWXIODRYlkU2m0U8HkcsFsPW1hZyuRwUCsWu3N0WiwVutxs+n4+6YYhxmueEVkWtVsPW1hYePHiAzc1NOicJggCdToeuri4MDw+jp6eHnnPW2onneUqoG4k2IdmNR7Va3Tf42X4kW61W01SnjQRbbM0Wk+yD+mCfJEgZ1rdi+NhLn8OXv/pNGA1yYNJGFEsVfPIjH8T/9RM/CIvp4RsorQaZgMtoazQL2EZIOImeTiZ3sbTZ4XCgUChQIsTzPOx2OwYHB3Hu3DnqY9sKkzGwk1d0a2sLKysr2NjYoJI3Yum32+3o7u5GX1+fxCewVcovxn5lYhhGQsjF+TYJOec4TnINsXSdtLFSqYTJZILVaoXZbKZWcnJYrVZwHIfZ2VksLCxQqysh9D09PZiYmEB3d/e+smeO45DL5ZBKpZDNZpFMJpFIJFAsFgFgF+kmi2ti5Xa5XDSN3kHr6DRCfL+FQoGmIdze3qY++8BOfet0OpqC0O/306jCMmS0GgRBoK5C8Xgc0WgUsVgMlUpll7VbrVbD4XDA6/Wio6MDfr9fYpWTg6qdDHieRzqdxvLyMpaWlpDNZiXp30g6z6GhoTNh9RYEgZJsQrTFhFsckFX8Subxw5JslUpFA7OKyTX5nzhoq8FggF6vf6gb2UkaJIhr3UHxuT/5Kv75J34barUKylPapx4FHM/DZNDjf37pJVw5P3LSxXkkyARcxqlBIykjix2S0qkxYJvYxw4ALly4gCtXrtDJsRUeopVKBdvb21hdXcXa2hoqlYrEWqLT6ag8t6enhy4MWqHsh8F+5S2Xy5SMi/Nykr/FeeLF12uUr2u1WpjNZnqQAG+RSATJZJJK+ck5drsdk5OT6O/vl0jBCelOJpPIZDJIp9OUdBN/zWak2+FwUNLtcDh2pSRptzY7CojrgKg9iIuJOHUZz/MwGo002GJXV5ecukxGy4DneeTzeRpkcXt7G5lMhlpNyTwD7ASe9Hq98Pl88Pl88Hq9ssy8RVCtVrG+vo75+XlEIhFKnnieh8FgQCAQwPDwMPx+/54uT+0IQdiJME7IcyPZJkfj5yTC+F4Eu7FeSF0plcpdhFpMugmxFr9/WGDOVmkHUpck1oNer0d/f/+BzlMoFJiaXcQ/+/incfPNOejkrCAU5UoVP/XDL+KTH/0Q3E57y7T3YSATcBmnDo0DMZvNYnl5Gffv36d5VJt9v7u7Gx6PB93d3TTy8kkNaIZhEI/HaZCqRj9vkpc8GAyir6+PWkpOk5VkrwmV4zhKysVkXGw1b5SuiwP0EUIO7EjXrVYrDRonBklVNjIygsHBQWg0GkSjUUq6U6kUVVE0I92N8nK73S6T7gOgsU4SiQRNQ5hIJHa1pdVqRTAYRCAQgN/vl1OXyTgxMAyDRCJBN38TiQQKhcKu3N1KpRJWqxWdnZ2UeDe6DAGnYx5vR/A8j1QqhcXFRYTDYYmvN7F6Dw4OYmBgQPLsbaf2Iq55YhL9MMJNrNzkXg9CsslvNZJsQqSbEW7yvjFobrPrtmqdC8JObnjiipZMJpFKpeB0OvGe97znwNdhWQ6f+dJ/w8de+jyUKqVsBQfAcTysZiP+5Lc/jr/37KWTLs4jQybgMk4tyORcLBYxNzeHubk5lMvlppJi8jBSKpU0UBsJ2qbX649tkud5HplMBuFwGKurq0in05K8ouTh39fXh76+Pgmha+WH0ZPAfvdXr9cpGSdSdbF/ealUoq4I4uuRg+zCNy58OY6DWq1GR0cHNBoNtXSLU72JSbfJZILb7aak22azyaT7EdCsjra3t7G5uYnV1VWkUimJWgEAHA4HAoEAent70dHRcWZzp9ZYHqkajxorQKkEcjUeqQoHt0EFq1YJHoBaAXiNauhUcj98XAjCTu7uSCRCg4GmUinU6/Vdc4RWq4XH40FnZye8Xi88Ho9EuSHPDSeParWKlZUVLCwsIBaLUdUCUd309PRgaGgInZ2dLW/1JvNjo/81+Vvsn90oJRdHGD8MyRZbqcX+1818tMnxsHtoxbptBkEQqPGEbMAR9zRSf0ajES+++OKB0p6Se59+EMbP//Jv4+9u3INeJ28wlytVfPB978avfuRDcDtsbdVHxJAJuIxTjVgshpmZGYTDYUqweZ6H0+lER0cHUqkUkskkfdgQIg4ALpcLTqcT3d3d6O3tPVIiLnwnMu7q6ipWV1dpbmixn7fVakVfXx+CwWBbPPyPAw+TrpNDnH9bTMobreR7vSd9QqxCINDr9XC73fB4PDTdnc1m20X2z2obPQ4a643neUQiEWxsbGB1dRW5XE5CxBUKBdxuN7q6uhAKheD1ek91vVdZHss5BvfTDBIVDrkaj0SFQ6HOo84LUCoUKNZ5ZOs8HDolTBoleEGASqmAQ6uEU6+CXadEj0WNfrsGAzYNtDIpPxCIb3AkEqGLbZLTvjGomtFohN/vR2dnJzweD5xOp2QjWJ4fTh7E6j03N4fV1VUUCgWJ1dvj8WB4eBi9vb0tZ/XmeV5CrMURxYk0vDEoWq1W2zPCOLA3yVYoFE0DnJFDnNLrNJLsZhAEAel0mrqcpNNppNPppptwGo0GFy9exMWLFw91/S98+S/xsd/8HMqVGlSqs5uOk2FYDIUC+J1P/gs8e/XcSRfnsbC/E4UMGW0KnuexsrKCmZkZxGIxakUmuYUnJyfh8/lQKBQQi8Vo5GVi8SQTajKZRCwWw8bGBjweD3p7e3dZNB8XtVoN6+vrCIfDiEajNA8sKYdGo0EwGKT5kBsDxLXzg+txsd8igaQkIyByO3E+cpIWLZPJSCLni6+rUCh2+WSKQQL7kYUHsZaILbBnuY0eB40bIkqlEt3d3fB6vfD7/VhfX8fq6iodM4IgUAtkNBql8REOG9G+VSEIApIVDneTddxP17GaZ7FZYLFeZJGr8SgyPMqMAPH6TAEFlAqAFwABb/VdTgAMKgXMWiW8BhU6TSp0GFXotWlwxavDBY8OFs3Znl8aQSxckUiExo5Ip9NNc3crlUo4HA50d3dTVZU4YKBYbSPX8cmCZGAgVm+SEYP4evf19WFkZAQej+fENr5JQL/GZxgh2SSlV+Mry7IAsItgi9NhNv6OQrGTxkucqkv8npBqrVYrIdwPq4+96qxd+3+1WkU0GsX29jaNCSN2OdFoNJJNC7IJR9LbHgTk/Hf//afx6o17+JP//g2YjGcz3okgCOAFAT/1I++mgdfaefNGtoDLOHWo1WqYn5/H7OwsTfNCEAwGcf78eXR2dtL/CYKATCZDg+Wsr69LfIh5ngfHcTAYDPB4PDTqaUdHx2OVk2VZRKNRmgM5n8/vekD6/X4MDAygu7tbEmEVaN+H1nFjrwmaBNhZWVlBPB6X5CHfq46bXavRv40sUkiucpvNBpvNBr1ev29EdRkPR2P9kyCFa2trWF1d3RVoUaPRwOv1IhAIIBQKtW3qsirLYyZVx+vRGt5M1LCcY7BV5JCt7Sgz1EoFFApAicPNC4IggMcOOed4gBUEOPUqhKxqBCxqXPTo8LYOHS56dFApz+58IwgCCoUC3ahNpVLI5XJgWZYutsmcodVq4ff70dXVRRUx4rgE7bxgPG3geR7JZBJzc3NYX19HoVCgpFSpVMLj8WBkZATBYJCmhzzq9qvVahLllvi9mFiLD4ZhJJbrZu/FIPegVqvpRjUh2ORVTLDFR6tGGD8u8DyPRCKBSCSCeDyObDaLbDZLFZZiazfpQ36/H16vl6rjgEerp6+9fB0f+bXfxfLqFjSas2c/rVRr+P7vfhaf+tc/i95AJwQBaOeuJhNwGacK+XweMzMzWFhYoPmXAUCj0WBoaAjj4+PUgt2MZBUKBSSTSUSjUSwvL0sibBNLp1qtpj6+JPjTYfxNeZ5HNpvFwsIC1tbWkMvl6ORN4PF4MDg4iEAg0BL5vE8DiK9mPB5HJBJBJpNBqVRCoVCgCxixdQPY6TcWiwXlchnVanXPuhf7k4sX4uJAMyTgGyHkNpsNGo1Gbs9HQOM4KBaLdMxubm7uSj2o1+vh9XrR29uL3t5eupnV6qhxAqYSNfxluIRb8RrWCyxSVR4KAGoloMCT34jjBQEsDzC8AJ9RhV6rGuMuHd7da8Rzfv2ZIeJkLEejUWxubiIWiyGbze5KMUj6osViQSAQQFdXF5xOJ6xW6675RB7rrYNqtYrFxUUsLCwglUpJfL0NBgMGBwcxNDQEl8u176bso6Ber0vIdblcRqlUon7ZYmItfk/QTCq+12axSqWSkGzxISbZGo1GJtn7oFQqUeVLOp1GNptFpVKhyiwCor7r6upCV1cXJd2PswlHvl9nGPzOl76Cl37vP6NQqpwpKTrDsggF/PiPv/LP8c5nLwNo/34oE3AZpwaJRAJ3797F2toaGIahD1Oz2Yxz585hcHBwT9+txr+r1Sr17yPB0Mh3xP6mJLJ1T08PQqHQvr5OgiCgXC5jaWkJKysrSKVSqNVqu/y8h4aG0NPTA7fbTSf2dp9oThIkKMrq6ioymQyNmE5It9ivWxB28vGKUwIZDAYUi0XMz89jbW1N0iYE4oW4+DMxKVcqldBqtZKIr2azGTabDXa7HTabDRaL5cwGD3sUNI6LfD6PaDSKhYUFRCKRXe1gNBrh8/loLIVWTV1W5wTcjtfw54tF3EvWsZxjUGIEaFSHt3I/DjheACsAGiUwZNfggkeH9w2ZccX3cLlpO4O4BW1ublJrd61W22XhUqlU8Hg86OnpQWdnJ6xW667c3ae5ntoRxOp97949bG1tUfcB4C1f73PnzqG7u5vOD4/SjizLUmLdSLRrtRol1wzDSN43c03Yj2QDO5tBRqMRJpNJ8kqs2RqNRnJotdoDpfFq9ptnCRzH0Q24ZDKJXC6HQqGwK0AdmQs6OztpFh2bzSZxOQEebz4g56azeXzspc/jS3/+19CoVWeifXZyfhvw8Q//GH7qR16EXqc7FXOrTMBlnAqsra1hamoK8Xhc4u/t8/lw/vx5BIPBA+XIbvysXq8jl8shEolgc3MTW1tb9HvkVRAEWCwWGrAtGAzukroyDIPV1VUsLi4ikUjQaOxk8tbpdOjt7cXQ0BA8Hg9Nv3EaJpmTAMuykhy8pVIJ+Xwe9XpdsogG3pKQ2+126q/pcDhgMpkku9aZTAazs7N48OABDcpGzjeZTOjo6Nh5QKbTKBQKTaOuk1dyqNVqSWRYvV4Pi8UCu91OD6PRKPeBh6BxnGQyGUQiESwsLCAej0u+BwAmkwk+n4+qTB62GD0uCIKAeJnDF+cK+NpqGeE8ixonQKPEiaafEQQBDL9DxEecWryjy4CfPmeFx3C6NosymQzW1tawtbUlWWw3Wrt1Oh0CgQACgQBcLhcsFoskZZI8b7cmiHsasXqTuZ9YvYeHhzE4OAin03kgqzeJKyLOvkHeV6tVSq4bD0LgxNdujDtCII71QiTiYqJtMplo8DNCsNVqNX2/H2SS3Ry5XA5bW1vY2tpCNpula4fGTRFBEGCz2dDd3Y3u7m66id4YM+ZJ1S+51nx4HR/55O/iay9fh0G/f4C7docgCOA4Hj/9j34A/+pn3w+v23Fq5leZgMtoa7Asi4WFBdy9e5f6UBP09vZicnKSEqPDPmzEg5xhGJRKJSQSCYTD4V0yV7GFzWazoaOjA6FQCB6PhxKBra0tKl8k1yW7pqOjo+jo6JCtJ48BlmURj8cRjUYRiUQkVodmlm6iYCDp5qxWK8xm8y6rqLgdKpUKFhYWMD09jWKxSH0/VSoVbDYbBgcH4ff7aV7xTCZDj0ql0lR5ISbmwI7snUgDdTodjEYjVVrYbDY4nU6qmpAhhbh+OY5DNpvF5uYm5ufnkUqlaKA28j2z2YzOzk4MDw+feOqyGifga6sl/NGDImZTdWRqPLTK1locEyJu1Sox7tLg/SMW/OCA+eEntjA4jsPm5ibW1taQTCZRKBTonCG2cCkUCthsNvT19aG7uxtWqxUmk0mWmbcBiN/u1NQUYrGYJB2pUqmE1+ulsWGIik3selatVlEsFinJJu8rlQol1SzLSl5JekTg4SRb/HsGg4ESa6PRCLPZTN+LybX4db8+J/fLg4FhGGxvb1PFozhTijgNrCDspBPs6uqi1m6z2Xwsazfxdf/X61P42G9+DndmFqDT7r/R0q4QBAEcz+PHf+h78ZF/+j70dnfS/5+G/iwTcBlti3K5jOnpaczNzTX1956YmKD+009C+kPeFwoF5HI5rK6uIhwOU99gMZnSaDTUzze7NNlmAAAgAElEQVSVSqFQKNAI2wQOh4NK3cxm8y5yKOPh4DgOsVgM0WgUW1tbNFgN8c1qtHSTRXRPTw86OjroIno/0t34N8uy2NzcxN27d7G9vU1JHQBYLBZMTExgZGQEarVa4s9XLpeRzWYpIc9ms1Ry2Ey6Tl6JdF18WK1WSsrtdjusVqsc4O07aFxwsiyLTCaD1dVVLCws0Ci1xJVErVbDZDKhq6sLY2NjcLvdxzr+BEFAqsrjczN5fGWpiK0iB6USULXwHMB/h4gHLWq8u8+Ij162Q69ur/5XLpexurqKtbU16ttNNlXF8waJvN/b2wuPxwOz2SxxNZLn69ZGvV7H7Ows5ufnaZo4Mv51Oh1GR0cxPDwMvV5PY4IQK3axWES5XN5FsMkhVkIdhGQDO/1Fr9fDZDJRck0InNlspqRafBwkVojcDw8PQdgJwLu+vo6trS3k8/mm8wB5prhcLvT09KCrq4u6m4g3bY+jDcQbQ9/421v45U9/EVMzC9CeQhJeqdbwPe94Cr/+0Z/GxEgIwOnq5zIBl9GWSKVSuH37NjY2NmiuRZ7nYTKZMDk5SR+owJMbsI3XITvhy8vLCIfDKBaLkslaLG8jEzkp4/j4OHp7e2Gz2egEfpomlqMEx3GIx+PY3t7G5uYmDZAmJt2AdPFjtVpp/nTy4HwY6W6EmNgJgoBUKoXp6WksLi5K2lyr1aKvrw8XL16UBNADIPH1q9frKBQKSKfTlJTn83mJPFH8u+JXsigjskOdTge73Q6n0wmHwwGHwyHZkT+LaOZOkslksLS0hKWlJbppR4g4CbjX09OD0dHRXW13FOAFAffTdfz7Ozm8tl1Fvs5DrWgfaxXLCzBrlLjm0+HfPutEwNL6i0CiYopEIigUCruUKeSVpJ8i8/RJLLZlPDp4nkcsFsPdu3cRi8Ukm/QKhYIqi0i6sUqlsotck9fGtj4IydZqtZRck4P8TXyw1Wo1TTmqVqsfuokq97kng1qths3NTWrtJi4DgHQjhWyWBAIBBINB6prWGOvnuNuF/J4gCPibv72JT/z7P8Dd2cVTRcKr1Rq+6/mr+PiHfxzXLoxKlEinBTIBl9F22NzcxPXr15FKpST+3h6PB5cuXUIwGDxWUlutVlEqlbCxsYGbN2/umcqKEKdgMIhLly7B6XQeWxlPA1KpFCKRCFZWVmggm2YPTWCnTkkkW7/fD6vVSlOr7GXZPigaJelzc3OYnp6mCzySA9ztduPy5csIBAJ7/gbP8xIJY61WQzabRTqdpsde0nXxKwCJ3x+JwO5yueB0OuF0OmG321vG1/k40Vh3tVoNyWSSBtUTpy4TBAEajQZWqxV9fX0YGxs7so0MXhAwk6rjw3+bwnKWASsILW31bgZBeCuz+LhLi1+66sBzXYYTLVMzMAyD9fV1hMNhuuCu1+sAdi+4PR4P+vv70d3dTYNYEchzdWtjx190x/VkdnaWun2RdQL5DgBKfjmO26VEAg5Gsol6xmKxSEi2xWKBTqeTEGyVSkWPg9yH3M+eLHieRyqVwsrKCt18q1arEmWimOSRrBl+v5+6pjVukJxkOzWS8H/zqd/Hm3NL0D7E77/VsfMcBl5859P4hX/6o7g4MUT/f9rGhEzAZbQNOI7D4uIibt68iXK5LPmsp6cHly5dgtfrfSR/70eBeAKMxWK4desWDdK21wNbodgJ4GO1WtHd3Y1QKASXy3VkZWx3pNNpbG1tYXNzk0YirlarTS1WhHT7/X709vbC5XI9MdLdiEZf47W1Ndy5cweJREIiSTeZTDh//jyGh4cPnIaELAiJJaZcLlMynkqlqHRdfK3GspF6EQfl0Wq1NFig0+mkwaPOinS9Uepfq9UQj8dx//59bG5u0oUYIeJarRZ2u52mI9ovw8FhwQkCXt6o4JM3M5jPMFC1kdVbDAEAvtPfOAHot2nwb59xtgwJz+fzCIfDWFtbQz6f33PBTTZG+/v76bwhB1VrXXAcRyXihUJB8kos2aVSSSIlblQwNWKvZ7ZKpZKQbDHZ1uv1u8i1TLJbC+VyGevr61hZWUEmk6HB8RrXEDzPUwUUUb00zgNAa7WbuCxff+UGfv0z/wlTMwsA2vR5IuwEXPvAD/5v+OjP/CP0BU6Xz3cjZAIuoy1QqVQwPT2NmZkZarECdvzzBgcHcfHiRRp5/LgGqyAIKBaLmJqawvr6OiqVisT6rVAooNVqoVQqqTxaPNw0Gg2MRiM6OzsxMjJCNw/OOjKZDDY3N7G5uYlsNkv9qJtFjiUSMb/fj76+PrjdbprqS0wsj6JPNJOk37lzBysrK5LvaDQaDA4O4tKlS7vSkjReb68yiqWRLMsil8shlUohlUohnU7vkq7vRcrFckcSgd3hcMDlclFrudjidxrRjIhHIhFMT08jFovtqjutVguHw4GxsTH09fU9NLLww8AJAv4yXMLH38ggVeWOJJf3SYBYw3utGvzGCZJwQRAQiUSwuLhIA27V6/VdC25B2Mle0d/fj1AoRGNBHPW8IeNgEARBQrLJQQKgcRwHnufBcZzkEM/LzVRDjTFBiKuY0WiExWKREG2LxQKDwUBJtlKplEl2G4C4qS0vL2N7exvlchm1Wm3XGoK0fUdHBwYGBtDR0XFkm/ZHBVI2juPxYGkVv/XZL+Mvv/U6qtVaW22uczwPs9GAD77v+/FzP/5/wOc5/QpRmYDLaHlks1lcv34dGxsbYFmWynx1Oh3OnTuHc+fO7YpcepQQBAEMw+DBgweYnp6mO6riid1gMGBsbAwDAwNgWRZzc3NYWFig3xMPO5VKBb1eD4/Hg+HhYXR3d585qXAul8PGxgY2NjaQyWRo4LJGf2ixX1ZnZyeNNE+CkzUuio4zKAqws9t+79493L9/n7Y1kaR7vV687W1vg8/ne6Rri0EWnsRHsV6vUws5OUgkZ/G1ml1bLJEkkkq32w2Xy0XzmZ7G/iiuWxLpeH19HdPT00in07u+r9Pp4HK5cP78eXR1dT1SxHRBEDCXYfDjfxPHZpFtW8v3XiAkPGhR46XnXHjWf3wkvFar0VSPmUwGtVptV5AsMga6urowNDSEjo4O6PV6iTpFxvFBEARUq1VKrvP5PH1PLNhkrhO/Nosw3vh340YbeS4TYi0+TCYT9cEWE21x5oz97uE0jeF2RrFYRDgcxurqKlWKsSxLPxcrnEhGg97eXlitVuh0uhNZPzwJiMuZzOTwhf/yF/jsH38ViVTmRDN7HBR1hsXoQA9+4Wfej/e86znodDvzcbvU/6NCJuAyWhqxWAzf/va3kUgk6GDkeR42mw2XL1/GwMCAxLfrOAZrOBzGrVu3qB+yWOKmUqkwODiIiYkJCXGp1+solUpYW1vD/fv3kc/naQAoAqVSCY1GA6fTidHRUQSDwVO9MMzn81hfX8fGxgbS6TQNTtY4JZG61el06OzsRH9/P7xeLw1A1goPzUZJ+vLyMm7fvo1cLkfbmQT+uXbtGkKh0COT2r3ur9ESVKlUkEgkkEwmkUqlkMlkJBtF5FqN12608mi1WthsNkrKPR6PJP1Su6Ox7SqVCsLhMO7duydJNQeAblh813d9FwKBwKEsDIIg4EGGwYe+mcBanqHXO20QW8J/5x1unPccbZ5aElhvdXUVxWJx1xwinj/6+vowNDQEm83W1gvudkOtVpNYscVkm6TsIkcjyd6rPZoRbfI3sLOxTZRRxKpNSDY5ZJLd/mAYBtFoFEtLS9je3katVmuaa524mvj9fgwNDcHr9VIXgnaxdu8HcblrdQbfvj2Nf/OpL+LubOtK0nmeh1ajwT9413P4Fx/6YYwO9kKlOt71/ElCJuAyWhIcx2F1dRVvvPEGzZ1N0NHRgStXrsDv9x+bvzewsxlw+/ZtxONx1Go1+puEtHR2dmJychKdnZ175uZkWRbVahXRaBT37t1DLBaT+AyTa6rValitVvT392NoaAgmk+lI7+24UK/XsbW1hYWFBcTjcTAMQxdcYojrtaurC4ODg+jo6KDRY1tx4dxocUkkErhx4wY2NzclZVOpVBgfH8eFCxeOVO4tCIJEokmk64SQJ5PJh0rXCcSLVSLXJLJ1QsyfpI/0caNxDiE+pg8ePJCkOeQ4Dm63G+9617uoy8tBka9x+KG/iuF+un5qZOd7Yac+FTjv0eIL7/Sgw/RkFRQcx2FrawsPHjyg87HY0gW85dfpdDoxODiIUChEfTpPw4K71cAwDIrFIiXW+XyevifyX3KQualx3m/EXn7ZOp0OOp2OStEbybjP58PTTz9NN8Flkn26IAg76WAXFxexurqKQqHQNC0cmdcdDgcGBgYQDAZpqrdGVxNyTjuDzLsKxQ65TWZy+OOv/A0+88X/hngqS8ntSYOMtcnRfvz8h34Y3/f33gadViNx3zwLkAm4jJZDrVbDzMwM7t27RyPVAjuTYygUwlNPPUXzZh/HYC2Xy7h16xZWVlaoLFpcJovFggsXLmBgYICSFKC5BI6A53nU63Ukk0lMT09jY2ND4pNGrq1SqaDT6dDf34/R0VHYbLa2m5zq9ToikQiWl5f/f/bePLiRLL/v/OK+QZwEcZDgfRbZrKO7pq/pc0YajVajCCnCYUm2tY6QV2GvZa9kr1beXe9urMIO7REbK3kvHSuHFJIlOSSvpLEc1vT0TE9XV1XXfZDFm8RBEgRAnMSNPPaP6vc6EwBJsIo33yciAyAIJBIvM9973/e7EI/H6WR5L9Hd2dmJYDCIYDAIk8nUMubutHbUjS7p9+7dw+LiomxyQOLO3nzzTZoN/yi+vxHpJFgQBFSrVaTTaZmlnCQ43EuUKxSKJkuS1WqF2+2mVnJpib2zQmPb8TyPfD6PmZkZLC8vo1Ao4Bvf+Ab6+/tlng3t8I8/2cafLhcBnM7r9jAh14xGqcCP9BnxG+8cTm31UqmE1dVVLC0tIZvNNvUj0j6ku7sbIyMj8Hg8dOGu8RjP+3k4bHiepyK7UWiTHChScU2e78VuIpuUBbRarfSRlJB8+PAhwuEw3Tc5l2q1GteuXaNJLxv3zc752aZeryMajVJrt7RMHIH0AVqtFt3d3RgeHobb7abechdh8U36u2q1Ota3kvjdP/kr/O6f/BVy+cKJxoZzHI+A142f/5lv4W/82AfwuBwXyuothQlwxqmiVCrh1q1bWFlZaUpYNjExgatXr9KJ1FHfrBzHYX5+Hg8ePECtVqMCinynVqvFxMQExsfHodfr2yp91spdjpRNefr0KVZXV2nm1sY4cbVajZ6eHoyPj8Ptdp9qcVOv1xGLxWRuYftZut1uN4LBIHp7e2E2m6m4O4sDZuNxzs7O4sGDBygWi00u6W+//faB3Zlf9nikNIryYrGIZDJJNxJLt5frOiAX5QqFgoZTuN1uuN1udHZ2wmAwnLnzR0TE9vY2wuEwxsfH90ym14o/mN/Bf3MrDU44G9fvYUCuEYtWib8/1YH//JWDeQxI95NKpfDs2TNEo1Gaybxx0i0IAoxGIwYGBjAyMgKr1dpUW/m8WLqOEtIHEGEt3YrFIhXW5L4gz/ebSrYSwyqVCmazmYprsnV0dNCEeKQ/USqV2NjYwOeff45cLtcU29vV1YW33npLtvB3VsYLxu4IgoBcLof5+XmEQiGUy+WmuYTUGON0OjE8PIyenh6YTCZ6DREuyjXR+DurtTpi8W385h/+Jf71v/0r7BTKUCqPpx3IsYwN9eI/++kfw4dvXUOX2wGN5njm8qcVJsAZp4Z0Oo3vfe972N7epq+Jogiz2Yxr165hdHRU9vpR3rBLS0u4f/8+TQRDIN85ODiIy5cvw2q1vtBg30qIC4KAfD6PhYUFLC0tycQagUxGPB4PLl++DJ/Pd2oyXXIch1gshqWlJcRiMVQqlZZuhlLR7XQ60dvbS+P0yETrLIruRhqPOxaL0XwGjb/n+vXrmJiYeOkM2wc5NmB365N0ck1c1xOJBJLJJBKJBK2t247rOjmnAGA2m+FyueB2u+FyueByuXYN1zgNtBLi5De1e10uZmv45p9vocIJp/Z3HhUkHtxvVuO33ndj6oDx4IlEAvfu3cPW1tauk25RFNHZ2YmxsTH09PRQ4XYe+pCjQhRFlEolasHO5XIyqzZZ4Gi17cVuIttoNFJhLRXZRqORnqtWG6FWq+Hu3btYWlqiGe0JxOo9Pj5O+xK20HL2qdVqCIVCNFxN6lUBfHluBUGAXq9Hb28vRkZG4Ha7z9U84mVpHMNqdQ65nQI+ufUIv/1vvo27T+bAcfyRtI0gCLB3WPCjH7yBb/3Q23jvjctQQEGFd+PxXTSYAGecOIIgIBqN4pNPPkG5XJb9z+124/r16/D7/QCO3oKRSqXw6aefIpVKNZU0EUURXV1duHz5Mvx+v6yDf5lOpLGDFEUR5XIZoVAIMzMzSKfTLePEFQoFbDYbJicnMTAwcGziTQrP89ja2sLi4iI2NjZoje7GyVrjCjUR3SSO9jwPlo0u6Tdu3JC5TxJ6e3vxzjvvQK/Xn8Rh7uu5Id3K5TJSqRQV5clkUpYXgXymkcYJtlKpREdHBzo7O6ml3G63n7pz32rBrN1j/Dt/ncDH0dKp+03HhSiKUCoUeMevx+/9UPsVAIDneTc+++wzxONxuohD+hKNRoPu7m5MTExQjyBm7ZZTqVRk4loqtjmOk/XTLyOylUolDAZDk8Du6OigGcbJZ8nnG0X2bkQiEdy6dYvmq5Di9/vxxhtvwGazHXsyVsbhIwgCUqkU5ubmEAqFaMhfq7kE8ZobGxtDd3c39Hp90zXFroUvaWwLjufBczw2trZx68Esbt6fwV99fBvpbO6F200URajVKgz1BvDWa1N489oUXntlFJ5OB5QKpSwGnZ0bJsAZJ0y9Xsfs7Czu37/flETH5/Ph/fffpwnIjvKGrVaruHnzJtbW1ujERIrJZMLly5cxOjp6aMK7kUYhTo6rsUZx4wq/QqGATqfD+Pi4rCTbUSEIArLZLFZXV7GysoJ8Pk+PuXGgJO83m80YHBzE8PAw7HY7/R0XZbCU/jZBEHDv3j3Mzs7Smvak3axWKz744AO6in/S7HZOWk3a8/k8tZAnk0mk02lZgiTp56Q0Wrw0Gg11WZe6rp9F/nK1gF/4JAX+Ao+yxAru1Kvwz6/b8ROD+7vvk+tOEATcuXMH9+7dg1arpX3J8PAwRkZGqNfMRelHWkE8VKRCm/xdrVZl9yp5fBGRTcYZm83WJLItFotsAbhRaO/FbuerXq/j9u3bWFpaahqT1Wo1rl+/jtHRURrXe9HO+3lBFEVUq1UsLy9jaWmJekC28nYBAIPBQOcSTqezaS7BFt72prX35ZcebzOLq8jli/js3gwiG3FENuMAgFy+iJnFVSgAqFUqvH71EnhegEatwvhwL1wOG964egkBrxs+jwsAvnD/l58bdl6+hAlwxolRq9Xw2WefYWFhQXZTKpVKDA4O4t133z3yG1cQBBqfK52sENRqNSYmJjA1NSWLXz3KjqSVEBcEAclkEo8ePcL6+joVNo2DDSmDNj09TSenh3VMRHQvLy8jl8vJXEAJUpFpMpnQ19eH/v5+dHZ2Ulf9izpZbvytoVAIn332GXZ2dmShBiqVCm+//TZN6nfaaEeUA8+9I9LpNBKJBBKJBOLxOAqFQsvrW0rjxF2hUMBkMsHj8aCzsxOdnZ1wOp2nsm2kVDgBb/7bDSTLAkQRuCCXeUtEUYQgAiN2Df7qW17o1e2HzayuruLGjRuwWCyYnJxEd3c3Lc94UfoSjuNQKBSosCZiO5vNolwuy+6j3Z43spvI1mg0sNls1JpNRLbVam0qiyndx15tf9BzE41GcevWLWSz2abf4/P58M4778BisTCr9xlGFEVsbm5iYWEBa2trsnwCBDLHUKlU8Hq91Not9aiQ7o9dAwejVZs9Pwdk4VTctT9RKhT4Iuf6F2ObAgqlomWFD3ZuWsMEOOPYEUURhUIBf/3Xf90UD6vT6TA9PY3p6WnZ+4/i5g2FQjShS2OnLwgC+vv78eqrr8Jms9HXj5Pd3F7j8Th10SJ1yFsdfzAYxLVr1+B0Ol8oTlwUReRyOaytrWFpaQmZTKalcJK+ptfr0d/fj/7+fnR1dcncRnf7XReJxgWTfD6P733ve9S7Qfq+0dFRvPnmmycSWnAQ9hPkUiqVChXjxFJO6ja3I8oJSqUSDocDHo+HWslPW4WAP5jfwX99Kw3+AiVe2wtBFGHVKvEPpjrwD9pIyEauiXK5DI7jaLww0BzmcB7alyQ/y2azMqGdy+Vo8rNWHMSaTdqUlLkkAlsquPfyNjlMkd2KWq2GW7duYXl5uckjTqPR4Ctf+QpGRkaOzAuNcfQUi0UsLS1hfn5e5j1HkHozGI1GjIyM0KSKjfc7O/eHy2G1Jzsv7cEEOONYEUURW1tb+OSTT5DNZqnrEHEtfO+992i891GRy+Xw6aefIhaLNbk5CYIAt9uNN954Ax6P58Clho4Dcjy5XA7Ly8t49uwZTdhG/g98+Xv8fj8uXbqEnp6efa2GxJV4bW0Ni4uLbYlunU6H/v5+9PX10dh4NlC2jyiK+PTTT6mrpdSzwOFw0JrTZ6n9DiLKc7mcTJCnUilZgrdWn2slKnQ6HdxuN7WUu93uE4unB4D3/nQTK7nniwtQPLcMXGREUQQvAuMOLb79Y11tW8F3m5yfRUTxef6EbDaLbDZL3cWz2SwKhQK9/3f7bCt2u89UKhUsFotMXJPnJpPpQPs7DiKRCG7evIlcLic7FkEQEAgE8NWvfvVQvboYx4cgCIhEIpibm8P6+nqTt5R0nqBSqdDd3Y2xsTEEAoFTOQdjMA4DJsAZx4YgCFhaWsIPfvADOsEml5/L5cI3vvENGI3GQ+9syf5qtRru3LmDhYWFpszmxHp7/fp1DA8Pn3rXNulx1Wo1LC0tYWZmRjZ5Ie8hYs5ms2FiYgJjY2NNQnxnZ4eK7lQq1eQG3NgOGo2Gim4ySLY6NsbeSNtqYWEBt2/fRqVSkbW7Wq3G+++/j2AweGoy3h8Gu10nPM/TWHKyFQqFPT+/m9XcbDZTQd7V1QW73d5yEeqwr9e/WCngH/8ghTqzfssQRBEOvQq/dMWGvzNmOenDeWH2mjaJooharUYt2VKL9s7ODs370IqDum6Sa7zRZdxms8Fi2b19T1MfXavV8Pnnn2NxcbGpBKfU6s1Ki50NpKI6m81Sa3epVKLvaTx/5DoeGxvD6OiobOGUnW/GeYUJcMaRIo0HvXPnDh49eiSbAKtUKvT09ODrX/86ff9hi29RFLGwsIB79+6hUCg0lRFSqVQYHR3Fa6+9Rt19z0qn3yhCwuEwHj9+jGQySa37jULcYDBgeHgYY2NjiMfjCIVCWFtb21N0KxTPM1Z7PB5MTU0x0X3IkPbLZrP46KOPkE6nZedNEARMT0/jtddea+nWf17Y7TqqVquIx+PUUr69vY1arUY/0+rzjUObIAi0Nrk0ntxsNlNPHMLLtu2PfzuGh4kaBHZfyBDF57Hgb/sN+KNvHCwj+nHTamokfY0kP2t0Gc/n8yiXy039KaEdkd14LRqNRiqypdbs/SzCp7VfJscVjUZx8+ZNmaeVNITqzTffhNVqlX2GcToh9wbHcVhbW8P8/DxisZjsPdJ5F5lT9PX1YWRkROb5yM414yLABDjjyCCXVqlUwve+9z1Eo1FZOS2tVoupqSlcvXr10GP5pAP8559/ju3tbdrpS4VNT08P3nrrLWotOKsdf+Nxb2xs4MmTJ4jFYtTa3yjEpQMh0OzeSQZIt9uN0dFRWmN3t+9kvBykPXmex3e/+11Eo1F67siktKurC1/72tdgNBovRNvvdY2R2uRky2QyspI10mtcur/GR6PRSMU4SfCm0+lk98FB2nopW8OP/HkMFY7dH63gBBFBixr/69tOvOE7+ez2jQs40kee52VZxRvjshv7T0IrkS19vdWjXq+nAlsqsq1W656eL2cxDr5cLuPOnTs07EbqZqzVavH6669jaGjo1HuiXXRIHws8L+G6uLiIxcVFmpsGaBbdCoUCDocDIyMjGBoaoon9zuJ1zGC8DEyAM44MQRAQj8dpvLd0EmEwGPDee+8hEAgc6uAqHQzu3r2LSCQCURSb4oicTieuX7+OQCAg+9x56PylvzOVSuH+/fuIRCJNJaF2Q6lUorOzEyMjIwgGg0x0HyPS9n3y5AkePHhALb3k/1qtFl//+tfh9XrPlUt6u+x2DZJKAclkEvF4HMlkEoVCoWnRqZUobxReHR0d8Hg86OrqQn9//4HKoP2Luxn81kweHHM/b4kgijBrlPhPx6345Wu2Y/vexvNMnguC0JRhnGzS0IfdxLN0/43/b3yu0WhkIlta0otkdt7t2Ft951mC3HehUAi3b99GJpNpqu3e09PDrN5nAOKVVavVsLq6imfPniGVSgFAS+GtVCqh0WgwMDCA0dFRuFwu2b7YOWZcRJgAZxwJPM9jZWUFn3zyiSyhkkKhgM1mwze/+c1Dj/cWRRHFYhFPnjzB3NwcarWabIAnVobLly/L4qDP0wAgCAIEQUC9Xsf6+jrC4TBCoVDb4pt4JVy+fBnA2U96dFYhbZ5IJPDxxx9jZ2dHJh54nsdXvvIVTE1N0Tq4F5W9xEm1WpVZydPpNC03SCaRZB+Nruscx8HtduODDz6A0+ls+3je/9NNLOfq7L7Zgxov4lqnDt/+lvdQ99u40CK9Z4rFYktrdj6fb/L8afVI9tP4v8ZNrVbLRDaxZlut1j0rGpwHkb0bpP0fPHhAY72li+IGgwGvvvoqzb9yntvirEL6S0EQkEgksLi4iJWVFdTr9aaFFCK6yWL+6Ogo+vv7mUcDgyGBCXDGoSKKIjiOw7179/Dw4UOZOFCpVPD5fPjwww+h0WgOrRMWBAEcx2F5eRn37t3Dzs4O1Go1HQykq6+vvvoqteiel0FAEAQqsEp1IEAAACAASURBVCORCFZXV7G6ukonOVJLjDTunbg7SyeqZH8mkwlTU1MYGhqCTqe78CLvJCDnql6v46OPPsLm5iY9X+Tc9fT04L333pPVqGfsfW/v7Oxga2uLivKdnR3wPE/d18kjx3GYmJjAa6+9BqPR2Nb3LmVr+NE/30KJE9j52ANOEDFo0+A33nHhFbfuQJ9tJbLJeatUKlRkS8V2Pp8Hz/MAWluopa83Iu1DyUYyjEsFNnnU6fb+Pedl3GkHcm7W1tZw584dZDIZuvBN2rK3txevv/46zGYz/cxFaZ/TjvTeKpVKWF1dxdzcHLLZLADI8umQv1UqFQwGAwYGBjA+Pk7PK4PBkMMEOOPQIKvcn3zyCSKRCI33JnFdExMTePXVV+l7X3aQJQPD+vo67t27h3g8TlddifBWKBTw+/34yle+ArvdfmjffdIQ0S2KIuLxONbW1rC2tkbjElvVSVWpVFCpVDCbzQgGg3C73Xj06BFyuRzq9ToV8VLXTK1Wi8nJSQwMDMBqtUKlUl1It+eTQnqt3r17F7Ozs7LkY6IowmQy4Wtf+xrcbve+ZeYuMrvd9zzPI5VK0czryWQS5XIZ1WoV169fx8TExJ7uwVJ+fy6P/+HzDKr82e9jjhJeFOH6Ihv63z5ANnSO46glu5XQrtfrAJot04RWbuPS/lIqtpVKJcxmMxXXUkv2fiEJ52GMeVlIXfMHDx5gYWEBgiDIxmap1Vs67lz0djsNEC+rer2OeDyO+fl5RCIRcBwnW0Ah17larYZSqYTf78fw8DCCwWDT/th5ZTDkMAHOOBQEQUA6ncZHH30kq+8NPI/3fuONNzAwMADg5TtjIrzT6TQePXqE5eVlAJC5QalUKtjtdly5cgW9vb30c+T/ZxFi6RdFEYlEgmYvJ3GurdzAVCoV1Go1zGYzAoEAhoeH6UIEIZVK4eHDh4jFYqjVak2lYHieh1KpxMjICMbGxmC326FWq5nYO0bI+dzY2MAnn3yCYrEoq2EvCALeffddDA4O7unmypCzW19UrVYRi8XgcDhoPGo7/P3vJfEfQiUW/70PoihCpVTgJwdN+F/edu3/gS+4e/cubt68ST2cdou3bvwuqUtso+A2Go1UWEtFtslk2vc3sHPcDPEeiUQiuHfvHra3t+kCFmnzvr4+vPbaa2c++el5gsyreJ5HLpfD6uoqFhcXkc/nZfdOqwV9EtstXZg66/MtBuOoYQKc8dJwHIdoNIqPP/4Y9Xpd5nLe0dGBDz/8EHa7/VAGWZ7nUSgUsLCwgJmZGVQqFZkQVKvVMBgMeOWVVzA+Pt5kBT5rkHhuQRCQSqWwtraGUCiEfD5PB0GgeTVarVbDZDIhEAhgaGgIDodDtl/yXmm7VKtVPHz4EMvLy6jX66jX67L3EcHn9/sxMTEBv99PhfhZbNuzBjkX5XIZ3/nOd5BMJmWLJYIgYGRkBG+++Sa0Wi07Jy9Aq0njQSaS1/9oHZvFLzPXM3anyot4vUuH/+8/aT8OfGlpCbdu3UKpVGpZBpEIhUaxbTAYqLAmQttisezrHntWx42TQhAE5PN5PHr0CPPz888XWr7whFMqlbBYLLh69SqGhoYAMJF2GiAL+5VKBVtbW1hYWMDm5iY4jqMLXQDoOVSr1dBqtQgEAhgZGUFXV5dsf+yeYTDagwlwxgsjiiJqtRpmZmZw584d2YRIq9XC6/Xi/fffh1arfelOmcT3RaNR3Lt3D+l0mooMMsjr9Xr09fXhypUrdCX2LA4GRHTzPI90Oo1QKIRQKIRcLtfkJikV3RqNBiaTCT6fD0NDQ02Jo/Zqi8YkVLOzs5ifn0epVEK1WqWJ9KQxsna7HdPT0/D5fDAajbLBmnE0SM/TjRs3sLKygkqlQs+NKIpwOBx477334HA4mJfCMVLhBFz7o3Xkqiz+ux3qgohLTi3+n/fd6O9oz2sjGo3i9u3byOVy1O2VLADqdDpYLBaZJZv8vR9ncZw4TZC5QDQaxd27d5FKpagnDhmfgsEgXn31VZbh/BRAvBTq9Tqy2SxWVlawsrKCQqFAw8xaLerb7Xb09/fLyoeR/bFzyWAcDCbAGS+EKIrI5/O4c+cOlpeXZR22wWDA+Pg4rl27Rt/7op0zEaPxeBz379/H5uYmHSCkCdb8fj+uXLlCRedZGxBEUaRW53w+j3A4jJWVFerOv5foNpvN8Hq9GBwclJX3IPtttx1avXd1dRVPnz5FPp9vck8ncWJmsxmTk5Po6+uDwWCQ1VBmHD7S87S8vIzPP/8cpVJJltFbq9XirbfeQm9vr2yixDg6HiQq+On/mEChxgR4O3CCiIEODf7nt5z4ile//wcApNNpLC4ugud5WQkvq9W6b5uftTHhrMDzPDKZDJ4+fYqFhQWZ1VulUsFms+GVV15hVu9TAM/zqNVqKJfL2NzcxOLiIra2tgCALmSR86NSqaDRaGA0Gmn42kEW9RkMxt4wAc44MDzPY3t7Gz/4wQ+wvb0tiz02m824fv36S8d7kxX1bDaLZ8+eYX5+HoA8zluj0cDhcGBqagp9fX30c+T/px0iuqvVKkqlEjY3N7GysoJkMglBEOiA2Ep0GwwGdHZ2or+/n9Yyl+73MBLcSfexsbGB+fl5xONxVKtV1Go1mRDnOA5arRZjY2MYGRmB2Wym2dMZR0sul8P3v/99bG9v0wUSIsYvXbpEPULOwj1xlvnL1SL+yY0USnUmwNuBF0R0mVT4lVft+MnB/TMlt9OvMUFwfIiiiGq1inA4jPv37yOdTsus3jqdDr29vbhy5QqL9T5ByDyjUqkgk8lgeXkZoVAIpVKJepFI5xharRZarRZOpxP9/f3o6+uTJaFk55DBOByYAGcciFqthkgkgk8//RTValUW7+1wOPDuu+82xRsfBCLmcrkclpaWMD8/j2KxCI1GQwcJjUYDi8WC4eFhTE5OnqnaktLBsFQqIRaLYXV1FYlEAjzP7+r+pdVqqeju7u5GT09PyxjIozhe6X5zuRyePXuGcDiMWq2GSqUiixMnWVKDwSDGxsbgdDphMBjaziLNaB/pueF5Hjdu3EA4HEa5XJaFC3R1deGtt95iLulHzG/P5PBr97OocKe/HzoNCKIIo1qJnx234J+9at//A4xTA8dxyGQymJmZoYvjxOqtVqths9loGUvgbC2MnweId1qlUkGxWMTGxgaWl5eRTCZp7hiptVutVkOn09FkrUNDQ+jo6JDtD2Dnj8E4TJgAZ7SFKIqoVCqYnZ3F/fv3qfs3cXf1+/145513aA3UgwpCIhZ2dnawsbGBp0+fIplMQqPR0O8hGTe7u7sxNTV1ZlbViTWfiO54PE5FNxGsrUS3TqeDwWCA2+1GIBBAT0+PTEAd5+9u/K5yuYylpSWsrKygWCyiXC7L4sRJiTSPx4PJyUl4PB4YDAaWHOyQaTwvz549w6NHj1AoFOikidR1f+ONN9Dd3b1vnWLGi/FbMzn8T0yAt40gijBplPi7Exb88lUmwM8CgiCgXC4jEong0aNH2N7epiEuSqUSer0ePT09uHz5Mov1PgEEQUC1WkW5XEYqlcLy8jKi0ShqtZqscgCZv5E5hsvlQn9/P7q7u49lYZ/BYDABzmgDURSRyWTw4MEDrKysAPgy67bRaMTg4CCuX7/+wpZoQRCoMJ2dnUU0GqXJdchAodfr4fV6qZh7ke85Tog1uFQqoVgsIpFIYG1tDfF4HPV6vaXrl1qthl6vpwNiIBBAIBCQlZU66d/c+P08z2NtbQ0LCwvIZrOoVCpNmbl5nofdbsf4+DgCgQDMZjP0ev2pPXdnEel5SSaTuHnzpswlnXhXTE9PY2JiAkajkbX/IfMv7mbwO7N51FgN8LZgAvxsUa/XkUqlaEgYsaQSrzSn04mJiQkMDg4CYFbT40I619jZ2cH6+jpWV1eRSqVoqbDGeQYpvdfd3Y2+vj5ZNYCTnmMwGBcFJsAZeyIIAra2tnDr1i0kEglZDLbVasX09DRGR0fp+w+a9IvEJc3NzWFpaYnGPpPv0Ol0cLlcGB4ePvXubGQgLJfLKBaLSKfTWFtbw/r6epPoJu9XqVQwGAxUdHd3d8Pv95/6DKO7JWwLh8NIJBIolUpNceIkYdvg4CD6+vpgtVphMBiYW/QhIT0n1WoVN2/eRDQapS7pJC68p6cHr732Gux2O2v7Q+TnvpvERxFWA7xdmAA/GwiCgGKxiGg0iocPH9IKJABoHfVgMIhXXnnlzHilnXXImFoul1EoFLC9vY2VlRVsbGyA53k61yDvJfMMk8kEl8uFgYEBeL3epn2yc8ZgHB9MgDN2pVarYWNjAzdu3EChUKAdulqthtPpxPXr12knflDhXa/XkclksLq6isXFRezs7MjivLVaLex2O4LBICYnJ2kM8WkbJKSiu1AoIJPJYGNjA9FoFMVisalOdqPo7ujoQCAQgN/vP7Or0I3HGo/H6cJDsVhEtVqliybk3BuNRvT19SEYDMLpdMJsNrM48UOg8Vw8ffoUs7OzyOVy9DVBEGCz2XD9+nX4/X7mkn5I/PzHSfzHMBPg7cIE+OmGjG3xeJwukEut3lqtFi6XC2NjY8zqfUyQcLZCoYBcLodoNIpwOIxsNkvD9RoTqplMJtjtdnR3dyMYDEKv18v2x84Vg3EyMAHOaEmhUMDS0hLu37+Per0uG3R7enpeqJ4ncUnO5XLY2NjA3Nwc4vF4U5y33W6Hz+fD5OQkFaWnaaCQunwR0R2LxRCNRlEoFOjqs3QFWqlUwmQyUdHt9/vh8/moxUC679PyOw9K47Hn83ksLS0hFoshm83K4sQFQQDHcVCr1fD7/RgaGoLL5YLFYmFx4oeA9Fxsbm7i7t27SCaT4HkewPPQAZ1Oh+npaQwPDzddh4yD8yufpfDHSwXUmQt6WzABfnoh+VjC4TAeP36MXC5HQ6GUSiXMZjN6e3tP7Rh9niDzpmKxiJ2dHRrOFovFAEBWlpX8bTabYbFY4Ha70dfXB7fbLdsfwBZJGIyThglwRhOZTAYPHz7E0tISFY+CIMBisWBoaAhXrlw5sEVaFEXs7Oxga2sLi4uLiEQistV0Mqh7vV5MTEzQAeM0Der1ep3GWWWzWcRiMayvr6NQKNBBsJXoNplMsFqt8Pl88Hq9dOGCcJp+42HQ+HsqlQrW1tYQiUSQSqVQKpXA87wsYRsAuN1uDA4OoqurCzabjcWJvyTS81AoFHD37l1EIhFUKhW6CKJQKNDf34/p6Wk4nU5ZAh7Gwfi9uTx+9U4WZY6VIWsHJsBPH8RDKR6PY35+HouLi7J8LFqtFh6PB6Ojo+jv76efAZigOwrIfCOTyWB9fR2RSIR61jVau/V6PaxWK+x2O3p6es5EKBuDcZFhApxB4XkeiUQCn3/+OWKxmCze2263Y3JyksZ7tzvokjilVCqFxcVFLC8v04RQ5PMGgwEejwcDAwO0fjj57EkPGGTlOZvNIpvNYmtrCxsbG9jZ2aETk8bkc2azma5A+3w+dHV1yUp6SN97nmn8jRzHUdf0VCqFfD6Per3elLDN6XSir68Pfr8fNpsNJpOJCcMXRHoORFHEo0ePsLi4iGw2S9/D8zw6Oztx9epV+Hy+C+eSThaB6vU6OI4Dx3E0Z4PVam07NOL/nc3jX97LosIEeFsIogizRomfu2TFL12xnfThXHgEQUA2m0U4HMbs7Cx1awaeW72tViuCwSAuXbrErN5HCMdxyOfzyOfz1LMukUhQgwWxdpO/rVYrOjo64PF40NPTA7v9y8Usdn4YjNMLE+AMAM+TNkUiEdy9exfZbJYKZLVaDY/HgytXrsDn8wFov1Ov1+vY3t7G2toalpeXsbOzQ0thSPcdDAYxPDxMV2tPetAgopu4lycSCYRCoT1Ft06nQ0dHB6xWK/x+PzweD2w2+aTypH/XSdIoBDc3NxGJRBCPx5HNZlGr1WRls+r1Oux2OwKBALq7u+FwONDR0cGShr0g0vaPRCJ4+PAhEokETcxGEuRNTk5iaGhIlo/grCMIAmq1WpPAlj6S0j2VSgWVSgWFQgGdnZ2Ynp5u2z3/z5YL+K8+SzMLeJvwggi3QYVfvGLD3x5jIRAnBbF6b25uYn5+HisrK01Wb5/Ph5GREfT29tLPsGv88BBFEcViEblcDul0GtFoFBsbG6hWqy3LlJpMJthsNjidThrOdlIlShkMxovBsh4xsLOzg8XFRTx58gTlchlqtZqWFiHuqURMttOx8zxPB5GVlRXE43Go1WpoNBr6+c7OTnR1dWFsbKwplvwkBg5pjFUmk0EymUQikZCtPJPYZCIUdTodbDYbLBYLnE4nfD6fLNZK+puAi+2iJxXfCoUCfr8ffr8f29vbVIhvb2+jXC7TsnPFYhGzs7NYXV2F1+tFMBiE2+2G3W6XLeQw9kc6eevp6YHVasW9e/ewvr6OarUKtVqNYrFIF+CmpqbgcDhOfRuTpET1el0mqsnG8zxqtRpKpRIV19VqlT6vVCp08Yf0PaRsm1qtBsdxbR9Lv1UDFXPUaBsRgEWrxGAHm4acFKTEaCgUwszMDF0kB573GTabDf39/RgbG4PJZKKfOe39wlmhVqtR77p4PE69w8gCiFarpe2t0Whgs9lgs9nQ1dUFv98vC2djcw0G42zBRr4LTiqVwuPHj6lruFqthiAItFzU9PQ0zZrZzsCbzWaxvr6OUCiEtbU1qNVqOogAgM1mo6vpnZ2dsv0e96BBRHc+n6eim2zAc7c7kpmdHKdOp4PdbqexVj6fDy6XS3bsbCDcnUYh7nK54HK5sLOzg2g0ilgshq2tLRSLRZrFtV6vY21tDeFwGF6vF93d3fB6vXA4HNDpdKyN20Qqwm02G95++208efIEy8vLyOVyUKlUEAQB8/PzyOfzmJ6ehs/nk9WhP06IZW6vjSRDJKK6lbjmeV5W/k8qtMnEtvEaUiqVKBQKqNfrbR9vt1UNFbsU20YUAYNaAZ+JTUOOG7JwtbGxgYWFBayurkKlUtF7XavVIhAIYGhoCMFgkH7mpBbIzxMkwV0mk8H29jY2NzcRi8XAcRydc0jp6OiAw+GAy+WiIW0EaSggOy8MxtmCuaBfUHieRywWw/3797G5uSnrwB0OB8bHxzE2NibLrrlXB18sFhGLxRAKhWjyNmJJJ3Hefr8fvb29NHkLcPyr6aIo0hIeZADc3t5GIpEAAJpITSoU9Xo97HY7Ojo6YLfb4fV69xTdjPZpbLdqtYpQKIR4PI54PI5cLteUsE0URXR1dcHr9cLr9aKzsxNGo5G1f5tI72dRFLGysoKZmRkkEgn6P47jYLfbcenSJQwMDFDr12FCRLTUgi19Xq/Xqagmm/TvSqVCJ627iWvy2n7tQRYKNRoN3fR6Pa5duwaHw7HvbyHX8Zt/soHITr2t773o1HgR17t0+OMf8UDPXAeODVEUsb29TUuA5vN5avVWKpVwOBwYGBjAyMgIDAYD/Qy7nl+OcrmMTCaDVCqFRCKBzc1N5PN56mEHfNknGwwGOBwO2O12OtYZjUa6L3Y+GIyzDxPgbVIXRJQ4HjscjzIvYLdGE0XAplXBrFbBoFJCeQo7yUqlQuNAt7e3ZYOv3+/HpUuX0NPTA2D/jr5eryMWiyEcDmNlZYVm6ARABxa/34+enh4MDAzQBE/HPYCUSiXkcjkkk0lsb28jlUohmUxCEARZjBU5No1GA5fLBZvNBrvdDo/HA5fLJUsGxgbBw0XanoIgYH19HVtbW9ja2kIymQTHcbKEbRzH0Ri4rq4udHZ2wmazsXPSJtL2TiaTePz4MaLRKGq1GhQKBTiOg16vx9DQEMbHxw/kks5xHBXTuz1KhXXjVqvV6HEAuwvrdsS1UqmEVqulm0ajafmo1+uh0+noRmroHqQ+/c99N4nvRErgWS3wPSHX3o8PmPDr77hYX3pMVKtVhMNhLC4uIhwOy/KZaLVaBINBDA0NIRAIAGBj3MvC8zxyuRwV3fF4HIlEgiaiJX0YKcFqs9moV1hXVxdcLhfdFzsXDMb5ggnwFoiiiB2OR7LKIVPjkK5xyNU4FHkB2RqHEi9A2KXZRABOrRpWjRomtRJWjQounQYurRpunQYa5cm6ChUKBczPz2Nubg6FQoEOvhqNBn19fZienqZZNPfq8AVBwPb2NkKhEFZXV5FKpeiAAjyvRenxeODz+TA4OEizgB/nIEJWnLPZLBXd8XgcHMftKrqtVisV3j6fD06nkyX+OmYar5FEIoGNjQ3E43FsbW3JYnaJEDeZTNQi7vP5YLfbZdcjozXSti6VSpiZmcHy8jLy+TwtPwgAfr8fU1NT8Pv9UCqVVCBLNyKuyUaEdKOwJs9bietWf+937FJx3bgRcS0V1Y3P98uwf5A+618/y+NX72RQZbXA94QXRTj1Kvzi5Q787Lh1/w8wXgpi9V5eXsbi4iKKxaLM6up2uzEwMIChoSFm9T4EisUiXeRPJpM0rKqVh53JZKKim+TGYeXDGIzzDxPgXyCKIvIcj0ixikiphq1KDclKHakah2S1jjIvQKVQQAFAuU9fKIiAgOdlVqwaFTp1Grh1GnTqnz/2GHXoM+ugOea4nVQqhadPn2JlZYUmXiL1vYeHh3Hp0qW2Bt9sNotQKIRoNIpoNAqFQiHL0ul0OhEMBhEMBpvivI8aIrqJe3kqlUI6naYTfqkoI66nHR0dNLmX3W5HZ2dnUykmNggeP41tnsvlsLm5SUvBlUolmRAnOQz8fj/cbje1jB/EgnkRkbqk1+t1zM3NYXZ2Frlcjoag8DwPl8uFQCAAlUolE9PSR/K8MTaxldV6r/tJmniolbDW6XTQaDRUSJPXGp+3e+4P6/6eT9fw49/eQrHOMqHvBSeIGOzQ4H9/x4nLnfqTPpxzTaVSwdraGlZWVhCJRKgIBJ5bvUn5z4NWOWHIqdfryGazSCQSSCaTiMfjSKfT1MtOau1Wq9VwOp1wu91wu93Ue0sKOw8MxvnmwgvwKi9go1zDcqGCtUIF6+Ua1ktVVHgBKqUCSiigUrx4PJ8gihDE5yv+vCjCqlGjx6hF0KRHn0mHYYsBnfqjTXJE4r0fP36M9fV1WcfudDoxPj6O4eFhGrMNtP69pVIJ0WgU4XAYoVCIWpLJoGKxWOD3++lg3liq66ioVCpIpVI0voo8r1QqLeOriOju7OykotvlctFkcwQ2AJ4OGs9DqVSiQnxzcxO5XA6CIMjixBWKLzPtd3V1IRAIXLj61o2QpGatBDN55DgOlUoFW1tbyGQyMuswz/PgeR4AdhXUB427llqjpeKZvEZEttSSLX2t3d99XPexKIp4/882sZLjWP+xC6IogheB1716/MmPeKBibXRkbG1tYWlpCSsrKyiVSk1W75GRkRMNDTvriKKInZ0dWjVle3sbyWSSVvOQGiYA0HmHy+WiwrvRw46dAwbjYnBhBXhNEBAqVvE4W8TSTgWRUhXZGgetUvlSgns/hC+EOCcCHp0G/WY9JjoM6Dfp0Wc+fEtAtVrF2toaZmZmkEwm6YRaoVCgu7sbk5OT8Pv9dJBo9bs5jsP6+jrW1tYQiURk7mvA81V0Irz9fv+Bsqa/zO/a3t5GOp2mVu52RbfT6URHRwcT3WcQ6fmpVqs0rm5zcxPxeFwmxIlV3Ol0wuv1wu12o7u7W1a65bxAfi/J/N3K5btarcrcxBtdxmu1Go2zl8aGvsixqFQqmZu3VFjrdDro9Xqa+EzqKi79u5378DTdr+RY/uXdDH5zJg+OxYG3RBBFGNRK/K1RM/75dcepOofnhXK5jNXVVSwtLSEWi8k8UXQ6HbV6e71eAKfrPjoL1Go1pFIpmp9ke3sbuVyO5pyQWru1Wi2N6Xa73XC5XDCbzbL9sfZnMC4eF06A84KISKmKu+kC5vJlRL6wdmuUimNPmMaLIjhBhF2rRsCoxVSHCa86zHAfkkWc1FFeWFhoivceGBjA1NTUnvHeoigimUxieXkZkUgEmUxGZuVSKpXwer3o6+tDIBCgcd677e9l4XkemUwGW1tbSCQStH4mWW2WTjKk5Za8Xi8V3Q6Hg7rZH+WxMo6WxoRt29vbiMVitJYqx31pgeR5npbWI4ltgsGgLMHNaYfn+ZaCmmQDb5XorFV2cUIra3W71mtA7iLucDhgNpup0DYYDLJs4q0SnrUj7s/qfTmbquLHvx1HhWNu6K3gBBF9Vg1+/V0XrnZebK+Uo2BjY4MmWSNjI8Hr9WJ0dBQ9PT3HslB+nhAEAfl8HrFYDIlEQhbe1uhirlAoaAZzt9sNp9MJp9PZlMQVYNUSGIyLyoUS4Jkah89TO7ibLiBUrKIqCMceh90KYhU3qVUYtRjwFZcF1+xmqPcLNt+HxcVF3LhxA5VKhcZ7G41GjI2N7RvvnU6nsbKyQl19BUGgIlcQBLhcLvT396O7uxtut5t+7rAHc57nkc1msbW1hVQqhWw2i3Q6TROatBLdFouFunc5nU4mus8xjecxm83SZG2hUAjVapW+j1iJNRoNPB4POjs7EQgEZOESJ8V+5bYay3O1KtvVGHdNnrd6bIVUVEst1TqdDgaDAdlsFrFYTOaGThbhXnnlFbhcLqjV6mOPuz5tiBDxk/8+jnvxKoRz+htfFFEUIQL4qt+AP/xhz0kfzrmiUqlgYWEBKysriMfjsn5Ap9NhdHQUAwMDdLw+r/ffYVOpVJBIJBCLxWhemWKxSD19pAvBRqMRnZ2dtFQpm3swGIzduBACnBNELO6U8XEih/l8GZkaB+0JZyNvhExMeFFEl16LKZsRH3hs8Bm0+352N2KxGD7//HNa59vpdGJychIDAwPQarUtV2DL5TKWl5dpLeZ6vS4T3haLBcFgEP39/fB4PDJX9MMaWIjojsViVHTncjk66DW6eElFt8fjgcPhgMViaXI1ZgPf+aXx3BaLRSSTSUQiEcRiMWSzWVksHikDQzLPer1ec9Xf4wAAIABJREFUBIPBtuOKD0K9Xke5XG4prCuVSsv612TjOA71el0mel9GXEvjrom41uv1shJcUuu11IpdLpexsLCAhYUFlMtlmYul3+/H9PQ0Ojs79wxnOe+Q3/3vlgv4pU9TqDM3dBnCF9nPf/mqDT81armw18lhs7GxgYWFBYTDYVQqFVnscSAQwMjICLq7u1msd5sIgoBMJkOrb2QyGeRyOdRqtZblwxwOB03+abfbm8phsvZmMBiNnHsBXuYFfJrM45NEDuvlGgCc6qQvoihCAKAEMG414oOuDlyxm/f7WNM+SGe/urqKW7duwWw249q1a/B6vTSzsXRA4Hkea2trWFtbw8bGhsytm5To6u7uxtDQEDwej2xV9zAGF0EQkM1msbm5iWQyiXw+j1wuh1KpJLO+Syf3ZrOZJtoibrAWi4UNfBeYVkI8l8thY2ODenNIhTi5tqxWK9xuNwKBAAKBQFOM3m7wPI9yuUzFtFRYk78bxXTjIxHXwN6iuh2BbTQamyzXjfWtiZVao9E0Pe53r1SrVayuruLp06dIp9O0VJkoinC73ZicnER/f/+RLGScJcqcgJ/493HMpGqsD/oCssj8ikuHP/qGBxbtyXqdnAdKpRLm5uYQCoWQTCYBfNlP6PV6TExMoK+vD06nEwAbD/dCFEWUy2XEYjFsbm7Sxf9yuQwATQnVSOlLUq7UZrM1lQ8DmIs5g8FozbkW4KlqHX+xmcHDTAHpGncq3M3bgVrpRMBv1OINpwU/6rMf6NjJQFuv15FIJKDVand1Pdva2sLi4iKi0Sh2dnYAyAUAqeXt8/lkVuWXHcwFQaDiKJFIIJ/PI5/P7ym6TSYTPB4Purq64HQ6YTKZYDabm2KrzsJ5Zhwt0uugVqshn88jHo8jFArJXKkB0HrXFosFdrsdXq8XPT09MJvNKJVKVFBLxTaxXhMxLd2krxFeVFyT36LX62EwGGTCWrqRGGsisBuFdrtu9rvdP9KSb7FYDA8fPsTm5qbMq8BqtWJgYADT09NNrpcXBdJOvz+3g//2dho8s4IDeG79tmiV+PlJK/7RtG3/DzD2JBqN4tmzZ9jY2ECtVqNjpSAI6O7uxvj4OAKBwIVfDNsPjuOwvb2N9fV1xONx5PN57OzsgOO4pjmIRqOh5Rg7OzvR0dEBi8Ui2x+bfzAYjHY4twJ8u1rHH4a38ThbRF0QXzqe+iQg1nCzWoW33VZ802uDRdN+TePdEquR17LZLBYWFhCNRpFOp8HzvMzd3Ol0Ynh4GIFAAA6Hg37uZQYYURRRLBZpLed0Oo2dnZ2Wopu8X6vVwufzIRAIwOVywWAwMNHNeCHIok8qlcLi4iINsyDdIIkV1+v16OjogFarbSmwydZo5XhRca3VaqnAbhTXRHQ3Cmvp1ljKZq/vepn7pLH/ePz4MVZWVlCv12nCO61Wi0AggGvXrsn6jYtGoSbgR/8yhtUcB1EELmgzAPjS+j3u0OIPf9gDl0HF+uwXpFgsYm5uDqurq0in0wDkVu9Lly6hr68PDoeDfoa1tRwyD1lfX5fNQ6Tu+1Jrt8ViQSAQgN/vh91uh8VikS1sMGs3g8E4KOdOgAuiiHCxir/8wvItAsee3fwwIRMXnVKJaw4T/mbQDbO6vck2+XyjcK5Wq1hcXMTKygpSqRRqtZpMeJvNZvT19WFgYIAmVmq1v4McQ6lUwtbWFtbX15HJZFAqlVAsFmnZo0bRrdFo4PV60dXVhc7OTlgsFphMpiOJOWecP2q1GrVWl8vlJjdx4ppOFn5adYPk9ZcV1xqNRiamicCWPpcK6VbP2+G47gfp95CcEY8fP6aVFkgpOKfTiatXr6Knp6ftBYLzAmmjP1ks4J/eSF34ZGyCKMKmU+JXrtnx06OW/T/AaEk4HMbs7Cy2trao1ZsQDAYxNjYGr9fb5Ap9ka89KRzHIRaLIRqNIh6Po1gsolgs0sV/4MvSpVqtFh6PBz09PXC73bBYLDAajbL9sbZlMBgvyrkT4MlqHb++sImNSh2CKJ5p8U0gIlyjUOBVpxk/dUARLt1POBzGs2fPkEgkaM1saTKRgYEBDA8Pw+l0ympkv8hAUyqV6GCXyWRQLpf3FN1qtRo+nw9erxednZ0wm820pNHLHAfjfMFxHBXWxD2ciGwitInVmud58Dwve062VgnNCO1cZ+SeIS7hu21arRYqlYpuRFyT5+1ez6fp2pdafMik9t69e0gmk7L4eovFgtHRUUxNTclEwUWhwgn4xU9T+PZa6aQP5cQQxeceaB/2GPB/v+eGSnlxk/S9KMViETMzM1hbW6P1pkn7GQwGTE1Noa+v78hLgZ5FRFFEPp9HOBzG+vo68vk8isWizG1fGubW0dGB3t5e+P1+WK1WtvDPYDCOhHMlwDM1Dr+7msDDbAHqMxLv3S7kNKkVCrzmNONn+zzQHNCtXhRF3L59Gw8ePJCVz1AoFOjq6sLExAR8Pt9LJVgjlu5IJIJUKoVKpYJSqbSr6FapVPD5fPD5fPB4PDCZTE2i+0WOg3E2IfWuS6WSTFRLt1qt1iSmG7dWLoEHsVwTpN1jKw8N4iWiUChkIptsLxt3fdppdEm/f/8+QqEQvd95noder4fP58P169fR0dFxJn/ni0DaZjlbx4/+RQzF+sWsCy6IIrqMavzBD3dixK49s9f6SSCKIiKRCGZmZrC1tUVDPcj/gsEgJicn4fF46JjJ3KGftwHHcVhfX0c4HEYymaRjCgCZ6Aael2kLBALo6emBy+WCyWSiGeOl+7zIbcpgMA6XcyPAszUOv7OawEyuBOB8dpTEEq5XKfE1jw0/0e088D7C4TBu375NY8fsdjsmJyfR3d0tyyB+kMGGZA4Nh8NIpVKoVqsol8t0stAoupVKJXw+H/x+P7xeL4xGI/R6PRPd5xxRFJvENXlOHqvVapOYFgThQOJ6r9fIcSgUz+tdGwwGGI1Geg1K/xYEAfPz84hGo02hHEqlEjqdDhaLBX6/H4ODg7KYy1bfd16R/r5KpYK5uTk8efKEetgQ906Hw4Hr16/D7/efeN314+bfLOzgn95InQuPrIMgiiJMGiV+8XIH/t5kx/4fYFAKhQKePn2KtbU17Ozs0PtMFEWYzWZMTk6ir6/vUBOjnnVEUUQ6nUYoFML6+joKhULLuQjpw+12O/r7++H3+2E2m6HX65m1m8FgHAvnQoDXBAF/HEnhu/EsFDjfK780KYhGhW947fiG197258hk+PPPP8fS0hKGh4cxODgIu91OB512Bxye52kitUgkQuNrSdbnRtGtUChgs9kwPDwMn89HyyUx0X1+4HkeOzs7VFA3iutyuQyO4yAIAhXVjY+tuqODiGvgS88KIqSJqJaKa6PRSDODE0t14yPw3KMjm81icXERq6ur1LIrTdqm0WhgMpng8/kwPDzclDfhIiC9b4lL+u3bt5HJZGRtZTKZMDk5icnJyQsRF07apcIJ+O9up/EHC4ULI8JFUYRGpcA3e034377qhJq5nrfN2toanj59ikQiQfsc4Hmb9vX1YWpqCm63m/YzF93qXavVsLa2hlAohHQ6TXN9AHJrt0KhgE6nQ29vL4LBIBwOB60gQbjobclgMI6HMy/AeVHE7dQOfnc1Af6CDO7EEt6l1+Jnet241GHc9zNS8vk8qtUqzfJM9gnsPejwPI94PI719XVEo1HqDlyr1WSfle6jo6MDfX19NJ6KWbrPJoIgUGsCEdeNIpvEWROBLRXXZGvkRcS1UqmEXq+H0WikIQtEYJtMJhiNRmi1WpmYlm7S8It2qVQqyOfzCIVCWFxcpAnHGoU4Kfc3OjoKv99/4UoASa10uVwON2/exMbGBj33oihCp9Ohu7sbb7zxBgwGw7m/90mbpMo8fuavE3i6XT33IlwURagUClz16PB/vueCx6hm/XwbFItFPH36FMvLyygWi/R1sng1PT2Nvr4+mM1m2f8uYruKoohEIoHV1VWsr6/LPKikcxEyZnR2dqK/vx+BQIDm5mCVVBgMxklxpgW4KIoIFav49aUY0jUOqgvUeRIRPmIx4OcHumDX7W9xk06OpQPNXgOPIAiIx+OIRqOIRCLUnYuUbmoU3aIooqOjg7p1EZGv0Wja/k7G8VMsFpuEtXSrVqsyId24iaLYMl66kXYSm+l0OphMJiqmicAmf+v1+iZR3bi1Q7uJ1qTvqdVqKJVK2NjYwOzsLFKpFFQqlUyIq1QqaLVa2O12DAwMoL+//0LVxJa2WbVaxePHjzEzM0PdQKXun2+//TY6OzvPfV9A2mQ+XcPPfZzEWq5+bkX483tBAb9Zhd//oU4M2bQQL3gZtv0gCVIfP36MZDIJnudl/xsYGMDU1BRcLpfMWw24eJbacrmM1dVVrKysIJ/PUyNAo+hWKBQwGo3o7+9Hb28vbDYbtFrtS1d1YTAYjMPgTAvwuiDgN5ZieJwtQakAFLhYHakgitAoFfiquwN/q9fd1mcaY1lbDT6CICCRSCAajSIcDlPrZr1el71Puh+r1Yr+/n50d3fDarUy0X2KqFQqTQJb+ne5XJYJ6d2eA3tP9toRs8Rdm7iBk+dSsU0ygxMx3fj8JLKGN+6L53lUKhXE43GaIEm6wEVEpkajgdFoxODgIIaHh2E2my/EPdDokh6NRnHz5k0UCgXZ+/R6PV599VWMjY1dmHaZy9TxU/8hjlSFP3e/mZx3j1GF/+s9F6559LLXGc0UCgU8fvwYKysrqFQqssU8s9mMy5cvNy3iXbT2FAQBm5ubWFlZwcbGBhXdjYu+0hwzg4OD8Pv9bC7CYDBOJWdWgAuiiI/jOfxBOAng4q0CA88HEQFAl16Dnwm6MWkzvdT+kskkQqEQwuEwisUieJ7fU3RbLBb09/ejp6eHWrobyyqxge5oqdVqMjFNnksfG63UUnFNHvc7R+2IaxJ33SiwpSKbTISkwlr6eBLi+iA0fq8gCKhWq9je3sbc3BwikQh1gZR2rWq1GjqdjmYtvijZwKW5J3K5HH7wgx8gHo/LRIZWq0VfXx/efPPNponyeUQQRXw3UsbPfy+JGn9++kdyrt0GFX7zfReuMvG9J8Tq/fDhQ2xvb8tCdERRRH9/Py5fvgyn00m9ei6a1XtnZwfLy8tYXV1FoVBAvV6XeQcAX7aFxWLB4OAgddHXaDQsoRqDwTi1nEkBLooiCpyAf/YkjAJ3/qwIB4GI8FdsJvyjIS9UByxNls1mEQ6HEQ6HkclkaBxvK3diURRpSaHx8XHY7XZoNJqWtYzZYPfycBzXJKwLhQL9u1gs0lCAxq2VW/he7Bd3rVAoZDHWZrO5SWATC02joJb+3Q5n4dppJcR5nkcmk8HCwgJWV1dRLpdlceIAaHkyn8+H6elpuN3uc58RXOoZwPM8bt++jfn5edlChVKphNPpxHvvvQe7vb3EkmeO557ZAABOELGQqePvfZxEOH/23dHJOXbqlfidDztxxa0FWoQ7MZ5TLBbx+PFjLC4uyiy5ZGGbWL11Ot2+HmvnDZ7nEY1GsbS0hHg8TuO6W1m7VSoVgsEgBgYG4PP5oFarm3J8XJR2YzAYZ4szKcAFUcTvhZL4fiJ37rOet4MgirBqVPiW34kPPO2XeqnX6/j000+xvLwMYPeaxzqdDj6fD0NDQ7TeKBPdL4cgCCiXy7sK60KhgGq12lJcS7d2aMd6rdfrdxXXZCP72mvbj/N2jbTKp8DzPIrFIlZXV/Hs2TPs7Ow0CXGSDM7hcGBychLBYPBcZ06XthPP81hbW8ONGzdQrVZlMZsGgwGvv/46BgcHT/iIj4bGEKCFTB1/96MEwjtnN4cJ+U2XnFr86usOXHZrW+YaYXyRtyYUwv3795FOp5v68P7+fly5cgUOh+PCCe90Ok2t3aVSiSbwlEKuK6fTSa3dJGyJJVRjMBhniTMnwEVRRJEX8A/vrwJg4hv4YtIvPreC/xcj3gNZUx48eIAHDx5Qty4ywGm1Wiq6vV4vNBpNywRXbKBrRhSf17smYpoIaqnQLpfLtM2PWlxrtdqWgppspI7sboL6oorrg9IorkRRRLlcxvr6OmZmZpBKpWTWYOB526pUKhgMBly6dAljY2PnOnO69PdnMhl89NFHyGazsutdo9FgeHgYb7311gke6dEhvU4EUcRKjsP/eCeD70RK0BzQg+mkEb9Irva6V49/9a4LTr0SSia+W1IsFvHw4UMsLCzILLok1vvKlSsYGhqS3f/nvR1rtRoikQjm5+exvb1Ny1S2snZrNBr09fVhZGSEJqOTelad97ZiMBjnizMpwP9iM4M/W0+dWYvBUcCLIhxaNX6y24k3XdZ9308Gq1gshs8++wyJRAIGgwFerxdDQ0Pw+XzQarXUfbjVZy8qHMehUCigUCjIRDYR2iR+HoBMTDc+3492xLVaraau4SaTCWazWSauLRYL9VZoJaiZuD58WglxjuOwsbGBJ0+eIJFI0Lh7qRAnSduGh4cxNTUFo9F4LttcKsLr9Tq+//3vIxQKNXkIeDwefPjhhzAaD1Zm8SzQeI3kawJ+99kOfv1RDnXhbN1r//CVDvzCdAd0KgBg4rsRQRAQiURw9+5dpNNp2f8UCgX6+/tx9epVWejFeW/DZDKJhYUFhEIhVCqVXUU3AHg8HgwPD6O3txc6ne5A4UwMBoNxWjlTAlwURZR4Af/loxBK/P6Joy4SoiiCE0VctZvxC0NeKNu0pHAch7m5OWi1WvT09NCYs4vqXi4IAhXSjQKb/E3qnjeK6YOIa6D9etdEWLcS143nq/Fxv+9hHB2t3NMBYGNjA/Pz84hEIrLSXAQixLu7u3HlyhXYbLZzdw5lVmBBwOzsLG7dutU0CTcajXj//ffh8/lO6lCPjMbro8IJ+HSzgl+7l8WzdA3qU2wNF0URPpMav/aWE2/59PRYL8o40S7FYhH379/HwsICXYwjSQktFguuXLmC4eHhC5EsrFwuIxwOY35+HqlUatfylSQkqr+/H2NjY7DZbMz7jsFgnDvOnAD/bDuP315NsNjvFvCiiE6dBn+jx4VrDnNbn5FOCgA0CYbz1salUgk7OztNwpps0rhrQuMt8rLWa9KuGo2GCmsirqWPRqNRNjFrte/zlNjsvNJKiCsUCqRSKSwvL2Nubk4WCw3Iz2tPTw8mJiYQCATO1TlstALH43F85zvfQalUou9RKBRQq9WYnp7GlStXTupQjxTaDiIgQkSuJuC3Z/L4V0/y4E+ZNVwURZg0SvzsuBW/eLkDaiWYy3kLBEFANBrFrVu3kMvlZP9TKBQIBoN47bXXzr3Vm9zXz549QzQaRbVapa8TpP2e3+/HyMgIzYnRrocWg8FgnDXOnAD/72eiiJSqrFNugSiKUCoU+NBjw98Mutp6/3mydFerVZnluvE5SezSaHGUcliu4UqlElartaWwJuJaq9Xu297MPfx80Sg6FQoFyuUy5ufn8ezZMxSLxaZrkLzf4XDg0qVLGBkZOVfnW+qSXq1W8Z3vfAebm5uy9yiVSvj9fnzwwQfQ6XQndKRHR+M9LIgi1vIc/o/HOfy7lSLqgnjimdI5QcS3Bkz4J1ds6LOq6fGw/kdOqVTCgwcPMDs7S19rtHqPjIyc66RhJAnl/Pw8MpkMff3/b+/ugxtJ8/uwf9GNxjtAEAAJvpPDtyHnZWdnZ/c0e7PZ9b1YdyfJlhJFurOlKr1ZzlmpSiqWo0pKrkRxbFlW5a1UieLE5bKlKidRXNY5suQ73551tdq9vdu32ZuZneGQw/d3EgTx/t7dT/7gdk8DxAzBGb4A5PdThWoABMAGiUb3t5/n+T21wVvXdfh8PoyOjmJychJ+v//cNAYQ0fnWUgF8p1jB37mzyNbvJzC6oV9p8+A/GelC0HF2qiqrqmq2XBuhOpPJVHUTN7rzPs1RBGwA+wJ1bSu2y+U68HcxXJ9f9YK4pml4+PAh7t+/bxYmq20VNwo2Xb16FRMTE3A4HKf5No6c8V4//PBDfPTRR1XV4202GwKBAL74xS8iEjn4BGMrejxT2d418WmRtt+7k8KfzOegnkIQr+gCf2XYi994qQ3DbYpl/2uZV43MVu/vfe97SKfT+3oqDQ0N4ebNmwgEAlXb9ln5ftc0DRsbG7h//z5WV1ehquq+k93GbUmS0NfXh0uXLqGnpweKojyxpxAR0VnUUgH82xsJ/N/LO/xSfgpNCIQddvx0fwS3Iv7TXp2GAq913HVtl3DjvmKxeOD/vZHw3chnx+127wvU1ksjRaF48ECHUft5WVxcxJ07d7C9vV1VW8B6QOtwODAxMYErV67A59sbcnJWPnNCCKyvr+PNN980u60aFEXBzZs3cenSpTO9ndWepFnOqPg3C3n828U8fhgrVY0RP4q/Q9W4fCEwGlTwH4548XMX/Yi4z/4Y5eeRz+fx4Ycf4sGDB1Xdpo0W3pdeegmXLl0CcDb+ftaTYplMBjMzM5iZmUEqlapqwa6t9RAMBjE2NoaLFy+a31nG67X634SI6DBaKoD/ztQqptMFflE/hbEj+1JXEF8dOP5Wonofn9r7jOm3nhSuc7ncgeOanzVc197ncDie2nrt9x980oIHC3ScrJ+vWCyGe/fuYWFhwaysb32c4eLFi7h48SK6uroAtHYQt77/bDaLb33rW4jH4wCqW9BGR0fx+uuv162TcJbUft+ousC9eBnfXsrj3Y0SpnbLKGkCRpu0eMLz6r2e8VObbS90vxB24tVuF3523IuxoOOJz6M9mqZhZWUF7777LlKpFGRZNrdLWZbR39+PV1991Wz1Blp327R+31QqFayvr+OTTz7B+vq6OatDvToWRkHJy5cvIxqNml3vW/3vQUT0PFoqgP/ie49OfRxcKyhpOm6G/fi10S7Iz1FJ90mFyKzXjXHXteHauJ3JZADs38keppBY7YHfk67b7fa6462N24FAgN2+qWVYP4eFQgG3b9/G/Pw8isViVfFE6/Wenh5MTk5iZGTEfJ1W/CzXtpy9++67uH///r4urZFIBF/4whcQDAZPa1VPVL3vpnxFxwdbJdyLlzGfUvEoWcZKRkWmopsB29pZXABwyTaMtCm4GnEi7JZxLazg9T73vnnI+V24n/H5y+fzeP/99zE1NQVZlqt6K/h8Prz88su4ePGieV+r/h2N96vrOlKpFKanpzE3N4d0Om2e/Kpt7bbZbGhvb8fExARGR0fhcrmqXq9V/xZEREelZQL4VCqP3324xi/uBlR0gTG/C78w1IFBr+vgJ+BxNXRd1x+/TqVSt2u49bq1Va5eMH7WcF27lCTpqV3DA4FAQy1h3PlTq7F+ZjVNwyeffIJ79+5VzZ9rDaZCCASDQbz88svo6+uDw+Fo2WrC1vc+NzeHt956C6qqVr1Xt9uNW7duYXR09DRX9VQ08n1WUHWsZzV0e2V4FOmpj+X349MJIaBpGtbW1vDWW28hl8uZrd42mw2yLKOvrw+3bt2Cz+dr2VZe6/ZVKpXM6cM2NjbM75J6odvtdmNgYACXLl2qqtPAzxURUbWWCeDfWI3jT9Z2+SXeAE0XiLoVfLU/ghsNTkdWqVRw7949rK2tmV3GjbGX9cL0YVqwrY+zvpY1XBtdw2vDtbWo2UG4k6ezrPbzPTs7i9u3byOTyUDXdbMbqLXFyuPx4Nq1axgeHobX64UkSS23jVjfdyKRwJtvvllVpE7XddjtdkxOTuLmzZst+R6PCwtbHQ3jBLV1rLe11RsAvF4vXnrpJUxOTprPabW/tXESXtM0JBIJPHz4EHNzcygWi/ta+Y19uN1uRygUwuTkJC5cuABFUaper9X+BkREJ6FlAvg/nd/CO7E0v8wboAsBtyzhJ3tD+HJ3+8FPwN7B+re+9S0sLCzAbn9cPf1pf+/as9/1LgDM+a5ru4db57tuBHfmRHus28LW1hZu376Nzc1NaJq2b6o9TdOgKAomJycxOTmJtrY2SJJUNQ1Ss6vtBfDWW29hbm6u6qSDEAK9vb144403qqYzInpWxjZUqVSwurqKv/iLv0ChUKhq9VYUBX19fbh58yb8fn/LtXob246maSiVSpifn8f09DS2t7fN7wlra7fNZjN7pA0NDWFiYgKhUKjq9VrlvRMRnZaWCeC//WAVjzIswNYIIfamI/tSVzt+fqijocfbbDZ85zvfwczMjHmm27rDtV6MA3ejy53X6zUv1krhRshu5ECfO22iw6ndZnK5HD766CPMz8+bQdzaPV3XdUiShIGBAVy5cgVdXV2QJKmliphZ38/U1BR+8IMfVHVJ13UdbW1tuHXrFgYGBvidQs/M2GasY70VRak66ezz+XDjxg2Mj4+bz2mFz5z15FylUsHOzg5mZmYwNzcHVVWrTtBZu9crioJIJILJyUkMDg6e6bnMiYiOU8sE8F967xG/3A+hqOn4QrQNvzIcbfg53/ve9zAzM1O18/V4PFUt1tZWa5/PV9Va/iTcMRMdn31VslUVd+/excOHD1EqlVCpVPYFcSEEOjs7cePGDfT29ppBvBW209rW/+9+97tmN3ybbW8+dYfDgRdffBHXr19v2fHvdHqEECiXy1haWsL3v/995PP5qlZvh8OB3t5evPbaa3C73S3T6m1s/6qqIp/PY3Z2Fo8ePcLu7i5kWd7X2i1JEux2OzweD0ZGRjA2NoZAIFD1es3+nomImlHLBPBfeX8WLbGiTaKs67ge9OKXh6NodxwckoG98ZX5fN4sduZwOA5+ErgTJmoG9YL43Nwc7t27h2w2C1VVq7qnG91Og8Egrl27hqGhITidTtjt9qbfnq3vNZ/P46233sLa2pr5/owwPjw8jFdffRVer7fp3xM1B1VVkcvl8N5772FmZqaq1VuSJAQCAbz00ktm0b9W2P8JIVCpVFCpVLC5uYmZmRksLi6aU/pJklT1PhRFgdPpRDQaxcWLF9HX11f1WkDzn2wgImpmLRHANV3gb34tbOdsAAAgAElEQVQ4xwB+CGVdx0tBH35luBNtDQTwRuaMJaLmV2+bXVxcxNTUFGKxGCqVClRVrQriqqrC4/HgypUrGBsbg8fjgaIoTT1O3BoENE3DnTt38MMf/rCqS7qmaYhGo3j11VcRjUZbqrs9nSyj4vfy8jLeeecdlEqlqlZvl8uF3t5e3Lp1Cy6Xq+mDqHGCrVwuI5vNYnZ2FjMzM8jlcnXHdsuybBZDHR0dxcjISFV9Fh4LEBEdnZYI4NPpAn734RoD+CEcNoAT0dlTe9C8s7OD+/fvY2VlxWwRs3ZPV1UViqJgZGQEk5OTCAaDcDqdTR1cre/R6DJs7ZJunFww5mVuhRZ+OlmqqiKTyeDDDz/EzMxM1WdElmUEAgG8+OKLGBsbA9DcYVTXdZTLZRSLRayvr2N2dhYrKytmyK6t7+JwOMyTC2NjY4hGHw9ba+b3SUTUyloigD9KF/A7DOCHwgBORIbaA+lMJoPp6WnMzc2hUCigXC5XBXFN0wAAfX19eOGFF9DR0QGHw9G04dX6/pLJJN59911sbGyYLf1GGL948SJu3LjRcHFIOtuEECgUClhaWsIPfvADFIvFqmnsPB4PBgYG8JnPfKapW72NLualUgmpVAqzs7Pm9GHWmi7WLuYulwuBQMBs7bbWc2HwJiI6XgzgZxQDOBHVqj2wLhaLmJ6exvz8PDKZDMrlctU4ceN6R0cHLl26hO7ubng8HjgcjqY7QLeGo0qlgtu3b2Nqaso8uQDstXT29/fjlVdeQWdnZ1O37NPxqlQqSKVS+OCDDzA/P19VhFBRFASDQbz44osYHh4G0JyhVFVVlEol5PN5rK2tYXZ2FltbW2ZrNwBzW5ZlGS6XC263GwMDAxgeHkY4HDZfqxnfHxHRWdUSAXwpV8Lfu7/CAH4IDOBE9CS1B9uapmF2dhaLi4vY2dkxq6dbK6cbU3xNTExgcHAQPp8PTqez6VqSre9tdnYWH374YVWX9HK5jPb2dty4cQPDw8MNF5uks0EIgVwuh+XlZbz33ntmKzHweGoxY15vh8PRdK3exlj1YrGInZ0dzM/PY3FxEZVKpe7YbpfLBZfLhfb2doyMjODChQtV74XBm4jo5LVEANeEwN/8gEXYDoMBnIgaYT0AF0KY40Y3NjZQKBTMceLGzyuVCvx+v3kw39bWBo/H01Stydb3FIvF8P7772Nra8s8qaBpGux2O65cuYIrV66wS/o5US6Xsbu7i48//hgLCwtV3c0dDgdCoRCuX7+OgYEBAM0VTiuVCgqFAjKZDFZXVzE/P4/d3d26rd2KopizmRit3X6/33ytZnpfRETnUdMHcGNHwWnIDqes6Xgl7MOvDkfhsTd2YGycQW+mA2kiOhm1B+XxeBwzMzPY2NhAJpNBqVQyH2PMJexwODAwMIDx8XGEw2F4vd6mmU/c+n4KhQJu375tjnk33oOmaRgeHsb169cRiUSqxsHS2SGEQCaTwcLCAm7fvo1CoVAVWv1+PwYHB/HKK69AURTzOaf9OdZ1HcViEfl8HltbW1hcXMTKygpUVTXrMRihW5IkuN1ueDwedHR0YGhoCP39/ae6/kREVF/TB3DDf/rRPPKqduo7xFZR1HR8IdqGXxmOHvzgTy0sLEDTNDidTnMKIrvdDlmWzaVxP/8PRGdTbfBIp9OYnZ3F+vo6EokEisWi2Z3bqJwuSRL6+vowOjqKjo4O+P3+phknbj1p8PDhQ9y9e9fskg7stYp2dnbi+vXrGBwchNPpPOU1pqNUKpUQj8fx8ccfY3l52QytAOB0OhEOh3Ht2jWz1bsZlEol5HI5pFIprK2tmTUaaiuZA3vvwev1IhAIYGBgAENDQ3C73VWv1wwnE4iI6LGWCeC//WAVjzIF7kQaIISADuAr3UF8baCj4Z3vN7/5TUxNTUGSJASDQSiKYo7z9Pv9VUuHwwFJksyloiiQZdkM6/w/EbW22u+NUqmE2dlZrK6uIpFIIJvN7ivYpus6otEoRkZG0NPTA7/fD7fbferdu63vZX19Hbdv38b29rbZJV1VVTidTrzwwguYmJiAz+fjd1iLE0IglUphYWEBd+7cQT6fr2r1DgaDuHDhAq5du2bWATjNoKppGvL5PDKZjNnavbm5aQ6XsLZ2y7IMr9cLr9eLaDSKwcFBdHV1Vb0eQzcRUfNqmf52IY5jbpgOIKDIiDr3Dioa2QkbrUEulwt2ux3FYhHFYhHpdBpCiKqLrutmC1cgEICiKAgEAnA4HGYXOLvdDrvdDkVR6l4nouZWW6jJ6XTi8uXLmJycxPLyMhYXFxGLxZDJZKCqqnkCbmdnBxsbG+jo6EB/fz8GBgbQ1tYGv99/akHcWpTKODHw8ccfY3FxEYVCAXa7HZVKBR988AFSqRSuXr2KSCTC4TgtqlgsYnt7G3fu3MHq6mrVOGmn04loNIoXXngBvb295nNOI7AKIVAsFpHJZJBIJLC2tobl5WVks1lzOJgsy2Zrt8vlgs/nQygUQl9fHwYGBqqKCFoLxjF8ExE1r5ZpAf/OZhL/YinGnUoDNCHQ6VTws/0RvBL2NfScTCaDt99+GysrKwAODu1GYK9dGiHd7XabYdy6fFJAl2UZDofDXBJR86kNKRsbG2YQj8fjZsE2o9CZqqrw+/3o7e3F0NAQOjo64PP5TnWcuLF+qqpiamoK9+/fN080Anu1MHp6enD16lUMDg7y+6iF6LqOZDKJ+fl53Lt3r2qstyRJaG9vx9DQEK5du3aqY71VVUU2m0UqlcLW1haWlpaws7NTt7Xb6IkWCATQ1dWF/v7+qunDTus9EBHRs2uZAD6dKeB3HqxyJ9OAiq5jMuDBL1/oRJe7sYPHfD6PpaUlxGIxqKqKcrlsLo2z9EZBGGP859PUtppbLwDMMG5cFEUxW9WNA3SHw1EV0q23iej01B7wJxIJzM/PY2trCzs7OygWi1VjrzVNgyzLGB4eRm9vLzo6OsxhLqfxnW5d/6WlJdy5cwfb29tml/pKpQKv14tr165hfHwcHo+H+54mVygUsL6+jgcPHmBtbQ3AXug2Tgh3d3fjypUr6O7uNp9zksFVCIFCoYBkMol4PI719XWsra0hl8vBbrfvmz7M4/Ggra0NkUgEPT096Ovrq+qRwdBNRNS6WiaA60LgP7+9gCwLsT2VEAKqELgVCeDro10HPwH1d+SlUgnlchnZbBa6riOVSpmtC7quo1AomAcUQgjk83kAe0H+oAMD65RGTwroRmEZp9MJj8ez77a1BV1RFDgcDvM6AzrRyajd1vP5PObm5swgbp1/2yjYBgB9fX3o7e1Fd3c3QqEQXC7XqXT/NX5nPB7H3bt3sbS0ZM4LbYTxiYkJXL58GeFw+NTHsjeiqOrIVAR0ISDZbEiVNGQrAu1OCW67DQKAbLOhzSlBkVp/X6rrOnZ3dzE7O4upqal9Fc7D4TBGRkZw+fLlU2n1LpfLSKfTSCQS2NrawsrKCnZ3dwEAsiybJwmAvanQ2traEAwGEY1G0d/fj0AgUPV6DN5ERK2vJQK4scP5vZkNfJzIcufzFLoQUCQbfry7HT/VFz70zrrRxxst4alUCkIIJBIJAEAymTRbzDVNMx9XKBTMFnTjwPZp62Asn9aC7nQ6zUDucrngcrngdrvhcrnM1nKn0wm73Q6Xy1XVqs7PENHRsn53qKqKxcVFbGxsmN3TrUFc0zRomobOzk4MDAwgGo0iEonA7/ef6LZpHTNbLBbx4MEDTE9PI5PJVHVJHxwcxOXLl9Hf399UJ/jKmsBmXsVyRkWqrCNfEdjIqYgXdWhCQLbZPr2toc9nR5tD3ttHyDZ0eWQEnTK8ig2dbhldXhk9XjvsLRTK8/k81tfXcf/+fWxsbADYa/XWdR1erxc9PT24fPlyVYGykwiwuq4jl8shHo+brd2bm5soFov7WrslSYLX60UoFEJHRwe6u7vR3d29rwYD91lERGdHSwRww3e3UvjDxW3uiJ5C1QV63A58bSCCF9u9x/I7GjkYqFQqqFQqyGaz5ng367JYLJpLTdNQKBSgaZrZ9f15Arpx8OVwOOD1es0xdHa7HW63Gw6HwwzkRtE567JZ5jEmakW13w9ra2tYXV3F9va2OcTFOk5c0zT4/X709/ejp6cH0WgU7e3tp7bOc3Nz+OSTTxCLxcyTheVyGe3t7bh8+TLGxsZOrUu6EALpso65lIqVjIrVnIqZRBmfxCvYzmtIlDSkyzrsNhtgAyAAyQZINhs0ISAEzPtVIeBTJIRcMgb9dowFFYwGFfT67Bj0y7jY7oDH3pzFvDRNw87ODubm5jAzM1NV4VySJHR0dGB0dBTj4+MnVuFcCIFKpYLd3V3E43FsbW1hfX0dyWTSLKhmnT7M5XKhvb0doVAI0WgUPT098Hq9Va8HNFZElYiIWktLBfB4qYK/e28FxQNaUM8rIQQ0AVxv9+JvjETht59OBd9GDnTK5TIqlQpyuZwZzI0W82KxiHK5/MTLQQHdWIcntZ7rum6OOzcCunVpBHVZls2lw+Ew50fnPMFEB6v9HojH42axqY2NDZRKpX3jxBVFwdDQELq7u9HZ2Xmilcit67u9vY379+9jcXER5XLZPFkgyzIuXryIy5cvIxQKnViX9LImsJiu4MFuBZ/ES/g4VsbUbhmbeQ02AIpk+zRo74XtRulCQBeAJvZO3pY1gT6/HZfaHbgRdeJy2IHJdgUjQQVyk+xzc7kclpeX8fDhQ2xubgLY68ptnHgdGBjApUuX0NHRYT7nOMO3rutIp9OIx+OIxWJmr49yuVx3+rBAIIBwOIzOzk50dXVVredxrysRETWHlgngxk7pf5pex71kjjuoOnQh4JIlfKW7HT/ZGzrt1amr0YMLVVVRKpVQLBZRKpX2XTfGqBtB3rhdKpWeOaAb9xsHcna73Vw6nU64XC6z27sRyOstWTWZ6LHabT6TyWBlZQWbm5vY2toyu3tbx4lLkoTe3l709PSgs7MT3d3dJ9L129rqmMvl8PDhQ7NLuvFzTdPMLukDAwPHeoKgogvMJit4Z72I760XcWenhJWMCsn2OHQf9b5Q0wUqOlDUdIy0Kbje4cRnupz4bJcLVyKOQwX8I10vTUMsFsOjR48wNze3b17vaDSK0dFRjI2NHXurtxACpVIJsVgMOzs7iMVi2NraQiqV2tfabbPZ4Ha7EYlEqoK3y+Wqej0e0xARnR8tE8CBvZ3UR4kc/tdHG6d2ENDMVF1g0OvELwx1YtTvasmd+mECuhHIjQBuhHQjiJfLZRSLRVQqFfP+RsagA/unVbNeF0KYQbw2mNcGdKM1XVEUuN1us5s70XlTr2Db5uamednZ2YF1d6RpGnRdR2dnJ/r6+tDR0bGvm+5xr6uu65ifn8fdu3fNcezA3hCbSCSCiYkJTExMwOl0Hul3raoLTCcq+PPVAn6wUcQPNotIlHS4ZBvkYwjdT1uPsibgtNvwWrcLr/e68cV+N8bbT7Z6fTabxeLiImZmZrC9vW22Juu6Dr/fj4GBAVy8eBGdnZ0Ajq/7tqZpSCQSiMViZuiOx+Nm7wijR4QQAna7HcFgEJ2dnealdmhFK+6jiYjo+bVcAC/rAr95bxnxUoU7LgshBGyw4dWIH39juPPM/m0OE9Brg7ixVFUV+Xweuq4jm81CCGG2wlmrNj9tHYxlvYAOwAzh1uBtVG+3BnJFUcyiccb4dLag01lXW7Bta2sLa2triMVi2NzcNHuxGD1SdF1HIBAwpzDr6+s79nHi1nXc3NzE/fv3sbS0hEqlYs4j7nQ6MT4+jitXriAYDD73964QAsmSjj9dzONPF3L4/kYJ+YoOl912qieddSFQ0gScsg2f73PjiwMe/NVhD4LO4x0eoGkatra2MD09jcXFxX3zend1dWF8fBwXLlw4tlZvY5aPra2tqhbvbDZrhm5ra7fX60VnZyc6OjrMi/U7naGbiIhaKoAb/nR9F/9yJd40Y9KagSYEIk47vtofwWfC/nO7k2/0fVcqFbNSrRDCDOLZbBYAkEqlAADpdLrqtjFmvdGAbixrg7pRCM4YU27twm7cZ21drw3pRGeBdXsVQpgVozc2NrC+vm6Ovza2H03T4HK5zCnMurq60Nl5fCccreuXyWQwPT2Nqakp5PN5s4VcCIGhoSG8/vrrz1WcraIJvLdZxB/P5fDvVwpYzapwn3LwrqULgaImEPXI+NKAB3912Iu/1Oc+lt+Vy+UwNzeHR48eIRaLAXhc4dzn82F4eBgXL15EOBwGcLSt3sZnbWdnpyp4G9OHSZJUNX2Y3W5HR0cHotEoOjo6EIlEqqYPY0E1IiKyarkALoRAqqLhHzxYxQ5bwQF8GvAA3Aj58PWRKJQWmKv2tDQa0MvlMoQQVQEdgFmt3Qji1iJyxu3DTrNWe13X9arx5LUF4IzWdGvROCOgezweOBwObhfUUmq3S6Ob78rKCra3t5FOp6uCuK7rcDgc5rRNXV1d6Onpgd1uP9b1U1XV7JK+u7trrsvIyAhee+01eDyeZ3rtdFnHv5rN4f+ZyeLjWAmKZGvq6cA0fS+I3+h04mvjPvz8hB8O+WjWV9M0bG5uYnp6GsvLy1VjvWVZNlu9h4aGjqXVO5VKmfUJdnd3sbu7i0KhYIZu6/Rhfr/fLBgYDocRCoWqPoPn9UQ4ERE9XUsFcGMGFQD4t+sJ/NHKDlvBYbR+K/hrAxG8HPJxp/+cGvn7qapqTp9mzHNuVHE3gri1yrtR3b1QKJhdWA9ah6cF9dpp1Iz5zY37jWBuTL9WOx0bPx/UjGq3vXQ6jUQigdXVVWxtbWF7e7uq5VHXdciyjGAwiK6uLrNl/FmC8GHWbXNzE3fv3sXS0hLC4TA+97nPmV3iD/P9qwuBhbSKf/4ggz+Zz2E9p8IlN+fUX/WUNYGIW8ZPDXvwq1cCGAw8X6G8bDaLmZkZzM3NIR6PA3jc6u33+zE2NobR0VGEQntFRo+qZblcLmNrawubm5uIxWJIJBJIpVJmBXPjM2ez2aAoijltWCQSQXt7+77pw1rl/0dERKejpQK4QQiBdEXD/z63iYfpQlN10TtpQgjIkg2vhv34pQud5/pv0UxUVTUruRvzmxtzo5fLZRQKBTOUG8HcWB62irtx23q/0+k0A3rtUpKkqnnRXS4XXC4X3G43nE4n3O7j6VJK1KjaEFMsFpFIJLCxsYGFhQUkEglommb+3Kjb0NbWhkgkgu7ubvT396Otre3Y1iuVSmF6ehr9/f3o6uqqGgfcCF0IzKUq+O/eS+Cd9SJKmoDSxK3e9QixN40ZAHxhwI2/fT2IFzuebZrGXC6HO3fuYGpqCqVSqWqsd09PDyYnJ9HX13dkrd5CCOzu7mJ9fR1bW1tIJpNIJBKoVCpmS7f1fxoKharmqQ8Gg1XT0DF4ExFRo1ougFt3clPpAv6Hh2vQz/GOT9UF+j0OfH20C/0eJw8CTlmjf39N08xAXnsxAro1qBcKBfPyLC3otfcZAV1RlLoXI5AbS+t1zoNOJ6V2ezLG5cbjcSwsLGBra8vcHozu4ADg8XgQiUTQ09ODgYEBhEKhIy/MZbPZUC6XnykQ6kLgw60S/pcfpvDvVwpQpMPN391MjO+Usg7c6nbiv/mR0DOF8HK5jLt37+Kjjz4yXzcQCGB8fBwjIyNVPQyAZ2/1LhQK2NzcxPr6OuLxOBKJBHK5nNnSbbDZbHA6nejp6UFvby9CoRCCwSCnDyMioufWcgEcACAEYLNB1QX+5coOvrmRbOrxcsdFFwJeu4wf627Hj/ccb0VgOhqHCehGK7o1nBu3c7kcSqVS3WUj06w9qXu7sbSGcbvdvu+6w+GAz+eDw+GA1+s1b7MFnY5D7XYjhDBbLBcWFrC6uopisVg1TtwYqtHe3o5oNIrBwUFEo9Ejm7e7toDcYcL3W6sF/PYHSXyyW4b9BKcVO05CCKgCuBl14r+9ebgQbvz9UqkU3n33XSwtLZlzrVvngH/WwKvrOmKxGNbW1sz5utPptPldaW3tliQJnZ2d6O3tRWdnJ9ra2vb1pGDwJiKi59GSAdy689stVfD7c1t4lCmcq/HgQgjYJRteDvnwi0OdcMoSDwrOgMMG9EqlYnZxN5YAkEwmoeu6uUwkEhBCIJFINDzNmvV67VKWZTgcjqqloijmbZfLBa/XC6fTCa/Xa3Zzd7lcxzI+l86HettHJpMxx4kvLS0hlUqZY3aNi6IoCAQC6OzsxNDQELq6uqpaMk9y/edSKn75zW08TFTglM9G+DYIIaAJ4DNRJ37rECHc+L8KIcyQPDo6agbfZ231zuVyWFtbw+rqKhKJBNLpNIrFIgCYrd3G7/V6vejr60N/fz+CwSD8fj+nDyMiomPRkgEcqN4ZPkjn8X/ObiFZUVu2G99hGFXPL3id+LWxbnQ4FR4cnBON/p9VVYUQAqVSCcDeGFrrbaOCszGtTiqVgqqqSKfTB3ZxbySgGy3l1mBut9vNpcfjgdvthsfjgcvlMlvPjSXRQeqNE08mk9jY2MCjR48Qj8chy3JVwTajIGE4HEZ/fz8GBgbg8/lObH0X0ip+45043l4vwnlEVcObjTEu/JWoE7/7Whjj7Y1Nm2j8PzVNg6ZpzzzW25g7fGlpCbFYDJlMBtlsFrqu7wvdsiyb9QI6Ozvh8/n2fR64byUioqPWsgEcsEwNowv8RSyNf7EUOxfjwXUhEHLY8YsXOvFC0MsDBKrSaBV3ayA3pl0rl8vQdR3pdBrlctkM5MbtTCbT8Dzo1uu19xlhvDacK4oCm82GQCBgdm+3BnO/3w+n08nPO5lqP++VSgWpVAqxWAyPHj3C5uZmVQurEcTcbjfa2towNDSE4eFh+Hy+Y/1cZcs6vv7dGP58pXDmh0wZJ4m/0O/G//gfRBBxN9btv7ZbP9B4q3cqlcLq6ipWVlaQSqWQzWbNeeSN1zDmbg8GgxgYGEBfXx8CgYBZlLLeehARER21MxHAAaCgaXg7lsYfLcfPdAjXhYBfkfEf94XxRufj7nln9f3S0Wvk86JpGnRdR6VSMYO5EMLs8m4E8nw+X3XJ5XLmQe9B62Bd1t6nKAokSYLdbockSeZtI6Ab3UPb2tqgKMq+JbeH86f2c63rOrLZLOLxOGZmZrCysmKO+bXWPnC5XPD7/ejt7cXIyAhCodCRjRO3+u/fT+CffJI+N9/XQgg4ZBt+7qIff+9mO3AM77lSqZiV8Xd2dpDL5cypIWtbuxVFQW9vL4aGhhAOh+H1evfVqzgv/xsiIjpdLR3AgeodZk7V8McrcXx7KwnFUs30rNCFgN8u46f7w3gtEoBdOty0N0QHOcwYdF3Xze6i1otRJC6Xy9UN6I1WcX/adWMu89qgbizdbje8Xi88Hg88Hk/VdY5BP9vqFWzL5/NIJpNYWFjA/Pw88vn8vnHiRgHBrq4ujI+PIxqNVrWKPo8/mc/iN97ZRa7y9PoLZ4mxrYZcMv7LG0H8/IT/yF43mUxicXERq6urSKfT5vSNAKoKqgkhEIlEMDg4iL6+Pvj9fng8nqpq58Zrnpf/CxERnb6WD+DA/qJs/2Y9gTe3knCcoRAuPq14/jP9YbzWEYB8yDlniY5Co585azivF9RrA3o2mzWXRxHQZVmGLMuQJMm8btw2xqAbodzr9ZqtYUY3dzob6o0Tz2azWFlZwdTUFNLptBnEgb3PrTENXzgcxsjICIaGhqqKcR3WQrqCn/mzTWzmtXNRo8TK6Io+FlTwf3y+o+Hx4PUUi0Wsra1hfn4e8XgcxWIRpVKp6n9sdDF3u93o7+/H0NAQQqEQPB7Pvv8h959ERHRazkQAB6p3pomyijc3k/h3m8kz0R1dCAGPXcbPMnxTkztMQDeCuXWp67pZDK5QKCCTyaBYLJpTBu3u7h44Bt1Yj6fdNoJ57dJms8Fut8PpdKKtrc3snuxyuRAIBMzq7tRa6o0Tz2QyWF9fx8zMDHZ2dqrGiRvTURknZMbGxjA+Pv5MBQL/s7d28K8eZSGf8XHfTyKEgCzZ8ONDHvxvn+s49PPj8ThmZ2extraGbDaLUqlUNdWizbI/7OjowPDwMHp7e836EdbW7metpk5ERHSUzkwAB6oPsrKqhu/vZPB/LcUAtOYO13g/QUXGT/aGGL6p5T1LQBdCVC0BYGdnB7qum8Fpe3sbQgjz/kaLxD3pPkmSzIsRzK1B3ePxmN1Zje7u1gs1p9rPn6qqKBQKiMVimJqawvr6uvn5MYK4zWaDJEl4/fXXMTo6eqjx4d9ZzuPXvruDonZmdrOHZrSCd7pl/IPPhvCVoca3DyEEPv74Y3zwwQfmbWtRNV3X4fP5MDg4iAsXLiAYDMLlcu0bOsB9JhERNZOjGeDWJKxnwn12Ga93BOC1S/ij5ThSLTZFmRACks2GC14XvjoQxgWvi+GbWl4jLddG4DG6i9fj9/shhMDg4CAAmOM/jeX29nbVcnd3F5VKBYlEom4X99oxw0bYN8a0G/cbkslkVUi3rrNRJM6osu1yudDW1gan04lgMMhp1k6RtcK20dvB7/fD6/Wit7cXsVgMMzMzWFpaQrlcruqeHggEDhW+S6qOv/9+AgVVr/rd543NZgOEwHZBw+/fTeML/W445MaGhxnbktPpRLFYNP8fkiQhGo1ifHwcXV1dcLvd+4ov1nZNJyIiahZnqgXcYN3x6kJgOV/C/7sSx71kriWKsxld9m5FAvjJ3hDaFbnq5ALRedZoFXfrUtf1qpb0RCKBUqmEZDKJUqmERCKBcrmMZDJ5qGnWnvRzI4gbrefWkA7A7NZutNgZQd0I6NzOT0a9gm3GtHtzc3OYnp5GJpPB4OAg3njjDfPETyP/n3/+II3fei8BTef3NrC3L25zSPg7N9rxS5cOrrNg/J2TySTeffddzM/PIxwO48KFC7hw4YI540HtSRHuJ4mIqNmdyQAO7N8JJ8oq3oml8WcbCRQ1vboRdd8AAA3ISURBVClbw4119tsl/PXBDrwY9ML5aUsBDyqIGtPItmIEcl3X993WNA3ZbNa85HK5qtulUunQY9Brf2YN5PUCejAYhMPhQCgUgsPhQHt7uzkv+nHPV31e1c5BbRQLnJqaQnd3N/r6+g7VAv7lf72OB7t70/jBZsN5/48JIaAL4MUOJ77xE11wyI39RXRdx/LyMsrlMnp7e+F0Os0TW9bX5jZBRESt4swGcIN1x6wJgdV8Gf/fWhx3kvmmKtBmdDn/fLQNX+5uR1CRIdd0lySi59PotmR0QzeCufViFPCyBnSjWJyxfJ6ADjyeSskI5EZANy5GELdejK7UHIP+fOqNE7f+/Rvx5lIef+u7MZQ0Fv2y0oRAxCXjN19px8+O+xp+nnGijAXViIjoLDjzARyobdkACpqG++kC/mw9gflsEfYmqE57M+zHj3UHEXUpZjd5Bm+ik3XYgF57Afa6vafTaWSzWWQyGeRyOaTTaeTzeaRSqUNPs1aPNYxbL8BeSDECuc/ng9frhcvlQnt7u1nNnQ5W77PQ6Ofja9/cwvc3ik11krcZGJ/rz/V78Ic/2tnQ45/1f0BERNSszkUAN9SODS9oOmazRfz5VgqfpE6+RVwIgR8JB/ATPXvB2245iOZBBlHzeZaAbr0N7LWoJpNJFAoFJJNJaJqGWCwGVVXN5VEFdOt1a0B3u90IBoPweDxoa2szC8axBf35LWUq+NI3NpCrnO/ia/UIIaAJ4ELAjt97I4IbUddprxIREdGJO1NV0A9iLWQm2Wzw2mVcbfPgapsH64Uy3t3J4HYih/VC+dhaxXUhMOZ34WbIj5dCPvjtMmTb/uq8PGgjaj6NVnF/2jasKApcLldViLYGdZvNhs3NTQghnrg8qEicNfDXUy6XkUql9gV14/k+nw+BQABerxeBQMDs5m7cR0/2x7M5lNn1vC6bzQYJArslHW+vFxnAiYjoXDpXLeBW9arfCgAFTcdSroSH6QIeZgpYzpeeq2ibLgTaHXaM+dy46HdhIuBG1OWAZANs2B+8iejsOkwLunVZe31jYwNCCOzu7qJUKiEej6NcLiMejx/Yxb2Rr3zr8+sF9GAwCLfbbXZrD4fDcDqd5jj08/xd9uV/vYEHu2V+pz+BEAKqDtzsduIbP9F92qtDRER04s5tALeqrX4LAAJ7ATmn6tgpVbCQK2G7VMFWqYKcqsFus2E5X0KmokEA6HY50ObYq5AbVOwIO+wY97vhV2T0exx73cs//X3VB2XGbyIiaiyk135tW2/ruo7d3V0Ui8WqZblcRjqdRqFQOJIu7k+6LYQwu7WHQiE4nU6EQiG4XC5zeVaD6VKmgi9/YwNZdj9/KlUXGA8q+Mef78BEyHHaq0NERHSizlUX9CcxwzceH/gah01euwSv3YlBr/NIfofhcezmARoRPdZIaHtaALbZbOjo6AAA9Pf373uuUSQuk8mY1dwzmYx537NMs1Z7O5VKIZVKYXNzs+5zjWAeiUTgcDjg9/urLq3q/Y0iVFbnPpANQKqs44c7ZQZwIiI6dxjALerN1HpcB1E8NCOi43BQ93O73Y5QKIRQKFT3MZVKpSqgFwoF83Y6nT5wmrVGWs93d3cB7HWlr8cYb24N5dax6E/7HacZfL+/VYKqn9qvbxk2214Av7tTwtcOMR0ZERHRWcAATkR0TjTSsq0oCsLhMMLh8BMfk0wmkcvlkEqlkMvlkEwmkc/nkUwmUalUqh5b7/kHBXhjjvXa+433YIRy6zj0UChkVnO3/t6n9RY4au9tlKDq535U14Ekmw25isB0onLwg4mIiM4YBnAiIgLQeJX39vZ2tLe3o6+vr+5j4vE4NE3D9vY2NE3D1tZW1dL6WOvyaetgrdNhtM7XPtdYP6/Xi2AwCK/Xa06v5vP54PF4EAwGq8J87es/a0DXdIF0mWO/GyUByJZ1LGcqGPArp706REREJ4YBnIiIGtJoQI9EIgCAaDRa93GxWAxCCLML+vr6OoDHXdJrg3nttGr1grN1HfL5PPL5fN0q8rqu7+vW3tbWZoZzj8djvq4kSQ2H6Qe7ZWisadowmw0oagLbeY0BnIiIzhUGcCIiOhKNTrFmFInr7OwEAFy7dq3qMclksmp6tZ2dHXOaNVVV9811Xrt8Wmu2LMsoFAooFArY2tra93xd19HW1oaxsTFcvXq14XnPV7MqNObvQymoAhs57eAHEhERnSEM4EREdGIaCenBYBDAk1vQk8kkCoUCEomEOb2atWgcsL/13Ho5qLt5Op1GMpms6i5/kPWcBg7/bpxkA5IlHfd3y/grw42d5CAiIjoLGMCJiKglGOE5GAwiGAyiu7u77uOMqdVql8Y0a7Ut3vUC+mHHce+9JhP4YdhsexciIqLzhAGciIhaQqNj0I3pyp7EmE7NCOfpdBq5XA7pdBqlUgmVSgVutxuyLDe8bitZtoATERHRwRjAiYjoTGg0oAcCAQQCAXMMeq10Og1Zls2CbI3YzDOAExER0cEYwImI6Fw4TECvve/A137utSMiIqLzQDrtFSAiImoG9YJ2o2PB3XZGcCIiIjoYAzgREdFzut7hgF1iCCciIqKnYwAnIiJ6Tqp+2mvQemwAZHbeJyKic4YBnIiI6Dm57TZGyUMQAByyDe0uHoYQEdH5wj0fERHRc7oYVCAzgTdMCMCv2DDaxlqwRER0vjCAExERPadOrwwOAW+cAOBRJPT7ldNeFSIiohPFAE5ERPQchBDo8ynwKpJ5m55OCMAp2xBmF3QiIjpnuOcjIiJ6DsZUZeNBBXKD05adZ0II2CWgx2tHm1PmCQsiIjpXGMCJiIiOwK0eF2TuVQ8kAASdEl7qdABofK51IiKis4CHCkREREfgZpeTc4E3QBdAm0PCtYjjtFeFiIjoxDGAExERHYGrESfCLgk2m43dqp/A+LtE3DKudThPeW2IiIhOHgM4ERHRc9ob12zDG71uTkd2AJdsw0TIAY9d4okKIiI6dxjAiYiInpMxjvk/GvHCzj3rE+kC6PDI+MqgBwDHfxMR0fnDwwQiIqIjcr3TiQsBhd3Q6xBCwGYD+n12/KU+92mvDhER0algACciIjoCRjf0v3bRx27odQgAAYeEz30avnmCgoiIziMGcCIioiNgdKf+qWEvBv12toJbCCEgBDDgt+PnJnwA2P2ciIjOJwZwIiKiIyKEQLtLxk+P+riDtRAAvIqE13pcCDplnpggIqJzi8cHRERER8Ro1f3quBfdXvnTVvBTXqlTZoTtXp+Mn5vwA2DrNxERnV8M4EREREdICIFOjx2/eiWAvZh5vhO4Mfb7a+M+XAgop706REREp4oBnIiI6AgZrbt//aIPn+12nevWXiEE7DYbrnc48YuX/OZ9RERE5xUDOBER0RETQsBll/DrLwXhks9nMTbjPXd5ZfzaCwE4ZenTqcjO7wkJIiIiBnAiIqIjZoz9fjnqxNevBk57dU6NV5Hw8xN+3OrZm3qM4ZuIiM47BnAiIqJjsdcC/KtXAvjykAf6OWoFF0JAkWz4fL+bXc+JiIgsGMCJiIiOgTEPuN8h4b9+uR1jQeVchFAhBCSbDZMhB/6L60H4FHY9JyIiMjCAExERHRMjhA+3KfitmyH0+OxnOoQb763DLeM3P/P4pAPDNxER0R4GcCIiomNkhM83et34h5/dC+FnsTu6EbQjbhm/9SPt+Gy367RXiYiIqOkwgBMREZ2Qz/W58bevB+GQzlZldCN8h5wS/v6rIfzYBU/V/URERLTHJs7SEQAREVETsgbRgqrj7bUi/u73d7GeUyG1eEA13lvQKeEf3QrhS4MeSJ92vWf4JiIiqsYATkREdAKsgVQIgbfXi/j1t+PYaOEQbryn8aCCX38piC8Nuhm+iYiInoIBnIiI6IRYg6kuBH6wWcL//HES31svwi61VmAVArDZgOsdDvzDW2GMBxXYJYZvIiKip2EAJyIiOkG1LeGLGRV/8CCDP5jKQNVbK7z+wqQfX78aQK/PDoBjvomIiA7CAE5ERHTCaoPqblHDm8sF/P7dFB4lK03dGi6EQNRjx3/1chB/ecCDNqdk3s/wTURE9HQM4ERERKfEGlrLmsBKVsUfTmXwBw8y0Jos0Aoh4FEk/MyoD1+/GkCnR4ZDZpdzIiKiw2AAJyIiOkW1ATZT1vFgt4x/9iCDf7eUb4pu6Zou8KODHvytqwFMhBwIONjqTURE9CwYwImIiJpAbYG2TFngYaKMf3o/g28v56GdcBAXQsBtl/DZHhe+fjWAiXYFAYfUshXbiYiImgEDOBERUZOobVHWhUC2IjCXrODby3m8uVLA/Z0yFPn4QrCmCwy1KfjqmBdfGfIg6rHDp9iqgrcAwBhORER0eAzgRERETaZeEK/oQLai4+5OCd9dLeK9zRIeJcqoHEHLuKoLXAo58Pl+N350wI3RoAK3XYJDQtVrs8s5ERHR82EAJyIialL1Aq8mBFR972fxoo4Pt0qYT1ewmFbxSbyM9ayKTEWv21VcFwIhl4xerx3j7QoG/HaMtSn4kW4n/A4JdpsNdgn7nsvgTUREdDQYwImIiFpAvRAshIAuAB2AEHsBW3x6XbIBuyUd6bKOiEuGV7FBCMBm2+s+LtlssNkACYBcZ9ozhm4iIqKjxwBORETUghoJyNZdfCOPZeAmIiI6XgzgREREZ1BtoGbAJiIiOn0M4EREREREREQn4P8HB0c3+D8JzaIAAAAASUVORK5CYII=;" vertex="1" parent="1">
          <mxGeometry x="1931.61" y="1461" width="276.39" height="129" as="geometry" />
        </mxCell>
        <mxCell id="90lTsXC68kQ85smlPDXi-48" value="" style="shape=curlyBracket;whiteSpace=wrap;html=1;rounded=1;labelPosition=left;verticalLabelPosition=middle;align=right;verticalAlign=middle;" vertex="1" parent="1">
          <mxGeometry x="1476" y="1386.12" width="20" height="246" as="geometry" />
        </mxCell>
        <mxCell id="90lTsXC68kQ85smlPDXi-49" value="" style="shape=image;html=1;verticalAlign=top;verticalLabelPosition=bottom;labelBackgroundColor=#ffffff;imageAspect=0;aspect=fixed;image=https://cdn4.iconfinder.com/data/icons/essential-app-1/16/dot-more-menu-hide-128.png;rotation=90;" vertex="1" parent="1">
          <mxGeometry x="1551.5" y="1513.12" width="35" height="35" as="geometry" />
        </mxCell>
        <mxCell id="90lTsXC68kQ85smlPDXi-51" value="" style="shape=image;verticalLabelPosition=bottom;labelBackgroundColor=default;verticalAlign=top;aspect=fixed;imageAspect=0;image=https://akm-img-a-in.tosshub.com/sites/dailyo//resources/202208/657-1200250822104925.jpeg;" vertex="1" parent="1">
          <mxGeometry x="1527.3899999999999" y="1590" width="97.61" height="55" as="geometry" />
        </mxCell>
        <mxCell id="90lTsXC68kQ85smlPDXi-52" value="" style="shape=image;verticalLabelPosition=bottom;labelBackgroundColor=default;verticalAlign=top;aspect=fixed;imageAspect=0;image=https://i.natgeofe.com/n/4b97d7b9-7de4-4a0f-beb0-c942ee226c0b/01-global-warming-gallery_16x9.jpg;" vertex="1" parent="1">
          <mxGeometry x="1521" y="1375" width="104" height="58.6" as="geometry" />
        </mxCell>
        <mxCell id="90lTsXC68kQ85smlPDXi-53" value="" style="shape=curlyBracket;whiteSpace=wrap;html=1;rounded=1;flipH=1;labelPosition=right;verticalLabelPosition=middle;align=left;verticalAlign=middle;" vertex="1" parent="1">
          <mxGeometry x="1647" y="1383.12" width="20" height="249" as="geometry" />
        </mxCell>
        <mxCell id="90lTsXC68kQ85smlPDXi-54" value="&lt;font style=&quot;font-size: 16px;&quot;&gt;&lt;b&gt;1.&lt;/b&gt;&lt;/font&gt;" style="text;html=1;align=center;verticalAlign=middle;resizable=0;points=[];autosize=1;strokeColor=none;fillColor=none;" vertex="1" parent="1">
          <mxGeometry x="1488" y="1401.12" width="31" height="31" as="geometry" />
        </mxCell>
        <mxCell id="90lTsXC68kQ85smlPDXi-55" value="&lt;font style=&quot;font-size: 16px;&quot;&gt;&lt;b&gt;2.&lt;/b&gt;&lt;/font&gt;" style="text;html=1;align=center;verticalAlign=middle;resizable=0;points=[];autosize=1;strokeColor=none;fillColor=none;" vertex="1" parent="1">
          <mxGeometry x="1488" y="1470.12" width="31" height="31" as="geometry" />
        </mxCell>
        <mxCell id="90lTsXC68kQ85smlPDXi-56" value="&lt;font style=&quot;font-size: 16px;&quot;&gt;&lt;b&gt;m.&lt;/b&gt;&lt;/font&gt;" style="text;html=1;align=center;verticalAlign=middle;resizable=0;points=[];autosize=1;strokeColor=none;fillColor=none;" vertex="1" parent="1">
          <mxGeometry x="1485" y="1604.12" width="37" height="31" as="geometry" />
        </mxCell>
        <mxCell id="90lTsXC68kQ85smlPDXi-58" value="" style="shape=image;verticalLabelPosition=bottom;labelBackgroundColor=default;verticalAlign=top;aspect=fixed;imageAspect=0;image=data:image/jpeg,/9j/4AAQSkZJRgABAQAAAQABAAD/2wCEAAoHCBYVFRgWFhYYGBgaGhwYGhwcHBwdHBwaGBoaGhgYGhocIS4lHB4rIRoYJjgnKy8xNTU1GiQ7QDs0Py40NTEBDAwMEA8QGBESHjQhGiE0NDQ0NDQ0NDQ0NDQ0NDQ0NDE0NDQ0NDQ0NDQ0NDQ0NDQ0NDQ0ND80NDQ0NDQ0NDQ0P//AABEIAKgBLAMBIgACEQEDEQH/xAAbAAACAwEBAQAAAAAAAAAAAAACAwABBAUGB//EADwQAAEDAgIIAwYEBQUBAQAAAAEAAhEDIQQxBRJBUWFxgZEiobETMlLB0fAUQuHxBhVTktJicoKiskMz/8QAGAEBAQEBAQAAAAAAAAAAAAAAAAECAwT/xAAgEQEBAQEBAAICAwEAAAAAAAAAARECIRJBMYETIlED/9oADAMBAAIRAxEAPwD0lFrRlzta++wCeXT+bpl8ljBRNPBd3NsNNp/M4citDCN88/2XOD0Yqncg3OpMdm1p5gI2UGDJrRyACxMrlMbikRtAGVoQvJ/Lq9SR6LKcUd47KhiTvHmg1gtE5XuVmrVNyS/EzYkIJQdGmbBWG3n1+W79FlZiQBB8gSUTsTYkedvkUDKtUtExrD/S2e91nGKH5abxaLNT24lvxSYyCgxM7xzj5IAo0GG+oAYEyBNxtgQCnBls+25J9uZ/b5qjiDvCDTqj7Ko6u1ZvxB3jslms74r74E+iuDW8SIFjsVCYvErG6o4/nPT9QkuDvjef7f8AFTB0i6Ep9UrGyRm4nnHyCEg7AOv6INXtioNZ2UlKY/eyeM2Wpjn5NYfvigxuqjbbnb90Tahi0LYzAvdcw3z9FdfAEXbfgc1dgwPqwdvZx9FftY4Xi8pzsI/4SrZg3nZHNQKDz9hA2sSTnbmO29HWoOZ7yzPe6QA2eMgAfNAb8Q4HLw7TPoBmhOKacpPdXdSUE15SC5sxN/kmlUQtACEJREISgTWNtvTNYix2+p2C6BQQg1BWEMq2u4Io2ogUDXHdHzRSsgpVygDlcoi+quEJdwngo13CPvggIKKSgqMDswDF7oGBLfTuSHESI5InE7I7fqilBQaIgied/VL1XDItjdq5dimylFh+J3l9FoWwvvJad3hi/dLqVt72DrEJmqfiPl9EZQZKeK1rB7RuJj/JbKeGcSPGwjf+5QxsCntH8PNEdBmGZ+Z88iAjFKlv81zhiH7m+f0QnEPn3WeamK6wFIfD1urOLYN3kuG5pfZ4YOQf6ghXT0cybub01vUlMNegZimbHDyRHFM+Id1xmYWiN0prcPTIsPUeqmGukcYz4glvxjd47rIMCw7J6qOwbdw7JkPTn6SYMnDuk/zVl/EEk0aY2joqbTZlPWFch6qtig+3iO6LJRbxCuoGg+EkoFBFSoqiVoWShcVJVFABO+OCoonFAUAuKFGUCAKT6u5vWPkE8uf8LD1P0RX2Kw0/coo2VHx+QdCULA+fE5sbg2PmjlLDXTOtbdA9UDpUlCgBkQC4RtgXjmCiGzf5qE7kLATYSfvlCcMO/d6LNsi4VrxnAm2aMlW/BF0EtmEtmFDMmQeSfKGUesq1lYw5JmHdzHZVicKSLhw2y2x7hNguVJWT8IwCBrf3ERy3LQ3Lb1J+a0gtZC95GyUpjHWN9sguyvwCS9jwYAeZOeuIHTOEG6VUpLA4eEkHrfbwRAnb6/ogphhxHi6uBHQSmys7mk5PI3wB2lIdVfM61r21CSOxRGuoCd/R0IWUeLv7iVzxjXmzTJ/2OA4nJaWYgg+ItyBmYvebQg1tYBkIUJCS2qHbjeM/0RljDmGnoCgdTJPuyeX6LU7DvcJMcuHosTarmkBohu2LJtXSIYBJddFH+Gdw7pzcASPeCThNIseYaZOZ+p3LoGqAMxO6VkYhgnTBgDfmnjRzfjPYK3VzsEpjKhOxBnq6OIHhdPCFlZhnEE5cDZdGpUjYe30Sxi3A2B7fVBjOEdwPVCcI/wCH0XQ/Fu3BBUxrxsCejmPpuGYKU4LfU0g431esH1WN9TXdlJ6q+mlFDqnitrWvFwyP+N0JdU4qmkhEgCH2AkkeEnaLH9f0RTHNO8jhb5hVU1vylo5gn0IVMpxmXHmeEbIVspgWFuSIukHR4i0ngCB2JK10KUiXdAsj2A/ZWumbchC592yeNczaa+qBYWHDaqbUlYq74CttawXn/Lo3B8KxilzTiLfexAcRfn9/RB06mIJyR4aqTMmbwudUqEDklaKxQe9wOYIPqPopN1fp2auFDhOR+81z32mdi2vxULlB7xJOs/WcTs8ItDV34t/Dl1Dtcff6q/aDeO6zvrwDLHR/x+qOg9pFgBti0+S7MmNfP3ZQPvCplMNmABNzG9RrADYATnZBbieakqOdH39EIqIKdJyPqED9YZNHfb15BNUQIaHzcSDt3cTf5KMouGRZ/YR3h109A58W+R9QERkq0Kl4c2+4ubHLNDh6VZubmnfeQeVpW5rpAOX3xARJphBY+ZlotaA4X43uExjXl1zIi14PG5REoSeIQbmYqB7vmFT8ZcD2bjIi2QHeyxMqzIBysVbnFTFLxOIePca7PLwn5hYxpGq1wD4aSCfy5cLlaatYgxEjb70xwhpnur1pzb1gR538lUE3GON2Okf7QfnZW7H1JvBGzwknjyQueGjIwNzT5AC6CjiA/IPH+5rm/wDoIDGPq6xDWNDbwSAO8FBiMdVn3BwiTI5iYujDtkHsqk7j2j1RVN0i9okXvlD4jflmp/ND8P8A0d9EFSqBn8ko4hvFBtCILsN0Uze7y+in8pZ8TvL6KbGschUSu2zRrQDeeYSn6JvZwA3QfqmpjiBzyJAa07nX82lbMPMQYnhl0Wo6Kf8AE3z+itmjngz4e5+iz1lhPK5GJ2rCyveBePlkuziaea5uj8LrVXNAkkSvP8f7Y6b4S6odn3mgwTHuqAmzW38rDv6L0TNEO3NHX6BKr4fUMGMptxV64sJ0w4x8Beew9cisYJA91xBgwczOyPkujpHE5kboCD+GNGe1cSRaDMiRfZHGfVJPUt8Fgaj6ryWvdqiRE2g5OjabLtaotwyWjCfw4ygzUpDVEkwSTcmcySdqI6PqfD5j6rvzJGLWVRav5fU+Hzb9VDo+p8I/uC1qMqpOfhag/wDm53LV+bgr/CVZgMPMloE34z+6oQpKZT0fiPztYOTjl2zQYzR1WDqz/wASwEf3/d0CqzNYRrFvERPmCibYDbxWdzHzqua5vHWBPfsjey0eLoYPeUQ6VRSBVDgbOGza0+cFUxjRJDjvz+nRA6zRsAV62xIZiWEOiTGYgz2KMVmmPEL5XG3YgbKpA+CIPrCW6o0W14jZInzRT0LncEEGLE87KtcZ6w3Z7dyBhKEv59igbqiw57dqsxx739UBOAOaotERAjdFuykqmtDRYAcoCC8oIcWxugeoTPxD/jf/ANfollCUC6zdb33Fw3OjV5kQg9sz4m9wkvqP1tX2YLSLnXkeY8oS9Q/0Wd2/4oPfBysOSPxLd6o4pu9YaadZTWWf8S1C7FNGZhMGvWCE1Aue/SVMZvaOoVU8cx/ukO5X6JhpOPI1rRBv1XFZWfTqh7G61oI79816F2o7NrTzhD+Gp7gud4tur8piYDTTahI1HsjaR4ZtYHbms2mRILmmTu4LWzDMAgWHAKPwjDtWrNmJK8uKLXUqgPv2LbwYGtJG/Z5Lofwvi6bGFpe1riRnw2d57ra/Q9M31yOyTT0Jhg4OAGsNpAMnOb2zAPQKc8WerbHoA871eueCwMawD3z5fRKdWpjOo49W/Rbxl1ddUavELi1MZQ21dke+BHHmuViXUCQ4VnOFpbrkgxt68FZymvWOxDRmR3SHaRpjN7e4XmBiMMZ1qL+Y14N9kFXq4QiQ2DuIcfLNXDXefp2iPzt7rBi9NMeC1jDV36to3eK0TwWClSpumGWG9pAPKUVTXBhgYG8ZF+iZE2tDRb7twVFZqJq63j1NX/TrTPVaFVUHT9/VU3KJn74Iilim2SYub3vw25dEBlv3uUhCabbGBbK2XLdkOytAp5YSCS0lu+LHLojERz3X80l2CpkkljJNydUX570wMDRDWi2QEAfoiFU6TvEC8OEmAW5DYJnxRvTWsIgk32wAAfU+aHXf8H/YJoQULbO37IXHbB++EqyTw7/oqMnMDvt7IpbHudsLQDBDgJOVwQ6wz+83ShGtOyOs/eSF+v8Al1es58ggNyBzo3oYfIlzQNoAJmx2k742Ki10ZtnfqmOFpQC3EtJgST/tdHeIVh03+Sp4fA8TZm51TEbYGtbusz6LyZD6cbJpknvrj0QekOkqI/N3hWzH0drhe4yXljoITdw7mVpZomkMwSpkX118Vp6mxwaCDyJKpmmWk21ncmlc5+Ap2gER95rSDsTxPWmppWRem89B81gp0n56727gIy4yDdPlUShjLXL2n/8AV5t/p+iysxjy8N9pUkzkW24xCbiXmTf6rmYC9eCTZuYkb9y5fK618Zjsaj5j29Ty+QS8Q5zGy6vVdyhbQROaw4+nJ5hdOusmxJCKBY8Fxr1WxAOsSM7DJam6HZY+0eZvOub8QV5jGMLQ4dU/+F8bqu1DkbfT74rM7u+reY9J/KKe17z/AMnIRomkNhPP6raoumsZGZmApj8gT2MDcgAiVEoClDCkqSiqLeJ+/NCWDK/c+qJRBEuvh2v94E7MyPQ8EaiAadNrRAyzuSfVGqUQQqKSpCCKSmjDvInVd2KA03bj2KAJURah3Hhb0VOCClFCFYaYmLIF6jZnVE74E/eaJE2m45NJ6FM/Cv8AgKDNqiZgTv27s1Ct7NHyLujoqfo52xw6yFNHOcwHMDdkqXQGjHna0d/oj/lR+Mdk1cYQVYKWCjBVByohlXKIuUFV8IpWas+XRuHHbO1Y6uRrn8udialyuVTLmv1wuriGJLaHhyXn+2/pmfiXC/yTMJji54Y47Lc93qjOH4JRwviB2ggpQzHsGfRcKnTLKljttn9F6WsJC52E0dr1DOQE9SbKzox09CaWe/WFRpYZgTeey7krz79EkO1g8jOQIE8V09H1SQWkyWmP3Xo561zsbZUlDKkrSClVKqVCUFyqlVKqUBSpKGVJQFKS/FPY7w0g8RvFjO49O6ZKgciNeG0k1w8dPUflGrregXRo4gwC0WO4R1hedJrNuyqRthwBHJM/meJGxh47+hUxdel9o470Yedy82zTFYe9TB3xu6JjdPx7zHjop8aa9DrH7KomcxK4jf4gpHMubzaVpo6Xouye309VcXY6RcTsnsq1uCSzEsP5gj9qzeFAUnchc6VDWZvB6oBVYdyCe04KjVG5R1Rm9ZzWYdvmga7EBB+JH3CA1Al+0HwhBxhUabSDvE90wLl0NKNfkNsZg+hWv8UAAXw2Yi8zPQLRrWCrlYm4oa0a7OA27bEzmnNrNJIn02+aI0She0EXXMfi6niDaZLhs1vDlJh2Z7LdRa5w8TQHbgS4c5gKdTZiyk1qXJCxi0sAmLE8jsWhlEkCGm+UA37Ljf8An/jWsXsgdiH8Kdy3ikdx7FMbSfsa49CpOL9reo5VSgQBZVhaPiJFssuC7tLRz3s1ha8QbG226dT0O8C5bO6foFP47KfJhgRdIZRa1znARrZ9E/FUn0xLmOje1pdw/LKSx4IB9bHqF255xm0ZKHXCpz+Ij7/VWD+62yhqBUXhWSqCCtfddUx82Ig7pnzRShhEGUthJmQANkGe/wB7UUoHADP1RTFEDSOPmoHSiCLR9kq0JPNSUUUqShKiAiUp+HY7NjT0CNSUCxrtsxwa2wAzgbY/dSjSqE6obr8S5w3cbbUaFukalN5DKZfIFwPnsRG46HeGSAA/4dc9pSquG1I12uuJ8Jc7mLJr9KYhsOdRsYyc0xOwwbLoYWo94DnQ0EZCSf0U2rkc1tOmWyA07YLj9U2nhaZuWtnmfUq9I6OfdzBPFoh0nORkea44OJaTJPVjfORmqjq1KNMAeAGTvj1QjDM+Edx9FyX0a5uQXdR6TZaaeArkTccJU/a/p2P5bT+F3dKqaDw7veZ5/crtAcFA7gFNacnDaHwzJLWapO2bjkmjRVKZknnB+S6UjcExrxwTUxyXaJpzrQyYj3MxuN7haG4Y5B5A3ARbuuhrhVITTGIYb/W5AcOf6n33XQ1gqgb00xg9g7ZUPb9VX4d/9U9lvgKQN5TTGei1zZGtrc0xz3ItUbyrLAgT7d25Z6lFrs6Y7AZ8lu1G7lXsWbvMpo8jiNB1HDwB7RcjxgQNjZmZ5yiFKo1pnD1YtfXaXRwAvsvtuvWewbx7lQU4V+Rjw7q4BMmu2Js5jduUmFWHx1Jstc54fAJJZF7iYbvhetxuj2VY12B0dD3CwH+GqEglr5BkEPII4W2K7EyvPNx5LtVhDyLmQ5gAgZEtvyWplVx3ZTvv0sR5rr4j+HKZdrAvGUiZBjbzyuuZj8M+mNZ4tMS0iBmQTfgmxMWBtv8AJC4CZgE5bJ5LA7SbG2mb8Z5i106nimPJBgRFiRM55brqmtTiYNvOJ6qmDgB525pVXFsY3Wc4RlIv6LFiNO0mbXHkPn95IbHRa5xzAHW/DYo8G0HbfiPkudS05QeB44LjABsZnI7lT9OUGuLS6DOwEgk5wRnG1MNjpjK6S7Fi8BxjPwvHOPDdNY8OAIyNxmLcirUFa9p+R9FeuIlRSUVJSq9PWycWkbQd8fQIntJiDHQX4XUbO0g9I+aBJxOIZBL2hsxMSRNpK6uG0rS2vM5XIid4+9q5dUxeHEm0AmN19m1U3BMcI1B8++1B6QaXp7HCd0/VKxWJY8SQCAc5vb1XAdodgOcTxSazKjPC15gWHi7bPJTIeuzTxFHO9tni9FrGkWcey8ZWqVoIJcOLdXvYSsJp1f6r+zv8lcTa+oCumCqoostja9GHcFFFAY5KQNyiiCwBuVgBRRBWqEDqQ3qKIKFPj6q3MA2q1EHOx+kW0om87rrENNk+4xxO+0RtzvZUotT8Mfan6feJik6NhJaJSH6frxal5/oqUTIrJU/iDE/00r+f4qR4ByuOsqKLWREbpXGH8jSfON+YWWvjsSSPaa7WzcMZJMbDcq1FBroVGvBhjhcHxNLbjI3zVVWEu92d53DgZHUKKIqxScD71txuM85z80RZl4Wnyz3CCooiIykB+VokXt2CNrQBAsFFEFpT2PkEPAG0askm22bbe6iiKO/CFaiiClnxFHXjxvZHwkCecgq1EBAZXNuPqgqF14sdhmD/AOTCpRAD6pAl2s4xeAXG3IZ9Fjw2K9oXQHt1SILmFvMeLO42KKIHvYD7wDuYB+SYx7AI1G9gPKFFEH//2Q==;" vertex="1" parent="1">
          <mxGeometry x="1521" y="1441" width="103.57" height="58" as="geometry" />
        </mxCell>
        <mxCell id="90lTsXC68kQ85smlPDXi-60" value="&lt;font style=&quot;font-size: 16px;&quot;&gt;&lt;b&gt;Reordered Suggestions&lt;/b&gt;&lt;/font&gt;" style="text;html=1;align=center;verticalAlign=middle;resizable=0;points=[];autosize=1;strokeColor=none;fillColor=none;" vertex="1" parent="1">
          <mxGeometry x="1474.28" y="1655" width="198" height="31" as="geometry" />
        </mxCell>
        <mxCell id="90lTsXC68kQ85smlPDXi-62" value="" style="shape=flexArrow;endArrow=classic;html=1;rounded=0;strokeColor=#000000;strokeWidth=1;fontColor=#009900;fillColor=#000000;startArrow=block;" edge="1" parent="1">
          <mxGeometry width="50" height="50" relative="1" as="geometry">
            <mxPoint x="1856" y="1513" as="sourcePoint" />
            <mxPoint x="1743" y="1513.12" as="targetPoint" />
          </mxGeometry>
        </mxCell>
        <mxCell id="90lTsXC68kQ85smlPDXi-65" value="&lt;font style=&quot;font-size: 16px;&quot;&gt;&lt;b&gt;Learning-based&lt;br&gt;Recommendation Engine&lt;/b&gt;&lt;/font&gt;" style="text;html=1;align=center;verticalAlign=middle;resizable=0;points=[];autosize=1;strokeColor=none;fillColor=none;fontColor=#000000;" vertex="1" parent="1">
          <mxGeometry x="1976" y="1604.12" width="210" height="50" as="geometry" />
        </mxCell>
      </root>
    </mxGraphModel>
  </diagram>
</mxfile>
